ISO-10303-21;
HEADER;
FILE_DESCRIPTION (( 'STEP AP214' ),
    '1' );
FILE_NAME ('8-13.40 Cover.STEP',
    '2021-03-20T14:51:05',
    ( '' ),
    ( '' ),
    'SwSTEP 2.0',
    'SolidWorks 2018',
    '' );
FILE_SCHEMA (( 'AUTOMOTIVE_DESIGN' ));
ENDSEC;

DATA;
#1 = DIRECTION ( 'NONE',  ( 0.000000000000000000, 0.000000000000000000, -1.000000000000000000 ) ) ;
#2 = UNCERTAINTY_MEASURE_WITH_UNIT (LENGTH_MEASURE( 1.000000000000000082E-05 ), #68, 'distance_accuracy_value', 'NONE');
#3 = SURFACE_SIDE_STYLE ('',( #1074 ) ) ;
#4 =( NAMED_UNIT ( * ) PLANE_ANGLE_UNIT ( ) SI_UNIT ( $, .RADIAN. ) );
#5 = COLOUR_RGB ( '',0.05490196078431372473, 0.05490196078431372473, 0.06274509803921568540 ) ;
#6 = EDGE_LOOP ( 'NONE', ( #775, #657, #52 ) ) ;
#7 = CARTESIAN_POINT ( 'NONE',  ( 5.706835791625199938, 2.000000000000000000, 4.646175619845379856 ) ) ;
#8 = LINE ( 'NONE', #494, #806 ) ;
#9 = EDGE_LOOP ( 'NONE', ( #849, #187, #1113, #1228, #1122, #238, #984 ) ) ;
#10 = ADVANCED_FACE ( 'NONE', ( #344 ), #1302, .F. ) ;
#11 = STYLED_ITEM ( 'NONE', ( #1252 ), #150 ) ;
#12 = STYLED_ITEM ( 'NONE', ( #542 ), #372 ) ;
#13 = SURFACE_SIDE_STYLE ('',( #87 ) ) ;
#14 = LINE ( 'NONE', #625, #29 ) ;
#15 = SURFACE_SIDE_STYLE ('',( #609 ) ) ;
#16 = CARTESIAN_POINT ( 'NONE',  ( 2.000000001515298553, 5.780823484041840210, 4.423928457083685650 ) ) ;
#17 = CARTESIAN_POINT ( 'NONE',  ( 10.45133889066674904, 7.806206640413464903, 11.51199906244657356 ) ) ;
#18 = DIRECTION ( 'NONE',  ( 0.000000000000000000, 0.000000000000000000, -1.000000000000000000 ) ) ;
#19 = CARTESIAN_POINT ( 'NONE',  ( 2.000000000000000000, 40.00000000000000000, 2.000000000000000000 ) ) ;
#20 = DIRECTION ( 'NONE',  ( 0.4082040559113554457, -0.8165408118857488962, 0.4082040559113554457 ) ) ;
#21 = EDGE_LOOP ( 'NONE', ( #450, #747, #877 ) ) ;
#22 = FILL_AREA_STYLE_COLOUR ( '', #1250 ) ;
#23 = VECTOR ( 'NONE', #816, 1000.000000000000114 ) ;
#24 = ORIENTED_EDGE ( 'NONE', *, *, #110, .T. ) ;
#25 = ORIENTED_EDGE ( 'NONE', *, *, #138, .T. ) ;
#26 = VECTOR ( 'NONE', #1299, 1000.000000000000000 ) ;
#27 =( NAMED_UNIT ( * ) SI_UNIT ( $, .STERADIAN. ) SOLID_ANGLE_UNIT ( ) );
#28 = MECHANICAL_DESIGN_GEOMETRIC_PRESENTATION_REPRESENTATION (  '', ( #981 ), #909 ) ;
#29 = VECTOR ( 'NONE', #610, 1000.000000000000114 ) ;
#30 = ADVANCED_FACE ( 'NONE', ( #928 ), #455, .T. ) ;
#31 =( LENGTH_UNIT ( ) NAMED_UNIT ( * ) SI_UNIT ( .MILLI., .METRE. ) );
#32 =( GEOMETRIC_REPRESENTATION_CONTEXT ( 3 ) GLOBAL_UNCERTAINTY_ASSIGNED_CONTEXT ( ( #667 ) ) GLOBAL_UNIT_ASSIGNED_CONTEXT ( ( #1116, #815, #189 ) ) REPRESENTATION_CONTEXT ( 'NONE', 'WORKASPACE' ) );
#33 = FILL_AREA_STYLE_COLOUR ( '', #300 ) ;
#34 = CARTESIAN_POINT ( 'NONE',  ( 0.7011660516063882298, 1.349086480087813289, 1.349086480087815509 ) ) ;
#35 = PLANE ( 'NONE',  #132 ) ;
#36 =( LENGTH_UNIT ( ) NAMED_UNIT ( * ) SI_UNIT ( .MILLI., .METRE. ) );
#37 = EDGE_CURVE ( 'NONE', #640, #1107, #714, .T. ) ;
#38 = ORIENTED_EDGE ( 'NONE', *, *, #692, .T. ) ;
#39 = ORIENTED_EDGE ( 'NONE', *, *, #181, .F. ) ;
#40 = VERTEX_POINT ( 'NONE', #1296 ) ;
#41 = ORIENTED_EDGE ( 'NONE', *, *, #1317, .T. ) ;
#42 = FACE_OUTER_BOUND ( 'NONE', #685, .T. ) ;
#43 = CARTESIAN_POINT ( 'NONE',  ( 2.000000000000000000, 5.706835791625199938, 4.646175619845370086 ) ) ;
#44 = STYLED_ITEM ( 'NONE', ( #435 ), #1254 ) ;
#45 = SURFACE_STYLE_FILL_AREA ( #1004 ) ;
#46 = CARTESIAN_POINT ( 'NONE',  ( 19.41785194260259928, 23.12397972306555261, 22.06331955128569788 ) ) ;
#47 = UNCERTAINTY_MEASURE_WITH_UNIT (LENGTH_MEASURE( 1.000000000000000082E-05 ), #126, 'distance_accuracy_value', 'NONE');
#48 = DIRECTION ( 'NONE',  ( -0.7071067811865474617, 0.7071067811865474617, 0.000000000000000000 ) ) ;
#49 = DIRECTION ( 'NONE',  ( 1.000000000000000000, 0.000000000000000000, 0.000000000000000000 ) ) ;
#50 = DIRECTION ( 'NONE',  ( -0.8165408118857488962, 0.4082040559113554457, 0.4082040559113554457 ) ) ;
#51 = B_SPLINE_CURVE_WITH_KNOTS ( 'NONE', 3,
 ( #7, #313, #424, #1022 ),
 .UNSPECIFIED., .F., .F.,
 ( 4, 4 ),
 ( 0.000000000000000000, 0.3163787414107083751 ),
 .UNSPECIFIED. ) ;
#52 = ORIENTED_EDGE ( 'NONE', *, *, #468, .T. ) ;
#53 = CARTESIAN_POINT ( 'NONE',  ( 7.806206658033923773, 10.45133882911613021, 11.51199910637453350 ) ) ;
#54 =( GEOMETRIC_REPRESENTATION_CONTEXT ( 3 ) GLOBAL_UNCERTAINTY_ASSIGNED_CONTEXT ( ( #304 ) ) GLOBAL_UNIT_ASSIGNED_CONTEXT ( ( #254, #1274, #1061 ) ) REPRESENTATION_CONTEXT ( 'NONE', 'WORKASPACE' ) );
#55 = VERTEX_POINT ( 'NONE', #19 ) ;
#56 = EDGE_LOOP ( 'NONE', ( #699, #905, #352, #875, #93, #249, #184, #810, #616, #1276 ) ) ;
#57 = CYLINDRICAL_SURFACE ( 'NONE', #1056, 3.500000000000054623 ) ;
#58 = VERTEX_POINT ( 'NONE', #543 ) ;
#59 = FILL_AREA_STYLE ('',( #369 ) ) ;
#60 = VECTOR ( 'NONE', #784, 1000.000000000000000 ) ;
#61 = CARTESIAN_POINT ( 'NONE',  ( 0.000000000000000000, 0.000000000000000000, 40.00000000000000000 ) ) ;
#62 = CARTESIAN_POINT ( 'NONE',  ( 27.56321554319270462, 31.09874944912530026, 29.32621577394569812 ) ) ;
#63 = CYLINDRICAL_SURFACE ( 'NONE', #488, 2.500000000000253131 ) ;
#64 =( GEOMETRIC_REPRESENTATION_CONTEXT ( 3 ) GLOBAL_UNCERTAINTY_ASSIGNED_CONTEXT ( ( #127 ) ) GLOBAL_UNIT_ASSIGNED_CONTEXT ( ( #98, #704, #1007 ) ) REPRESENTATION_CONTEXT ( 'NONE', 'WORKASPACE' ) );
#65 =( NAMED_UNIT ( * ) PLANE_ANGLE_UNIT ( ) SI_UNIT ( $, .RADIAN. ) );
#66 = CARTESIAN_POINT ( 'NONE',  ( 2.969074090677687128, 5.711917264400450556, 2.000000000000000000 ) ) ;
#67 = EDGE_CURVE ( 'NONE', #329, #232, #336, .T. ) ;
#68 =( LENGTH_UNIT ( ) NAMED_UNIT ( * ) SI_UNIT ( .MILLI., .METRE. ) );
#69 = EDGE_CURVE ( 'NONE', #878, #723, #487, .T. ) ;
#70 = CARTESIAN_POINT ( 'NONE',  ( 0.000000000000000000, 0.000000000000000000, 40.00000000000000000 ) ) ;
#71 = MECHANICAL_DESIGN_GEOMETRIC_PRESENTATION_REPRESENTATION (  '', ( #695 ), #895 ) ;
#72 = ADVANCED_FACE ( 'NONE', ( #441 ), #1272, .F. ) ;
#73 = ORIENTED_EDGE ( 'NONE', *, *, #37, .T. ) ;
#74 = CIRCLE ( 'NONE', #585, 2.499999999999897859 ) ;
#75 = PRESENTATION_STYLE_ASSIGNMENT (( #982 ) ) ;
#76 = ORIENTED_EDGE ( 'NONE', *, *, #246, .F. ) ;
#77 = VECTOR ( 'NONE', #425, 1000.000000000000000 ) ;
#78 = CARTESIAN_POINT ( 'NONE',  ( 23.12397972306555261, 19.41785194260259928, 22.06331955128575117 ) ) ;
#79 =( GEOMETRIC_REPRESENTATION_CONTEXT ( 3 ) GLOBAL_UNCERTAINTY_ASSIGNED_CONTEXT ( ( #1264 ) ) GLOBAL_UNIT_ASSIGNED_CONTEXT ( ( #733, #923, #835 ) ) REPRESENTATION_CONTEXT ( 'NONE', 'WORKASPACE' ) );
#80 = DIRECTION ( 'NONE',  ( -0.5773815451999810833, -0.5773815451999810833, -0.5772877120855460786 ) ) ;
#81 = CARTESIAN_POINT ( 'NONE',  ( 5.818376618407132383, 2.000000000000000000, 3.908553007786317313 ) ) ;
#82 = CARTESIAN_POINT ( 'NONE',  ( 0.000000000000000000, 40.00000000000000000, 40.00000000000000000 ) ) ;
#83 = PRESENTATION_LAYER_ASSIGNMENT (  '', '', ( #227 ) ) ;
#84 = EDGE_LOOP ( 'NONE', ( #24, #844, #198, #761, #1141 ) ) ;
#85 =( LENGTH_UNIT ( ) NAMED_UNIT ( * ) SI_UNIT ( .MILLI., .METRE. ) );
#86 = DIRECTION ( 'NONE',  ( 0.5773815451999810833, 0.5773815451999810833, 0.5772877120855461897 ) ) ;
#87 = SURFACE_STYLE_FILL_AREA ( #1229 ) ;
#88 = ORIENTED_EDGE ( 'NONE', *, *, #341, .F. ) ;
#89 = DIRECTION ( 'NONE',  ( 0.7071067811865475727, -0.7071067811865475727, 0.000000000000000000 ) ) ;
#90 = ORIENTED_EDGE ( 'NONE', *, *, #1316, .F. ) ;
#91 = FACE_OUTER_BOUND ( 'NONE', #21, .T. ) ;
#92 = LINE ( 'NONE', #1038, #204 ) ;
#93 = ORIENTED_EDGE ( 'NONE', *, *, #629, .T. ) ;
#94 = CARTESIAN_POINT ( 'NONE',  ( 28.22883154519849924, 28.22883154519849924, 31.53087596603700149 ) ) ;
#95 = PRESENTATION_STYLE_ASSIGNMENT (( #99 ) ) ;
#96 = PLANE ( 'NONE',  #820 ) ;
#97 = AXIS2_PLACEMENT_3D ( 'NONE', #243, #446, #1041 ) ;
#98 =( LENGTH_UNIT ( ) NAMED_UNIT ( * ) SI_UNIT ( .MILLI., .METRE. ) );
#99 = SURFACE_STYLE_USAGE ( .BOTH. , #1315 ) ;
#100 = AXIS2_PLACEMENT_3D ( 'NONE', #375, #1282, #682 ) ;
#101 = UNCERTAINTY_MEASURE_WITH_UNIT (LENGTH_MEASURE( 1.000000000000000082E-05 ), #297, 'distance_accuracy_value', 'NONE');
#102 = DIRECTION ( 'NONE',  ( -0.4082040559113554457, -0.4082040559113554457, 0.8165408118857488962 ) ) ;
#103 = VERTEX_POINT ( 'NONE', #271 ) ;
#104 = PRESENTATION_STYLE_ASSIGNMENT (( #1003 ) ) ;
#105 = CIRCLE ( 'NONE', #669, 2.500000000000609290 ) ;
#106 = EDGE_LOOP ( 'NONE', ( #974, #120, #90, #136, #326, #906, #171, #731, #118, #1138 ) ) ;
#107 = PRESENTATION_STYLE_ASSIGNMENT (( #701 ) ) ;
#108 = FILL_AREA_STYLE_COLOUR ( '', #1044 ) ;
#109 = CARTESIAN_POINT ( 'NONE',  ( 5.818135312349387078, 1.999758693942254695, 3.331660179248249420 ) ) ;
#110 = EDGE_CURVE ( 'NONE', #1107, #1040, #1147, .T. ) ;
#111 = ADVANCED_FACE ( 'NONE', ( #903 ), #1203, .T. ) ;
#112 = CARTESIAN_POINT ( 'NONE',  ( 40.00000000000000000, 2.000000000000000000, 40.00000000000000000 ) ) ;
#113 = PRODUCT_DEFINITION ( 'UNKNOWN', '', #1155, #527 ) ;
#114 = FILL_AREA_STYLE ('',( #886 ) ) ;
#115 = CARTESIAN_POINT ( 'NONE',  ( 40.00000000000000000, 0.000000000000000000, 40.00000000000000000 ) ) ;
#116 = CARTESIAN_POINT ( 'NONE',  ( 3.500000000000055067, 40.00000000000000000, 3.500000000000055067 ) ) ;
#117 = CARTESIAN_POINT ( 'NONE',  ( 19.41902060485260151, 22.06273531512325192, 23.12339548690304980 ) ) ;
#118 = ORIENTED_EDGE ( 'NONE', *, *, #1021, .T. ) ;
#119 = DIRECTION ( 'NONE',  ( 0.5773815451999811943, 0.5773815451999811943, 0.5772877120855457456 ) ) ;
#120 = ORIENTED_EDGE ( 'NONE', *, *, #338, .T. ) ;
#121 = SURFACE_STYLE_USAGE ( .BOTH. , #523 ) ;
#122 = LINE ( 'NONE', #955, #332 ) ;
#123 = STYLED_ITEM ( 'NONE', ( #107 ), #650 ) ;
#124 = ORIENTED_EDGE ( 'NONE', *, *, #317, .T. ) ;
#125 =( NAMED_UNIT ( * ) PLANE_ANGLE_UNIT ( ) SI_UNIT ( $, .RADIAN. ) );
#126 =( LENGTH_UNIT ( ) NAMED_UNIT ( * ) SI_UNIT ( .MILLI., .METRE. ) );
#127 = UNCERTAINTY_MEASURE_WITH_UNIT (LENGTH_MEASURE( 1.000000000000000082E-05 ), #98, 'distance_accuracy_value', 'NONE');
#128 = DIRECTION ( 'NONE',  ( 0.000000000000000000, 0.000000000000000000, -1.000000000000000000 ) ) ;
#129 = PRESENTATION_LAYER_ASSIGNMENT (  '', '', ( #998 ) ) ;
#130 = ADVANCED_FACE ( 'NONE', ( #939 ), #841, .F. ) ;
#131 = SURFACE_SIDE_STYLE ('',( #896 ) ) ;
#132 = AXIS2_PLACEMENT_3D ( 'NONE', #856, #1140, #548 ) ;
#133 = PRESENTATION_LAYER_ASSIGNMENT (  '', '', ( #626 ) ) ;
#134 = CARTESIAN_POINT ( 'NONE',  ( 7.805817086503553881, 11.51241722137055845, 10.45175704959073215 ) ) ;
#135 = EDGE_CURVE ( 'NONE', #502, #1180, #783, .T. ) ;
#136 = ORIENTED_EDGE ( 'NONE', *, *, #754, .F. ) ;
#137 = FILL_AREA_STYLE ('',( #535 ) ) ;
#138 = EDGE_CURVE ( 'NONE', #502, #1096, #495, .T. ) ;
#139 = ORIENTED_EDGE ( 'NONE', *, *, #67, .F. ) ;
#140 = VECTOR ( 'NONE', #295, 1000.000000000000114 ) ;
#141 = COLOUR_RGB ( '',0.05490196078431372473, 0.05490196078431372473, 0.06274509803921568540 ) ;
#142 = DIRECTION ( 'NONE',  ( 0.5773815451999810833, 0.5773815451999810833, 0.5772877120855459676 ) ) ;
#143 = MECHANICAL_DESIGN_GEOMETRIC_PRESENTATION_REPRESENTATION (  '', ( #227 ), #730 ) ;
#144 = PRESENTATION_STYLE_ASSIGNMENT (( #456 ) ) ;
#145 = ORIENTED_EDGE ( 'NONE', *, *, #1087, .T. ) ;
#146 = B_SPLINE_CURVE_WITH_KNOTS ( 'NONE', 3,
 ( #665, #576, #1263, #1066 ),
 .UNSPECIFIED., .F., .F.,
 ( 4, 4 ),
 ( 0.000000000000000000, 0.5629604085958704873 ),
 .UNSPECIFIED. ) ;
#147 = PRESENTATION_STYLE_ASSIGNMENT (( #354 ) ) ;
#148 = CARTESIAN_POINT ( 'NONE',  ( 0.000000000000000000, 0.000000000000000000, 2.000000000000000000 ) ) ;
#149 = CARTESIAN_POINT ( 'NONE',  ( 21.00600155006919678, 21.53283166079100042, 22.06666172184899821 ) ) ;
#150 = ADVANCED_FACE ( 'NONE', ( #208 ), #63, .T. ) ;
#151 = UNCERTAINTY_MEASURE_WITH_UNIT (LENGTH_MEASURE( 1.000000000000000082E-05 ), #327, 'distance_accuracy_value', 'NONE');
#152 = FILL_AREA_STYLE_COLOUR ( '', #141 ) ;
#153 = FILL_AREA_STYLE ('',( #653 ) ) ;
#154 = PLANE ( 'NONE',  #403 ) ;
#155 = STYLED_ITEM ( 'NONE', ( #272 ), #130 ) ;
#156 = CARTESIAN_POINT ( 'NONE',  ( 40.00000000000000000, 0.000000000000000000, 40.00000000000000000 ) ) ;
#157 = ORIENTED_EDGE ( 'NONE', *, *, #1051, .T. ) ;
#158 = ORIENTED_EDGE ( 'NONE', *, *, #341, .T. ) ;
#159 = CARTESIAN_POINT ( 'NONE',  ( 1.349086480087812179, 1.349086480087815509, 0.7011660516063888959 ) ) ;
#160 = ORIENTED_EDGE ( 'NONE', *, *, #1291, .T. ) ;
#161 = ORIENTED_EDGE ( 'NONE', *, *, #241, .T. ) ;
#162 = CARTESIAN_POINT ( 'NONE',  ( 35.10479794815880439, 35.10479794815880439, 35.09909289480114580 ) ) ;
#163 =( GEOMETRIC_REPRESENTATION_CONTEXT ( 3 ) GLOBAL_UNCERTAINTY_ASSIGNED_CONTEXT ( ( #556 ) ) GLOBAL_UNIT_ASSIGNED_CONTEXT ( ( #389, #288, #294 ) ) REPRESENTATION_CONTEXT ( 'NONE', 'WORKASPACE' ) );
#164 = B_SPLINE_CURVE_WITH_KNOTS ( 'NONE', 3,
 ( #872, #590, #1275, #479, #679, #774 ),
 .UNSPECIFIED., .F., .F.,
 ( 4, 2, 4 ),
 ( 0.000000000000000000, 1.500000000000000000, 3.000000000000000000 ),
 .UNSPECIFIED. ) ;
#165 = PRESENTATION_STYLE_ASSIGNMENT (( #1127 ) ) ;
#166 = CARTESIAN_POINT ( 'NONE',  ( 0.000000000000000000, 0.5303300858899130388, -0.5303300858899130388 ) ) ;
#167 = SURFACE_STYLE_USAGE ( .BOTH. , #874 ) ;
#168 = CARTESIAN_POINT ( 'NONE',  ( 21.53283166079100042, 21.00600155006919678, 22.06666172184899821 ) ) ;
#169 =( LENGTH_UNIT ( ) NAMED_UNIT ( * ) SI_UNIT ( .MILLI., .METRE. ) );
#170 = CARTESIAN_POINT ( 'NONE',  ( 0.000000000000000000, 3.500000000000000000, 3.500000000000000000 ) ) ;
#171 = ORIENTED_EDGE ( 'NONE', *, *, #194, .F. ) ;
#172 = LINE ( 'NONE', #768, #263 ) ;
#173 = ORIENTED_EDGE ( 'NONE', *, *, #1020, .F. ) ;
#174 = FILL_AREA_STYLE_COLOUR ( '', #291 ) ;
#175 = VECTOR ( 'NONE', #324, 1000.000000000000000 ) ;
#176 = FILL_AREA_STYLE_COLOUR ( '', #660 ) ;
#177 = STYLED_ITEM ( 'NONE', ( #642 ), #111 ) ;
#178 = PRESENTATION_STYLE_ASSIGNMENT (( #452 ) ) ;
#179 = CIRCLE ( 'NONE', #686, 2.500000000000609290 ) ;
#180 = DIRECTION ( 'NONE',  ( -0.7071067811865474617, 0.000000000000000000, -0.7071067811865474617 ) ) ;
#181 = EDGE_CURVE ( 'NONE', #1111, #329, #1160, .T. ) ;
#182 = SURFACE_SIDE_STYLE ('',( #1283 ) ) ;
#183 = SURFACE_SIDE_STYLE ('',( #1108 ) ) ;
#184 = ORIENTED_EDGE ( 'NONE', *, *, #664, .T. ) ;
#185 = DIRECTION ( 'NONE',  ( -0.7071067811865475727, 0.7071067811865475727, 0.000000000000000000 ) ) ;
#186 = COLOUR_RGB ( '',0.05490196078431372473, 0.05490196078431372473, 0.06274509803921568540 ) ;
#187 = ORIENTED_EDGE ( 'NONE', *, *, #568, .T. ) ;
#188 = LINE ( 'NONE', #81, #440 ) ;
#189 =( NAMED_UNIT ( * ) SI_UNIT ( $, .STERADIAN. ) SOLID_ANGLE_UNIT ( ) );
#190 = COLOUR_RGB ( '',0.05490196078431372473, 0.05490196078431372473, 0.06274509803921568540 ) ;
#191 = PLANE ( 'NONE',  #758 ) ;
#192 = MECHANICAL_DESIGN_GEOMETRIC_PRESENTATION_REPRESENTATION (  '', ( #123 ), #330 ) ;
#193 =( NAMED_UNIT ( * ) SI_UNIT ( $, .STERADIAN. ) SOLID_ANGLE_UNIT ( ) );
#194 = EDGE_CURVE ( 'NONE', #1111, #103, #855, .T. ) ;
#195 = FILL_AREA_STYLE_COLOUR ( '', #5 ) ;
#196 = FILL_AREA_STYLE ('',( #203 ) ) ;
#197 = AXIS2_PLACEMENT_3D ( 'NONE', #1165, #788, #797 ) ;
#198 = ORIENTED_EDGE ( 'NONE', *, *, #1152, .F. ) ;
#199 = AXIS2_PLACEMENT_3D ( 'NONE', #583, #1271, #674 ) ;
#200 = MECHANICAL_DESIGN_GEOMETRIC_PRESENTATION_REPRESENTATION (  '', ( #564 ), #751 ) ;
#201 = COLOUR_RGB ( '',0.05490196078431372473, 0.05490196078431372473, 0.06274509803921568540 ) ;
#202 = VERTEX_POINT ( 'NONE', #708 ) ;
#203 = FILL_AREA_STYLE_COLOUR ( '', #266 ) ;
#204 = VECTOR ( 'NONE', #142, 1000.000000000000227 ) ;
#205 = DIRECTION ( 'NONE',  ( 0.000000000000000000, -1.000000000000000000, 0.000000000000000000 ) ) ;
#206 = EDGE_CURVE ( 'NONE', #202, #640, #306, .T. ) ;
#207 = EDGE_CURVE ( 'NONE', #1244, #1010, #14, .T. ) ;
#208 = FACE_OUTER_BOUND ( 'NONE', #418, .T. ) ;
#209 =( GEOMETRIC_REPRESENTATION_CONTEXT ( 3 ) GLOBAL_UNCERTAINTY_ASSIGNED_CONTEXT ( ( #287 ) ) GLOBAL_UNIT_ASSIGNED_CONTEXT ( ( #1143, #226, #220 ) ) REPRESENTATION_CONTEXT ( 'NONE', 'WORKASPACE' ) );
#210 =( NAMED_UNIT ( * ) SI_UNIT ( $, .STERADIAN. ) SOLID_ANGLE_UNIT ( ) );
#211 = CARTESIAN_POINT ( 'NONE',  ( 4.645840483118890418, 2.000000000000000000, 5.706500654898720271 ) ) ;
#212 = SURFACE_STYLE_USAGE ( .BOTH. , #3 ) ;
#213 =( LENGTH_UNIT ( ) NAMED_UNIT ( * ) SI_UNIT ( .MILLI., .METRE. ) );
#214 = CARTESIAN_POINT ( 'NONE',  ( 1.469994996776702090, 2.530655168556529944, 2.000000000000000000 ) ) ;
#215 = VERTEX_POINT ( 'NONE', #1103 ) ;
#216 = CARTESIAN_POINT ( 'NONE',  ( 19.41785194260259928, 23.12397972306555261, 22.06331955128569788 ) ) ;
#217 = ORIENTED_EDGE ( 'NONE', *, *, #110, .F. ) ;
#218 = ORIENTED_EDGE ( 'NONE', *, *, #693, .T. ) ;
#219 = PRESENTATION_LAYER_ASSIGNMENT (  '', '', ( #11 ) ) ;
#220 =( NAMED_UNIT ( * ) SI_UNIT ( $, .STERADIAN. ) SOLID_ANGLE_UNIT ( ) );
#221 = DIRECTION ( 'NONE',  ( 0.000000000000000000, -1.000000000000000000, 0.000000000000000000 ) ) ;
#222 =( NAMED_UNIT ( * ) PLANE_ANGLE_UNIT ( ) SI_UNIT ( $, .RADIAN. ) );
#223 = FACE_OUTER_BOUND ( 'NONE', #931, .T. ) ;
#224 = LINE ( 'NONE', #407, #1067 ) ;
#225 = CARTESIAN_POINT ( 'NONE',  ( 2.000000000000000000, 5.706835791625199938, 4.646175619845370086 ) ) ;
#226 =( NAMED_UNIT ( * ) PLANE_ANGLE_UNIT ( ) SI_UNIT ( $, .RADIAN. ) );
#227 = STYLED_ITEM ( 'NONE', ( #1213 ), #1236 ) ;
#228 = FILL_AREA_STYLE ('',( #427 ) ) ;
#229 = DIRECTION ( 'NONE',  ( 1.000000000000000000, 0.000000000000000000, 0.000000000000000000 ) ) ;
#230 = SURFACE_STYLE_USAGE ( .BOTH. , #13 ) ;
#231 = SURFACE_STYLE_USAGE ( .BOTH. , #937 ) ;
#232 = VERTEX_POINT ( 'NONE', #1100 ) ;
#233 = CARTESIAN_POINT ( 'NONE',  ( 4.645840483118890418, 2.000000000000000000, 5.706500654898720271 ) ) ;
#234 = ORIENTED_EDGE ( 'NONE', *, *, #246, .T. ) ;
#235 = SURFACE_STYLE_USAGE ( .BOTH. , #755 ) ;
#236 = FACE_OUTER_BOUND ( 'NONE', #1241, .T. ) ;
#237 = FACE_OUTER_BOUND ( 'NONE', #690, .T. ) ;
#238 = ORIENTED_EDGE ( 'NONE', *, *, #776, .F. ) ;
#239 =( NAMED_UNIT ( * ) SI_UNIT ( $, .STERADIAN. ) SOLID_ANGLE_UNIT ( ) );
#240 = FACE_OUTER_BOUND ( 'NONE', #1311, .T. ) ;
#241 = EDGE_CURVE ( 'NONE', #671, #1096, #179, .T. ) ;
#242 = SURFACE_SIDE_STYLE ('',( #522 ) ) ;
#243 = CARTESIAN_POINT ( 'NONE',  ( 3.500000000000055067, 3.500000000000055067, 40.00000000000000000 ) ) ;
#244 = UNCERTAINTY_MEASURE_WITH_UNIT (LENGTH_MEASURE( 1.000000000000000082E-05 ), #1188, 'distance_accuracy_value', 'NONE');
#245 = CARTESIAN_POINT ( 'NONE',  ( 36.87256490112533669, 33.33703099519223656, 35.09909289480114580 ) ) ;
#246 = EDGE_CURVE ( 'NONE', #612, #1192, #462, .T. ) ;
#247 = CARTESIAN_POINT ( 'NONE',  ( 40.00000000000000000, 4.336808689942019708E-16, 3.500000000000000000 ) ) ;
#248 = ORIENTED_EDGE ( 'NONE', *, *, #1090, .F. ) ;
#249 = ORIENTED_EDGE ( 'NONE', *, *, #1118, .F. ) ;
#250 = EDGE_LOOP ( 'NONE', ( #763, #477 ) ) ;
#251 = PRESENTATION_STYLE_ASSIGNMENT (( #230 ) ) ;
#252 = CARTESIAN_POINT ( 'NONE',  ( 2.000000000000000000, 2.000000000000000000, 5.306306997244799817 ) ) ;
#253 = STYLED_ITEM ( 'NONE', ( #144 ), #1024 ) ;
#254 =( LENGTH_UNIT ( ) NAMED_UNIT ( * ) SI_UNIT ( .MILLI., .METRE. ) );
#255 = LINE ( 'NONE', #530, #77 ) ;
#256 = DIRECTION ( 'NONE',  ( -1.000000000000000000, 0.000000000000000000, 0.000000000000000000 ) ) ;
#257 = CARTESIAN_POINT ( 'NONE',  ( 2.000000000000000000, 40.00000000000000000, 40.00000000000000000 ) ) ;
#258 = DIRECTION ( 'NONE',  ( 0.000000000000000000, 0.7071067811865475727, -0.7071067811865475727 ) ) ;
#259 = ORIENTED_EDGE ( 'NONE', *, *, #493, .T. ) ;
#260 = SURFACE_SIDE_STYLE ('',( #850 ) ) ;
#261 = EDGE_CURVE ( 'NONE', #1040, #351, #1251, .T. ) ;
#262 = VECTOR ( 'NONE', #802, 1000.000000000000114 ) ;
#263 = VECTOR ( 'NONE', #595, 1000.000000000000000 ) ;
#264 = EDGE_LOOP ( 'NONE', ( #1163, #259, #1167, #347 ) ) ;
#265 = ORIENTED_EDGE ( 'NONE', *, *, #1246, .F. ) ;
#266 = COLOUR_RGB ( '',0.05490196078431372473, 0.05490196078431372473, 0.06274509803921568540 ) ;
#267 = ORIENTED_EDGE ( 'NONE', *, *, #276, .T. ) ;
#268 = PRODUCT_RELATED_PRODUCT_CATEGORY ( 'part', '', ( #577 ) ) ;
#269 = MECHANICAL_DESIGN_GEOMETRIC_PRESENTATION_REPRESENTATION (  '', ( #507 ), #925 ) ;
#270 = CARTESIAN_POINT ( 'NONE',  ( 40.00000000000000000, 40.00000000000000000, 40.00000000000000000 ) ) ;
#271 = CARTESIAN_POINT ( 'NONE',  ( 4.647012020869759397, 5.707672192649579479, 2.000000000000000000 ) ) ;
#272 = PRESENTATION_STYLE_ASSIGNMENT (( #1248 ) ) ;
#273 = EDGE_CURVE ( 'NONE', #977, #1073, #1034, .T. ) ;
#274 = DIRECTION ( 'NONE',  ( 0.5773815451999811943, 0.5773815451999811943, 0.5772877120855461897 ) ) ;
#275 = FILL_AREA_STYLE ('',( #174 ) ) ;
#276 = EDGE_CURVE ( 'NONE', #414, #550, #224, .T. ) ;
#277 = CARTESIAN_POINT ( 'NONE',  ( 33.33703099519200919, 36.87256490112559959, 35.09909289480114580 ) ) ;
#278 = AXIS2_PLACEMENT_3D ( 'NONE', #960, #565, #668 ) ;
#279 = CARTESIAN_POINT ( 'NONE',  ( 0.000000000000000000, 40.00000000000000000, 3.500000000000000000 ) ) ;
#280 = FILL_AREA_STYLE ('',( #1185 ) ) ;
#281 = VERTEX_POINT ( 'NONE', #401 ) ;
#282 = LINE ( 'NONE', #399, #262 ) ;
#283 = ORIENTED_EDGE ( 'NONE', *, *, #135, .F. ) ;
#284 =( NAMED_UNIT ( * ) PLANE_ANGLE_UNIT ( ) SI_UNIT ( $, .RADIAN. ) );
#285 = ORIENTED_EDGE ( 'NONE', *, *, #1174, .F. ) ;
#286 = SURFACE_STYLE_FILL_AREA ( #888 ) ;
#287 = UNCERTAINTY_MEASURE_WITH_UNIT (LENGTH_MEASURE( 1.000000000000000082E-05 ), #1143, 'distance_accuracy_value', 'NONE');
#288 =( NAMED_UNIT ( * ) PLANE_ANGLE_UNIT ( ) SI_UNIT ( $, .RADIAN. ) );
#289 = VECTOR ( 'NONE', #102, 1000.000000000000114 ) ;
#290 = AXIS2_PLACEMENT_3D ( 'NONE', #148, #1050, #229 ) ;
#291 = COLOUR_RGB ( '',0.05490196078431372473, 0.05490196078431372473, 0.06274509803921568540 ) ;
#292 = PRESENTATION_LAYER_ASSIGNMENT (  '', '', ( #155 ) ) ;
#293 = DIRECTION ( 'NONE',  ( 0.5773815451999810833, 0.5773815451999810833, 0.5772877120855460786 ) ) ;
#294 =( NAMED_UNIT ( * ) SI_UNIT ( $, .STERADIAN. ) SOLID_ANGLE_UNIT ( ) );
#295 = DIRECTION ( 'NONE',  ( -0.5773815451999810833, -0.5773815451999810833, -0.5772877120855460786 ) ) ;
#296 = ORIENTED_EDGE ( 'NONE', *, *, #261, .F. ) ;
#297 =( LENGTH_UNIT ( ) NAMED_UNIT ( * ) SI_UNIT ( .MILLI., .METRE. ) );
#298 = CIRCLE ( 'NONE', #471, 2.699999999999716849 ) ;
#299 = ORIENTED_EDGE ( 'NONE', *, *, #787, .T. ) ;
#300 = COLOUR_RGB ( '',0.05490196078431372473, 0.05490196078431372473, 0.06274509803921568540 ) ;
#301 = ORIENTED_EDGE ( 'NONE', *, *, #568, .F. ) ;
#302 = CIRCLE ( 'NONE', #1184, 2.699999999999839417 ) ;
#303 = CARTESIAN_POINT ( 'NONE',  ( 36.69390423023839531, 35.63324405845860099, 32.98119631263210039 ) ) ;
#304 = UNCERTAINTY_MEASURE_WITH_UNIT (LENGTH_MEASURE( 1.000000000000000082E-05 ), #254, 'distance_accuracy_value', 'NONE');
#305 = CARTESIAN_POINT ( 'NONE',  ( 4.304175616147275285, 5.821680026227033622, 2.000000000000000000 ) ) ;
#306 = LINE ( 'NONE', #82, #718 ) ;
#307 = DIRECTION ( 'NONE',  ( 0.7071067811865474617, 0.7071067811865474617, 0.000000000000000000 ) ) ;
#308 = CARTESIAN_POINT ( 'NONE',  ( 40.00000000000000000, 3.500000000000055067, 3.500000000000055067 ) ) ;
#309 = MECHANICAL_DESIGN_GEOMETRIC_PRESENTATION_REPRESENTATION (  '', ( #177 ), #79 ) ;
#310 = CARTESIAN_POINT ( 'NONE',  ( -0.5303300858899130388, 0.000000000000000000, 0.5303300858899130388 ) ) ;
#311 = DIRECTION ( 'NONE',  ( 0.000000000000000000, 0.7071067811865474617, -0.7071067811865474617 ) ) ;
#312 = EDGE_LOOP ( 'NONE', ( #790, #76, #689, #516 ) ) ;
#313 = CARTESIAN_POINT ( 'NONE',  ( 5.780823484041837546, 2.000000001515306991, 4.423928457083693644 ) ) ;
#314 = EDGE_LOOP ( 'NONE', ( #218, #772, #947, #472, #713, #383, #1109, #573, #1258, #436, #603, #38, #1224 ) ) ;
#315 = ORIENTED_EDGE ( 'NONE', *, *, #276, .F. ) ;
#316 = CARTESIAN_POINT ( 'NONE',  ( 40.00000000000000000, 2.000000000000000000, 40.00000000000000000 ) ) ;
#317 = EDGE_CURVE ( 'NONE', #977, #520, #1269, .T. ) ;
#318 = SURFACE_STYLE_FILL_AREA ( #555 ) ;
#319 = SURFACE_SIDE_STYLE ('',( #475 ) ) ;
#320 = ADVANCED_FACE ( 'NONE', ( #767 ), #512, .F. ) ;
#321 = CARTESIAN_POINT ( 'NONE',  ( 19.30331995411805579, 22.83698849745055526, 22.46485065743824094 ) ) ;
#322 = DIRECTION ( 'NONE',  ( 0.5773815451999811943, 0.5773815451999810833, 0.5772877120855461897 ) ) ;
#323 = FILL_AREA_STYLE_COLOUR ( '', #634 ) ;
#324 = DIRECTION ( 'NONE',  ( 0.000000000000000000, -1.000000000000000000, 0.000000000000000000 ) ) ;
#325 = CARTESIAN_POINT ( 'NONE',  ( 0.000000000000000000, 40.00000000000000000, 40.00000000000000000 ) ) ;
#326 = ORIENTED_EDGE ( 'NONE', *, *, #496, .T. ) ;
#327 =( LENGTH_UNIT ( ) NAMED_UNIT ( * ) SI_UNIT ( .MILLI., .METRE. ) );
#328 =( LENGTH_UNIT ( ) NAMED_UNIT ( * ) SI_UNIT ( .MILLI., .METRE. ) );
#329 = VERTEX_POINT ( 'NONE', #908 ) ;
#330 =( GEOMETRIC_REPRESENTATION_CONTEXT ( 3 ) GLOBAL_UNCERTAINTY_ASSIGNED_CONTEXT ( ( #244 ) ) GLOBAL_UNIT_ASSIGNED_CONTEXT ( ( #1188, #1091, #694 ) ) REPRESENTATION_CONTEXT ( 'NONE', 'WORKASPACE' ) );
#331 = DIRECTION ( 'NONE',  ( 0.4082040559113593314, 0.4082040559113541134, -0.8165408118857476749 ) ) ;
#332 = VECTOR ( 'NONE', #951, 1000.000000000000000 ) ;
#333 = ADVANCED_FACE ( 'NONE', ( #813, #675 ), #96, .F. ) ;
#334 =( NAMED_UNIT ( * ) SI_UNIT ( $, .STERADIAN. ) SOLID_ANGLE_UNIT ( ) );
#335 = AXIS2_PLACEMENT_3D ( 'NONE', #611, #86, #740 ) ;
#336 = B_SPLINE_CURVE_WITH_KNOTS ( 'NONE', 3,
 ( #639, #736, #16, #225 ),
 .UNSPECIFIED., .F., .F.,
 ( 4, 4 ),
 ( 0.6836212585892974536, 1.000000000000000000 ),
 .UNSPECIFIED. ) ;
#337 = CARTESIAN_POINT ( 'NONE',  ( 4.336808689942019708E-16, 3.500000000000000000, 40.00000000000000000 ) ) ;
#338 = EDGE_CURVE ( 'NONE', #572, #281, #1270, .T. ) ;
#339 = CARTESIAN_POINT ( 'NONE',  ( 34.08428780838009686, 34.08428780838009686, 37.14044492451595403 ) ) ;
#340 = UNCERTAINTY_MEASURE_WITH_UNIT (LENGTH_MEASURE( 1.000000000000000082E-05 ), #1305, 'distance_accuracy_value', 'NONE');
#341 = EDGE_CURVE ( 'NONE', #1244, #1031, #938, .T. ) ;
#342 = SURFACE_SIDE_STYLE ('',( #688 ) ) ;
#343 = AXIS2_PLACEMENT_3D ( 'NONE', #676, #274, #1081 ) ;
#344 = FACE_OUTER_BOUND ( 'NONE', #56, .T. ) ;
#345 = B_SPLINE_CURVE_WITH_KNOTS ( 'NONE', 3,
 ( #469, #961, #53, #474 ),
 .UNSPECIFIED., .F., .F.,
 ( 4, 4 ),
 ( 0.000000000000000000, 30.16852044445628778 ),
 .UNSPECIFIED. ) ;
#346 = ORIENTED_EDGE ( 'NONE', *, *, #709, .F. ) ;
#347 = ORIENTED_EDGE ( 'NONE', *, *, #1317, .F. ) ;
#348 = SURFACE_SIDE_STYLE ('',( #318 ) ) ;
#349 = SURFACE_STYLE_FILL_AREA ( #621 ) ;
#350 = CYLINDRICAL_SURFACE ( 'NONE', #343, 2.699999999999840750 ) ;
#351 = VERTEX_POINT ( 'NONE', #930 ) ;
#352 = ORIENTED_EDGE ( 'NONE', *, *, #468, .F. ) ;
#353 = CARTESIAN_POINT ( 'NONE',  ( 1.025126265847100093, 1.025126265847100093, 1.025126265847102092 ) ) ;
#354 = SURFACE_STYLE_USAGE ( .BOTH. , #876 ) ;
#355 = ADVANCED_FACE ( 'NONE', ( #223 ), #1214, .F. ) ;
#356 = FILL_AREA_STYLE ('',( #33 ) ) ;
#357 =( NAMED_UNIT ( * ) SI_UNIT ( $, .STERADIAN. ) SOLID_ANGLE_UNIT ( ) );
#358 = PRESENTATION_LAYER_ASSIGNMENT (  '', '', ( #454 ) ) ;
#359 =( NAMED_UNIT ( * ) PLANE_ANGLE_UNIT ( ) SI_UNIT ( $, .RADIAN. ) );
#360 = MECHANICAL_DESIGN_GEOMETRIC_PRESENTATION_REPRESENTATION (  '', ( #11 ), #432 ) ;
#361 = DIRECTION ( 'NONE',  ( 0.5773815451999810833, 0.5773815451999810833, 0.5772877120855460786 ) ) ;
#362 = VERTEX_POINT ( 'NONE', #1035 ) ;
#363 = FILL_AREA_STYLE ('',( #582 ) ) ;
#364 = VERTEX_POINT ( 'NONE', #423 ) ;
#365 = EDGE_LOOP ( 'NONE', ( #234, #964, #217, #500, #301 ) ) ;
#366 = VECTOR ( 'NONE', #943, 1000.000000000000114 ) ;
#367 = CARTESIAN_POINT ( 'NONE',  ( 2.000000000000000000, 31.83149036397729503, 30.77083019219745097 ) ) ;
#368 =( NAMED_UNIT ( * ) PLANE_ANGLE_UNIT ( ) SI_UNIT ( $, .RADIAN. ) );
#369 = FILL_AREA_STYLE_COLOUR ( '', #779 ) ;
#370 = CARTESIAN_POINT ( 'NONE',  ( 0.4417476407601143573, 1.737333568701862951, 1.737333568701864062 ) ) ;
#371 = CARTESIAN_POINT ( 'NONE',  ( 40.00000000000000000, 4.336808689942019708E-16, 3.500000000000000000 ) ) ;
#372 = ADVANCED_FACE ( 'NONE', ( #869 ), #918, .F. ) ;
#373 = CARTESIAN_POINT ( 'NONE',  ( 27.56321554319244527, 31.09874944912554184, 29.32621577394569812 ) ) ;
#374 =( GEOMETRIC_REPRESENTATION_CONTEXT ( 3 ) GLOBAL_UNCERTAINTY_ASSIGNED_CONTEXT ( ( #935 ) ) GLOBAL_UNIT_ASSIGNED_CONTEXT ( ( #848, #1148, #334 ) ) REPRESENTATION_CONTEXT ( 'NONE', 'WORKASPACE' ) );
#375 = CARTESIAN_POINT ( 'NONE',  ( 31.83149036397729503, 30.77083019219745097, 2.000000000000000000 ) ) ;
#376 = DIRECTION ( 'NONE',  ( 0.000000000000000000, 0.000000000000000000, 1.000000000000000000 ) ) ;
#377 = SURFACE_STYLE_FILL_AREA ( #1204 ) ;
#378 = CARTESIAN_POINT ( 'NONE',  ( 2.000000000000000000, 2.000000000000000000, 5.306306997244799817 ) ) ;
#379 = EDGE_CURVE ( 'NONE', #550, #1046, #794, .T. ) ;
#380 = ORIENTED_EDGE ( 'NONE', *, *, #138, .F. ) ;
#381 = ORIENTED_EDGE ( 'NONE', *, *, #241, .F. ) ;
#382 = VECTOR ( 'NONE', #601, 1000.000000000000000 ) ;
#383 = ORIENTED_EDGE ( 'NONE', *, *, #415, .T. ) ;
#384 = APPLICATION_PROTOCOL_DEFINITION ( 'draft international standard', 'automotive_design', 1998, #1198 ) ;
#385 = LINE ( 'NONE', #506, #539 ) ;
#386 = SURFACE_SIDE_STYLE ('',( #286 ) ) ;
#387 = MANIFOLD_SOLID_BREP ( '093WEA402A.sldprt', #879 ) ;
#388 = EDGE_CURVE ( 'NONE', #554, #202, #255, .T. ) ;
#389 =( LENGTH_UNIT ( ) NAMED_UNIT ( * ) SI_UNIT ( .MILLI., .METRE. ) );
#390 = CARTESIAN_POINT ( 'NONE',  ( 2.000000000000000000, 5.818376618407128831, 3.908553007786310207 ) ) ;
#391 = CARTESIAN_POINT ( 'NONE',  ( 11.51241726514771990, 7.805817104035002174, 10.45175698828137989 ) ) ;
#392 =( NAMED_UNIT ( * ) SI_UNIT ( $, .STERADIAN. ) SOLID_ANGLE_UNIT ( ) );
#393 = PRESENTATION_LAYER_ASSIGNMENT (  '', '', ( #971 ) ) ;
#394 = DIRECTION ( 'NONE',  ( 0.5773815451999811943, 0.5773815451999811943, 0.5772877120855461897 ) ) ;
#395 = CARTESIAN_POINT ( 'NONE',  ( 5.706835791625199938, 2.000000000000000000, 4.646175619845379856 ) ) ;
#396 = DIRECTION ( 'NONE',  ( 0.000000000000000000, 0.000000000000000000, -1.000000000000000000 ) ) ;
#397 =( NAMED_UNIT ( * ) PLANE_ANGLE_UNIT ( ) SI_UNIT ( $, .RADIAN. ) );
#398 = ORIENTED_EDGE ( 'NONE', *, *, #536, .F. ) ;
#399 = CARTESIAN_POINT ( 'NONE',  ( 2.000000000000000000, 31.83149036397729503, 30.77083019219745097 ) ) ;
#400 = FACE_OUTER_BOUND ( 'NONE', #644, .T. ) ;
#401 = CARTESIAN_POINT ( 'NONE',  ( 5.307063229445669883, 2.000000000000000000, 2.000000000000000000 ) ) ;
#402 = COLOUR_RGB ( '',0.05490196078431372473, 0.05490196078431372473, 0.06274509803921568540 ) ;
#403 = AXIS2_PLACEMENT_3D ( 'NONE', #270, #986, #499 ) ;
#404 =( LENGTH_UNIT ( ) NAMED_UNIT ( * ) SI_UNIT ( .MILLI., .METRE. ) );
#405 =( GEOMETRIC_REPRESENTATION_CONTEXT ( 3 ) GLOBAL_UNCERTAINTY_ASSIGNED_CONTEXT ( ( #1089 ) ) GLOBAL_UNIT_ASSIGNED_CONTEXT ( ( #410, #547, #932 ) ) REPRESENTATION_CONTEXT ( 'NONE', 'WORKASPACE' ) );
#406 =( NAMED_UNIT ( * ) PLANE_ANGLE_UNIT ( ) SI_UNIT ( $, .RADIAN. ) );
#407 = CARTESIAN_POINT ( 'NONE',  ( 40.00000000000000000, 0.000000000000000000, 40.00000000000000000 ) ) ;
#408 = PRODUCT_DEFINITION_SHAPE ( 'NONE', 'NONE',  #113 ) ;
#409 = AXIS2_PLACEMENT_3D ( 'NONE', #1202, #613, #997 ) ;
#410 =( LENGTH_UNIT ( ) NAMED_UNIT ( * ) SI_UNIT ( .MILLI., .METRE. ) );
#411 = EDGE_LOOP ( 'NONE', ( #283, #792 ) ) ;
#412 = EDGE_CURVE ( 'NONE', #1079, #993, #920, .T. ) ;
#413 = ORIENTED_EDGE ( 'NONE', *, *, #824, .F. ) ;
#414 = VERTEX_POINT ( 'NONE', #115 ) ;
#415 = EDGE_CURVE ( 'NONE', #587, #476, #759, .T. ) ;
#416 = VECTOR ( 'NONE', #916, 1000.000000000000000 ) ;
#417 = VECTOR ( 'NONE', #825, 1000.000000000000114 ) ;
#418 = EDGE_LOOP ( 'NONE', ( #25, #381, #346, #945 ) ) ;
#419 = SURFACE_STYLE_FILL_AREA ( #1257 ) ;
#420 = PLANE ( 'NONE',  #826 ) ;
#421 =( GEOMETRIC_REPRESENTATION_CONTEXT ( 3 ) GLOBAL_UNCERTAINTY_ASSIGNED_CONTEXT ( ( #633 ) ) GLOBAL_UNIT_ASSIGNED_CONTEXT ( ( #85, #897, #991 ) ) REPRESENTATION_CONTEXT ( 'NONE', 'WORKASPACE' ) );
#422 = COLOUR_RGB ( '',0.05490196078431372473, 0.05490196078431372473, 0.06274509803921568540 ) ;
#423 = CARTESIAN_POINT ( 'NONE',  ( 5.706835791625199938, 2.000000000000000000, 4.646175619845379856 ) ) ;
#424 = CARTESIAN_POINT ( 'NONE',  ( 5.818231852317769182, 1.999855233910645680, 4.175537918351280631 ) ) ;
#425 = DIRECTION ( 'NONE',  ( -1.000000000000000000, 0.000000000000000000, 0.000000000000000000 ) ) ;
#426 = CARTESIAN_POINT ( 'NONE',  ( 2.000000000000000000, 30.77083019219745097, 31.83149036397729503 ) ) ;
#427 = FILL_AREA_STYLE_COLOUR ( '', #1300 ) ;
#428 = CARTESIAN_POINT ( 'NONE',  ( 5.818376618407128831, 2.000000000000000000, 3.908553007786305766 ) ) ;
#429 = UNCERTAINTY_MEASURE_WITH_UNIT (LENGTH_MEASURE( 1.000000000000000082E-05 ), #1080, 'distance_accuracy_value', 'NONE');
#430 = STYLED_ITEM ( 'NONE', ( #104 ), #721 ) ;
#431 = ORIENTED_EDGE ( 'NONE', *, *, #823, .T. ) ;
#432 =( GEOMETRIC_REPRESENTATION_CONTEXT ( 3 ) GLOBAL_UNCERTAINTY_ASSIGNED_CONTEXT ( ( #151 ) ) GLOBAL_UNIT_ASSIGNED_CONTEXT ( ( #327, #397, #1194 ) ) REPRESENTATION_CONTEXT ( 'NONE', 'WORKASPACE' ) );
#433 = CARTESIAN_POINT ( 'NONE',  ( 0.000000000000000000, 0.000000000000000000, 0.000000000000000000 ) ) ;
#434 = FACE_OUTER_BOUND ( 'NONE', #314, .T. ) ;
#435 = PRESENTATION_STYLE_ASSIGNMENT (( #600 ) ) ;
#436 = ORIENTED_EDGE ( 'NONE', *, *, #921, .F. ) ;
#437 = VERTEX_POINT ( 'NONE', #859 ) ;
#438 = ADVANCED_FACE ( 'NONE', ( #492 ), #725, .F. ) ;
#439 = CARTESIAN_POINT ( 'NONE',  ( 21.53283166079100042, 21.00600155006919678, 22.06666172184899821 ) ) ;
#440 = VECTOR ( 'NONE', #1102, 1000.000000000000227 ) ;
#441 = FACE_OUTER_BOUND ( 'NONE', #1306, .T. ) ;
#442 = DIRECTION ( 'NONE',  ( 0.000000000000000000, 0.000000000000000000, 1.000000000000000000 ) ) ;
#443 =( GEOMETRIC_REPRESENTATION_CONTEXT ( 3 ) GLOBAL_UNCERTAINTY_ASSIGNED_CONTEXT ( ( #648 ) ) GLOBAL_UNIT_ASSIGNED_CONTEXT ( ( #36, #757, #1157 ) ) REPRESENTATION_CONTEXT ( 'NONE', 'WORKASPACE' ) );
#444 = CARTESIAN_POINT ( 'NONE',  ( 21.53283166079100042, 22.06666172184899821, 21.00600155006919678 ) ) ;
#445 = ADVANCED_FACE ( 'NONE', ( #1126 ), #741, .T. ) ;
#446 = DIRECTION ( 'NONE',  ( 0.000000000000000000, 0.000000000000000000, -1.000000000000000000 ) ) ;
#447 = EDGE_CURVE ( 'NONE', #215, #605, #735, .T. ) ;
#448 = CARTESIAN_POINT ( 'NONE',  ( 3.500000000000000000, 0.000000000000000000, 40.00000000000000000 ) ) ;
#449 = B_SPLINE_CURVE_WITH_KNOTS ( 'NONE', 3,
 ( #1172, #480, #483, #1161, #159, #965 ),
 .UNSPECIFIED., .F., .F.,
 ( 4, 2, 4 ),
 ( 0.000000000000000000, 0.5000000000000000000, 1.000000000000000000 ),
 .UNSPECIFIED. ) ;
#450 = ORIENTED_EDGE ( 'NONE', *, *, #756, .F. ) ;
#451 = ADVANCED_FACE ( 'NONE', ( #999 ), #752, .T. ) ;
#452 = SURFACE_STYLE_USAGE ( .BOTH. , #348 ) ;
#453 = ORIENTED_EDGE ( 'NONE', *, *, #652, .F. ) ;
#454 = STYLED_ITEM ( 'NONE', ( #147 ), #578 ) ;
#455 = CYLINDRICAL_SURFACE ( 'NONE', #335, 2.500000000000253131 ) ;
#456 = SURFACE_STYLE_USAGE ( .BOTH. , #342 ) ;
#457 = LINE ( 'NONE', #448, #673 ) ;
#458 = PRESENTATION_STYLE_ASSIGNMENT (( #762 ) ) ;
#459 = FILL_AREA_STYLE ('',( #22 ) ) ;
#460 = PRESENTATION_STYLE_ASSIGNMENT (( #235 ) ) ;
#461 = STYLED_ITEM ( 'NONE', ( #726 ), #10 ) ;
#462 = LINE ( 'NONE', #1207, #1216 ) ;
#463 = PLANE ( 'NONE',  #846 ) ;
#464 = B_SPLINE_CURVE_WITH_KNOTS ( 'NONE', 3,
 ( #252, #1151, #1249, #852, #858, #233 ),
 .UNSPECIFIED., .F., .F.,
 ( 4, 2, 4 ),
 ( 0.000000000000000000, 0.5000000000000000000, 1.000000000000000000 ),
 .UNSPECIFIED. ) ;
#465 = DIRECTION ( 'NONE',  ( -0.8165408118857488962, 0.4082040559113554457, 0.4082040559113554457 ) ) ;
#466 = PRESENTATION_LAYER_ASSIGNMENT (  '', '', ( #12 ) ) ;
#467 = CARTESIAN_POINT ( 'NONE',  ( 40.00000000000000000, 2.000000000000000000, 2.000000000000000000 ) ) ;
#468 = EDGE_CURVE ( 'NONE', #215, #364, #716, .T. ) ;
#469 = CARTESIAN_POINT ( 'NONE',  ( 19.41902060485260151, 22.06273531512325192, 23.12339548690304980 ) ) ;
#470 = SURFACE_STYLE_USAGE ( .BOTH. , #242 ) ;
#471 = AXIS2_PLACEMENT_3D ( 'NONE', #1223, #1233, #840 ) ;
#472 = ORIENTED_EDGE ( 'NONE', *, *, #67, .T. ) ;
#473 = B_SPLINE_CURVE_WITH_KNOTS ( 'NONE', 3,
 ( #1065, #663, #134, #43 ),
 .UNSPECIFIED., .F., .F.,
 ( 4, 4 ),
 ( 0.000000000000000000, 1.000000000000000000 ),
 .UNSPECIFIED. ) ;
#474 = CARTESIAN_POINT ( 'NONE',  ( 2.000000000000000000, 4.645840483118900188, 5.706500654898720271 ) ) ;
#475 = SURFACE_STYLE_FILL_AREA ( #1201 ) ;
#476 = VERTEX_POINT ( 'NONE', #953 ) ;
#477 = ORIENTED_EDGE ( 'NONE', *, *, #889, .T. ) ;
#478 = ADVANCED_FACE ( 'NONE', ( #240 ), #35, .T. ) ;
#479 = CARTESIAN_POINT ( 'NONE',  ( 5.711917264400447003, 2.969074090677685795, 2.000000000000000000 ) ) ;
#480 = CARTESIAN_POINT ( 'NONE',  ( 3.041851071351488134, 3.041851071351485469, 7.470830594782925835E-15 ) ) ;
#481 = CARTESIAN_POINT ( 'NONE',  ( 40.00000000000000000, 40.00000000000000000, 0.000000000000000000 ) ) ;
#482 =( GEOMETRIC_REPRESENTATION_CONTEXT ( 3 ) GLOBAL_UNCERTAINTY_ASSIGNED_CONTEXT ( ( #683 ) ) GLOBAL_UNIT_ASSIGNED_CONTEXT ( ( #169, #284, #1086 ) ) REPRESENTATION_CONTEXT ( 'NONE', 'WORKASPACE' ) );
#483 = CARTESIAN_POINT ( 'NONE',  ( 2.583882404742526617, 2.583882404742520400, 0.09109563166090700603 ) ) ;
#484 = MECHANICAL_DESIGN_GEOMETRIC_PRESENTATION_REPRESENTATION (  '', ( #528 ), #405 ) ;
#485 = ORIENTED_EDGE ( 'NONE', *, *, #194, .T. ) ;
#486 = ORIENTED_EDGE ( 'NONE', *, *, #1291, .F. ) ;
#487 = CIRCLE ( 'NONE', #559, 2.699999999999716849 ) ;
#488 = AXIS2_PLACEMENT_3D ( 'NONE', #1176, #394, #513 ) ;
#489 = COLOUR_RGB ( '',0.05490196078431372473, 0.05490196078431372473, 0.06274509803921568540 ) ;
#490 = FILL_AREA_STYLE_COLOUR ( '', #557 ) ;
#491 = CARTESIAN_POINT ( 'NONE',  ( 0.09109563166090604847, 2.583882404742528394, 2.583882404742520400 ) ) ;
#492 = FACE_OUTER_BOUND ( 'NONE', #711, .T. ) ;
#493 = EDGE_CURVE ( 'NONE', #587, #520, #881, .T. ) ;
#494 = CARTESIAN_POINT ( 'NONE',  ( 40.00000000000000000, 0.000000000000000000, 40.00000000000000000 ) ) ;
#495 = LINE ( 'NONE', #1232, #1016 ) ;
#496 = EDGE_CURVE ( 'NONE', #1031, #362, #302, .T. ) ;
#497 = CARTESIAN_POINT ( 'NONE',  ( 4.645840483118890418, 2.000000000000000000, 5.706500654898720271 ) ) ;
#498 = UNCERTAINTY_MEASURE_WITH_UNIT (LENGTH_MEASURE( 1.000000000000000082E-05 ), #866, 'distance_accuracy_value', 'NONE');
#499 = DIRECTION ( 'NONE',  ( 0.000000000000000000, 0.000000000000000000, -1.000000000000000000 ) ) ;
#500 = ORIENTED_EDGE ( 'NONE', *, *, #37, .F. ) ;
#501 = VECTOR ( 'NONE', #887, 1000.000000000000000 ) ;
#502 = VERTEX_POINT ( 'NONE', #1239 ) ;
#503 = ORIENTED_EDGE ( 'NONE', *, *, #776, .T. ) ;
#504 = LINE ( 'NONE', #710, #140 ) ;
#505 = PRESENTATION_LAYER_ASSIGNMENT (  '', '', ( #430 ) ) ;
#506 = CARTESIAN_POINT ( 'NONE',  ( 30.77083019219745097, 2.000000000000000000, 31.83149036397729503 ) ) ;
#507 = STYLED_ITEM ( 'NONE', ( #165 ), #355 ) ;
#508 = CARTESIAN_POINT ( 'NONE',  ( 1.737333568701881159, 0.4417476407601042543, 1.737333568701864284 ) ) ;
#509 = VECTOR ( 'NONE', #1304, 1000.000000000000114 ) ;
#510 = DIRECTION ( 'NONE',  ( 0.000000000000000000, -1.000000000000000000, 0.000000000000000000 ) ) ;
#511 = CARTESIAN_POINT ( 'NONE',  ( 29.33098249615900244, 29.33098249615900244, 29.32621577394569812 ) ) ;
#512 = PLANE ( 'NONE',  #409 ) ;
#513 = DIRECTION ( 'NONE',  ( 0.4082040559113600531, 0.4082040559113545575, -0.8165408118857470088 ) ) ;
#514 = DIRECTION ( 'NONE',  ( -0.5773815451999810833, -0.5773815451999810833, -0.5772877120855460786 ) ) ;
#515 =( NAMED_UNIT ( * ) SI_UNIT ( $, .STERADIAN. ) SOLID_ANGLE_UNIT ( ) );
#516 = ORIENTED_EDGE ( 'NONE', *, *, #608, .F. ) ;
#517 = EDGE_CURVE ( 'NONE', #990, #1261, #146, .T. ) ;
#518 = SURFACE_STYLE_USAGE ( .BOTH. , #805 ) ;
#519 = SHAPE_DEFINITION_REPRESENTATION ( #408, #619 ) ;
#520 = VERTEX_POINT ( 'NONE', #367 ) ;
#521 = CARTESIAN_POINT ( 'NONE',  ( 2.530655168556524615, 1.469994996776705865, 2.000000000000000000 ) ) ;
#522 = SURFACE_STYLE_FILL_AREA ( #356 ) ;
#523 = SURFACE_SIDE_STYLE ('',( #594 ) ) ;
#524 =( NAMED_UNIT ( * ) PLANE_ANGLE_UNIT ( ) SI_UNIT ( $, .RADIAN. ) );
#525 = SURFACE_STYLE_USAGE ( .BOTH. , #1013 ) ;
#526 = CARTESIAN_POINT ( 'NONE',  ( 22.06666172184899821, 21.53283166079100042, 21.00600155006919678 ) ) ;
#527 = PRODUCT_DEFINITION_CONTEXT ( 'detailed design', #1198, 'design' ) ;
#528 = STYLED_ITEM ( 'NONE', ( #571 ), #30 ) ;
#529 = CARTESIAN_POINT ( 'NONE',  ( -0.5303300858899130388, 0.5303300858899130388, 0.000000000000000000 ) ) ;
#530 = CARTESIAN_POINT ( 'NONE',  ( 40.00000000000000000, 40.00000000000000000, 40.00000000000000000 ) ) ;
#531 = AXIS2_PLACEMENT_3D ( 'NONE', #526, #827, #717 ) ;
#532 = CARTESIAN_POINT ( 'NONE',  ( 30.77083019219745097, 31.83149036397729503, 2.000000000000000000 ) ) ;
#533 = ORIENTED_EDGE ( 'NONE', *, *, #1316, .T. ) ;
#534 = ADVANCED_FACE ( 'NONE', ( #560 ), #778, .F. ) ;
#535 = FILL_AREA_STYLE_COLOUR ( '', #936 ) ;
#536 = EDGE_CURVE ( 'NONE', #1092, #993, #575, .T. ) ;
#537 = ORIENTED_EDGE ( 'NONE', *, *, #659, .T. ) ;
#538 = LINE ( 'NONE', #1130, #1297 ) ;
#539 = VECTOR ( 'NONE', #180, 1000.000000000000114 ) ;
#540 =( GEOMETRIC_REPRESENTATION_CONTEXT ( 3 ) GLOBAL_UNCERTAINTY_ASSIGNED_CONTEXT ( ( #2 ) ) GLOBAL_UNIT_ASSIGNED_CONTEXT ( ( #68, #368, #584 ) ) REPRESENTATION_CONTEXT ( 'NONE', 'WORKASPACE' ) );
#541 = VECTOR ( 'NONE', #836, 1000.000000000000000 ) ;
#542 = PRESENTATION_STYLE_ASSIGNMENT (( #739 ) ) ;
#543 = CARTESIAN_POINT ( 'NONE',  ( 5.707672192649579479, 4.647012020869759397, 2.000000000000000000 ) ) ;
#544 = CARTESIAN_POINT ( 'NONE',  ( 22.06273531512325192, 19.41902060485260151, 23.12339548690304980 ) ) ;
#545 = DIRECTION ( 'NONE',  ( 0.7071067811865472397, 0.000000000000000000, 0.7071067811865476838 ) ) ;
#546 =( LENGTH_UNIT ( ) NAMED_UNIT ( * ) SI_UNIT ( .MILLI., .METRE. ) );
#547 =( NAMED_UNIT ( * ) PLANE_ANGLE_UNIT ( ) SI_UNIT ( $, .RADIAN. ) );
#548 = DIRECTION ( 'NONE',  ( 0.7071067811865474617, 0.7071067811865474617, 0.000000000000000000 ) ) ;
#549 = AXIS2_PLACEMENT_3D ( 'NONE', #339, #941, #760 ) ;
#550 = VERTEX_POINT ( 'NONE', #247 ) ;
#551 = DIRECTION ( 'NONE',  ( 0.000000000000000000, 0.000000000000000000, 1.000000000000000000 ) ) ;
#552 = COLOUR_RGB ( '',0.05490196078431372473, 0.05490196078431372473, 0.06274509803921568540 ) ;
#553 = CIRCLE ( 'NONE', #927, 3.500000000000055067 ) ;
#554 = VERTEX_POINT ( 'NONE', #257 ) ;
#555 = FILL_AREA_STYLE ('',( #563 ) ) ;
#556 = UNCERTAINTY_MEASURE_WITH_UNIT (LENGTH_MEASURE( 1.000000000000000082E-05 ), #389, 'distance_accuracy_value', 'NONE');
#557 = COLOUR_RGB ( '',0.05490196078431372473, 0.05490196078431372473, 0.06274509803921568540 ) ;
#558 = VECTOR ( 'NONE', #256, 1000.000000000000000 ) ;
#559 = AXIS2_PLACEMENT_3D ( 'NONE', #1069, #959, #48 ) ;
#560 = FACE_OUTER_BOUND ( 'NONE', #6, .T. ) ;
#561 =( LENGTH_UNIT ( ) NAMED_UNIT ( * ) SI_UNIT ( .MILLI., .METRE. ) );
#562 = B_SPLINE_CURVE_WITH_KNOTS ( 'NONE', 3,
 ( #544, #1237, #17, #211 ),
 .UNSPECIFIED., .F., .F.,
 ( 4, 4 ),
 ( 0.000000000000000000, 1.000000000000000000 ),
 .UNSPECIFIED. ) ;
#563 = FILL_AREA_STYLE_COLOUR ( '', #422 ) ;
#564 = STYLED_ITEM ( 'NONE', ( #95 ), #333 ) ;
#565 = DIRECTION ( 'NONE',  ( -1.000000000000000000, 0.000000000000000000, 0.000000000000000000 ) ) ;
#566 = EDGE_CURVE ( 'NONE', #1192, #1040, #449, .T. ) ;
#567 = SURFACE_STYLE_USAGE ( .BOTH. , #131 ) ;
#568 = EDGE_CURVE ( 'NONE', #612, #640, #950, .T. ) ;
#569 = ORIENTED_EDGE ( 'NONE', *, *, #1174, .T. ) ;
#570 = FILL_AREA_STYLE ('',( #1055 ) ) ;
#571 = PRESENTATION_STYLE_ASSIGNMENT (( #518 ) ) ;
#572 = VERTEX_POINT ( 'NONE', #579 ) ;
#573 = ORIENTED_EDGE ( 'NONE', *, *, #652, .T. ) ;
#574 = CARTESIAN_POINT ( 'NONE',  ( 0.000000000000000000, 3.500000000000000000, 3.500000000000000000 ) ) ;
#575 = LINE ( 'NONE', #670, #919 ) ;
#576 = CARTESIAN_POINT ( 'NONE',  ( 22.46445669969848069, 19.30373120699718115, 22.83697431521423482 ) ) ;
#577 = PRODUCT ( '8-13.40 Cover', '8-13.40 Cover', '', ( #801 ) ) ;
#578 = ADVANCED_FACE ( 'NONE', ( #42 ), #769, .T. ) ;
#579 = CARTESIAN_POINT ( 'NONE',  ( 5.818376618407128831, 2.000000000000000000, 3.908553007786305766 ) ) ;
#580 =( GEOMETRIC_REPRESENTATION_CONTEXT ( 3 ) GLOBAL_UNCERTAINTY_ASSIGNED_CONTEXT ( ( #47 ) ) GLOBAL_UNIT_ASSIGNED_CONTEXT ( ( #126, #1253, #27 ) ) REPRESENTATION_CONTEXT ( 'NONE', 'WORKASPACE' ) );
#581 = PRESENTATION_LAYER_ASSIGNMENT (  '', '', ( #507 ) ) ;
#582 = FILL_AREA_STYLE_COLOUR ( '', #1162 ) ;
#583 = CARTESIAN_POINT ( 'NONE',  ( 3.500000000000055067, 40.00000000000000000, 3.500000000000055067 ) ) ;
#584 =( NAMED_UNIT ( * ) SI_UNIT ( $, .STERADIAN. ) SOLID_ANGLE_UNIT ( ) );
#585 = AXIS2_PLACEMENT_3D ( 'NONE', #511, #1212, #1018 ) ;
#586 = EDGE_LOOP ( 'NONE', ( #1226, #315, #890, #1027 ) ) ;
#587 = VERTEX_POINT ( 'NONE', #46 ) ;
#588 = PRESENTATION_STYLE_ASSIGNMENT (( #1120 ) ) ;
#589 = LINE ( 'NONE', #724, #618 ) ;
#590 = CARTESIAN_POINT ( 'NONE',  ( 5.821680026227030957, 4.304175616147276173, 2.000000000000000000 ) ) ;
#591 = EDGE_CURVE ( 'NONE', #476, #1073, #345, .T. ) ;
#592 =( NAMED_UNIT ( * ) SI_UNIT ( $, .STERADIAN. ) SOLID_ANGLE_UNIT ( ) );
#593 =( NAMED_UNIT ( * ) SI_UNIT ( $, .STERADIAN. ) SOLID_ANGLE_UNIT ( ) );
#594 = SURFACE_STYLE_FILL_AREA ( #275 ) ;
#595 = DIRECTION ( 'NONE',  ( -1.000000000000000000, 0.000000000000000000, 0.000000000000000000 ) ) ;
#596 = CARTESIAN_POINT ( 'NONE',  ( 30.77083019219745097, 2.000000000000000000, 31.83149036397729503 ) ) ;
#597 = PRESENTATION_LAYER_ASSIGNMENT (  '', '', ( #123 ) ) ;
#598 = SURFACE_SIDE_STYLE ('',( #1247 ) ) ;
#599 = UNCERTAINTY_MEASURE_WITH_UNIT (LENGTH_MEASURE( 1.000000000000000082E-05 ), #213, 'distance_accuracy_value', 'NONE');
#600 = SURFACE_STYLE_USAGE ( .BOTH. , #970 ) ;
#601 = DIRECTION ( 'NONE',  ( 0.000000000000000000, -1.000000000000000000, 0.000000000000000000 ) ) ;
#602 = PRESENTATION_LAYER_ASSIGNMENT (  '', '', ( #623 ) ) ;
#603 = ORIENTED_EDGE ( 'NONE', *, *, #517, .T. ) ;
#604 = ORIENTED_EDGE ( 'NONE', *, *, #1246, .T. ) ;
#605 = VERTEX_POINT ( 'NONE', #596 ) ;
#606 = CARTESIAN_POINT ( 'NONE',  ( 2.000000000000000000, 4.645840483118900188, 5.706500654898720271 ) ) ;
#607 = STYLED_ITEM ( 'NONE', ( #967 ), #387 ) ;
#608 = EDGE_CURVE ( 'NONE', #1046, #1196, #1286, .T. ) ;
#609 = SURFACE_STYLE_FILL_AREA ( #842 ) ;
#610 = DIRECTION ( 'NONE',  ( -0.7071067811865474617, 0.7071067811865474617, 0.000000000000000000 ) ) ;
#611 = CARTESIAN_POINT ( 'NONE',  ( 35.10479794815864807, 35.10479794815864807, 35.09909289480100369 ) ) ;
#612 = VERTEX_POINT ( 'NONE', #983 ) ;
#613 = DIRECTION ( 'NONE',  ( 0.000000000000000000, 0.7071067811865475727, -0.7071067811865475727 ) ) ;
#614 = LINE ( 'NONE', #1028, #1227 ) ;
#615 = ORIENTED_EDGE ( 'NONE', *, *, #135, .T. ) ;
#616 = ORIENTED_EDGE ( 'NONE', *, *, #412, .F. ) ;
#617 = VECTOR ( 'NONE', #1082, 1000.000000000000227 ) ;
#618 = VECTOR ( 'NONE', #1057, 1000.000000000000000 ) ;
#619 = ADVANCED_BREP_SHAPE_REPRESENTATION ( '8-13.40 Cover', ( #387, #197 ), #163 ) ;
#620 = PRESENTATION_LAYER_ASSIGNMENT (  '', '', ( #655 ) ) ;
#621 = FILL_AREA_STYLE ('',( #630 ) ) ;
#622 = FILL_AREA_STYLE ('',( #989 ) ) ;
#623 = STYLED_ITEM ( 'NONE', ( #720 ), #72 ) ;
#624 = CARTESIAN_POINT ( 'NONE',  ( 40.00000000000000000, 40.00000000000000000, 2.000000000000000000 ) ) ;
#625 = CARTESIAN_POINT ( 'NONE',  ( 31.83149036397729503, 30.77083019219745097, 2.000000000000000000 ) ) ;
#626 = STYLED_ITEM ( 'NONE', ( #738 ), #320 ) ;
#627 = FILL_AREA_STYLE_COLOUR ( '', #1230 ) ;
#628 = EDGE_CURVE ( 'NONE', #1298, #414, #1097, .T. ) ;
#629 = EDGE_CURVE ( 'NONE', #605, #748, #385, .T. ) ;
#630 = FILL_AREA_STYLE_COLOUR ( '', #904 ) ;
#631 = VECTOR ( 'NONE', #50, 1000.000000000000114 ) ;
#632 = ORIENTED_EDGE ( 'NONE', *, *, #496, .F. ) ;
#633 = UNCERTAINTY_MEASURE_WITH_UNIT (LENGTH_MEASURE( 1.000000000000000082E-05 ), #85, 'distance_accuracy_value', 'NONE');
#634 = COLOUR_RGB ( '',0.05490196078431372473, 0.05490196078431372473, 0.06274509803921568540 ) ;
#635 = FILL_AREA_STYLE ('',( #323 ) ) ;
#636 = DIRECTION ( 'NONE',  ( 1.000000000000000000, 0.000000000000000000, 0.000000000000000000 ) ) ;
#637 = DIRECTION ( 'NONE',  ( 1.000000000000000000, 0.000000000000000000, 0.000000000000000000 ) ) ;
#638 = MECHANICAL_DESIGN_GEOMETRIC_PRESENTATION_REPRESENTATION (  '', ( #1144 ), #374 ) ;
#639 = CARTESIAN_POINT ( 'NONE',  ( 2.000000000000000000, 5.818376618407128831, 3.908553007786310207 ) ) ;
#640 = VERTEX_POINT ( 'NONE', #279 ) ;
#641 = FILL_AREA_STYLE_COLOUR ( '', #922 ) ;
#642 = PRESENTATION_STYLE_ASSIGNMENT (( #212 ) ) ;
#643 = ORIENTED_EDGE ( 'NONE', *, *, #517, .F. ) ;
#644 = EDGE_LOOP ( 'NONE', ( #1279, #1026, #160, #398, #851, #929, #1009 ) ) ;
#645 = LINE ( 'NONE', #214, #417 ) ;
#646 = PRESENTATION_LAYER_ASSIGNMENT (  '', '', ( #253 ) ) ;
#647 = DIRECTION ( 'NONE',  ( -0.7071067811865474617, 0.000000000000000000, 0.7071067811865474617 ) ) ;
#648 = UNCERTAINTY_MEASURE_WITH_UNIT (LENGTH_MEASURE( 1.000000000000000082E-05 ), #36, 'distance_accuracy_value', 'NONE');
#649 = SURFACE_STYLE_USAGE ( .BOTH. , #319 ) ;
#650 = ADVANCED_FACE ( 'NONE', ( #832 ), #154, .F. ) ;
#651 =( LENGTH_UNIT ( ) NAMED_UNIT ( * ) SI_UNIT ( .MILLI., .METRE. ) );
#652 = EDGE_CURVE ( 'NONE', #1073, #437, #864, .T. ) ;
#653 = FILL_AREA_STYLE_COLOUR ( '', #489 ) ;
#654 =( NAMED_UNIT ( * ) SI_UNIT ( $, .STERADIAN. ) SOLID_ANGLE_UNIT ( ) );
#655 = STYLED_ITEM ( 'NONE', ( #1011 ), #666 ) ;
#656 = CARTESIAN_POINT ( 'NONE',  ( 2.000000000000000000, 5.307063229445669883, 2.000000000000000000 ) ) ;
#657 = ORIENTED_EDGE ( 'NONE', *, *, #952, .T. ) ;
#658 = VECTOR ( 'NONE', #514, 1000.000000000000114 ) ;
#659 = EDGE_CURVE ( 'NONE', #554, #1092, #1048, .T. ) ;
#660 = COLOUR_RGB ( '',0.05490196078431372473, 0.05490196078431372473, 0.06274509803921568540 ) ;
#661 = CARTESIAN_POINT ( 'NONE',  ( 2.000000000000000000, 4.645840483118900188, 5.706500654898720271 ) ) ;
#662 = MECHANICAL_DESIGN_GEOMETRIC_PRESENTATION_REPRESENTATION (  '', ( #12 ), #1064 ) ;
#663 = CARTESIAN_POINT ( 'NONE',  ( 13.61183440075511797, 17.31819852911932855, 16.25753835733950226 ) ) ;
#664 = EDGE_CURVE ( 'NONE', #437, #1092, #907, .T. ) ;
#665 = CARTESIAN_POINT ( 'NONE',  ( 22.06273531512325192, 19.41902060485260151, 23.12339548690304980 ) ) ;
#666 = ADVANCED_FACE ( 'NONE', ( #400 ), #697, .T. ) ;
#667 = UNCERTAINTY_MEASURE_WITH_UNIT (LENGTH_MEASURE( 1.000000000000000082E-05 ), #1116, 'distance_accuracy_value', 'NONE');
#668 = DIRECTION ( 'NONE',  ( 0.000000000000000000, 0.000000000000000000, 1.000000000000000000 ) ) ;
#669 = AXIS2_PLACEMENT_3D ( 'NONE', #162, #361, #963 ) ;
#670 = CARTESIAN_POINT ( 'NONE',  ( 2.000000000000000000, 2.000000000000000000, 40.00000000000000000 ) ) ;
#671 = VERTEX_POINT ( 'NONE', #277 ) ;
#672 = SURFACE_STYLE_FILL_AREA ( #1314 ) ;
#673 = VECTOR ( 'NONE', #1154, 1000.000000000000000 ) ;
#674 = DIRECTION ( 'NONE',  ( 1.000000000000000000, 0.000000000000000000, 0.000000000000000000 ) ) ;
#675 = FACE_OUTER_BOUND ( 'NONE', #250, .T. ) ;
#676 = CARTESIAN_POINT ( 'NONE',  ( 35.10479794815864807, 35.10479794815864807, 35.09909289480100369 ) ) ;
#677 = MECHANICAL_DESIGN_GEOMETRIC_PRESENTATION_REPRESENTATION (  '', ( #430 ), #857 ) ;
#678 = CARTESIAN_POINT ( 'NONE',  ( 2.000000000000000000, 5.307063229445669883, 2.000000000000000000 ) ) ;
#679 = CARTESIAN_POINT ( 'NONE',  ( 5.544936123904252057, 2.475598368108238301, 2.000000000000000000 ) ) ;
#680 = DIRECTION ( 'NONE',  ( 0.5773815451999821935, 0.5773815451999821935, 0.5772877120855440802 ) ) ;
#681 = MECHANICAL_DESIGN_GEOMETRIC_PRESENTATION_REPRESENTATION (  '', ( #623 ), #746 ) ;
#682 = DIRECTION ( 'NONE',  ( 0.7071067811865474617, -0.7071067811865474617, 0.000000000000000000 ) ) ;
#683 = UNCERTAINTY_MEASURE_WITH_UNIT (LENGTH_MEASURE( 1.000000000000000082E-05 ), #169, 'distance_accuracy_value', 'NONE');
#684 = FILL_AREA_STYLE ('',( #1273 ) ) ;
#685 = EDGE_LOOP ( 'NONE', ( #1135, #157, #1123 ) ) ;
#686 = AXIS2_PLACEMENT_3D ( 'NONE', #811, #293, #705 ) ;
#687 = DIRECTION ( 'NONE',  ( 0.000000000000000000, 1.000000000000000000, 0.000000000000000000 ) ) ;
#688 = SURFACE_STYLE_FILL_AREA ( #153 ) ;
#689 = ORIENTED_EDGE ( 'NONE', *, *, #1287, .F. ) ;
#690 = EDGE_LOOP ( 'NONE', ( #73, #248, #1295, #1284 ) ) ;
#691 = ORIENTED_EDGE ( 'NONE', *, *, #1218, .T. ) ;
#692 = EDGE_CURVE ( 'NONE', #1261, #364, #1156, .T. ) ;
#693 = EDGE_CURVE ( 'NONE', #572, #723, #188, .T. ) ;
#694 =( NAMED_UNIT ( * ) SI_UNIT ( $, .STERADIAN. ) SOLID_ANGLE_UNIT ( ) );
#695 = STYLED_ITEM ( 'NONE', ( #831 ), #834 ) ;
#696 = CARTESIAN_POINT ( 'NONE',  ( 2.000000000000000000, 42.00000000000000000, 40.00000000000000000 ) ) ;
#697 = PLANE ( 'NONE',  #742 ) ;
#698 = CARTESIAN_POINT ( 'NONE',  ( 2.000000000000000000, 30.77083019219745097, 31.83149036397729503 ) ) ;
#699 = ORIENTED_EDGE ( 'NONE', *, *, #338, .F. ) ;
#700 = LINE ( 'NONE', #1033, #1195 ) ;
#701 = SURFACE_STYLE_USAGE ( .BOTH. , #386 ) ;
#702 = CARTESIAN_POINT ( 'NONE',  ( 2.583882404742548822, 0.09109563166090063613, 2.583882404742547045 ) ) ;
#703 = UNCERTAINTY_MEASURE_WITH_UNIT (LENGTH_MEASURE( 1.000000000000000082E-05 ), #837, 'distance_accuracy_value', 'NONE');
#704 =( NAMED_UNIT ( * ) PLANE_ANGLE_UNIT ( ) SI_UNIT ( $, .RADIAN. ) );
#705 = DIRECTION ( 'NONE',  ( -0.7071067811865475727, 0.7071067811865475727, 0.000000000000000000 ) ) ;
#706 = DIRECTION ( 'NONE',  ( 0.000000000000000000, 0.000000000000000000, -1.000000000000000000 ) ) ;
#707 = DIRECTION ( 'NONE',  ( 0.000000000000000000, 0.7071067811865463515, 0.7071067811865487940 ) ) ;
#708 = CARTESIAN_POINT ( 'NONE',  ( 0.000000000000000000, 40.00000000000000000, 40.00000000000000000 ) ) ;
#709 = EDGE_CURVE ( 'NONE', #1180, #671, #749, .T. ) ;
#710 = CARTESIAN_POINT ( 'NONE',  ( 35.63324405845860099, 36.69390423023839531, 32.98119631263210039 ) ) ;
#711 = EDGE_LOOP ( 'NONE', ( #161, #569 ) ) ;
#712 = CARTESIAN_POINT ( 'NONE',  ( 1.349086480087816176, 0.7011660516063835669, 1.349086480087815954 ) ) ;
#713 = ORIENTED_EDGE ( 'NONE', *, *, #1051, .F. ) ;
#714 = LINE ( 'NONE', #1119, #175 ) ;
#715 = AXIS2_PLACEMENT_3D ( 'NONE', #166, #258, #969 ) ;
#716 = LINE ( 'NONE', #1256, #1200 ) ;
#717 = DIRECTION ( 'NONE',  ( -0.7071067811865474617, 0.000000000000000000, 0.7071067811865474617 ) ) ;
#718 = VECTOR ( 'NONE', #911, 1000.000000000000000 ) ;
#719 = PRESENTATION_LAYER_ASSIGNMENT (  '', '', ( #461 ) ) ;
#720 = PRESENTATION_STYLE_ASSIGNMENT (( #1173 ) ) ;
#721 = ADVANCED_FACE ( 'NONE', ( #979 ), #57, .T. ) ;
#722 = PRESENTATION_LAYER_ASSIGNMENT (  '', '', ( #607 ) ) ;
#723 = VERTEX_POINT ( 'NONE', #809 ) ;
#724 = CARTESIAN_POINT ( 'NONE',  ( 2.000000000000000000, 40.00000000000000000, 40.00000000000000000 ) ) ;
#725 = PLANE ( 'NONE',  #549 ) ;
#726 = PRESENTATION_STYLE_ASSIGNMENT (( #1104 ) ) ;
#727 = ORIENTED_EDGE ( 'NONE', *, *, #891, .F. ) ;
#728 = ADVANCED_FACE ( 'NONE', ( #91 ), #799, .F. ) ;
#729 = CARTESIAN_POINT ( 'NONE',  ( 27.42179418695552684, 31.24017080536247803, 29.32621577394569812 ) ) ;
#730 =( GEOMETRIC_REPRESENTATION_CONTEXT ( 3 ) GLOBAL_UNCERTAINTY_ASSIGNED_CONTEXT ( ( #1220 ) ) GLOBAL_UNIT_ASSIGNED_CONTEXT ( ( #1289, #880, #770 ) ) REPRESENTATION_CONTEXT ( 'NONE', 'WORKASPACE' ) );
#731 = ORIENTED_EDGE ( 'NONE', *, *, #181, .T. ) ;
#732 = EDGE_LOOP ( 'NONE', ( #1060, #41, #744 ) ) ;
#733 =( LENGTH_UNIT ( ) NAMED_UNIT ( * ) SI_UNIT ( .MILLI., .METRE. ) );
#734 = SURFACE_SIDE_STYLE ('',( #1266 ) ) ;
#735 = LINE ( 'NONE', #1039, #1265 ) ;
#736 = CARTESIAN_POINT ( 'NONE',  ( 1.999855233910631025, 5.818231852317768293, 4.175537918351272637 ) ) ;
#737 = CARTESIAN_POINT ( 'NONE',  ( 3.500000000000055067, 3.500000000000055067, 40.00000000000000000 ) ) ;
#738 = PRESENTATION_STYLE_ASSIGNMENT (( #1117 ) ) ;
#739 = SURFACE_STYLE_USAGE ( .BOTH. , #15 ) ;
#740 = DIRECTION ( 'NONE',  ( -0.4082040559113572775, -0.4082040559113572775, 0.8165408118857470088 ) ) ;
#741 = PLANE ( 'NONE',  #290 ) ;
#742 = AXIS2_PLACEMENT_3D ( 'NONE', #793, #976, #994 ) ;
#743 = DIRECTION ( 'NONE',  ( 0.000000000000000000, 0.000000000000000000, -1.000000000000000000 ) ) ;
#744 = ORIENTED_EDGE ( 'NONE', *, *, #273, .T. ) ;
#745 =( NAMED_UNIT ( * ) PLANE_ANGLE_UNIT ( ) SI_UNIT ( $, .RADIAN. ) );
#746 =( GEOMETRIC_REPRESENTATION_CONTEXT ( 3 ) GLOBAL_UNCERTAINTY_ASSIGNED_CONTEXT ( ( #429 ) ) GLOBAL_UNIT_ASSIGNED_CONTEXT ( ( #1080, #65, #593 ) ) REPRESENTATION_CONTEXT ( 'NONE', 'WORKASPACE' ) );
#747 = ORIENTED_EDGE ( 'NONE', *, *, #854, .F. ) ;
#748 = VERTEX_POINT ( 'NONE', #497 ) ;
#749 = LINE ( 'NONE', #373, #617 ) ;
#750 = DIRECTION ( 'NONE',  ( 1.000000000000000000, 0.000000000000000000, 0.000000000000000000 ) ) ;
#751 =( GEOMETRIC_REPRESENTATION_CONTEXT ( 3 ) GLOBAL_UNCERTAINTY_ASSIGNED_CONTEXT ( ( #819 ) ) GLOBAL_UNIT_ASSIGNED_CONTEXT ( ( #404, #818, #392 ) ) REPRESENTATION_CONTEXT ( 'NONE', 'WORKASPACE' ) );
#752 = CYLINDRICAL_SURFACE ( 'NONE', #97, 3.500000000000054623 ) ;
#753 = CARTESIAN_POINT ( 'NONE',  ( 23.12543791803894777, 22.06477774625914989, 19.41493507862189816 ) ) ;
#754 = EDGE_CURVE ( 'NONE', #1031, #58, #917, .T. ) ;
#755 = SURFACE_SIDE_STYLE ('',( #1098 ) ) ;
#756 = EDGE_CURVE ( 'NONE', #362, #103, #504, .T. ) ;
#757 =( NAMED_UNIT ( * ) PLANE_ANGLE_UNIT ( ) SI_UNIT ( $, .RADIAN. ) );
#758 = AXIS2_PLACEMENT_3D ( 'NONE', #310, #821, #1110 ) ;
#759 = B_SPLINE_CURVE_WITH_KNOTS ( 'NONE', 3,
 ( #216, #321, #1131, #117 ),
 .UNSPECIFIED., .F., .F.,
 ( 4, 4 ),
 ( 0.000000000000000000, 0.5629604085958862525 ),
 .UNSPECIFIED. ) ;
#760 = DIRECTION ( 'NONE',  ( 0.7071067811865474617, -0.7071067811865474617, 0.000000000000000000 ) ) ;
#761 = ORIENTED_EDGE ( 'NONE', *, *, #912, .F. ) ;
#762 = SURFACE_STYLE_USAGE ( .BOTH. , #260 ) ;
#763 = ORIENTED_EDGE ( 'NONE', *, *, #69, .T. ) ;
#764 = CARTESIAN_POINT ( 'NONE',  ( 40.00000000000000000, 40.00000000000000000, 0.000000000000000000 ) ) ;
#765 =( NAMED_UNIT ( * ) PLANE_ANGLE_UNIT ( ) SI_UNIT ( $, .RADIAN. ) );
#766 = PRESENTATION_LAYER_ASSIGNMENT (  '', '', ( #808 ) ) ;
#767 = FACE_OUTER_BOUND ( 'NONE', #732, .T. ) ;
#768 = CARTESIAN_POINT ( 'NONE',  ( 40.00000000000000000, 3.500000000000000000, 0.000000000000000000 ) ) ;
#769 = PLANE ( 'NONE',  #715 ) ;
#770 =( NAMED_UNIT ( * ) SI_UNIT ( $, .STERADIAN. ) SOLID_ANGLE_UNIT ( ) );
#771 = PRESENTATION_LAYER_ASSIGNMENT (  '', '', ( #695 ) ) ;
#772 = ORIENTED_EDGE ( 'NONE', *, *, #69, .F. ) ;
#773 = VECTOR ( 'NONE', #1125, 1000.000000000000000 ) ;
#774 = CARTESIAN_POINT ( 'NONE',  ( 5.307063229445669883, 2.000000000000000000, 2.000000000000000000 ) ) ;
#775 = ORIENTED_EDGE ( 'NONE', *, *, #692, .F. ) ;
#776 = EDGE_CURVE ( 'NONE', #40, #55, #1262, .T. ) ;
#777 = ORIENTED_EDGE ( 'NONE', *, *, #207, .F. ) ;
#778 = PLANE ( 'NONE',  #1105 ) ;
#779 = COLOUR_RGB ( '',0.05490196078431372473, 0.05490196078431372473, 0.06274509803921568540 ) ;
#780 = FILL_AREA_STYLE ('',( #152 ) ) ;
#781 = ADVANCED_FACE ( 'NONE', ( #236 ), #191, .T. ) ;
#782 = CARTESIAN_POINT ( 'NONE',  ( 31.83149036397729503, 30.77083019219745097, 2.000000000000000000 ) ) ;
#783 = CIRCLE ( 'NONE', #1189, 2.499999999999897859 ) ;
#784 = DIRECTION ( 'NONE',  ( 1.000000000000000000, 0.000000000000000000, 0.000000000000000000 ) ) ;
#785 = PRESENTATION_LAYER_ASSIGNMENT (  '', '', ( #966 ) ) ;
#786 = CARTESIAN_POINT ( 'NONE',  ( 1.999999999999991340, 3.878050480187570592, 5.848322215505649346 ) ) ;
#787 = EDGE_CURVE ( 'NONE', #520, #232, #282, .T. ) ;
#788 = DIRECTION ( 'NONE',  ( 0.000000000000000000, 0.000000000000000000, 1.000000000000000000 ) ) ;
#789 = CARTESIAN_POINT ( 'NONE',  ( 17.31819857288284936, 13.61183441822028506, 16.25753829611013757 ) ) ;
#790 = ORIENTED_EDGE ( 'NONE', *, *, #1243, .T. ) ;
#791 = AXIS2_PLACEMENT_3D ( 'NONE', #439, #1015, #311 ) ;
#792 = ORIENTED_EDGE ( 'NONE', *, *, #814, .F. ) ;
#793 = CARTESIAN_POINT ( 'NONE',  ( 0.000000000000000000, 0.000000000000000000, 40.00000000000000000 ) ) ;
#794 = CIRCLE ( 'NONE', #988, 3.500000000000055067 ) ;
#795 = CARTESIAN_POINT ( 'NONE',  ( 1.025126265847100093, 1.025126265847100093, 1.025126265847102092 ) ) ;
#796 = MECHANICAL_DESIGN_GEOMETRIC_PRESENTATION_REPRESENTATION (  '', ( #44 ), #540 ) ;
#797 = DIRECTION ( 'NONE',  ( 1.000000000000000000, 0.000000000000000000, 0.000000000000000000 ) ) ;
#798 = FILL_AREA_STYLE ('',( #195 ) ) ;
#799 = PLANE ( 'NONE',  #1115 ) ;
#800 = CARTESIAN_POINT ( 'NONE',  ( 3.041851071351517888, 1.090978436063538245E-15, 3.041851071351506786 ) ) ;
#801 = PRODUCT_CONTEXT ( 'NONE', #1088, 'mechanical' ) ;
#802 = DIRECTION ( 'NONE',  ( 0.000000000000000000, -0.7071067811865474617, -0.7071067811865474617 ) ) ;
#803 = FILL_AREA_STYLE_COLOUR ( '', #402 ) ;
#804 = EDGE_LOOP ( 'NONE', ( #1281, #533, #145, #914, #503, #604, #485, #1211, #777 ) ) ;
#805 = SURFACE_SIDE_STYLE ('',( #377 ) ) ;
#806 = VECTOR ( 'NONE', #1267, 1000.000000000000000 ) ;
#807 = ORIENTED_EDGE ( 'NONE', *, *, #921, .T. ) ;
#808 = STYLED_ITEM ( 'NONE', ( #178 ), #478 ) ;
#809 = CARTESIAN_POINT ( 'NONE',  ( 31.24017080536255975, 27.42179418695542736, 29.32621577394570167 ) ) ;
#810 = ORIENTED_EDGE ( 'NONE', *, *, #536, .T. ) ;
#811 = CARTESIAN_POINT ( 'NONE',  ( 35.10479794815880439, 35.10479794815880439, 35.09909289480114580 ) ) ;
#812 = VECTOR ( 'NONE', #465, 1000.000000000000114 ) ;
#813 = FACE_BOUND ( 'NONE', #411, .T. ) ;
#814 = EDGE_CURVE ( 'NONE', #1180, #502, #74, .T. ) ;
#815 =( NAMED_UNIT ( * ) PLANE_ANGLE_UNIT ( ) SI_UNIT ( $, .RADIAN. ) );
#816 = DIRECTION ( 'NONE',  ( 0.7071067811865474617, 0.7071067811865474617, 0.000000000000000000 ) ) ;
#817 = COLOUR_RGB ( '',0.05490196078431372473, 0.05490196078431372473, 0.06274509803921568540 ) ;
#818 =( NAMED_UNIT ( * ) PLANE_ANGLE_UNIT ( ) SI_UNIT ( $, .RADIAN. ) );
#819 = UNCERTAINTY_MEASURE_WITH_UNIT (LENGTH_MEASURE( 1.000000000000000082E-05 ), #404, 'distance_accuracy_value', 'NONE');
#820 = AXIS2_PLACEMENT_3D ( 'NONE', #94, #80, #913 ) ;
#821 = DIRECTION ( 'NONE',  ( -0.7071067811865475727, 0.000000000000000000, 0.7071067811865475727 ) ) ;
#822 = SURFACE_SIDE_STYLE ('',( #882 ) ) ;
#823 = EDGE_CURVE ( 'NONE', #58, #1244, #1278, .T. ) ;
#824 = EDGE_CURVE ( 'NONE', #40, #1196, #992, .T. ) ;
#825 = DIRECTION ( 'NONE',  ( 0.7071067811865474617, 0.7071067811865474617, 0.000000000000000000 ) ) ;
#826 = AXIS2_PLACEMENT_3D ( 'NONE', #433, #442, #933 ) ;
#827 = DIRECTION ( 'NONE',  ( -0.5773815451999821935, -0.5772877120855440802, -0.5773815451999821935 ) ) ;
#828 = CARTESIAN_POINT ( 'NONE',  ( 29.33098249615900244, 29.33098249615900244, 29.32621577394569812 ) ) ;
#829 = ORIENTED_EDGE ( 'NONE', *, *, #412, .T. ) ;
#830 = ORIENTED_EDGE ( 'NONE', *, *, #854, .T. ) ;
#831 = PRESENTATION_STYLE_ASSIGNMENT (( #649 ) ) ;
#832 = FACE_OUTER_BOUND ( 'NONE', #9, .T. ) ;
#833 = PRESENTATION_STYLE_ASSIGNMENT (( #567 ) ) ;
#834 = ADVANCED_FACE ( 'NONE', ( #1094 ), #420, .F. ) ;
#835 =( NAMED_UNIT ( * ) SI_UNIT ( $, .STERADIAN. ) SOLID_ANGLE_UNIT ( ) );
#836 = DIRECTION ( 'NONE',  ( 0.000000000000000000, 0.000000000000000000, 1.000000000000000000 ) ) ;
#837 =( LENGTH_UNIT ( ) NAMED_UNIT ( * ) SI_UNIT ( .MILLI., .METRE. ) );
#838 =( GEOMETRIC_REPRESENTATION_CONTEXT ( 3 ) GLOBAL_UNCERTAINTY_ASSIGNED_CONTEXT ( ( #498 ) ) GLOBAL_UNIT_ASSIGNED_CONTEXT ( ( #866, #765, #357 ) ) REPRESENTATION_CONTEXT ( 'NONE', 'WORKASPACE' ) );
#839 = CARTESIAN_POINT ( 'NONE',  ( 2.000000000000000000, 5.307063229445669883, 2.000000000000000000 ) ) ;
#840 = DIRECTION ( 'NONE',  ( -0.7071067811865474617, 0.7071067811865474617, 0.000000000000000000 ) ) ;
#841 = PLANE ( 'NONE',  #1259 ) ;
#842 = FILL_AREA_STYLE ('',( #627 ) ) ;
#843 = ORIENTED_EDGE ( 'NONE', *, *, #754, .T. ) ;
#844 = ORIENTED_EDGE ( 'NONE', *, *, #261, .T. ) ;
#845 = DIRECTION ( 'NONE',  ( -0.4082040559113554457, -0.4082040559113554457, 0.8165408118857488962 ) ) ;
#846 = AXIS2_PLACEMENT_3D ( 'NONE', #1242, #750, #128 ) ;
#847 = VECTOR ( 'NONE', #1169, 1000.000000000000000 ) ;
#848 =( LENGTH_UNIT ( ) NAMED_UNIT ( * ) SI_UNIT ( .MILLI., .METRE. ) );
#849 = ORIENTED_EDGE ( 'NONE', *, *, #1287, .T. ) ;
#850 = SURFACE_STYLE_FILL_AREA ( #59 ) ;
#851 = ORIENTED_EDGE ( 'NONE', *, *, #659, .F. ) ;
#852 = CARTESIAN_POINT ( 'NONE',  ( 3.878050480187559490, 1.999999999999999556, 5.848322215505655564 ) ) ;
#853 =( NAMED_UNIT ( * ) PLANE_ANGLE_UNIT ( ) SI_UNIT ( $, .RADIAN. ) );
#854 = EDGE_CURVE ( 'NONE', #1010, #362, #700, .T. ) ;
#855 = B_SPLINE_CURVE_WITH_KNOTS ( 'NONE', 3,
 ( #678, #1235, #66, #1142, #305, #1193 ),
 .UNSPECIFIED., .F., .F.,
 ( 4, 2, 4 ),
 ( 0.000000000000000000, 1.500000000000000000, 3.000000000000000000 ),
 .UNSPECIFIED. ) ;
#856 = CARTESIAN_POINT ( 'NONE',  ( 0.5303300858899089310, -0.5303300858899089310, 0.000000000000000000 ) ) ;
#857 =( GEOMETRIC_REPRESENTATION_CONTEXT ( 3 ) GLOBAL_UNCERTAINTY_ASSIGNED_CONTEXT ( ( #340 ) ) GLOBAL_UNIT_ASSIGNED_CONTEXT ( ( #1305, #1206, #901 ) ) REPRESENTATION_CONTEXT ( 'NONE', 'WORKASPACE' ) );
#858 = CARTESIAN_POINT ( 'NONE',  ( 4.294575458716936467, 1.999999997605789837, 5.823234227101425908 ) ) ;
#859 = CARTESIAN_POINT ( 'NONE',  ( 2.000000000000000000, 2.000000000000000000, 5.306306997244799817 ) ) ;
#860 = MECHANICAL_DESIGN_GEOMETRIC_PRESENTATION_REPRESENTATION (  '', ( #461 ), #32 ) ;
#861 = EDGE_LOOP ( 'NONE', ( #380, #615, #863, #285 ) ) ;
#862 = UNCERTAINTY_MEASURE_WITH_UNIT (LENGTH_MEASURE( 1.000000000000000082E-05 ), #651, 'distance_accuracy_value', 'NONE');
#863 = ORIENTED_EDGE ( 'NONE', *, *, #709, .T. ) ;
#864 = B_SPLINE_CURVE_WITH_KNOTS ( 'NONE', 3,
 ( #606, #1191, #786, #1292, #893, #378 ),
 .UNSPECIFIED., .F., .F.,
 ( 4, 2, 4 ),
 ( 0.000000000000000000, 0.5000000000000000000, 1.000000000000000000 ),
 .UNSPECIFIED. ) ;
#865 = COLOUR_RGB ( '',0.05490196078431372473, 0.05490196078431372473, 0.06274509803921568540 ) ;
#866 =( LENGTH_UNIT ( ) NAMED_UNIT ( * ) SI_UNIT ( .MILLI., .METRE. ) );
#867 = DIRECTION ( 'NONE',  ( 0.000000000000000000, 1.000000000000000000, 0.000000000000000000 ) ) ;
#868 = MECHANICAL_DESIGN_GEOMETRIC_PRESENTATION_REPRESENTATION (  '', ( #607 ), #1129 ) ;
#869 = FACE_OUTER_BOUND ( 'NONE', #264, .T. ) ;
#870 = CARTESIAN_POINT ( 'NONE',  ( 40.00000000000000000, 3.500000000000000000, 0.000000000000000000 ) ) ;
#871 = CARTESIAN_POINT ( 'NONE',  ( 21.53633163595920053, 21.53633163595920053, 21.53283166079079791 ) ) ;
#872 = CARTESIAN_POINT ( 'NONE',  ( 5.707672192649579479, 4.647012020869759397, 2.000000000000000000 ) ) ;
#873 = AXIS2_PLACEMENT_3D ( 'NONE', #156, #884, #376 ) ;
#874 = SURFACE_SIDE_STYLE ('',( #1049 ) ) ;
#875 = ORIENTED_EDGE ( 'NONE', *, *, #447, .T. ) ;
#876 = SURFACE_SIDE_STYLE ('',( #419 ) ) ;
#877 = ORIENTED_EDGE ( 'NONE', *, *, #954, .F. ) ;
#878 = VERTEX_POINT ( 'NONE', #729 ) ;
#879 = CLOSED_SHELL ( 'NONE', ( #834, #1254, #666, #1024, #650, #445, #72, #728, #1236, #333, #885, #10, #1124, #578, #372, #320, #781, #355, #534, #150, #30, #438, #478, #111, #451, #130, #721 ) ) ;
#880 =( NAMED_UNIT ( * ) PLANE_ANGLE_UNIT ( ) SI_UNIT ( $, .RADIAN. ) );
#881 = LINE ( 'NONE', #444, #812 ) ;
#882 = SURFACE_STYLE_FILL_AREA ( #635 ) ;
#883 = STYLED_ITEM ( 'NONE', ( #588 ), #728 ) ;
#884 = DIRECTION ( 'NONE',  ( -1.000000000000000000, 0.000000000000000000, 0.000000000000000000 ) ) ;
#885 = ADVANCED_FACE ( 'NONE', ( #434 ), #1029, .T. ) ;
#886 = FILL_AREA_STYLE_COLOUR ( '', #552 ) ;
#887 = DIRECTION ( 'NONE',  ( 0.000000000000000000, -1.000000000000000000, 0.000000000000000000 ) ) ;
#888 = FILL_AREA_STYLE ('',( #176 ) ) ;
#889 = EDGE_CURVE ( 'NONE', #723, #878, #298, .T. ) ;
#890 = ORIENTED_EDGE ( 'NONE', *, *, #628, .F. ) ;
#891 = EDGE_CURVE ( 'NONE', #1079, #40, #614, .T. ) ;
#892 = LINE ( 'NONE', #149, #366 ) ;
#893 = CARTESIAN_POINT ( 'NONE',  ( 1.999999999999994893, 2.487183516764281510, 5.549859168450271163 ) ) ;
#894 = ORIENTED_EDGE ( 'NONE', *, *, #447, .F. ) ;
#895 =( GEOMETRIC_REPRESENTATION_CONTEXT ( 3 ) GLOBAL_UNCERTAINTY_ASSIGNED_CONTEXT ( ( #703 ) ) GLOBAL_UNIT_ASSIGNED_CONTEXT ( ( #837, #125, #1136 ) ) REPRESENTATION_CONTEXT ( 'NONE', 'WORKASPACE' ) );
#896 = SURFACE_STYLE_FILL_AREA ( #459 ) ;
#897 =( NAMED_UNIT ( * ) PLANE_ANGLE_UNIT ( ) SI_UNIT ( $, .RADIAN. ) );
#898 = CARTESIAN_POINT ( 'NONE',  ( 3.500000000000059952, 4.336808689942019708E-16, 3.500000000000000000 ) ) ;
#899 = FILL_AREA_STYLE_COLOUR ( '', #1134 ) ;
#900 = MECHANICAL_DESIGN_GEOMETRIC_PRESENTATION_REPRESENTATION (  '', ( #1190 ), #580 ) ;
#901 =( NAMED_UNIT ( * ) SI_UNIT ( $, .STERADIAN. ) SOLID_ANGLE_UNIT ( ) );
#902 = ORIENTED_EDGE ( 'NONE', *, *, #629, .F. ) ;
#903 = FACE_OUTER_BOUND ( 'NONE', #365, .T. ) ;
#904 = COLOUR_RGB ( '',0.05490196078431372473, 0.05490196078431372473, 0.06274509803921568540 ) ;
#905 = ORIENTED_EDGE ( 'NONE', *, *, #975, .F. ) ;
#906 = ORIENTED_EDGE ( 'NONE', *, *, #756, .T. ) ;
#907 = LINE ( 'NONE', #1099, #26 ) ;
#908 = CARTESIAN_POINT ( 'NONE',  ( 2.000000000000000000, 5.818376618407128831, 3.908553007786310207 ) ) ;
#909 =( GEOMETRIC_REPRESENTATION_CONTEXT ( 3 ) GLOBAL_UNCERTAINTY_ASSIGNED_CONTEXT ( ( #1072 ) ) GLOBAL_UNIT_ASSIGNED_CONTEXT ( ( #328, #853, #654 ) ) REPRESENTATION_CONTEXT ( 'NONE', 'WORKASPACE' ) );
#910 =( LENGTH_UNIT ( ) NAMED_UNIT ( * ) SI_UNIT ( .MILLI., .METRE. ) );
#911 = DIRECTION ( 'NONE',  ( 0.000000000000000000, 0.000000000000000000, -1.000000000000000000 ) ) ;
#912 = EDGE_CURVE ( 'NONE', #1294, #1298, #553, .T. ) ;
#913 = DIRECTION ( 'NONE',  ( 0.7071067811865474617, -0.7071067811865474617, 0.000000000000000000 ) ) ;
#914 = ORIENTED_EDGE ( 'NONE', *, *, #891, .T. ) ;
#915 = PRESENTATION_LAYER_ASSIGNMENT (  '', '', ( #883 ) ) ;
#916 = DIRECTION ( 'NONE',  ( -1.000000000000000000, 0.000000000000000000, 0.000000000000000000 ) ) ;
#917 = LINE ( 'NONE', #303, #658 ) ;
#918 = PLANE ( 'NONE',  #791 ) ;
#919 = VECTOR ( 'NONE', #49, 1000.000000000000000 ) ;
#920 = LINE ( 'NONE', #316, #541 ) ;
#921 = EDGE_CURVE ( 'NONE', #990, #748, #562, .T. ) ;
#922 = COLOUR_RGB ( '',1.000000000000000000, 0.000000000000000000, 0.000000000000000000 ) ;
#923 =( NAMED_UNIT ( * ) PLANE_ANGLE_UNIT ( ) SI_UNIT ( $, .RADIAN. ) );
#924 =( NAMED_UNIT ( * ) SI_UNIT ( $, .STERADIAN. ) SOLID_ANGLE_UNIT ( ) );
#925 =( GEOMETRIC_REPRESENTATION_CONTEXT ( 3 ) GLOBAL_UNCERTAINTY_ASSIGNED_CONTEXT ( ( #1181 ) ) GLOBAL_UNIT_ASSIGNED_CONTEXT ( ( #1133, #222, #210 ) ) REPRESENTATION_CONTEXT ( 'NONE', 'WORKASPACE' ) );
#926 = SURFACE_STYLE_USAGE ( .BOTH. , #734 ) ;
#927 = AXIS2_PLACEMENT_3D ( 'NONE', #737, #551, #636 ) ;
#928 = FACE_OUTER_BOUND ( 'NONE', #861, .T. ) ;
#929 = ORIENTED_EDGE ( 'NONE', *, *, #388, .T. ) ;
#930 = CARTESIAN_POINT ( 'NONE',  ( 3.500000000000059952, 4.336808689942019708E-16, 3.500000000000000000 ) ) ;
#931 = EDGE_LOOP ( 'NONE', ( #643, #1149, #894, #1208 ) ) ;
#932 =( NAMED_UNIT ( * ) SI_UNIT ( $, .STERADIAN. ) SOLID_ANGLE_UNIT ( ) );
#933 = DIRECTION ( 'NONE',  ( 1.000000000000000000, 0.000000000000000000, 0.000000000000000000 ) ) ;
#934 = LINE ( 'NONE', #337, #946 ) ;
#935 = UNCERTAINTY_MEASURE_WITH_UNIT (LENGTH_MEASURE( 1.000000000000000082E-05 ), #848, 'distance_accuracy_value', 'NONE');
#936 = COLOUR_RGB ( '',0.05490196078431372473, 0.05490196078431372473, 0.06274509803921568540 ) ;
#937 = SURFACE_SIDE_STYLE ('',( #1014 ) ) ;
#938 = LINE ( 'NONE', #1225, #289 ) ;
#939 = FACE_OUTER_BOUND ( 'NONE', #586, .T. ) ;
#940 = CARTESIAN_POINT ( 'NONE',  ( 35.10479794815864807, 35.10479794815864807, 35.09909289480100369 ) ) ;
#941 = DIRECTION ( 'NONE',  ( -0.5773815451999810833, -0.5773815451999810833, -0.5772877120855460786 ) ) ;
#942 = MECHANICAL_DESIGN_GEOMETRIC_PRESENTATION_REPRESENTATION (  '', ( #808 ), #1231 ) ;
#943 = DIRECTION ( 'NONE',  ( 0.4082040559113554457, -0.8165408118857488962, 0.4082040559113554457 ) ) ;
#944 = EDGE_CURVE ( 'NONE', #202, #1294, #1308, .T. ) ;
#945 = ORIENTED_EDGE ( 'NONE', *, *, #814, .T. ) ;
#946 = VECTOR ( 'NONE', #743, 1000.000000000000000 ) ;
#947 = ORIENTED_EDGE ( 'NONE', *, *, #1021, .F. ) ;
#948 = MECHANICAL_DESIGN_GEOMETRIC_PRESENTATION_REPRESENTATION (  '', ( #626 ), #1085 ) ;
#949 = FACE_OUTER_BOUND ( 'NONE', #106, .T. ) ;
#950 = CIRCLE ( 'NONE', #199, 3.500000000000055067 ) ;
#951 = DIRECTION ( 'NONE',  ( 1.000000000000000000, 0.000000000000000000, 0.000000000000000000 ) ) ;
#952 = EDGE_CURVE ( 'NONE', #1261, #215, #538, .T. ) ;
#953 = CARTESIAN_POINT ( 'NONE',  ( 19.41902060485260151, 22.06273531512325192, 23.12339548690304980 ) ) ;
#954 = EDGE_CURVE ( 'NONE', #103, #1010, #645, .T. ) ;
#955 = CARTESIAN_POINT ( 'NONE',  ( 2.000000000000000000, 2.000000000000000000, 2.000000000000000000 ) ) ;
#956 = MECHANICAL_DESIGN_GEOMETRIC_PRESENTATION_REPRESENTATION (  '', ( #998 ), #443 ) ;
#957 = CARTESIAN_POINT ( 'NONE',  ( 0.5303300858899089310, 0.000000000000000000, -0.5303300858899089310 ) ) ;
#958 = DIRECTION ( 'NONE',  ( 0.000000000000000000, 0.000000000000000000, 1.000000000000000000 ) ) ;
#959 = DIRECTION ( 'NONE',  ( 0.5773815451999810833, 0.5773815451999810833, 0.5772877120855460786 ) ) ;
#960 = CARTESIAN_POINT ( 'NONE',  ( 2.000000000000000000, 42.00000000000000000, 2.000000000000000000 ) ) ;
#961 = CARTESIAN_POINT ( 'NONE',  ( 13.61261352633380639, 16.25703709826433752, 17.31769737561643296 ) ) ;
#962 = ORIENTED_EDGE ( 'NONE', *, *, #379, .T. ) ;
#963 = DIRECTION ( 'NONE',  ( -0.7071067811865475727, 0.7071067811865475727, 0.000000000000000000 ) ) ;
#964 = ORIENTED_EDGE ( 'NONE', *, *, #566, .T. ) ;
#965 = CARTESIAN_POINT ( 'NONE',  ( 1.025126265847100093, 1.025126265847100093, 1.025126265847102092 ) ) ;
#966 = STYLED_ITEM ( 'NONE', ( #458 ), #534 ) ;
#967 = PRESENTATION_STYLE_ASSIGNMENT (( #926 ) ) ;
#968 = CARTESIAN_POINT ( 'NONE',  ( 2.000000000000000000, 42.00000000000000000, 2.000000000000000000 ) ) ;
#969 = DIRECTION ( 'NONE',  ( 0.000000000000000000, 0.7071067811865474617, 0.7071067811865474617 ) ) ;
#970 = SURFACE_SIDE_STYLE ('',( #1075 ) ) ;
#971 = STYLED_ITEM ( 'NONE', ( #251 ), #885 ) ;
#972 = STYLED_ITEM ( 'NONE', ( #1260 ), #781 ) ;
#973 = UNCERTAINTY_MEASURE_WITH_UNIT (LENGTH_MEASURE( 1.000000000000000082E-05 ), #910, 'distance_accuracy_value', 'NONE');
#974 = ORIENTED_EDGE ( 'NONE', *, *, #693, .F. ) ;
#975 = EDGE_CURVE ( 'NONE', #364, #572, #51, .T. ) ;
#976 = DIRECTION ( 'NONE',  ( 0.000000000000000000, 0.000000000000000000, 1.000000000000000000 ) ) ;
#977 = VERTEX_POINT ( 'NONE', #426 ) ;
#978 = CARTESIAN_POINT ( 'NONE',  ( 7.287871478175996962E-15, 3.041851071351490354, 3.041851071351485469 ) ) ;
#979 = FACE_OUTER_BOUND ( 'NONE', #1159, .T. ) ;
#980 = FILL_AREA_STYLE ('',( #1187 ) ) ;
#981 = STYLED_ITEM ( 'NONE', ( #1052 ), #445 ) ;
#982 = SURFACE_STYLE_USAGE ( .BOTH. , #183 ) ;
#983 = CARTESIAN_POINT ( 'NONE',  ( 3.500000000000000000, 40.00000000000000000, 4.336808689942019708E-16 ) ) ;
#984 = ORIENTED_EDGE ( 'NONE', *, *, #824, .T. ) ;
#985 = UNCERTAINTY_MEASURE_WITH_UNIT (LENGTH_MEASURE( 1.000000000000000082E-05 ), #31, 'distance_accuracy_value', 'NONE');
#986 = DIRECTION ( 'NONE',  ( 0.000000000000000000, -1.000000000000000000, 0.000000000000000000 ) ) ;
#987 =( GEOMETRIC_REPRESENTATION_CONTEXT ( 3 ) GLOBAL_UNCERTAINTY_ASSIGNED_CONTEXT ( ( #985 ) ) GLOBAL_UNIT_ASSIGNED_CONTEXT ( ( #31, #359, #592 ) ) REPRESENTATION_CONTEXT ( 'NONE', 'WORKASPACE' ) );
#988 = AXIS2_PLACEMENT_3D ( 'NONE', #308, #637, #18 ) ;
#989 = FILL_AREA_STYLE_COLOUR ( '', #817 ) ;
#990 = VERTEX_POINT ( 'NONE', #1219 ) ;
#991 =( NAMED_UNIT ( * ) SI_UNIT ( $, .STERADIAN. ) SOLID_ANGLE_UNIT ( ) );
#992 = LINE ( 'NONE', #1215, #1137 ) ;
#993 = VERTEX_POINT ( 'NONE', #112 ) ;
#994 = DIRECTION ( 'NONE',  ( 1.000000000000000000, 0.000000000000000000, 0.000000000000000000 ) ) ;
#995 = ORIENTED_EDGE ( 'NONE', *, *, #1153, .F. ) ;
#996 = COLOUR_RGB ( '',0.05490196078431372473, 0.05490196078431372473, 0.06274509803921568540 ) ;
#997 = DIRECTION ( 'NONE',  ( 0.000000000000000000, 0.7071067811865474617, 0.7071067811865474617 ) ) ;
#998 = STYLED_ITEM ( 'NONE', ( #1313 ), #1124 ) ;
#999 = FACE_OUTER_BOUND ( 'NONE', #84, .T. ) ;
#1000 = SURFACE_SIDE_STYLE ('',( #1025 ) ) ;
#1001 = FILL_AREA_STYLE_COLOUR ( '', #186 ) ;
#1002 = VECTOR ( 'NONE', #1307, 1000.000000000000114 ) ;
#1003 = SURFACE_STYLE_USAGE ( .BOTH. , #1205 ) ;
#1004 = FILL_AREA_STYLE ('',( #803 ) ) ;
#1005 = UNCERTAINTY_MEASURE_WITH_UNIT (LENGTH_MEASURE( 1.000000000000000082E-05 ), #546, 'distance_accuracy_value', 'NONE');
#1006 = MECHANICAL_DESIGN_GEOMETRIC_PRESENTATION_REPRESENTATION (  '', ( #883 ), #1078 ) ;
#1007 =( NAMED_UNIT ( * ) SI_UNIT ( $, .STERADIAN. ) SOLID_ANGLE_UNIT ( ) );
#1008 = ORIENTED_EDGE ( 'NONE', *, *, #566, .F. ) ;
#1009 = ORIENTED_EDGE ( 'NONE', *, *, #944, .T. ) ;
#1010 = VERTEX_POINT ( 'NONE', #532 ) ;
#1011 = PRESENTATION_STYLE_ASSIGNMENT (( #1183 ) ) ;
#1012 = AXIS2_PLACEMENT_3D ( 'NONE', #1199, #510, #706 ) ;
#1013 = SURFACE_SIDE_STYLE ('',( #349 ) ) ;
#1014 = SURFACE_STYLE_FILL_AREA ( #137 ) ;
#1015 = DIRECTION ( 'NONE',  ( -0.5772877120855440802, -0.5773815451999821935, -0.5773815451999821935 ) ) ;
#1016 = VECTOR ( 'NONE', #119, 1000.000000000000227 ) ;
#1017 = PRESENTATION_LAYER_ASSIGNMENT (  '', '', ( #564 ) ) ;
#1018 = DIRECTION ( 'NONE',  ( -0.7071067811865475727, 0.7071067811865475727, 0.000000000000000000 ) ) ;
#1019 = CARTESIAN_POINT ( 'NONE',  ( 5.640137330568331997, 1.999999999999971800, 2.666246458403938480 ) ) ;
#1020 = EDGE_CURVE ( 'NONE', #554, #55, #589, .T. ) ;
#1021 = EDGE_CURVE ( 'NONE', #329, #878, #92, .T. ) ;
#1022 = CARTESIAN_POINT ( 'NONE',  ( 5.818376618407128831, 2.000000000000000000, 3.908553007786305766 ) ) ;
#1023 = MECHANICAL_DESIGN_GEOMETRIC_PRESENTATION_REPRESENTATION (  '', ( #1170 ), #421 ) ;
#1024 = ADVANCED_FACE ( 'NONE', ( #237 ), #463, .F. ) ;
#1025 = SURFACE_STYLE_FILL_AREA ( #798 ) ;
#1026 = ORIENTED_EDGE ( 'NONE', *, *, #628, .T. ) ;
#1027 = ORIENTED_EDGE ( 'NONE', *, *, #1152, .T. ) ;
#1028 = CARTESIAN_POINT ( 'NONE',  ( 40.00000000000000000, 0.000000000000000000, 2.000000000000000000 ) ) ;
#1029 = CYLINDRICAL_SURFACE ( 'NONE', #1221, 2.699999999999840750 ) ;
#1030 = LINE ( 'NONE', #481, #847 ) ;
#1031 = VERTEX_POINT ( 'NONE', #753 ) ;
#1032 = CARTESIAN_POINT ( 'NONE',  ( 5.307063229445669883, 2.000000000000000000, 2.000000000000000000 ) ) ;
#1033 = CARTESIAN_POINT ( 'NONE',  ( 30.77083019219745097, 31.83149036397729503, 2.000000000000000000 ) ) ;
#1034 = LINE ( 'NONE', #1106, #509 ) ;
#1035 = CARTESIAN_POINT ( 'NONE',  ( 22.06477774625910016, 23.12543791803894777, 19.41493507862189816 ) ) ;
#1036 = MECHANICAL_DESIGN_GEOMETRIC_PRESENTATION_REPRESENTATION (  '', ( #966 ), #838 ) ;
#1037 = CARTESIAN_POINT ( 'NONE',  ( 1.999999999999977129, 5.640137330568339991, 2.666246458403939368 ) ) ;
#1038 = CARTESIAN_POINT ( 'NONE',  ( 2.000000000000000000, 5.818376618407132383, 3.908553007786313760 ) ) ;
#1039 = CARTESIAN_POINT ( 'NONE',  ( 31.83149036397729503, 2.000000000000000000, 30.77083019219745097 ) ) ;
#1040 = VERTEX_POINT ( 'NONE', #1058 ) ;
#1041 = DIRECTION ( 'NONE',  ( 0.7071067811865433539, 0.7071067811865517916, 0.000000000000000000 ) ) ;
#1042 = MECHANICAL_DESIGN_GEOMETRIC_PRESENTATION_REPRESENTATION (  '', ( #454 ), #54 ) ;
#1043 = SURFACE_SIDE_STYLE ('',( #1053 ) ) ;
#1044 = COLOUR_RGB ( '',0.05490196078431372473, 0.05490196078431372473, 0.06274509803921568540 ) ;
#1045 = LINE ( 'NONE', #968, #501 ) ;
#1046 = VERTEX_POINT ( 'NONE', #870 ) ;
#1047 = EDGE_LOOP ( 'NONE', ( #267, #962, #1059, #413, #727, #829, #486 ) ) ;
#1048 = LINE ( 'NONE', #696, #382 ) ;
#1049 = SURFACE_STYLE_FILL_AREA ( #684 ) ;
#1050 = DIRECTION ( 'NONE',  ( 0.000000000000000000, 0.000000000000000000, 1.000000000000000000 ) ) ;
#1051 = EDGE_CURVE ( 'NONE', #587, #232, #473, .T. ) ;
#1052 = PRESENTATION_STYLE_ASSIGNMENT (( #231 ) ) ;
#1053 = SURFACE_STYLE_FILL_AREA ( #228 ) ;
#1054 = PLANE ( 'NONE',  #278 ) ;
#1055 = FILL_AREA_STYLE_COLOUR ( '', #190 ) ;
#1056 = AXIS2_PLACEMENT_3D ( 'NONE', #1175, #1290, #707 ) ;
#1057 = DIRECTION ( 'NONE',  ( 0.000000000000000000, 0.000000000000000000, -1.000000000000000000 ) ) ;
#1058 = CARTESIAN_POINT ( 'NONE',  ( 1.025126265847100093, 1.025126265847100093, 1.025126265847102092 ) ) ;
#1059 = ORIENTED_EDGE ( 'NONE', *, *, #608, .T. ) ;
#1060 = ORIENTED_EDGE ( 'NONE', *, *, #591, .F. ) ;
#1061 =( NAMED_UNIT ( * ) SI_UNIT ( $, .STERADIAN. ) SOLID_ANGLE_UNIT ( ) );
#1062 = LINE ( 'NONE', #168, #631 ) ;
#1063 = AXIS2_PLACEMENT_3D ( 'NONE', #116, #221, #545 ) ;
#1064 =( GEOMETRIC_REPRESENTATION_CONTEXT ( 3 ) GLOBAL_UNCERTAINTY_ASSIGNED_CONTEXT ( ( #1005 ) ) GLOBAL_UNIT_ASSIGNED_CONTEXT ( ( #546, #1318, #1222 ) ) REPRESENTATION_CONTEXT ( 'NONE', 'WORKASPACE' ) );
#1065 = CARTESIAN_POINT ( 'NONE',  ( 19.41785194260259928, 23.12397972306555261, 22.06331955128569788 ) ) ;
#1066 = CARTESIAN_POINT ( 'NONE',  ( 23.12397972306555261, 19.41785194260259928, 22.06331955128575117 ) ) ;
#1067 = VECTOR ( 'NONE', #396, 1000.000000000000000 ) ;
#1068 = CARTESIAN_POINT ( 'NONE',  ( 4.336808689942019708E-16, 3.500000000000000000, 40.00000000000000000 ) ) ;
#1069 = CARTESIAN_POINT ( 'NONE',  ( 29.33098249615900244, 29.33098249615900244, 29.32621577394569812 ) ) ;
#1070 = CARTESIAN_POINT ( 'NONE',  ( 3.500000000000000000, 0.000000000000000000, 40.00000000000000000 ) ) ;
#1071 = DIRECTION ( 'NONE',  ( -0.7071067811865475727, 0.000000000000000000, 0.7071067811865475727 ) ) ;
#1072 = UNCERTAINTY_MEASURE_WITH_UNIT (LENGTH_MEASURE( 1.000000000000000082E-05 ), #328, 'distance_accuracy_value', 'NONE');
#1073 = VERTEX_POINT ( 'NONE', #661 ) ;
#1074 = SURFACE_STYLE_FILL_AREA ( #114 ) ;
#1075 = SURFACE_STYLE_FILL_AREA ( #363 ) ;
#1076 = ORIENTED_EDGE ( 'NONE', *, *, #273, .F. ) ;
#1077 = DIRECTION ( 'NONE',  ( 0.7071067811865474617, -0.7071067811865474617, 0.000000000000000000 ) ) ;
#1078 =( GEOMETRIC_REPRESENTATION_CONTEXT ( 3 ) GLOBAL_UNCERTAINTY_ASSIGNED_CONTEXT ( ( #973 ) ) GLOBAL_UNIT_ASSIGNED_CONTEXT ( ( #910, #406, #193 ) ) REPRESENTATION_CONTEXT ( 'NONE', 'WORKASPACE' ) );
#1079 = VERTEX_POINT ( 'NONE', #467 ) ;
#1080 =( LENGTH_UNIT ( ) NAMED_UNIT ( * ) SI_UNIT ( .MILLI., .METRE. ) );
#1081 = DIRECTION ( 'NONE',  ( -0.4082040559113567779, -0.4082040559113567779, 0.8165408118857476749 ) ) ;
#1082 = DIRECTION ( 'NONE',  ( 0.5773815451999809722, 0.5773815451999811943, 0.5772877120855459676 ) ) ;
#1083 = PRESENTATION_LAYER_ASSIGNMENT (  '', '', ( #528 ) ) ;
#1084 = CARTESIAN_POINT ( 'NONE',  ( 23.12397972306555261, 19.41785194260259928, 22.06331955128575117 ) ) ;
#1085 =( GEOMETRIC_REPRESENTATION_CONTEXT ( 3 ) GLOBAL_UNCERTAINTY_ASSIGNED_CONTEXT ( ( #101 ) ) GLOBAL_UNIT_ASSIGNED_CONTEXT ( ( #297, #524, #515 ) ) REPRESENTATION_CONTEXT ( 'NONE', 'WORKASPACE' ) );
#1086 =( NAMED_UNIT ( * ) SI_UNIT ( $, .STERADIAN. ) SOLID_ANGLE_UNIT ( ) );
#1087 = EDGE_CURVE ( 'NONE', #281, #1079, #122, .T. ) ;
#1088 = APPLICATION_CONTEXT ( 'automotive_design' ) ;
#1089 = UNCERTAINTY_MEASURE_WITH_UNIT (LENGTH_MEASURE( 1.000000000000000082E-05 ), #410, 'distance_accuracy_value', 'NONE');
#1090 = EDGE_CURVE ( 'NONE', #1294, #1107, #934, .T. ) ;
#1091 =( NAMED_UNIT ( * ) PLANE_ANGLE_UNIT ( ) SI_UNIT ( $, .RADIAN. ) );
#1092 = VERTEX_POINT ( 'NONE', #1255 ) ;
#1093 = DIRECTION ( 'NONE',  ( 0.5773815451999810833, 0.5773815451999810833, 0.5772877120855460786 ) ) ;
#1094 = FACE_OUTER_BOUND ( 'NONE', #312, .T. ) ;
#1095 = MECHANICAL_DESIGN_GEOMETRIC_PRESENTATION_REPRESENTATION (  '', ( #971 ), #209 ) ;
#1096 = VERTEX_POINT ( 'NONE', #245 ) ;
#1097 = LINE ( 'NONE', #70, #60 ) ;
#1098 = SURFACE_STYLE_FILL_AREA ( #570 ) ;
#1099 = CARTESIAN_POINT ( 'NONE',  ( 2.000000000000000000, 2.000000000000000000, 2.000000000000000000 ) ) ;
#1100 = CARTESIAN_POINT ( 'NONE',  ( 2.000000000000000000, 5.706835791625199938, 4.646175619845370086 ) ) ;
#1101 = APPLICATION_PROTOCOL_DEFINITION ( 'draft international standard', 'automotive_design', 1998, #1088 ) ;
#1102 = DIRECTION ( 'NONE',  ( 0.5773815451999810833, 0.5773815451999810833, 0.5772877120855459676 ) ) ;
#1103 = CARTESIAN_POINT ( 'NONE',  ( 31.83149036397729503, 2.000000000000000000, 30.77083019219745097 ) ) ;
#1104 = SURFACE_STYLE_USAGE ( .BOTH. , #1000 ) ;
#1105 = AXIS2_PLACEMENT_3D ( 'NONE', #957, #1071, #1168 ) ;
#1106 = CARTESIAN_POINT ( 'NONE',  ( 2.000000000000000000, 30.77083019219745097, 31.83149036397729503 ) ) ;
#1107 = VERTEX_POINT ( 'NONE', #574 ) ;
#1108 = SURFACE_STYLE_FILL_AREA ( #280 ) ;
#1109 = ORIENTED_EDGE ( 'NONE', *, *, #591, .T. ) ;
#1110 = DIRECTION ( 'NONE',  ( 0.7071067811865474617, 0.000000000000000000, 0.7071067811865474617 ) ) ;
#1111 = VERTEX_POINT ( 'NONE', #656 ) ;
#1112 = FACE_OUTER_BOUND ( 'NONE', #1197, .T. ) ;
#1113 = ORIENTED_EDGE ( 'NONE', *, *, #206, .F. ) ;
#1114 =( GEOMETRIC_REPRESENTATION_CONTEXT ( 3 ) GLOBAL_UNCERTAINTY_ASSIGNED_CONTEXT ( ( #1145 ) ) GLOBAL_UNIT_ASSIGNED_CONTEXT ( ( #561, #1146, #239 ) ) REPRESENTATION_CONTEXT ( 'NONE', 'WORKASPACE' ) );
#1115 = AXIS2_PLACEMENT_3D ( 'NONE', #529, #89, #307 ) ;
#1116 =( LENGTH_UNIT ( ) NAMED_UNIT ( * ) SI_UNIT ( .MILLI., .METRE. ) );
#1117 = SURFACE_STYLE_USAGE ( .BOTH. , #1301 ) ;
#1118 = EDGE_CURVE ( 'NONE', #437, #748, #464, .T. ) ;
#1119 = CARTESIAN_POINT ( 'NONE',  ( 0.000000000000000000, 40.00000000000000000, 3.500000000000000000 ) ) ;
#1120 = SURFACE_STYLE_USAGE ( .BOTH. , #1121 ) ;
#1121 = SURFACE_SIDE_STYLE ('',( #1150 ) ) ;
#1122 = ORIENTED_EDGE ( 'NONE', *, *, #1020, .T. ) ;
#1123 = ORIENTED_EDGE ( 'NONE', *, *, #787, .F. ) ;
#1124 = ADVANCED_FACE ( 'NONE', ( #1112 ), #1054, .F. ) ;
#1125 = DIRECTION ( 'NONE',  ( 0.000000000000000000, -1.000000000000000000, 0.000000000000000000 ) ) ;
#1126 = FACE_OUTER_BOUND ( 'NONE', #804, .T. ) ;
#1127 = SURFACE_STYLE_USAGE ( .BOTH. , #822 ) ;
#1128 = MECHANICAL_DESIGN_GEOMETRIC_PRESENTATION_REPRESENTATION (  '', ( #155 ), #987 ) ;
#1129 =( GEOMETRIC_REPRESENTATION_CONTEXT ( 3 ) GLOBAL_UNCERTAINTY_ASSIGNED_CONTEXT ( ( #599 ) ) GLOBAL_UNIT_ASSIGNED_CONTEXT ( ( #213, #4, #924 ) ) REPRESENTATION_CONTEXT ( 'NONE', 'WORKASPACE' ) );
#1130 = CARTESIAN_POINT ( 'NONE',  ( 22.06666172184899821, 21.53283166079100042, 21.00600155006919678 ) ) ;
#1131 = CARTESIAN_POINT ( 'NONE',  ( 19.30373120699717049, 22.46445669969850201, 22.83697431521422772 ) ) ;
#1132 = DIRECTION ( 'NONE',  ( 0.000000000000000000, 1.000000000000000000, 0.000000000000000000 ) ) ;
#1133 =( LENGTH_UNIT ( ) NAMED_UNIT ( * ) SI_UNIT ( .MILLI., .METRE. ) );
#1134 = COLOUR_RGB ( '',0.05490196078431372473, 0.05490196078431372473, 0.06274509803921568540 ) ;
#1135 = ORIENTED_EDGE ( 'NONE', *, *, #493, .F. ) ;
#1136 =( NAMED_UNIT ( * ) SI_UNIT ( $, .STERADIAN. ) SOLID_ANGLE_UNIT ( ) );
#1137 = VECTOR ( 'NONE', #1, 1000.000000000000000 ) ;
#1138 = ORIENTED_EDGE ( 'NONE', *, *, #889, .F. ) ;
#1139 = ORIENTED_EDGE ( 'NONE', *, *, #664, .F. ) ;
#1140 = DIRECTION ( 'NONE',  ( 0.7071067811865475727, -0.7071067811865475727, 0.000000000000000000 ) ) ;
#1141 = ORIENTED_EDGE ( 'NONE', *, *, #1090, .T. ) ;
#1142 = CARTESIAN_POINT ( 'NONE',  ( 3.884563210049609694, 5.850470903138289991, 2.000000000000000000 ) ) ;
#1143 =( LENGTH_UNIT ( ) NAMED_UNIT ( * ) SI_UNIT ( .MILLI., .METRE. ) );
#1144 = STYLED_ITEM ( 'NONE', ( #833 ), #451 ) ;
#1145 = UNCERTAINTY_MEASURE_WITH_UNIT (LENGTH_MEASURE( 1.000000000000000082E-05 ), #561, 'distance_accuracy_value', 'NONE');
#1146 =( NAMED_UNIT ( * ) PLANE_ANGLE_UNIT ( ) SI_UNIT ( $, .RADIAN. ) );
#1147 = B_SPLINE_CURVE_WITH_KNOTS ( 'NONE', 3,
 ( #170, #978, #491, #370, #34, #353 ),
 .UNSPECIFIED., .F., .F.,
 ( 4, 2, 4 ),
 ( 0.000000000000000000, 0.5000000000000000000, 1.000000000000000000 ),
 .UNSPECIFIED. ) ;
#1148 =( NAMED_UNIT ( * ) PLANE_ANGLE_UNIT ( ) SI_UNIT ( $, .RADIAN. ) );
#1149 = ORIENTED_EDGE ( 'NONE', *, *, #1153, .T. ) ;
#1150 = SURFACE_STYLE_FILL_AREA ( #196 ) ;
#1151 = CARTESIAN_POINT ( 'NONE',  ( 2.487183516764268632, 2.000000000000000444, 5.549859168450266722 ) ) ;
#1152 = EDGE_CURVE ( 'NONE', #1298, #351, #457, .T. ) ;
#1153 = EDGE_CURVE ( 'NONE', #990, #605, #892, .T. ) ;
#1154 = DIRECTION ( 'NONE',  ( 0.000000000000000000, 0.000000000000000000, -1.000000000000000000 ) ) ;
#1155 = PRODUCT_DEFINITION_FORMATION_WITH_SPECIFIED_SOURCE ( 'ANY', '', #577, .NOT_KNOWN. ) ;
#1156 = B_SPLINE_CURVE_WITH_KNOTS ( 'NONE', 3,
 ( #78, #789, #391, #395 ),
 .UNSPECIFIED., .F., .F.,
 ( 4, 4 ),
 ( 0.000000000000000000, 30.16813332669015679 ),
 .UNSPECIFIED. ) ;
#1157 =( NAMED_UNIT ( * ) SI_UNIT ( $, .STERADIAN. ) SOLID_ANGLE_UNIT ( ) );
#1158 = CARTESIAN_POINT ( 'NONE',  ( 40.00000000000000000, 0.000000000000000000, 0.000000000000000000 ) ) ;
#1159 = EDGE_LOOP ( 'NONE', ( #1008, #1179, #1293, #691, #296 ) ) ;
#1160 = B_SPLINE_CURVE_WITH_KNOTS ( 'NONE', 3,
 ( #839, #1037, #1186, #390 ),
 .UNSPECIFIED., .F., .F.,
 ( 4, 4 ),
 ( 0.000000000000000000, 0.6836212585892974536 ),
 .UNSPECIFIED. ) ;
#1161 = CARTESIAN_POINT ( 'NONE',  ( 1.737333568701860509, 1.737333568701864062, 0.4417476407601161892 ) ) ;
#1162 = COLOUR_RGB ( '',0.05490196078431372473, 0.05490196078431372473, 0.06274509803921568540 ) ;
#1163 = ORIENTED_EDGE ( 'NONE', *, *, #415, .F. ) ;
#1164 = PRESENTATION_LAYER_ASSIGNMENT (  '', '', ( #981 ) ) ;
#1165 = CARTESIAN_POINT ( 'NONE',  ( 0.000000000000000000, 0.000000000000000000, 0.000000000000000000 ) ) ;
#1166 = VECTOR ( 'NONE', #687, 1000.000000000000000 ) ;
#1167 = ORIENTED_EDGE ( 'NONE', *, *, #317, .F. ) ;
#1168 = DIRECTION ( 'NONE',  ( 0.7071067811865474617, 0.000000000000000000, 0.7071067811865474617 ) ) ;
#1169 = DIRECTION ( 'NONE',  ( -1.000000000000000000, 0.000000000000000000, 0.000000000000000000 ) ) ;
#1170 = STYLED_ITEM ( 'NONE', ( #75 ), #619 ) ;
#1171 = PRESENTATION_LAYER_ASSIGNMENT (  '', '', ( #972 ) ) ;
#1172 = CARTESIAN_POINT ( 'NONE',  ( 3.500000000000000000, 3.500000000000000000, 0.000000000000000000 ) ) ;
#1173 = SURFACE_STYLE_USAGE ( .BOTH. , #598 ) ;
#1174 = EDGE_CURVE ( 'NONE', #1096, #671, #105, .T. ) ;
#1175 = CARTESIAN_POINT ( 'NONE',  ( 40.00000000000000000, 3.500000000000055067, 3.500000000000055067 ) ) ;
#1176 = CARTESIAN_POINT ( 'NONE',  ( 35.10479794815864807, 35.10479794815864807, 35.09909289480100369 ) ) ;
#1177 = ORIENTED_EDGE ( 'NONE', *, *, #207, .T. ) ;
#1178 = PLANE ( 'NONE',  #873 ) ;
#1179 = ORIENTED_EDGE ( 'NONE', *, *, #1243, .F. ) ;
#1180 = VERTEX_POINT ( 'NONE', #62 ) ;
#1181 = UNCERTAINTY_MEASURE_WITH_UNIT (LENGTH_MEASURE( 1.000000000000000082E-05 ), #1133, 'distance_accuracy_value', 'NONE');
#1182 = LINE ( 'NONE', #371, #558 ) ;
#1183 = SURFACE_STYLE_USAGE ( .BOTH. , #182 ) ;
#1184 = AXIS2_PLACEMENT_3D ( 'NONE', #871, #680, #1077 ) ;
#1185 = FILL_AREA_STYLE_COLOUR ( '', #1310 ) ;
#1186 = CARTESIAN_POINT ( 'NONE',  ( 1.999758693942236487, 5.818135312349369315, 3.331660179248254305 ) ) ;
#1187 = FILL_AREA_STYLE_COLOUR ( '', #996 ) ;
#1188 =( LENGTH_UNIT ( ) NAMED_UNIT ( * ) SI_UNIT ( .MILLI., .METRE. ) );
#1189 = AXIS2_PLACEMENT_3D ( 'NONE', #828, #1093, #185 ) ;
#1190 = STYLED_ITEM ( 'NONE', ( #460 ), #438 ) ;
#1191 = CARTESIAN_POINT ( 'NONE',  ( 1.999999997605782065, 4.294575458716948013, 5.823234227101423244 ) ) ;
#1192 = VERTEX_POINT ( 'NONE', #1285 ) ;
#1193 = CARTESIAN_POINT ( 'NONE',  ( 4.647012020869759397, 5.707672192649579479, 2.000000000000000000 ) ) ;
#1194 =( NAMED_UNIT ( * ) SI_UNIT ( $, .STERADIAN. ) SOLID_ANGLE_UNIT ( ) );
#1195 = VECTOR ( 'NONE', #845, 1000.000000000000114 ) ;
#1196 = VERTEX_POINT ( 'NONE', #764 ) ;
#1197 = EDGE_LOOP ( 'NONE', ( #453, #1076, #124, #299, #139, #39, #265, #173, #537, #1139 ) ) ;
#1198 = APPLICATION_CONTEXT ( 'automotive_design' ) ;
#1199 = CARTESIAN_POINT ( 'NONE',  ( 2.000000000000000000, 2.000000000000000000, 2.000000000000000000 ) ) ;
#1200 = VECTOR ( 'NONE', #1234, 1000.000000000000114 ) ;
#1201 = FILL_AREA_STYLE ('',( #1001 ) ) ;
#1202 = CARTESIAN_POINT ( 'NONE',  ( 0.000000000000000000, -0.5303300858899089310, 0.5303300858899089310 ) ) ;
#1203 = CYLINDRICAL_SURFACE ( 'NONE', #1063, 3.500000000000055511 ) ;
#1204 = FILL_AREA_STYLE ('',( #899 ) ) ;
#1205 = SURFACE_SIDE_STYLE ('',( #672 ) ) ;
#1206 =( NAMED_UNIT ( * ) PLANE_ANGLE_UNIT ( ) SI_UNIT ( $, .RADIAN. ) );
#1207 = CARTESIAN_POINT ( 'NONE',  ( 3.500000000000000000, 40.00000000000000000, 4.336808689942019708E-16 ) ) ;
#1208 = ORIENTED_EDGE ( 'NONE', *, *, #952, .F. ) ;
#1209 = PRESENTATION_LAYER_ASSIGNMENT (  '', '', ( #177 ) ) ;
#1210 = FACE_OUTER_BOUND ( 'NONE', #1047, .T. ) ;
#1211 = ORIENTED_EDGE ( 'NONE', *, *, #954, .T. ) ;
#1212 = DIRECTION ( 'NONE',  ( 0.5773815451999810833, 0.5773815451999810833, 0.5772877120855460786 ) ) ;
#1213 = PRESENTATION_STYLE_ASSIGNMENT (( #167 ) ) ;
#1214 = PLANE ( 'NONE',  #531 ) ;
#1215 = CARTESIAN_POINT ( 'NONE',  ( 40.00000000000000000, 40.00000000000000000, 40.00000000000000000 ) ) ;
#1216 = VECTOR ( 'NONE', #205, 1000.000000000000000 ) ;
#1217 = FILL_AREA_STYLE ('',( #641 ) ) ;
#1218 = EDGE_CURVE ( 'NONE', #550, #351, #1182, .T. ) ;
#1219 = CARTESIAN_POINT ( 'NONE',  ( 22.06273531512325192, 19.41902060485260151, 23.12339548690304980 ) ) ;
#1220 = UNCERTAINTY_MEASURE_WITH_UNIT (LENGTH_MEASURE( 1.000000000000000082E-05 ), #1289, 'distance_accuracy_value', 'NONE');
#1221 = AXIS2_PLACEMENT_3D ( 'NONE', #940, #322, #331 ) ;
#1222 =( NAMED_UNIT ( * ) SI_UNIT ( $, .STERADIAN. ) SOLID_ANGLE_UNIT ( ) );
#1223 = CARTESIAN_POINT ( 'NONE',  ( 29.33098249615900244, 29.33098249615900244, 29.32621577394569812 ) ) ;
#1224 = ORIENTED_EDGE ( 'NONE', *, *, #975, .T. ) ;
#1225 = CARTESIAN_POINT ( 'NONE',  ( 31.83149036397729503, 30.77083019219745097, 2.000000000000000000 ) ) ;
#1226 = ORIENTED_EDGE ( 'NONE', *, *, #1218, .F. ) ;
#1227 = VECTOR ( 'NONE', #1132, 1000.000000000000000 ) ;
#1228 = ORIENTED_EDGE ( 'NONE', *, *, #388, .F. ) ;
#1229 = FILL_AREA_STYLE ('',( #108 ) ) ;
#1230 = COLOUR_RGB ( '',0.05490196078431372473, 0.05490196078431372473, 0.06274509803921568540 ) ;
#1231 =( GEOMETRIC_REPRESENTATION_CONTEXT ( 3 ) GLOBAL_UNCERTAINTY_ASSIGNED_CONTEXT ( ( #862 ) ) GLOBAL_UNIT_ASSIGNED_CONTEXT ( ( #651, #745, #1245 ) ) REPRESENTATION_CONTEXT ( 'NONE', 'WORKASPACE' ) );
#1232 = CARTESIAN_POINT ( 'NONE',  ( 31.09874944912553829, 27.56321554319243816, 29.32621577394570167 ) ) ;
#1233 = DIRECTION ( 'NONE',  ( 0.5773815451999810833, 0.5773815451999810833, 0.5772877120855460786 ) ) ;
#1234 = DIRECTION ( 'NONE',  ( -0.7071067811865474617, 0.000000000000000000, -0.7071067811865474617 ) ) ;
#1235 = CARTESIAN_POINT ( 'NONE',  ( 2.475598368108236969, 5.544936123904249392, 2.000000000000000000 ) ) ;
#1236 = ADVANCED_FACE ( 'NONE', ( #949 ), #350, .T. ) ;
#1237 = CARTESIAN_POINT ( 'NONE',  ( 16.25703715989506648, 13.61261350864668351, 17.31769733167489278 ) ) ;
#1238 = PRESENTATION_LAYER_ASSIGNMENT (  '', '', ( #44 ) ) ;
#1239 = CARTESIAN_POINT ( 'NONE',  ( 31.09874944912553829, 27.56321554319243816, 29.32621577394570167 ) ) ;
#1240 = MECHANICAL_DESIGN_GEOMETRIC_PRESENTATION_REPRESENTATION (  '', ( #972 ), #64 ) ;
#1241 = EDGE_LOOP ( 'NONE', ( #995, #807, #902 ) ) ;
#1242 = CARTESIAN_POINT ( 'NONE',  ( 0.000000000000000000, 40.00000000000000000, 40.00000000000000000 ) ) ;
#1243 = EDGE_CURVE ( 'NONE', #1046, #1192, #172, .T. ) ;
#1244 = VERTEX_POINT ( 'NONE', #782 ) ;
#1245 =( NAMED_UNIT ( * ) SI_UNIT ( $, .STERADIAN. ) SOLID_ANGLE_UNIT ( ) );
#1246 = EDGE_CURVE ( 'NONE', #55, #1111, #1045, .T. ) ;
#1247 = SURFACE_STYLE_FILL_AREA ( #780 ) ;
#1248 = SURFACE_STYLE_USAGE ( .BOTH. , #1043 ) ;
#1249 = CARTESIAN_POINT ( 'NONE',  ( 2.974193953228380316, 1.999999999999995781, 5.711610402317008450 ) ) ;
#1250 = COLOUR_RGB ( '',0.05490196078431372473, 0.05490196078431372473, 0.06274509803921568540 ) ;
#1251 = B_SPLINE_CURVE_WITH_KNOTS ( 'NONE', 3,
 ( #795, #712, #508, #702, #800, #898 ),
 .UNSPECIFIED., .F., .F.,
 ( 4, 2, 4 ),
 ( 0.000000000000000000, 0.5000000000000000000, 1.000000000000000000 ),
 .UNSPECIFIED. ) ;
#1252 = PRESENTATION_STYLE_ASSIGNMENT (( #121 ) ) ;
#1253 =( NAMED_UNIT ( * ) PLANE_ANGLE_UNIT ( ) SI_UNIT ( $, .RADIAN. ) );
#1254 = ADVANCED_FACE ( 'NONE', ( #1210 ), #1178, .F. ) ;
#1255 = CARTESIAN_POINT ( 'NONE',  ( 2.000000000000000000, 2.000000000000000000, 40.00000000000000000 ) ) ;
#1256 = CARTESIAN_POINT ( 'NONE',  ( 31.83149036397729503, 2.000000000000000000, 30.77083019219745097 ) ) ;
#1257 = FILL_AREA_STYLE ('',( #1277 ) ) ;
#1258 = ORIENTED_EDGE ( 'NONE', *, *, #1118, .T. ) ;
#1259 = AXIS2_PLACEMENT_3D ( 'NONE', #61, #867, #958 ) ;
#1260 = PRESENTATION_STYLE_ASSIGNMENT (( #525 ) ) ;
#1261 = VERTEX_POINT ( 'NONE', #1084 ) ;
#1262 = LINE ( 'NONE', #624, #416 ) ;
#1263 = CARTESIAN_POINT ( 'NONE',  ( 22.83698849745053394, 19.30331995411805579, 22.46485065743826226 ) ) ;
#1264 = UNCERTAINTY_MEASURE_WITH_UNIT (LENGTH_MEASURE( 1.000000000000000082E-05 ), #733, 'distance_accuracy_value', 'NONE');
#1265 = VECTOR ( 'NONE', #647, 1000.000000000000114 ) ;
#1266 = SURFACE_STYLE_FILL_AREA ( #1217 ) ;
#1267 = DIRECTION ( 'NONE',  ( 0.000000000000000000, 1.000000000000000000, 0.000000000000000000 ) ) ;
#1268 = MECHANICAL_DESIGN_GEOMETRIC_PRESENTATION_REPRESENTATION (  '', ( #253 ), #1114 ) ;
#1269 = LINE ( 'NONE', #698, #1002 ) ;
#1270 = B_SPLINE_CURVE_WITH_KNOTS ( 'NONE', 3,
 ( #428, #109, #1019, #1032 ),
 .UNSPECIFIED., .F., .F.,
 ( 4, 4 ),
 ( 0.3163787414107083751, 1.000000000000000000 ),
 .UNSPECIFIED. ) ;
#1271 = DIRECTION ( 'NONE',  ( -0.000000000000000000, 1.000000000000000000, 0.000000000000000000 ) ) ;
#1272 = PLANE ( 'NONE',  #100 ) ;
#1273 = FILL_AREA_STYLE_COLOUR ( '', #201 ) ;
#1274 =( NAMED_UNIT ( * ) PLANE_ANGLE_UNIT ( ) SI_UNIT ( $, .RADIAN. ) );
#1275 = CARTESIAN_POINT ( 'NONE',  ( 5.850470903138287326, 3.884563210049609250, 2.000000000000000000 ) ) ;
#1276 = ORIENTED_EDGE ( 'NONE', *, *, #1087, .F. ) ;
#1277 = FILL_AREA_STYLE_COLOUR ( '', #865 ) ;
#1278 = LINE ( 'NONE', #521, #23 ) ;
#1279 = ORIENTED_EDGE ( 'NONE', *, *, #912, .T. ) ;
#1280 = MECHANICAL_DESIGN_GEOMETRIC_PRESENTATION_REPRESENTATION (  '', ( #655 ), #482 ) ;
#1281 = ORIENTED_EDGE ( 'NONE', *, *, #823, .F. ) ;
#1282 = DIRECTION ( 'NONE',  ( -0.5773815451999821935, -0.5773815451999821935, -0.5772877120855440802 ) ) ;
#1283 = SURFACE_STYLE_FILL_AREA ( #980 ) ;
#1284 = ORIENTED_EDGE ( 'NONE', *, *, #206, .T. ) ;
#1285 = CARTESIAN_POINT ( 'NONE',  ( 3.500000000000000000, 3.500000000000000000, 0.000000000000000000 ) ) ;
#1286 = LINE ( 'NONE', #1158, #1166 ) ;
#1287 = EDGE_CURVE ( 'NONE', #1196, #612, #1030, .T. ) ;
#1288 = SURFACE_STYLE_FILL_AREA ( #622 ) ;
#1289 =( LENGTH_UNIT ( ) NAMED_UNIT ( * ) SI_UNIT ( .MILLI., .METRE. ) );
#1290 = DIRECTION ( 'NONE',  ( -1.000000000000000000, 0.000000000000000000, 0.000000000000000000 ) ) ;
#1291 = EDGE_CURVE ( 'NONE', #414, #993, #8, .T. ) ;
#1292 = CARTESIAN_POINT ( 'NONE',  ( 1.999999999999995781, 2.974193953228394083, 5.711610402317009338 ) ) ;
#1293 = ORIENTED_EDGE ( 'NONE', *, *, #379, .F. ) ;
#1294 = VERTEX_POINT ( 'NONE', #1068 ) ;
#1295 = ORIENTED_EDGE ( 'NONE', *, *, #944, .F. ) ;
#1296 = CARTESIAN_POINT ( 'NONE',  ( 40.00000000000000000, 40.00000000000000000, 2.000000000000000000 ) ) ;
#1297 = VECTOR ( 'NONE', #20, 1000.000000000000114 ) ;
#1298 = VERTEX_POINT ( 'NONE', #1070 ) ;
#1299 = DIRECTION ( 'NONE',  ( 0.000000000000000000, 0.000000000000000000, 1.000000000000000000 ) ) ;
#1300 = COLOUR_RGB ( '',0.05490196078431372473, 0.05490196078431372473, 0.06274509803921568540 ) ;
#1301 = SURFACE_SIDE_STYLE ('',( #1288 ) ) ;
#1302 = PLANE ( 'NONE',  #1012 ) ;
#1303 = PRESENTATION_LAYER_ASSIGNMENT (  '', '', ( #1144 ) ) ;
#1304 = DIRECTION ( 'NONE',  ( 0.000000000000000000, -0.7071067811865474617, -0.7071067811865474617 ) ) ;
#1305 =( LENGTH_UNIT ( ) NAMED_UNIT ( * ) SI_UNIT ( .MILLI., .METRE. ) );
#1306 = EDGE_LOOP ( 'NONE', ( #632, #88, #1177, #830 ) ) ;
#1307 = DIRECTION ( 'NONE',  ( 0.000000000000000000, 0.7071067811865474617, -0.7071067811865474617 ) ) ;
#1308 = LINE ( 'NONE', #325, #773 ) ;
#1309 = PRESENTATION_LAYER_ASSIGNMENT (  '', '', ( #1170 ) ) ;
#1310 = COLOUR_RGB ( '',1.000000000000000000, 0.000000000000000000, 0.000000000000000000 ) ;
#1311 = EDGE_LOOP ( 'NONE', ( #158, #843, #431 ) ) ;
#1312 = PRESENTATION_LAYER_ASSIGNMENT (  '', '', ( #1190 ) ) ;
#1313 = PRESENTATION_STYLE_ASSIGNMENT (( #470 ) ) ;
#1314 = FILL_AREA_STYLE ('',( #490 ) ) ;
#1315 = SURFACE_SIDE_STYLE ('',( #45 ) ) ;
#1316 = EDGE_CURVE ( 'NONE', #58, #281, #164, .T. ) ;
#1317 = EDGE_CURVE ( 'NONE', #476, #977, #1062, .T. ) ;
#1318 =( NAMED_UNIT ( * ) PLANE_ANGLE_UNIT ( ) SI_UNIT ( $, .RADIAN. ) );
ENDSEC;
END-ISO-10303-21;
