ISO-10303-21;
HEADER;
FILE_DESCRIPTION (( 'STEP AP214' ),
    '1' );
FILE_NAME ('4040L-ALU.STEP',
    '2024-09-02T12:11:06',
    ( '' ),
    ( '' ),
    'SwSTEP 2.0',
    'SolidWorks 2018',
    '' );
FILE_SCHEMA (( 'AUTOMOTIVE_DESIGN' ));
ENDSEC;

DATA;
#1 = CIRCLE ( 'NONE', #431, 3.999999999999993339 ) ;
#2 = COLOUR_RGB ( '',0.8980392156862745390, 0.9176470588235293713, 0.9294117647058823817 ) ;
#3 = ORIENTED_EDGE ( 'NONE', *, *, #150, .T. ) ;
#4 = ORIENTED_EDGE ( 'NONE', *, *, #18, .T. ) ;
#5 = DIRECTION ( 'NONE',  ( 0.000000000000000000, 0.000000000000000000, -1.000000000000000000 ) ) ;
#6 = CARTESIAN_POINT ( 'NONE',  ( -0.9999999999999940048, 20.00000000000000000, -5.000000000016609825 ) ) ;
#7 = ADVANCED_FACE ( 'NONE', ( #388, #379 ), #141, .F. ) ;
#8 = AXIS2_PLACEMENT_3D ( 'NONE', #283, #518, #513 ) ;
#9 = VERTEX_POINT ( 'NONE', #449 ) ;
#10 = ORIENTED_EDGE ( 'NONE', *, *, #334, .T. ) ;
#11 = UNCERTAINTY_MEASURE_WITH_UNIT (LENGTH_MEASURE( 1.000000000000000082E-05 ), #482, 'distance_accuracy_value', 'NONE');
#12 = ADVANCED_FACE ( 'NONE', ( #489 ), #84, .T. ) ;
#13 = ORIENTED_EDGE ( 'NONE', *, *, #387, .F. ) ;
#14 = ADVANCED_FACE ( 'NONE', ( #136, #122 ), #450, .F. ) ;
#15 = VECTOR ( 'NONE', #231, 1000.000000000000000 ) ;
#16 = CIRCLE ( 'NONE', #65, 5.000000000000000000 ) ;
#17 = ORIENTED_EDGE ( 'NONE', *, *, #28, .F. ) ;
#18 = EDGE_CURVE ( 'NONE', #500, #268, #465, .T. ) ;
#19 = DIRECTION ( 'NONE',  ( 1.000000000000000000, 0.000000000000000000, -0.000000000000000000 ) ) ;
#20 = CYLINDRICAL_SURFACE ( 'NONE', #60, 3.999999999999993339 ) ;
#21 = VECTOR ( 'NONE', #318, 1000.000000000000000 ) ;
#22 = ORIENTED_EDGE ( 'NONE', *, *, #220, .T. ) ;
#23 = CARTESIAN_POINT ( 'NONE',  ( -15.00000000000000000, 34.99999999999999289, -4.500000000000003553 ) ) ;
#24 = DIRECTION ( 'NONE',  ( -0.000000000000000000, 1.000000000000000000, -0.000000000000000000 ) ) ;
#25 = CARTESIAN_POINT ( 'NONE',  ( 20.99999999999999645, 5.499999999999989342, -4.499999999999998224 ) ) ;
#26 = UNCERTAINTY_MEASURE_WITH_UNIT (LENGTH_MEASURE( 1.000000000000000082E-05 ), #269, 'distance_accuracy_value', 'NONE');
#27 = DIRECTION ( 'NONE',  ( 0.000000000000000000, 0.000000000000000000, -1.000000000000000000 ) ) ;
#28 = EDGE_CURVE ( 'NONE', #59, #264, #16, .T. ) ;
#29 = DIRECTION ( 'NONE',  ( 0.000000000000000000, 0.000000000000000000, 1.000000000000000000 ) ) ;
#30 = VECTOR ( 'NONE', #109, 1000.000000000000000 ) ;
#31 = ORIENTED_EDGE ( 'NONE', *, *, #272, .F. ) ;
#32 = PLANE ( 'NONE',  #460 ) ;
#33 = DIRECTION ( 'NONE',  ( 0.000000000000000000, -0.000000000000000000, -1.000000000000000000 ) ) ;
#34 = AXIS2_PLACEMENT_3D ( 'NONE', #41, #329, #331 ) ;
#35 = PRESENTATION_STYLE_ASSIGNMENT (( #435 ) ) ;
#36 = FACE_OUTER_BOUND ( 'NONE', #386, .T. ) ;
#37 = DIRECTION ( 'NONE',  ( 0.000000000000000000, 0.000000000000000000, -1.000000000000000000 ) ) ;
#38 = ORIENTED_EDGE ( 'NONE', *, *, #260, .F. ) ;
#39 = ORIENTED_EDGE ( 'NONE', *, *, #206, .F. ) ;
#40 = DIRECTION ( 'NONE',  ( 1.000000000000000000, 0.000000000000000000, 0.000000000000000000 ) ) ;
#41 = CARTESIAN_POINT ( 'NONE',  ( -15.00000000000000000, 0.4999999999999891753, 24.99999999999999645 ) ) ;
#42 = ORIENTED_EDGE ( 'NONE', *, *, #493, .T. ) ;
#43 = CARTESIAN_POINT ( 'NONE',  ( 7.500000000016580515, 20.00000000000000000, -10.00000000000000178 ) ) ;
#44 = EDGE_CURVE ( 'NONE', #237, #306, #439, .T. ) ;
#45 = CIRCLE ( 'NONE', #469, 3.999999999999993339 ) ;
#46 = CARTESIAN_POINT ( 'NONE',  ( 20.99999999999999645, 5.499999999999989342, 0.5000000000000013323 ) ) ;
#47 = VERTEX_POINT ( 'NONE', #46 ) ;
#48 = EDGE_LOOP ( 'NONE', ( #74 ) ) ;
#49 = ORIENTED_EDGE ( 'NONE', *, *, #44, .F. ) ;
#50 = ADVANCED_FACE ( 'NONE', ( #36, #425 ), #304, .F. ) ;
#51 = VERTEX_POINT ( 'NONE', #209 ) ;
#52 = ORIENTED_EDGE ( 'NONE', *, *, #261, .F. ) ;
#53 = AXIS2_PLACEMENT_3D ( 'NONE', #88, #86, #19 ) ;
#54 = ADVANCED_FACE ( 'NONE', ( #511, #433 ), #224, .F. ) ;
#55 = CARTESIAN_POINT ( 'NONE',  ( 20.99999999999999645, 40.00000000000000000, -10.00000000000000178 ) ) ;
#56 = DIRECTION ( 'NONE',  ( 1.000000000000000000, 0.000000000000000000, 0.000000000000000000 ) ) ;
#57 = FACE_OUTER_BOUND ( 'NONE', #177, .T. ) ;
#58 = LINE ( 'NONE', #138, #368 ) ;
#59 = VERTEX_POINT ( 'NONE', #423 ) ;
#60 = AXIS2_PLACEMENT_3D ( 'NONE', #241, #408, #350 ) ;
#61 = SURFACE_STYLE_FILL_AREA ( #448 ) ;
#62 = CARTESIAN_POINT ( 'NONE',  ( 20.99999999999999645, 0.000000000000000000, 30.00000000000000000 ) ) ;
#63 = ORIENTED_EDGE ( 'NONE', *, *, #520, .F. ) ;
#64 = CARTESIAN_POINT ( 'NONE',  ( -15.00000000000000000, 0.000000000000000000, 30.00000000000000000 ) ) ;
#65 = AXIS2_PLACEMENT_3D ( 'NONE', #302, #461, #340 ) ;
#66 = LINE ( 'NONE', #187, #171 ) ;
#67 = ORIENTED_EDGE ( 'NONE', *, *, #517, .T. ) ;
#68 = DIRECTION ( 'NONE',  ( 1.000000000000000000, 1.927470528863118802E-16, -3.279688848707211533E-32 ) ) ;
#69 = DIRECTION ( 'NONE',  ( 1.000000000000000000, 0.000000000000000000, 0.000000000000000000 ) ) ;
#70 = CARTESIAN_POINT ( 'NONE',  ( 2.999999999999999112, 0.4999999999597652955, 6.000000000000005329 ) ) ;
#71 = CARTESIAN_POINT ( 'NONE',  ( -15.00000000000000355, 39.99999999999999289, -9.500000000000003553 ) ) ;
#72 = VERTEX_POINT ( 'NONE', #249 ) ;
#73 = ORIENTED_EDGE ( 'NONE', *, *, #263, .T. ) ;
#74 = ORIENTED_EDGE ( 'NONE', *, *, #454, .F. ) ;
#75 = EDGE_LOOP ( 'NONE', ( #110 ) ) ;
#76 = AXIS2_PLACEMENT_3D ( 'NONE', #441, #312, #354 ) ;
#77 = SURFACE_STYLE_USAGE ( .BOTH. , #168 ) ;
#78 = APPLICATION_CONTEXT ( 'automotive_design' ) ;
#79 = DIRECTION ( 'NONE',  ( 0.000000000000000000, 0.000000000000000000, 1.000000000000000000 ) ) ;
#80 = FACE_OUTER_BOUND ( 'NONE', #118, .T. ) ;
#81 = CONICAL_SURFACE ( 'NONE', #508, 3.999999999999993339, 0.7853981634542916979 ) ;
#82 = ORIENTED_EDGE ( 'NONE', *, *, #260, .T. ) ;
#83 = EDGE_LOOP ( 'NONE', ( #3 ) ) ;
#84 = PLANE ( 'NONE',  #167 ) ;
#85 = ADVANCED_FACE ( 'NONE', ( #222 ), #215, .T. ) ;
#86 = DIRECTION ( 'NONE',  ( 0.000000000000000000, 0.000000000000000000, 1.000000000000000000 ) ) ;
#87 = EDGE_CURVE ( 'NONE', #137, #119, #58, .T. ) ;
#88 = CARTESIAN_POINT ( 'NONE',  ( 0.000000000000000000, 0.000000000000000000, -10.00000000000000178 ) ) ;
#89 = CIRCLE ( 'NONE', #34, 5.000000000000000000 ) ;
#90 = CONICAL_SURFACE ( 'NONE', #292, 4.499999999959751307, 0.7853981633406049712 ) ;
#91 = VERTEX_POINT ( 'NONE', #128 ) ;
#92 = EDGE_LOOP ( 'NONE', ( #322, #258, #235, #305 ) ) ;
#93 = VERTEX_POINT ( 'NONE', #6 ) ;
#94 = FACE_OUTER_BOUND ( 'NONE', #466, .T. ) ;
#95 = VERTEX_POINT ( 'NONE', #348 ) ;
#96 = AXIS2_PLACEMENT_3D ( 'NONE', #357, #277, #102 ) ;
#97 = ORIENTED_EDGE ( 'NONE', *, *, #313, .F. ) ;
#98 =( NAMED_UNIT ( * ) PLANE_ANGLE_UNIT ( ) SI_UNIT ( $, .RADIAN. ) );
#99 = CARTESIAN_POINT ( 'NONE',  ( 2.999999999999999112, 5.499999999999989342, 9.999999999999998224 ) ) ;
#100 = ORIENTED_EDGE ( 'NONE', *, *, #87, .T. ) ;
#101 = EDGE_CURVE ( 'NONE', #237, #95, #257, .T. ) ;
#102 = DIRECTION ( 'NONE',  ( 0.000000000000000000, 0.000000000000000000, -1.000000000000000000 ) ) ;
#103 = CARTESIAN_POINT ( 'NONE',  ( -15.00000000000000000, 0.4999999999999891753, 30.00000000000000000 ) ) ;
#104 = AXIS2_PLACEMENT_3D ( 'NONE', #409, #239, #280 ) ;
#105 = CARTESIAN_POINT ( 'NONE',  ( 20.99999999999999645, 0.4999999999999891753, 30.00000000000000000 ) ) ;
#106 = DIRECTION ( 'NONE',  ( 0.000000000000000000, 0.000000000000000000, 1.000000000000000000 ) ) ;
#107 = CIRCLE ( 'NONE', #8, 5.000000000000000888 ) ;
#108 = EDGE_LOOP ( 'NONE', ( #413 ) ) ;
#109 = DIRECTION ( 'NONE',  ( 8.673617379884036705E-17, -1.000000000000000000, 0.000000000000000000 ) ) ;
#110 = ORIENTED_EDGE ( 'NONE', *, *, #150, .F. ) ;
#111 = VERTEX_POINT ( 'NONE', #309 ) ;
#112 = DIRECTION ( 'NONE',  ( 1.000000000000000000, 0.000000000000000000, 0.000000000000000000 ) ) ;
#113 = DIRECTION ( 'NONE',  ( -0.000000000000000000, -0.000000000000000000, 1.000000000000000000 ) ) ;
#114 = AXIS2_PLACEMENT_3D ( 'NONE', #420, #452, #486 ) ;
#115 = DIRECTION ( 'NONE',  ( 0.000000000000000000, 0.000000000000000000, -1.000000000000000000 ) ) ;
#116 = DIRECTION ( 'NONE',  ( 0.000000000000000000, 0.000000000000000000, -1.000000000000000000 ) ) ;
#117 = VECTOR ( 'NONE', #394, 1000.000000000000000 ) ;
#118 = EDGE_LOOP ( 'NONE', ( #243 ) ) ;
#119 = VERTEX_POINT ( 'NONE', #502 ) ;
#120 = FILL_AREA_STYLE_COLOUR ( '', #320 ) ;
#121 =( LENGTH_UNIT ( ) NAMED_UNIT ( * ) SI_UNIT ( .MILLI., .METRE. ) );
#122 = FACE_OUTER_BOUND ( 'NONE', #402, .T. ) ;
#123 = ORIENTED_EDGE ( 'NONE', *, *, #520, .T. ) ;
#124 = APPLICATION_PROTOCOL_DEFINITION ( 'draft international standard', 'automotive_design', 1998, #78 ) ;
#125 = CARTESIAN_POINT ( 'NONE',  ( -15.00000000000000000, 0.000000000000000000, -10.00000000000000178 ) ) ;
#126 = EDGE_CURVE ( 'NONE', #268, #237, #475, .T. ) ;
#127 = EDGE_CURVE ( 'NONE', #191, #191, #421, .T. ) ;
#128 = CARTESIAN_POINT ( 'NONE',  ( 20.99999999999999645, 10.49999999999998934, -4.499999999999999112 ) ) ;
#129 = ADVANCED_FACE ( 'NONE', ( #242, #451 ), #90, .F. ) ;
#130 = VERTEX_POINT ( 'NONE', #105 ) ;
#131 = ORIENTED_EDGE ( 'NONE', *, *, #147, .F. ) ;
#132 = ORIENTED_EDGE ( 'NONE', *, *, #313, .T. ) ;
#133 = FACE_BOUND ( 'NONE', #459, .T. ) ;
#134 = EDGE_CURVE ( 'NONE', #303, #303, #352, .T. ) ;
#135 = FACE_OUTER_BOUND ( 'NONE', #341, .T. ) ;
#136 = FACE_BOUND ( 'NONE', #83, .T. ) ;
#137 = VERTEX_POINT ( 'NONE', #64 ) ;
#138 = CARTESIAN_POINT ( 'NONE',  ( -15.00000000000000000, 0.000000000000000000, 30.00000000000000000 ) ) ;
#139 = CARTESIAN_POINT ( 'NONE',  ( 20.99999999999999645, 40.00000000000000000, -10.00000000000000178 ) ) ;
#140 = CARTESIAN_POINT ( 'NONE',  ( 20.99999999999999645, 35.00000000000000000, -9.500000000000003553 ) ) ;
#141 = CONICAL_SURFACE ( 'NONE', #176, 4.499999999959751307, 0.7853981633405970886 ) ;
#142 = UNCERTAINTY_MEASURE_WITH_UNIT (LENGTH_MEASURE( 1.000000000000000082E-05 ), #121, 'distance_accuracy_value', 'NONE');
#143 = AXIS2_PLACEMENT_3D ( 'NONE', #507, #510, #5 ) ;
#144 = ORIENTED_EDGE ( 'NONE', *, *, #358, .T. ) ;
#145 = DIRECTION ( 'NONE',  ( 8.673617379884037937E-17, -1.000000000000000000, 0.000000000000000000 ) ) ;
#146 = ORIENTED_EDGE ( 'NONE', *, *, #272, .T. ) ;
#147 = EDGE_CURVE ( 'NONE', #59, #383, #445, .T. ) ;
#148 = CARTESIAN_POINT ( 'NONE',  ( 2.999999999999999112, 5.499999999999989342, 9.999999999999998224 ) ) ;
#149 = CARTESIAN_POINT ( 'NONE',  ( 20.99999999999999645, 40.00000000000000000, -10.00000000000000178 ) ) ;
#150 = EDGE_CURVE ( 'NONE', #51, #51, #315, .T. ) ;
#151 = DIRECTION ( 'NONE',  ( 0.000000000000000000, 1.000000000000000000, 0.000000000000000000 ) ) ;
#152 = CARTESIAN_POINT ( 'NONE',  ( -15.00000000000000355, 39.99999999999999289, -10.00000000000000178 ) ) ;
#153 = DIRECTION ( 'NONE',  ( 0.000000000000000000, 0.000000000000000000, -1.000000000000000000 ) ) ;
#154 = CARTESIAN_POINT ( 'NONE',  ( 20.99999999999999645, 0.000000000000000000, -10.00000000000000178 ) ) ;
#155 = EDGE_CURVE ( 'NONE', #95, #500, #66, .T. ) ;
#156 = DIRECTION ( 'NONE',  ( 0.000000000000000000, -1.000000000000000000, 0.000000000000000000 ) ) ;
#157 = EDGE_CURVE ( 'NONE', #47, #59, #216, .T. ) ;
#158 = VECTOR ( 'NONE', #478, 1000.000000000000000 ) ;
#159 = DIRECTION ( 'NONE',  ( 0.000000000000000000, -1.000000000000000000, 0.000000000000000000 ) ) ;
#160 = DIRECTION ( 'NONE',  ( -1.000000000000000000, 0.000000000000000000, 0.000000000000000000 ) ) ;
#161 = EDGE_LOOP ( 'NONE', ( #73, #42, #49, #343 ) ) ;
#162 = ORIENTED_EDGE ( 'NONE', *, *, #87, .F. ) ;
#163 = CARTESIAN_POINT ( 'NONE',  ( 20.99999999999999645, 35.00000000000000000, -9.500000000000003553 ) ) ;
#164 = DIRECTION ( 'NONE',  ( 0.000000000000000000, -1.000000000000000000, 1.701550710942217516E-16 ) ) ;
#165 = VECTOR ( 'NONE', #356, 1000.000000000000000 ) ;
#166 = ORIENTED_EDGE ( 'NONE', *, *, #201, .F. ) ;
#167 = AXIS2_PLACEMENT_3D ( 'NONE', #483, #79, #247 ) ;
#168 = SURFACE_SIDE_STYLE ('',( #61 ) ) ;
#169 =( GEOMETRIC_REPRESENTATION_CONTEXT ( 3 ) GLOBAL_UNCERTAINTY_ASSIGNED_CONTEXT ( ( #142 ) ) GLOBAL_UNIT_ASSIGNED_CONTEXT ( ( #121, #208, #372 ) ) REPRESENTATION_CONTEXT ( 'NONE', 'WORKASPACE' ) );
#170 = DIRECTION ( 'NONE',  ( 1.000000000000000000, 0.000000000000000000, 0.000000000000000000 ) ) ;
#171 = VECTOR ( 'NONE', #360, 1000.000000000000000 ) ;
#172 = ORIENTED_EDGE ( 'NONE', *, *, #377, .T. ) ;
#173 = ORIENTED_EDGE ( 'NONE', *, *, #261, .T. ) ;
#174 = STYLED_ITEM ( 'NONE', ( #35 ), #218 ) ;
#175 = EDGE_CURVE ( 'NONE', #119, #130, #204, .T. ) ;
#176 = AXIS2_PLACEMENT_3D ( 'NONE', #254, #422, #375 ) ;
#177 = EDGE_LOOP ( 'NONE', ( #52, #132, #281, #311, #183, #414, #67, #131, #406 ) ) ;
#178 = PRODUCT ( '4040L-ALU', '4040L-ALU', '', ( #410 ) ) ;
#179 = CIRCLE ( 'NONE', #276, 5.000000000000000888 ) ;
#180 = AXIS2_PLACEMENT_3D ( 'NONE', #262, #300, #384 ) ;
#181 = CIRCLE ( 'NONE', #416, 4.500000000016601831 ) ;
#182 = VECTOR ( 'NONE', #463, 1000.000000000000000 ) ;
#183 = ORIENTED_EDGE ( 'NONE', *, *, #206, .T. ) ;
#184 = CARTESIAN_POINT ( 'NONE',  ( 20.99999999999999645, 40.00000000000000000, -10.00000000000000178 ) ) ;
#185 = ORIENTED_EDGE ( 'NONE', *, *, #157, .F. ) ;
#186 = ORIENTED_EDGE ( 'NONE', *, *, #134, .T. ) ;
#187 = CARTESIAN_POINT ( 'NONE',  ( -15.00000000000000355, 39.99999999999999289, -10.00000000000000178 ) ) ;
#188 = DIRECTION ( 'NONE',  ( -1.000000000000000000, -8.673617379884037937E-17, 0.000000000000000000 ) ) ;
#189 = AXIS2_PLACEMENT_3D ( 'NONE', #244, #364, #116 ) ;
#190 = CARTESIAN_POINT ( 'NONE',  ( -15.00000000000000355, 39.99999999999999289, 30.00000000000000000 ) ) ;
#191 = VERTEX_POINT ( 'NONE', #521 ) ;
#192 = CARTESIAN_POINT ( 'NONE',  ( 20.99999999999999645, 5.499999999999989342, -4.499999999999998224 ) ) ;
#193 = PLANE ( 'NONE',  #104 ) ;
#194 = CYLINDRICAL_SURFACE ( 'NONE', #189, 5.000000000000000000 ) ;
#195 = EDGE_LOOP ( 'NONE', ( #295 ) ) ;
#196 = ORIENTED_EDGE ( 'NONE', *, *, #517, .F. ) ;
#197 =( GEOMETRIC_REPRESENTATION_CONTEXT ( 3 ) GLOBAL_UNCERTAINTY_ASSIGNED_CONTEXT ( ( #11 ) ) GLOBAL_UNIT_ASSIGNED_CONTEXT ( ( #482, #246, #519 ) ) REPRESENTATION_CONTEXT ( 'NONE', 'WORKASPACE' ) );
#198 = CARTESIAN_POINT ( 'NONE',  ( 2.999999999999999112, 0.4999999999597652955, 9.999999999999998224 ) ) ;
#199 = CARTESIAN_POINT ( 'NONE',  ( 20.99999999999999645, 10.49999999999998934, -4.499999999999999112 ) ) ;
#200 = DIRECTION ( 'NONE',  ( -1.000000000000000000, 0.000000000000000000, 0.000000000000000000 ) ) ;
#201 = EDGE_CURVE ( 'NONE', #306, #328, #412, .T. ) ;
#202 = CARTESIAN_POINT ( 'NONE',  ( 2.999999999999999112, 20.00000000000000000, -10.00000000000000178 ) ) ;
#203 = FACE_OUTER_BOUND ( 'NONE', #376, .T. ) ;
#204 = LINE ( 'NONE', #62, #505 ) ;
#205 = ORIENTED_EDGE ( 'NONE', *, *, #387, .T. ) ;
#206 = EDGE_CURVE ( 'NONE', #500, #137, #367, .T. ) ;
#207 = EDGE_LOOP ( 'NONE', ( #211, #310, #196, #38 ) ) ;
#208 =( NAMED_UNIT ( * ) PLANE_ANGLE_UNIT ( ) SI_UNIT ( $, .RADIAN. ) );
#209 = CARTESIAN_POINT ( 'NONE',  ( 2.999999999999999112, 24.49999999995975131, -4.500000000000001776 ) ) ;
#210 = DIRECTION ( 'NONE',  ( 0.000000000000000000, 0.000000000000000000, 1.000000000000000000 ) ) ;
#211 = ORIENTED_EDGE ( 'NONE', *, *, #426, .F. ) ;
#212 = AXIS2_PLACEMENT_3D ( 'NONE', #270, #273, #27 ) ;
#213 = ADVANCED_FACE ( 'NONE', ( #326 ), #509, .T. ) ;
#214 = CIRCLE ( 'NONE', #347, 4.499999999959751307 ) ;
#215 = PLANE ( 'NONE',  #230 ) ;
#216 = LINE ( 'NONE', #319, #391 ) ;
#217 = EDGE_LOOP ( 'NONE', ( #162, #39, #4, #123 ) ) ;
#218 = MANIFOLD_SOLID_BREP ( 'Fillet1', #471 ) ;
#219 = PRODUCT_DEFINITION ( 'UNKNOWN', '', #393, #274 ) ;
#220 = EDGE_CURVE ( 'NONE', #72, #72, #181, .T. ) ;
#221 = CIRCLE ( 'NONE', #373, 5.000000000000000000 ) ;
#222 = FACE_OUTER_BOUND ( 'NONE', #161, .T. ) ;
#223 = ORIENTED_EDGE ( 'NONE', *, *, #440, .F. ) ;
#224 = PLANE ( 'NONE',  #53 ) ;
#225 = PRESENTATION_LAYER_ASSIGNMENT (  '', '', ( #174 ) ) ;
#226 = CARTESIAN_POINT ( 'NONE',  ( 2.999999999999999112, 20.00000000000000000, -9.500000000040257575 ) ) ;
#227 = ORIENTED_EDGE ( 'NONE', *, *, #251, .T. ) ;
#228 = ORIENTED_EDGE ( 'NONE', *, *, #147, .T. ) ;
#229 = DIRECTION ( 'NONE',  ( 0.000000000000000000, 0.000000000000000000, 1.000000000000000000 ) ) ;
#230 = AXIS2_PLACEMENT_3D ( 'NONE', #55, #337, #492 ) ;
#231 = DIRECTION ( 'NONE',  ( -1.000000000000000000, -1.927470528863118802E-16, 3.279688848707211533E-32 ) ) ;
#232 = DIRECTION ( 'NONE',  ( -1.000000000000000000, 0.000000000000000000, 0.000000000000000000 ) ) ;
#233 = CARTESIAN_POINT ( 'NONE',  ( 20.99999999999999645, 0.000000000000000000, -10.00000000000000178 ) ) ;
#234 = LINE ( 'NONE', #25, #335 ) ;
#235 = ORIENTED_EDGE ( 'NONE', *, *, #101, .F. ) ;
#236 = EDGE_LOOP ( 'NONE', ( #31, #294, #228, #144 ) ) ;
#237 = VERTEX_POINT ( 'NONE', #149 ) ;
#238 = DIRECTION ( 'NONE',  ( 0.000000000000000000, 0.000000000000000000, -1.000000000000000000 ) ) ;
#239 = DIRECTION ( 'NONE',  ( 0.000000000000000000, -1.000000000000000000, 0.000000000000000000 ) ) ;
#240 = CARTESIAN_POINT ( 'NONE',  ( -15.00000000000000000, 34.99999999999999289, -4.500000000000003553 ) ) ;
#241 = CARTESIAN_POINT ( 'NONE',  ( 2.999999999999999112, 20.00000000000000000, -10.00000000000000178 ) ) ;
#242 = FACE_BOUND ( 'NONE', #370, .T. ) ;
#243 = ORIENTED_EDGE ( 'NONE', *, *, #501, .T. ) ;
#244 = CARTESIAN_POINT ( 'NONE',  ( 20.99999999999999645, 10.49999999999998934, 0.5000000000000013323 ) ) ;
#245 = CARTESIAN_POINT ( 'NONE',  ( 20.99999999999999645, 35.00000000000000000, -4.500000000000003553 ) ) ;
#246 =( NAMED_UNIT ( * ) PLANE_ANGLE_UNIT ( ) SI_UNIT ( $, .RADIAN. ) );
#247 = DIRECTION ( 'NONE',  ( 1.000000000000000000, 0.000000000000000000, -0.000000000000000000 ) ) ;
#248 = FACE_OUTER_BOUND ( 'NONE', #236, .T. ) ;
#249 = CARTESIAN_POINT ( 'NONE',  ( 2.999999999999999112, 0.000000000000000000, 5.499999999983396393 ) ) ;
#250 = VECTOR ( 'NONE', #29, 1000.000000000000000 ) ;
#251 = EDGE_CURVE ( 'NONE', #328, #336, #271, .T. ) ;
#252 = APPLICATION_PROTOCOL_DEFINITION ( 'draft international standard', 'automotive_design', 1998, #419 ) ;
#253 = CARTESIAN_POINT ( 'NONE',  ( 6.999999999999992006, 20.00000000000000000, -9.500000000040257575 ) ) ;
#254 = CARTESIAN_POINT ( 'NONE',  ( 2.999999999999999112, 20.00000000000000000, -4.500000000000000888 ) ) ;
#255 = PRESENTATION_LAYER_ASSIGNMENT (  '', '', ( #467 ) ) ;
#256 = ADVANCED_FACE ( 'NONE', ( #57 ), #32, .T. ) ;
#257 = LINE ( 'NONE', #139, #182 ) ;
#258 = ORIENTED_EDGE ( 'NONE', *, *, #155, .F. ) ;
#259 = ORIENTED_EDGE ( 'NONE', *, *, #134, .F. ) ;
#260 = EDGE_CURVE ( 'NONE', #130, #111, #293, .T. ) ;
#261 = EDGE_CURVE ( 'NONE', #336, #264, #297, .T. ) ;
#262 = CARTESIAN_POINT ( 'NONE',  ( 2.999999999999999112, -0.000000000000000000, 9.999999999999998224 ) ) ;
#263 = EDGE_CURVE ( 'NONE', #95, #392, #458, .T. ) ;
#264 = VERTEX_POINT ( 'NONE', #404 ) ;
#265 = FACE_BOUND ( 'NONE', #195, .T. ) ;
#266 = VECTOR ( 'NONE', #346, 1000.000000000000000 ) ;
#267 = ORIENTED_EDGE ( 'NONE', *, *, #44, .T. ) ;
#268 = VERTEX_POINT ( 'NONE', #233 ) ;
#269 =( LENGTH_UNIT ( ) NAMED_UNIT ( * ) SI_UNIT ( .MILLI., .METRE. ) );
#270 = CARTESIAN_POINT ( 'NONE',  ( 2.999999999999999112, 4.999999999983387511, 9.999999999999998224 ) ) ;
#271 = LINE ( 'NONE', #23, #15 ) ;
#272 = EDGE_CURVE ( 'NONE', #47, #470, #234, .T. ) ;
#273 = DIRECTION ( 'NONE',  ( -0.000000000000000000, 1.000000000000000000, -0.000000000000000000 ) ) ;
#274 = PRODUCT_DEFINITION_CONTEXT ( 'detailed design', #419, 'design' ) ;
#275 = SURFACE_SIDE_STYLE ('',( #385 ) ) ;
#276 = AXIS2_PLACEMENT_3D ( 'NONE', #287, #282, #115 ) ;
#277 = DIRECTION ( 'NONE',  ( 0.000000000000000000, -1.000000000000000000, 0.000000000000000000 ) ) ;
#278 = DIRECTION ( 'NONE',  ( -0.000000000000000000, 1.000000000000000000, -0.000000000000000000 ) ) ;
#279 = PLANE ( 'NONE',  #496 ) ;
#280 = DIRECTION ( 'NONE',  ( 0.000000000000000000, -0.000000000000000000, -1.000000000000000000 ) ) ;
#281 = ORIENTED_EDGE ( 'NONE', *, *, #263, .F. ) ;
#282 = DIRECTION ( 'NONE',  ( 1.000000000000000000, 0.000000000000000000, 0.000000000000000000 ) ) ;
#283 = CARTESIAN_POINT ( 'NONE',  ( -15.00000000000000711, 34.99999999999999289, -9.500000000000003553 ) ) ;
#284 = ORIENTED_EDGE ( 'NONE', *, *, #440, .T. ) ;
#285 = DIRECTION ( 'NONE',  ( 1.000000000000000000, -0.000000000000000000, -0.000000000000000000 ) ) ;
#286 = DIRECTION ( 'NONE',  ( -1.000000000000000000, -0.000000000000000000, -0.000000000000000000 ) ) ;
#287 = CARTESIAN_POINT ( 'NONE',  ( 20.99999999999999645, 0.4999999999999891753, 24.99999999999999645 ) ) ;
#288 = EDGE_CURVE ( 'NONE', #111, #137, #349, .T. ) ;
#289 = DIRECTION ( 'NONE',  ( 0.000000000000000000, 1.000000000000000000, 0.000000000000000000 ) ) ;
#290 = CARTESIAN_POINT ( 'NONE',  ( 0.000000000000000000, 0.000000000000000000, 0.000000000000000000 ) ) ;
#291 = CARTESIAN_POINT ( 'NONE',  ( 20.99999999999999645, 5.499999999999989342, 24.99999999999999645 ) ) ;
#292 = AXIS2_PLACEMENT_3D ( 'NONE', #148, #24, #229 ) ;
#293 = LINE ( 'NONE', #103, #165 ) ;
#294 = ORIENTED_EDGE ( 'NONE', *, *, #157, .T. ) ;
#295 = ORIENTED_EDGE ( 'NONE', *, *, #501, .F. ) ;
#296 = CYLINDRICAL_SURFACE ( 'NONE', #363, 4.999999999999997335 ) ;
#297 = LINE ( 'NONE', #432, #359 ) ;
#298 = VECTOR ( 'NONE', #170, 1000.000000000000000 ) ;
#299 = ORIENTED_EDGE ( 'NONE', *, *, #201, .T. ) ;
#300 = DIRECTION ( 'NONE',  ( -0.000000000000000000, -1.000000000000000000, -0.000000000000000000 ) ) ;
#301 = ADVANCED_FACE ( 'NONE', ( #378, #265 ), #81, .F. ) ;
#302 = CARTESIAN_POINT ( 'NONE',  ( -15.00000000000000711, 10.49999999999998934, 0.5000000000000013323 ) ) ;
#303 = VERTEX_POINT ( 'NONE', #70 ) ;
#304 = CYLINDRICAL_SURFACE ( 'NONE', #180, 3.999999999999993339 ) ;
#305 = ORIENTED_EDGE ( 'NONE', *, *, #126, .F. ) ;
#306 = VERTEX_POINT ( 'NONE', #474 ) ;
#307 = AXIS2_PLACEMENT_3D ( 'NONE', #198, #156, #324 ) ;
#308 = LINE ( 'NONE', #371, #374 ) ;
#309 = CARTESIAN_POINT ( 'NONE',  ( -15.00000000000000000, 0.4999999999999865663, 30.00000000000000000 ) ) ;
#310 = ORIENTED_EDGE ( 'NONE', *, *, #358, .F. ) ;
#311 = ORIENTED_EDGE ( 'NONE', *, *, #155, .T. ) ;
#312 = DIRECTION ( 'NONE',  ( 0.000000000000000000, -1.701550710942217516E-16, -1.000000000000000000 ) ) ;
#313 = EDGE_CURVE ( 'NONE', #336, #392, #107, .T. ) ;
#314 = FACE_OUTER_BOUND ( 'NONE', #427, .T. ) ;
#315 = CIRCLE ( 'NONE', #76, 4.499999999959751307 ) ;
#316 = DIRECTION ( 'NONE',  ( 0.000000000000000000, 0.000000000000000000, -1.000000000000000000 ) ) ;
#317 = AXIS2_PLACEMENT_3D ( 'NONE', #140, #430, #316 ) ;
#318 = DIRECTION ( 'NONE',  ( 0.000000000000000000, 1.000000000000000000, 0.000000000000000000 ) ) ;
#319 = CARTESIAN_POINT ( 'NONE',  ( -15.00000000000000000, 5.499999999999989342, 0.5000000000000013323 ) ) ;
#320 = COLOUR_RGB ( '',0.8980392156862745390, 0.9176470588235293713, 0.9294117647058823817 ) ;
#321 = DIRECTION ( 'NONE',  ( 0.000000000000000000, 0.000000000000000000, -1.000000000000000000 ) ) ;
#322 = ORIENTED_EDGE ( 'NONE', *, *, #18, .F. ) ;
#323 = CARTESIAN_POINT ( 'NONE',  ( 20.99999999999999645, 10.49999999999998934, 0.5000000000000013323 ) ) ;
#324 = DIRECTION ( 'NONE',  ( 0.000000000000000000, 0.000000000000000000, -1.000000000000000000 ) ) ;
#325 = SHAPE_DEFINITION_REPRESENTATION ( #398, #462 ) ;
#326 = FACE_OUTER_BOUND ( 'NONE', #207, .T. ) ;
#327 = ORIENTED_EDGE ( 'NONE', *, *, #220, .F. ) ;
#328 = VERTEX_POINT ( 'NONE', #245 ) ;
#329 = DIRECTION ( 'NONE',  ( -1.000000000000000000, -8.673617379884037937E-17, 0.000000000000000000 ) ) ;
#330 = CARTESIAN_POINT ( 'NONE',  ( -15.00000000000000000, 0.000000000000000000, -10.00000000000000178 ) ) ;
#331 = DIRECTION ( 'NONE',  ( 0.000000000000000000, -1.000000000000000000, 0.000000000000000000 ) ) ;
#332 = LINE ( 'NONE', #199, #424 ) ;
#333 = ADVANCED_FACE ( 'NONE', ( #94 ), #194, .F. ) ;
#334 = EDGE_CURVE ( 'NONE', #91, #47, #221, .T. ) ;
#335 = VECTOR ( 'NONE', #443, 1000.000000000000000 ) ;
#336 = VERTEX_POINT ( 'NONE', #240 ) ;
#337 = DIRECTION ( 'NONE',  ( -1.927470528863118802E-16, 1.000000000000000000, 0.000000000000000000 ) ) ;
#338 = ADVANCED_FACE ( 'NONE', ( #135 ), #365, .T. ) ;
#339 = VERTEX_POINT ( 'NONE', #43 ) ;
#340 = DIRECTION ( 'NONE',  ( 0.000000000000000000, -1.000000000000000000, 0.000000000000000000 ) ) ;
#341 = EDGE_LOOP ( 'NONE', ( #267, #299, #345, #10, #146, #399, #516, #63, #362 ) ) ;
#342 = AXIS2_PLACEMENT_3D ( 'NONE', #290, #210, #487 ) ;
#343 = ORIENTED_EDGE ( 'NONE', *, *, #101, .T. ) ;
#344 = MECHANICAL_DESIGN_GEOMETRIC_PRESENTATION_REPRESENTATION (  '', ( #174 ), #390 ) ;
#345 = ORIENTED_EDGE ( 'NONE', *, *, #407, .T. ) ;
#346 = DIRECTION ( 'NONE',  ( 0.000000000000000000, 0.000000000000000000, 1.000000000000000000 ) ) ;
#347 = AXIS2_PLACEMENT_3D ( 'NONE', #99, #473, #153 ) ;
#348 = CARTESIAN_POINT ( 'NONE',  ( -15.00000000000000355, 39.99999999999999289, -10.00000000000000178 ) ) ;
#349 = LINE ( 'NONE', #190, #30 ) ;
#350 = DIRECTION ( 'NONE',  ( -1.000000000000000000, 0.000000000000000000, 0.000000000000000000 ) ) ;
#351 = FILL_AREA_STYLE_COLOUR ( '', #2 ) ;
#352 = CIRCLE ( 'NONE', #96, 3.999999999999993339 ) ;
#353 = ORIENTED_EDGE ( 'NONE', *, *, #127, .T. ) ;
#354 = DIRECTION ( 'NONE',  ( 0.000000000000000000, 1.000000000000000000, -1.927470528880358618E-16 ) ) ;
#355 = CARTESIAN_POINT ( 'NONE',  ( 20.99999999999999645, 5.499999999999989342, 24.99999999999999645 ) ) ;
#356 = DIRECTION ( 'NONE',  ( -1.000000000000000000, 0.000000000000000000, 0.000000000000000000 ) ) ;
#357 = CARTESIAN_POINT ( 'NONE',  ( 2.999999999999999112, 0.4999999999597652955, 9.999999999999998224 ) ) ;
#358 = EDGE_CURVE ( 'NONE', #383, #470, #488, .T. ) ;
#359 = VECTOR ( 'NONE', #396, 1000.000000000000000 ) ;
#360 = DIRECTION ( 'NONE',  ( 8.673617379884036705E-17, -1.000000000000000000, 0.000000000000000000 ) ) ;
#361 = ORIENTED_EDGE ( 'NONE', *, *, #175, .T. ) ;
#362 = ORIENTED_EDGE ( 'NONE', *, *, #126, .T. ) ;
#363 = AXIS2_PLACEMENT_3D ( 'NONE', #163, #447, #289 ) ;
#364 = DIRECTION ( 'NONE',  ( 1.000000000000000000, 0.000000000000000000, 0.000000000000000000 ) ) ;
#365 = PLANE ( 'NONE',  #400 ) ;
#366 = CARTESIAN_POINT ( 'NONE',  ( 2.999999999999999112, 20.00000000000000000, -9.500000000040257575 ) ) ;
#367 = LINE ( 'NONE', #330, #481 ) ;
#368 = VECTOR ( 'NONE', #56, 1000.000000000000000 ) ;
#369 = EDGE_LOOP ( 'NONE', ( #13 ) ) ;
#370 = EDGE_LOOP ( 'NONE', ( #455 ) ) ;
#371 = CARTESIAN_POINT ( 'NONE',  ( 20.99999999999999645, 41.18234626728679615, -4.500000000000003553 ) ) ;
#372 =( NAMED_UNIT ( * ) SI_UNIT ( $, .STERADIAN. ) SOLID_ANGLE_UNIT ( ) );
#373 = AXIS2_PLACEMENT_3D ( 'NONE', #323, #286, #37 ) ;
#374 = VECTOR ( 'NONE', #164, 1000.000000000000000 ) ;
#375 = DIRECTION ( 'NONE',  ( 1.000000000000000000, 0.000000000000000000, 0.000000000000000000 ) ) ;
#376 = EDGE_LOOP ( 'NONE', ( #172 ) ) ;
#377 = EDGE_CURVE ( 'NONE', #93, #93, #45, .T. ) ;
#378 = FACE_OUTER_BOUND ( 'NONE', #369, .T. ) ;
#379 = FACE_OUTER_BOUND ( 'NONE', #75, .T. ) ;
#380 = ADVANCED_FACE ( 'NONE', ( #418, #457 ), #193, .T. ) ;
#381 = ORIENTED_EDGE ( 'NONE', *, *, #377, .F. ) ;
#382 = CARTESIAN_POINT ( 'NONE',  ( 20.99999999999999645, 0.000000000000000000, -10.00000000000000178 ) ) ;
#383 = VERTEX_POINT ( 'NONE', #512 ) ;
#384 = DIRECTION ( 'NONE',  ( 0.000000000000000000, 0.000000000000000000, -1.000000000000000000 ) ) ;
#385 = SURFACE_STYLE_FILL_AREA ( #503 ) ;
#386 = EDGE_LOOP ( 'NONE', ( #353 ) ) ;
#387 = EDGE_CURVE ( 'NONE', #339, #339, #498, .T. ) ;
#388 = FACE_BOUND ( 'NONE', #434, .T. ) ;
#389 = ADVANCED_FACE ( 'NONE', ( #464 ), #296, .T. ) ;
#390 =( GEOMETRIC_REPRESENTATION_CONTEXT ( 3 ) GLOBAL_UNCERTAINTY_ASSIGNED_CONTEXT ( ( #26 ) ) GLOBAL_UNIT_ASSIGNED_CONTEXT ( ( #269, #98, #403 ) ) REPRESENTATION_CONTEXT ( 'NONE', 'WORKASPACE' ) );
#391 = VECTOR ( 'NONE', #232, 1000.000000000000000 ) ;
#392 = VERTEX_POINT ( 'NONE', #71 ) ;
#393 = PRODUCT_DEFINITION_FORMATION_WITH_SPECIFIED_SOURCE ( 'ANY', '', #178, .NOT_KNOWN. ) ;
#394 = DIRECTION ( 'NONE',  ( 0.000000000000000000, 0.000000000000000000, 1.000000000000000000 ) ) ;
#395 = CARTESIAN_POINT ( 'NONE',  ( -15.00000000000000355, 39.99999999999999289, -10.00000000000000178 ) ) ;
#396 = DIRECTION ( 'NONE',  ( 0.000000000000000000, -1.000000000000000000, 1.701550710942217516E-16 ) ) ;
#397 = FACE_BOUND ( 'NONE', #108, .T. ) ;
#398 = PRODUCT_DEFINITION_SHAPE ( 'NONE', 'NONE',  #219 ) ;
#399 = ORIENTED_EDGE ( 'NONE', *, *, #426, .T. ) ;
#400 = AXIS2_PLACEMENT_3D ( 'NONE', #154, #69, #321 ) ;
#401 = CARTESIAN_POINT ( 'NONE',  ( -15.00000000000000000, 5.499999999999989342, -4.499999999999998224 ) ) ;
#402 = EDGE_LOOP ( 'NONE', ( #173, #284, #490, #227 ) ) ;
#403 =( NAMED_UNIT ( * ) SI_UNIT ( $, .STERADIAN. ) SOLID_ANGLE_UNIT ( ) );
#404 = CARTESIAN_POINT ( 'NONE',  ( -15.00000000000000000, 10.49999999999998934, -4.499999999999999112 ) ) ;
#405 = EDGE_LOOP ( 'NONE', ( #186 ) ) ;
#406 = ORIENTED_EDGE ( 'NONE', *, *, #28, .T. ) ;
#407 = EDGE_CURVE ( 'NONE', #328, #91, #308, .T. ) ;
#408 = DIRECTION ( 'NONE',  ( -0.000000000000000000, -0.000000000000000000, -1.000000000000000000 ) ) ;
#409 = CARTESIAN_POINT ( 'NONE',  ( -15.00000000000000000, 0.000000000000000000, -10.00000000000000178 ) ) ;
#410 = PRODUCT_CONTEXT ( 'NONE', #78, 'mechanical' ) ;
#411 = VECTOR ( 'NONE', #68, 1000.000000000000000 ) ;
#412 = CIRCLE ( 'NONE', #317, 4.999999999999999112 ) ;
#413 = ORIENTED_EDGE ( 'NONE', *, *, #454, .T. ) ;
#414 = ORIENTED_EDGE ( 'NONE', *, *, #288, .F. ) ;
#415 = EDGE_LOOP ( 'NONE', ( #361, #82, #495, #100 ) ) ;
#416 = AXIS2_PLACEMENT_3D ( 'NONE', #468, #278, #438 ) ;
#417 = PRESENTATION_STYLE_ASSIGNMENT (( #77 ) ) ;
#418 = FACE_BOUND ( 'NONE', #477, .T. ) ;
#419 = APPLICATION_CONTEXT ( 'automotive_design' ) ;
#420 = CARTESIAN_POINT ( 'NONE',  ( 20.99999999999999645, 41.18234626728679615, -4.500000000000003553 ) ) ;
#421 = CIRCLE ( 'NONE', #212, 3.999999999999993339 ) ;
#422 = DIRECTION ( 'NONE',  ( -0.000000000000000000, -0.000000000000000000, 1.000000000000000000 ) ) ;
#423 = CARTESIAN_POINT ( 'NONE',  ( -15.00000000000000000, 5.499999999999989342, 0.5000000000000013323 ) ) ;
#424 = VECTOR ( 'NONE', #285, 1000.000000000000000 ) ;
#425 = FACE_OUTER_BOUND ( 'NONE', #405, .T. ) ;
#426 = EDGE_CURVE ( 'NONE', #470, #130, #179, .T. ) ;
#427 = EDGE_LOOP ( 'NONE', ( #327 ) ) ;
#428 = ADVANCED_FACE ( 'NONE', ( #397, #248 ), #279, .F. ) ;
#429 = VECTOR ( 'NONE', #106, 1000.000000000000000 ) ;
#430 = DIRECTION ( 'NONE',  ( 1.000000000000000000, 0.000000000000000000, 0.000000000000000000 ) ) ;
#431 = AXIS2_PLACEMENT_3D ( 'NONE', #226, #238, #112 ) ;
#432 = CARTESIAN_POINT ( 'NONE',  ( -15.00000000000000000, 41.18234626728679615, -4.500000000000003553 ) ) ;
#433 = FACE_OUTER_BOUND ( 'NONE', #92, .T. ) ;
#434 = EDGE_LOOP ( 'NONE', ( #381 ) ) ;
#435 = SURFACE_STYLE_USAGE ( .BOTH. , #275 ) ;
#436 = DIRECTION ( 'NONE',  ( 0.000000000000000000, 0.000000000000000000, 1.000000000000000000 ) ) ;
#437 = MECHANICAL_DESIGN_GEOMETRIC_PRESENTATION_REPRESENTATION (  '', ( #467 ), #197 ) ;
#438 = DIRECTION ( 'NONE',  ( 0.000000000000000000, 0.000000000000000000, -1.000000000000000000 ) ) ;
#439 = LINE ( 'NONE', #184, #266 ) ;
#440 = EDGE_CURVE ( 'NONE', #264, #91, #332, .T. ) ;
#441 = CARTESIAN_POINT ( 'NONE',  ( 2.999999999999999112, 20.00000000000000000, -4.500000000000000888 ) ) ;
#442 = DIRECTION ( 'NONE',  ( 0.000000000000000000, 0.000000000000000000, -1.000000000000000000 ) ) ;
#443 = DIRECTION ( 'NONE',  ( 0.000000000000000000, 0.000000000000000000, 1.000000000000000000 ) ) ;
#444 = LINE ( 'NONE', #479, #117 ) ;
#445 = LINE ( 'NONE', #401, #250 ) ;
#446 = CARTESIAN_POINT ( 'NONE',  ( -15.00000000000000000, 0.000000000000000000, -10.00000000000000178 ) ) ;
#447 = DIRECTION ( 'NONE',  ( 1.000000000000000000, 1.927470528863118802E-16, -3.279688848707211533E-32 ) ) ;
#448 = FILL_AREA_STYLE ('',( #120 ) ) ;
#449 = CARTESIAN_POINT ( 'NONE',  ( 2.999999999999999112, 5.499999999999989342, 5.500000000040246917 ) ) ;
#450 = PLANE ( 'NONE',  #114 ) ;
#451 = FACE_OUTER_BOUND ( 'NONE', #48, .T. ) ;
#452 = DIRECTION ( 'NONE',  ( 0.000000000000000000, -1.701550710942217516E-16, -1.000000000000000000 ) ) ;
#453 = ADVANCED_FACE ( 'NONE', ( #314, #133 ), #504, .F. ) ;
#454 = EDGE_CURVE ( 'NONE', #9, #9, #214, .T. ) ;
#455 = ORIENTED_EDGE ( 'NONE', *, *, #127, .F. ) ;
#456 = EDGE_LOOP ( 'NONE', ( #166, #499, #97, #494 ) ) ;
#457 = FACE_OUTER_BOUND ( 'NONE', #217, .T. ) ;
#458 = LINE ( 'NONE', #152, #429 ) ;
#459 = EDGE_LOOP ( 'NONE', ( #259 ) ) ;
#460 = AXIS2_PLACEMENT_3D ( 'NONE', #395, #188, #145 ) ;
#461 = DIRECTION ( 'NONE',  ( 1.000000000000000000, 8.673617379884037937E-17, -0.000000000000000000 ) ) ;
#462 = ADVANCED_BREP_SHAPE_REPRESENTATION ( '4040L-ALU', ( #218, #342 ), #169 ) ;
#463 = DIRECTION ( 'NONE',  ( -1.000000000000000000, -1.927470528863118802E-16, 0.000000000000000000 ) ) ;
#464 = FACE_OUTER_BOUND ( 'NONE', #456, .T. ) ;
#465 = LINE ( 'NONE', #125, #298 ) ;
#466 = EDGE_LOOP ( 'NONE', ( #506, #223, #17, #185 ) ) ;
#467 = STYLED_ITEM ( 'NONE', ( #417 ), #462 ) ;
#468 = CARTESIAN_POINT ( 'NONE',  ( 2.999999999999999112, 0.000000000000000000, 9.999999999999998224 ) ) ;
#469 = AXIS2_PLACEMENT_3D ( 'NONE', #472, #113, #160 ) ;
#470 = VERTEX_POINT ( 'NONE', #355 ) ;
#471 = CLOSED_SHELL ( 'NONE', ( #380, #256, #85, #338, #54, #12, #428, #14, #491, #50, #7, #129, #453, #301, #333, #389, #213 ) ) ;
#472 = CARTESIAN_POINT ( 'NONE',  ( 2.999999999999999112, 20.00000000000000000, -5.000000000016609825 ) ) ;
#473 = DIRECTION ( 'NONE',  ( 0.000000000000000000, -1.000000000000000000, 0.000000000000000000 ) ) ;
#474 = CARTESIAN_POINT ( 'NONE',  ( 20.99999999999999645, 40.00000000000000000, -9.500000000000003553 ) ) ;
#475 = LINE ( 'NONE', #382, #21 ) ;
#476 = AXIS2_PLACEMENT_3D ( 'NONE', #202, #480, #40 ) ;
#477 = EDGE_LOOP ( 'NONE', ( #22 ) ) ;
#478 = DIRECTION ( 'NONE',  ( 1.000000000000000000, -0.000000000000000000, -0.000000000000000000 ) ) ;
#479 = CARTESIAN_POINT ( 'NONE',  ( 20.99999999999999645, 0.000000000000000000, -10.00000000000000178 ) ) ;
#480 = DIRECTION ( 'NONE',  ( 0.000000000000000000, 0.000000000000000000, 1.000000000000000000 ) ) ;
#481 = VECTOR ( 'NONE', #436, 1000.000000000000000 ) ;
#482 =( LENGTH_UNIT ( ) NAMED_UNIT ( * ) SI_UNIT ( .MILLI., .METRE. ) );
#483 = CARTESIAN_POINT ( 'NONE',  ( 0.000000000000000000, 0.000000000000000000, 30.00000000000000000 ) ) ;
#484 = EDGE_LOOP ( 'NONE', ( #205 ) ) ;
#485 = PRODUCT_RELATED_PRODUCT_CATEGORY ( 'part', '', ( #178 ) ) ;
#486 = DIRECTION ( 'NONE',  ( 0.000000000000000000, 1.000000000000000000, -1.701550710942217516E-16 ) ) ;
#487 = DIRECTION ( 'NONE',  ( 1.000000000000000000, 0.000000000000000000, 0.000000000000000000 ) ) ;
#488 = LINE ( 'NONE', #291, #158 ) ;
#489 = FACE_OUTER_BOUND ( 'NONE', #415, .T. ) ;
#490 = ORIENTED_EDGE ( 'NONE', *, *, #407, .F. ) ;
#491 = ADVANCED_FACE ( 'NONE', ( #203, #80 ), #20, .F. ) ;
#492 = DIRECTION ( 'NONE',  ( -1.000000000000000000, -1.927470528863118802E-16, 0.000000000000000000 ) ) ;
#493 = EDGE_CURVE ( 'NONE', #392, #306, #515, .T. ) ;
#494 = ORIENTED_EDGE ( 'NONE', *, *, #251, .F. ) ;
#495 = ORIENTED_EDGE ( 'NONE', *, *, #288, .T. ) ;
#496 = AXIS2_PLACEMENT_3D ( 'NONE', #192, #159, #33 ) ;
#497 = VERTEX_POINT ( 'NONE', #253 ) ;
#498 = CIRCLE ( 'NONE', #476, 4.500000000016581403 ) ;
#499 = ORIENTED_EDGE ( 'NONE', *, *, #493, .F. ) ;
#500 = VERTEX_POINT ( 'NONE', #446 ) ;
#501 = EDGE_CURVE ( 'NONE', #497, #497, #1, .T. ) ;
#502 = CARTESIAN_POINT ( 'NONE',  ( 20.99999999999999645, 0.000000000000000000, 30.00000000000000000 ) ) ;
#503 = FILL_AREA_STYLE ('',( #351 ) ) ;
#504 = CONICAL_SURFACE ( 'NONE', #307, 3.999999999999993339, 0.7853981634542916979 ) ;
#505 = VECTOR ( 'NONE', #151, 1000.000000000000000 ) ;
#506 = ORIENTED_EDGE ( 'NONE', *, *, #334, .F. ) ;
#507 = CARTESIAN_POINT ( 'NONE',  ( 0.000000000000000000, 0.4999999999999891753, 24.99999999999999645 ) ) ;
#508 = AXIS2_PLACEMENT_3D ( 'NONE', #366, #442, #200 ) ;
#509 = CYLINDRICAL_SURFACE ( 'NONE', #143, 5.000000000000000888 ) ;
#510 = DIRECTION ( 'NONE',  ( 1.000000000000000000, 0.000000000000000000, -0.000000000000000000 ) ) ;
#511 = FACE_BOUND ( 'NONE', #484, .T. ) ;
#512 = CARTESIAN_POINT ( 'NONE',  ( -15.00000000000000000, 5.499999999999989342, 24.99999999999999645 ) ) ;
#513 = DIRECTION ( 'NONE',  ( 0.000000000000000000, -1.000000000000000000, 0.000000000000000000 ) ) ;
#514 = CARTESIAN_POINT ( 'NONE',  ( 20.99999999999999645, 40.00000000000000000, -9.500000000000003553 ) ) ;
#515 = LINE ( 'NONE', #514, #411 ) ;
#516 = ORIENTED_EDGE ( 'NONE', *, *, #175, .F. ) ;
#517 = EDGE_CURVE ( 'NONE', #111, #383, #89, .T. ) ;
#518 = DIRECTION ( 'NONE',  ( -1.000000000000000000, -8.673617379884037937E-17, 0.000000000000000000 ) ) ;
#519 =( NAMED_UNIT ( * ) SI_UNIT ( $, .STERADIAN. ) SOLID_ANGLE_UNIT ( ) );
#520 = EDGE_CURVE ( 'NONE', #268, #119, #444, .T. ) ;
#521 = CARTESIAN_POINT ( 'NONE',  ( 2.999999999999999112, 4.999999999983387511, 6.000000000000005329 ) ) ;
ENDSEC;
END-ISO-10303-21;
