ISO-10303-21;
HEADER;
/* Generated by software containing ST-Developer
 * from STEP Tools, Inc. (www.steptools.com) 
 */

FILE_DESCRIPTION(
/* description */ ('',
'CAx-IF Rec.Pracs.---Representation and Presentation of Product Manufa
cturing Information (PMI)---4.0---2014-10-13'),
/* implementation_level */ '2;1');

FILE_NAME(
/* name */ 'BD40-8x50.stp',
/* time_stamp */ '2026-05-13T11:11:38+02:00',
/* author */ ('Motedis'),
/* organization */ (''),
/* preprocessor_version */ 'ST-DEVELOPER v20.1',
/* originating_system */ 'Autodesk Inventor 2026',
/* authorisation */ '');

FILE_SCHEMA (('AP242_MANAGED_MODEL_BASED_3D_ENGINEERING_MIM_LF { 1 0 10303 442 2 1 4 }'));
ENDSEC;

DATA;
#10=MODEL_GEOMETRIC_VIEW('Isometric',$,#120,#87);
#11=MODEL_GEOMETRIC_VIEW('Front',$,#121,#88);
#12=MODEL_GEOMETRIC_VIEW('Top',$,#122,#89);
#13=MODEL_GEOMETRIC_VIEW('Right',$,#123,#90);
#14=MODEL_GEOMETRIC_VIEW('Isometric',$,#125,#93);
#15=MODEL_GEOMETRIC_VIEW('Front',$,#126,#94);
#16=MODEL_GEOMETRIC_VIEW('Top',$,#127,#95);
#17=MODEL_GEOMETRIC_VIEW('Right',$,#128,#96);
#18=MODEL_GEOMETRIC_VIEW('Isometric',$,#130,#99);
#19=MODEL_GEOMETRIC_VIEW('Front',$,#131,#100);
#20=MODEL_GEOMETRIC_VIEW('Top',$,#132,#101);
#21=MODEL_GEOMETRIC_VIEW('Right',$,#133,#102);
#22=MODEL_GEOMETRIC_VIEW('[Primary]',$,#134,#103);
#23=MECHANICAL_DESIGN_AND_DRAUGHTING_RELATIONSHIP('[Primary]','',#85,#86);
#24=MECHANICAL_DESIGN_AND_DRAUGHTING_RELATIONSHIP('Isometric','',#87,#86);
#25=MECHANICAL_DESIGN_AND_DRAUGHTING_RELATIONSHIP('Front','',#88,#86);
#26=MECHANICAL_DESIGN_AND_DRAUGHTING_RELATIONSHIP('Top','',#89,#86);
#27=MECHANICAL_DESIGN_AND_DRAUGHTING_RELATIONSHIP('Right','',#90,#86);
#28=MECHANICAL_DESIGN_AND_DRAUGHTING_RELATIONSHIP('[Primary]','',#91,#92);
#29=MECHANICAL_DESIGN_AND_DRAUGHTING_RELATIONSHIP('Isometric','',#93,#92);
#30=MECHANICAL_DESIGN_AND_DRAUGHTING_RELATIONSHIP('Front','',#94,#92);
#31=MECHANICAL_DESIGN_AND_DRAUGHTING_RELATIONSHIP('Top','',#95,#92);
#32=MECHANICAL_DESIGN_AND_DRAUGHTING_RELATIONSHIP('Right','',#96,#92);
#33=MECHANICAL_DESIGN_AND_DRAUGHTING_RELATIONSHIP('[Primary]','',#97,#98);
#34=MECHANICAL_DESIGN_AND_DRAUGHTING_RELATIONSHIP('Isometric','',#99,#98);
#35=MECHANICAL_DESIGN_AND_DRAUGHTING_RELATIONSHIP('Front','',#100,#98);
#36=MECHANICAL_DESIGN_AND_DRAUGHTING_RELATIONSHIP('Top','',#101,#98);
#37=MECHANICAL_DESIGN_AND_DRAUGHTING_RELATIONSHIP('Right','',#102,#98);
#38=MECHANICAL_DESIGN_AND_DRAUGHTING_RELATIONSHIP('[Primary]','',#103,#104);
#39=MECHANICAL_DESIGN_AND_DRAUGHTING_RELATIONSHIP('Default','',#105,#104);
#40=DEFAULT_MODEL_GEOMETRIC_VIEW('[Primary]',$,#119,#85,$,$,#1307,*);
#41=DEFAULT_MODEL_GEOMETRIC_VIEW('[Primary]',$,#124,#91,$,$,#1308,*);
#42=DEFAULT_MODEL_GEOMETRIC_VIEW('[Primary]',$,#129,#97,$,$,#1309,*);
#43=DEFAULT_MODEL_GEOMETRIC_VIEW('Default',$,#135,#105,$,$,#1306,*);
#44=MAPPED_ITEM('',#63,#809);
#45=MAPPED_ITEM('',#64,#810);
#46=MAPPED_ITEM('',#65,#811);
#47=MAPPED_ITEM('',#66,#812);
#48=MAPPED_ITEM('',#67,#813);
#49=MAPPED_ITEM('',#68,#814);
#50=MAPPED_ITEM('',#69,#815);
#51=MAPPED_ITEM('',#70,#816);
#52=MAPPED_ITEM('',#71,#817);
#53=MAPPED_ITEM('',#72,#818);
#54=MAPPED_ITEM('',#73,#819);
#55=MAPPED_ITEM('',#74,#820);
#56=MAPPED_ITEM('',#75,#821);
#57=MAPPED_ITEM('',#76,#822);
#58=MAPPED_ITEM('',#77,#823);
#59=MAPPED_ITEM('',#78,#824);
#60=MAPPED_ITEM('',#79,#825);
#61=MAPPED_ITEM('',#80,#826);
#62=MAPPED_ITEM('',#81,#827);
#63=REPRESENTATION_MAP(#809,#82);
#64=REPRESENTATION_MAP(#810,#1314);
#65=REPRESENTATION_MAP(#811,#82);
#66=REPRESENTATION_MAP(#812,#82);
#67=REPRESENTATION_MAP(#813,#82);
#68=REPRESENTATION_MAP(#814,#82);
#69=REPRESENTATION_MAP(#815,#83);
#70=REPRESENTATION_MAP(#816,#1315);
#71=REPRESENTATION_MAP(#817,#83);
#72=REPRESENTATION_MAP(#818,#83);
#73=REPRESENTATION_MAP(#819,#83);
#74=REPRESENTATION_MAP(#820,#83);
#75=REPRESENTATION_MAP(#821,#84);
#76=REPRESENTATION_MAP(#822,#1316);
#77=REPRESENTATION_MAP(#823,#84);
#78=REPRESENTATION_MAP(#824,#84);
#79=REPRESENTATION_MAP(#825,#84);
#80=REPRESENTATION_MAP(#826,#84);
#81=REPRESENTATION_MAP(#827,#1313);
#82=ADVANCED_BREP_SHAPE_REPRESENTATION('[Primary]',(#181),#1294);
#83=ADVANCED_BREP_SHAPE_REPRESENTATION('[Primary]',(#182),#1295);
#84=ADVANCED_BREP_SHAPE_REPRESENTATION('[Primary]',(#183),#1296);
#85=DRAUGHTING_MODEL('[Primary]',(#44,#119),#1294);
#86=DRAUGHTING_MODEL('',(#45,#810),#1294);
#87=DRAUGHTING_MODEL('Isometric',(#46,#120),#1294);
#88=DRAUGHTING_MODEL('Front',(#47,#121),#1294);
#89=DRAUGHTING_MODEL('Top',(#48,#122),#1294);
#90=DRAUGHTING_MODEL('Right',(#49,#123),#1294);
#91=DRAUGHTING_MODEL('[Primary]',(#50,#124),#1295);
#92=DRAUGHTING_MODEL('',(#51,#816),#1295);
#93=DRAUGHTING_MODEL('Isometric',(#52,#125),#1295);
#94=DRAUGHTING_MODEL('Front',(#53,#126),#1295);
#95=DRAUGHTING_MODEL('Top',(#54,#127),#1295);
#96=DRAUGHTING_MODEL('Right',(#55,#128),#1295);
#97=DRAUGHTING_MODEL('[Primary]',(#56,#129),#1296);
#98=DRAUGHTING_MODEL('',(#57,#822),#1296);
#99=DRAUGHTING_MODEL('Isometric',(#58,#130),#1296);
#100=DRAUGHTING_MODEL('Front',(#59,#131),#1296);
#101=DRAUGHTING_MODEL('Top',(#60,#132),#1296);
#102=DRAUGHTING_MODEL('Right',(#61,#133),#1296);
#103=DRAUGHTING_MODEL('[Primary]',(#45,#810,#51,#816,#57,#822,#134),#1293);
#104=DRAUGHTING_MODEL('',(#62,#827),#1293);
#105=DRAUGHTING_MODEL('Default',(#45,#810,#51,#816,#57,#822,#135),#1293);
#106=MECHANICAL_DESIGN_GEOMETRIC_PRESENTATION_REPRESENTATION('',(#170,#171,
#172,#173,#174,#175,#176),#1297);
#107=ITEM_DEFINED_TRANSFORMATION($,$,#724,#802);
#108=ITEM_DEFINED_TRANSFORMATION($,$,#761,#803);
#109=ITEM_DEFINED_TRANSFORMATION($,$,#780,#804);
#110=(
REPRESENTATION_RELATIONSHIP($,$,#1314,#1313)
REPRESENTATION_RELATIONSHIP_WITH_TRANSFORMATION(#107)
SHAPE_REPRESENTATION_RELATIONSHIP()
);
#111=(
REPRESENTATION_RELATIONSHIP($,$,#1315,#1313)
REPRESENTATION_RELATIONSHIP_WITH_TRANSFORMATION(#108)
SHAPE_REPRESENTATION_RELATIONSHIP()
);
#112=(
REPRESENTATION_RELATIONSHIP($,$,#1316,#1313)
REPRESENTATION_RELATIONSHIP_WITH_TRANSFORMATION(#109)
SHAPE_REPRESENTATION_RELATIONSHIP()
);
#113=CONTEXT_DEPENDENT_SHAPE_REPRESENTATION(#110,#1310);
#114=CONTEXT_DEPENDENT_SHAPE_REPRESENTATION(#111,#1311);
#115=CONTEXT_DEPENDENT_SHAPE_REPRESENTATION(#112,#1312);
#116=NEXT_ASSEMBLY_USAGE_OCCURRENCE('Thread','Thread','Thread',#1318,#1319,
'Thread');
#117=NEXT_ASSEMBLY_USAGE_OCCURRENCE('Base50:1','Base50:1','Base50:1',#1318,
#1320,'Base50:1');
#118=NEXT_ASSEMBLY_USAGE_OCCURRENCE('NutM8:1','NutM8:1','NutM8:1',#1318,
#1321,'NutM8:1');
#119=CAMERA_MODEL_D3('[Primary]',#751,#136);
#120=CAMERA_MODEL_D3('Isometric',#753,#137);
#121=CAMERA_MODEL_D3('Front',#755,#138);
#122=CAMERA_MODEL_D3('Top',#757,#139);
#123=CAMERA_MODEL_D3('Right',#759,#140);
#124=CAMERA_MODEL_D3('[Primary]',#770,#141);
#125=CAMERA_MODEL_D3('Isometric',#772,#142);
#126=CAMERA_MODEL_D3('Front',#774,#143);
#127=CAMERA_MODEL_D3('Top',#776,#144);
#128=CAMERA_MODEL_D3('Right',#778,#145);
#129=CAMERA_MODEL_D3('[Primary]',#792,#146);
#130=CAMERA_MODEL_D3('Isometric',#794,#147);
#131=CAMERA_MODEL_D3('Front',#796,#148);
#132=CAMERA_MODEL_D3('Top',#798,#149);
#133=CAMERA_MODEL_D3('Right',#800,#150);
#134=CAMERA_MODEL_D3('[Primary]',#805,#151);
#135=CAMERA_MODEL_D3('Default',#807,#152);
#136=VIEW_VOLUME(.PARALLEL.,#1156,308.075997564592,0.,.F.,0.,.F.,.F.,#153);
#137=VIEW_VOLUME(.PARALLEL.,#1159,16.9875424688562,0.,.F.,0.,.F.,.F.,#154);
#138=VIEW_VOLUME(.PARALLEL.,#1162,117.693146607172,0.,.F.,0.,.F.,.F.,#155);
#139=VIEW_VOLUME(.PARALLEL.,#1165,117.693146607172,0.,.F.,0.,.F.,.F.,#156);
#140=VIEW_VOLUME(.PARALLEL.,#1168,117.693146607172,0.,.F.,0.,.F.,.F.,#157);
#141=VIEW_VOLUME(.PARALLEL.,#1187,308.075997564592,0.,.F.,0.,.F.,.F.,#158);
#142=VIEW_VOLUME(.PARALLEL.,#1190,16.9875424688562,0.,.F.,0.,.F.,.F.,#159);
#143=VIEW_VOLUME(.PARALLEL.,#1193,117.693146607172,0.,.F.,0.,.F.,.F.,#160);
#144=VIEW_VOLUME(.PARALLEL.,#1196,117.693146607172,0.,.F.,0.,.F.,.F.,#161);
#145=VIEW_VOLUME(.PARALLEL.,#1199,117.693146607172,0.,.F.,0.,.F.,.F.,#162);
#146=VIEW_VOLUME(.PARALLEL.,#1247,308.075997564592,0.,.F.,0.,.F.,.F.,#163);
#147=VIEW_VOLUME(.PARALLEL.,#1250,16.9875424688562,0.,.F.,0.,.F.,.F.,#164);
#148=VIEW_VOLUME(.PARALLEL.,#1253,117.693146607172,0.,.F.,0.,.F.,.F.,#165);
#149=VIEW_VOLUME(.PARALLEL.,#1256,117.693146607172,0.,.F.,0.,.F.,.F.,#166);
#150=VIEW_VOLUME(.PARALLEL.,#1259,117.693146607172,0.,.F.,0.,.F.,.F.,#167);
#151=VIEW_VOLUME(.PARALLEL.,#1265,308.075997564592,0.,.F.,0.,.F.,.F.,#168);
#152=VIEW_VOLUME(.PARALLEL.,#1268,308.073698330952,0.,.F.,0.,.F.,.F.,#169);
#153=PLANAR_BOX('view window',251.351225235334,155.837759645907,#752);
#154=PLANAR_BOX('view window',27.8110236220472,20.,#754);
#155=PLANAR_BOX('view window',27.8110236220472,20.,#756);
#156=PLANAR_BOX('view window',27.8110236220472,20.,#758);
#157=PLANAR_BOX('view window',27.8110236220472,20.,#760);
#158=PLANAR_BOX('view window',251.351225235334,155.837759645907,#771);
#159=PLANAR_BOX('view window',27.8110236220472,20.,#773);
#160=PLANAR_BOX('view window',27.8110236220472,20.,#775);
#161=PLANAR_BOX('view window',27.8110236220472,20.,#777);
#162=PLANAR_BOX('view window',27.8110236220472,20.,#779);
#163=PLANAR_BOX('view window',251.351225235334,155.837759645907,#793);
#164=PLANAR_BOX('view window',27.8110236220472,20.,#795);
#165=PLANAR_BOX('view window',27.8110236220472,20.,#797);
#166=PLANAR_BOX('view window',27.8110236220472,20.,#799);
#167=PLANAR_BOX('view window',27.8110236220472,20.,#801);
#168=PLANAR_BOX('view window',251.351225235334,155.837759645907,#806);
#169=PLANAR_BOX('view window',251.351225235334,155.837759645907,#808);
#170=STYLED_ITEM('',(#677),#181);
#171=STYLED_ITEM('',(#678),#624);
#172=STYLED_ITEM('',(#678),#625);
#173=STYLED_ITEM('',(#678),#626);
#174=STYLED_ITEM('',(#678),#627);
#175=STYLED_ITEM('',(#678),#182);
#176=STYLED_ITEM('',(#677),#183);
#177=STYLED_ITEM('',(#679),#45);
#178=STYLED_ITEM('',(#680),#51);
#179=STYLED_ITEM('',(#681),#57);
#180=STYLED_ITEM('',(#682),#62);
#181=MANIFOLD_SOLID_BREP('Solid1',#637);
#182=MANIFOLD_SOLID_BREP('Solid1',#638);
#183=MANIFOLD_SOLID_BREP('Solid1',#639);
#184=SPHERICAL_SURFACE('',#749,7.05);
#185=SPHERICAL_SURFACE('',#768,7.05);
#186=CONICAL_SURFACE('',#741,3.49999999999998,0.785398163397453);
#187=CONICAL_SURFACE('',#766,12.5425824035673,0.894008515941649);
#188=FACE_BOUND('',#247,.T.);
#189=FACE_BOUND('',#249,.T.);
#190=FACE_BOUND('',#251,.T.);
#191=FACE_BOUND('',#264,.T.);
#192=FACE_BOUND('',#265,.T.);
#193=FACE_BOUND('',#270,.T.);
#194=FACE_BOUND('',#273,.T.);
#195=FACE_BOUND('',#281,.T.);
#196=PLANE('',#728);
#197=PLANE('',#730);
#198=PLANE('',#731);
#199=PLANE('',#733);
#200=PLANE('',#734);
#201=PLANE('',#735);
#202=PLANE('',#736);
#203=PLANE('',#737);
#204=PLANE('',#738);
#205=PLANE('',#746);
#206=PLANE('',#747);
#207=PLANE('',#762);
#208=PLANE('',#784);
#209=PLANE('',#785);
#210=PLANE('',#786);
#211=PLANE('',#787);
#212=PLANE('',#788);
#213=PLANE('',#789);
#214=PLANE('',#790);
#215=PLANE('',#791);
#216=FACE_OUTER_BOUND('',#245,.T.);
#217=FACE_OUTER_BOUND('',#246,.T.);
#218=FACE_OUTER_BOUND('',#248,.T.);
#219=FACE_OUTER_BOUND('',#250,.T.);
#220=FACE_OUTER_BOUND('',#252,.T.);
#221=FACE_OUTER_BOUND('',#253,.T.);
#222=FACE_OUTER_BOUND('',#254,.T.);
#223=FACE_OUTER_BOUND('',#255,.T.);
#224=FACE_OUTER_BOUND('',#256,.T.);
#225=FACE_OUTER_BOUND('',#257,.T.);
#226=FACE_OUTER_BOUND('',#258,.T.);
#227=FACE_OUTER_BOUND('',#259,.T.);
#228=FACE_OUTER_BOUND('',#260,.T.);
#229=FACE_OUTER_BOUND('',#261,.T.);
#230=FACE_OUTER_BOUND('',#262,.T.);
#231=FACE_OUTER_BOUND('',#263,.T.);
#232=FACE_OUTER_BOUND('',#266,.T.);
#233=FACE_OUTER_BOUND('',#267,.T.);
#234=FACE_OUTER_BOUND('',#268,.T.);
#235=FACE_OUTER_BOUND('',#269,.T.);
#236=FACE_OUTER_BOUND('',#271,.T.);
#237=FACE_OUTER_BOUND('',#272,.T.);
#238=FACE_OUTER_BOUND('',#274,.T.);
#239=FACE_OUTER_BOUND('',#275,.T.);
#240=FACE_OUTER_BOUND('',#276,.T.);
#241=FACE_OUTER_BOUND('',#277,.T.);
#242=FACE_OUTER_BOUND('',#278,.T.);
#243=FACE_OUTER_BOUND('',#279,.T.);
#244=FACE_OUTER_BOUND('',#280,.T.);
#245=EDGE_LOOP('',(#485,#486,#487,#488));
#246=EDGE_LOOP('',(#489));
#247=EDGE_LOOP('',(#490));
#248=EDGE_LOOP('',(#491,#492,#493,#494,#495,#496));
#249=EDGE_LOOP('',(#497));
#250=EDGE_LOOP('',(#498,#499,#500,#501,#502,#503));
#251=EDGE_LOOP('',(#504));
#252=EDGE_LOOP('',(#505,#506,#507,#508));
#253=EDGE_LOOP('',(#509,#510,#511,#512));
#254=EDGE_LOOP('',(#513,#514,#515,#516));
#255=EDGE_LOOP('',(#517,#518,#519,#520));
#256=EDGE_LOOP('',(#521,#522,#523,#524));
#257=EDGE_LOOP('',(#525,#526,#527,#528));
#258=EDGE_LOOP('',(#529,#530,#531,#532));
#259=EDGE_LOOP('',(#533,#534,#535,#536,#537));
#260=EDGE_LOOP('',(#538,#539,#540,#541,#542));
#261=EDGE_LOOP('',(#543));
#262=EDGE_LOOP('',(#544));
#263=EDGE_LOOP('',(#545,#546));
#264=EDGE_LOOP('',(#547));
#265=EDGE_LOOP('',(#548));
#266=EDGE_LOOP('',(#549));
#267=EDGE_LOOP('',(#550,#551,#552,#553));
#268=EDGE_LOOP('',(#554,#555,#556,#557));
#269=EDGE_LOOP('',(#558,#559));
#270=EDGE_LOOP('',(#560));
#271=EDGE_LOOP('',(#561,#562,#563,#564));
#272=EDGE_LOOP('',(#565,#566,#567,#568,#569,#570));
#273=EDGE_LOOP('',(#571));
#274=EDGE_LOOP('',(#572,#573,#574,#575));
#275=EDGE_LOOP('',(#576,#577,#578,#579));
#276=EDGE_LOOP('',(#580,#581,#582,#583));
#277=EDGE_LOOP('',(#584,#585,#586,#587));
#278=EDGE_LOOP('',(#588,#589,#590,#591));
#279=EDGE_LOOP('',(#592,#593,#594,#595));
#280=EDGE_LOOP('',(#596,#597,#598,#599,#600,#601));
#281=EDGE_LOOP('',(#602));
#282=LINE('',#1087,#325);
#283=LINE('',#1095,#326);
#284=LINE('',#1097,#327);
#285=LINE('',#1099,#328);
#286=LINE('',#1101,#329);
#287=LINE('',#1103,#330);
#288=LINE('',#1104,#331);
#289=LINE('',#1108,#332);
#290=LINE('',#1110,#333);
#291=LINE('',#1112,#334);
#292=LINE('',#1114,#335);
#293=LINE('',#1116,#336);
#294=LINE('',#1117,#337);
#295=LINE('',#1121,#338);
#296=LINE('',#1122,#339);
#297=LINE('',#1124,#340);
#298=LINE('',#1126,#341);
#299=LINE('',#1128,#342);
#300=LINE('',#1130,#343);
#301=LINE('',#1134,#344);
#302=LINE('',#1140,#345);
#303=LINE('',#1145,#346);
#304=LINE('',#1176,#347);
#305=LINE('',#1180,#348);
#306=LINE('',#1205,#349);
#307=LINE('',#1210,#350);
#308=LINE('',#1212,#351);
#309=LINE('',#1214,#352);
#310=LINE('',#1216,#353);
#311=LINE('',#1218,#354);
#312=LINE('',#1219,#355);
#313=LINE('',#1222,#356);
#314=LINE('',#1224,#357);
#315=LINE('',#1225,#358);
#316=LINE('',#1228,#359);
#317=LINE('',#1229,#360);
#318=LINE('',#1232,#361);
#319=LINE('',#1233,#362);
#320=LINE('',#1236,#363);
#321=LINE('',#1237,#364);
#322=LINE('',#1240,#365);
#323=LINE('',#1241,#366);
#324=LINE('',#1243,#367);
#325=VECTOR('',#836,3.6);
#326=VECTOR('',#845,10.);
#327=VECTOR('',#846,10.);
#328=VECTOR('',#847,10.);
#329=VECTOR('',#848,10.);
#330=VECTOR('',#849,10.);
#331=VECTOR('',#850,10.);
#332=VECTOR('',#853,10.);
#333=VECTOR('',#854,10.);
#334=VECTOR('',#855,10.);
#335=VECTOR('',#856,10.);
#336=VECTOR('',#857,10.);
#337=VECTOR('',#858,10.);
#338=VECTOR('',#863,10.);
#339=VECTOR('',#864,10.);
#340=VECTOR('',#867,10.);
#341=VECTOR('',#870,10.);
#342=VECTOR('',#873,10.);
#343=VECTOR('',#876,10.);
#344=VECTOR('',#881,4.54999999999998);
#345=VECTOR('',#888,3.49999999999998);
#346=VECTOR('',#895,3.99999999999999);
#347=VECTOR('',#936,19.7);
#348=VECTOR('',#941,12.5425824035673);
#349=VECTOR('',#972,3.3235);
#350=VECTOR('',#977,10.);
#351=VECTOR('',#978,10.);
#352=VECTOR('',#979,10.);
#353=VECTOR('',#980,10.);
#354=VECTOR('',#981,10.);
#355=VECTOR('',#982,10.);
#356=VECTOR('',#985,10.);
#357=VECTOR('',#986,10.);
#358=VECTOR('',#987,10.);
#359=VECTOR('',#990,10.);
#360=VECTOR('',#991,10.);
#361=VECTOR('',#994,10.);
#362=VECTOR('',#995,10.);
#363=VECTOR('',#998,10.);
#364=VECTOR('',#999,10.);
#365=VECTOR('',#1002,10.);
#366=VECTOR('',#1003,10.);
#367=VECTOR('',#1006,10.);
#368=CIRCLE('',#726,3.6);
#369=CIRCLE('',#727,3.6);
#370=CIRCLE('',#729,3.99999999999999);
#371=CIRCLE('',#732,4.54999999999998);
#372=CIRCLE('',#740,4.54999999999998);
#373=CIRCLE('',#742,2.99999999999998);
#374=CIRCLE('',#743,3.99999999999999);
#375=CIRCLE('',#744,3.99999999999999);
#376=CIRCLE('',#748,3.13454246851875);
#377=CIRCLE('',#750,7.05);
#378=CIRCLE('',#763,19.7);
#379=CIRCLE('',#765,19.7);
#380=CIRCLE('',#767,5.3851648071345);
#381=CIRCLE('',#769,7.05);
#382=CIRCLE('',#782,3.3235);
#383=CIRCLE('',#783,3.3235);
#384=VERTEX_POINT('',#1084);
#385=VERTEX_POINT('',#1086);
#386=VERTEX_POINT('',#1090);
#387=VERTEX_POINT('',#1093);
#388=VERTEX_POINT('',#1094);
#389=VERTEX_POINT('',#1096);
#390=VERTEX_POINT('',#1098);
#391=VERTEX_POINT('',#1100);
#392=VERTEX_POINT('',#1102);
#393=VERTEX_POINT('',#1106);
#394=VERTEX_POINT('',#1107);
#395=VERTEX_POINT('',#1109);
#396=VERTEX_POINT('',#1111);
#397=VERTEX_POINT('',#1113);
#398=VERTEX_POINT('',#1115);
#399=VERTEX_POINT('',#1118);
#400=VERTEX_POINT('',#1133);
#401=VERTEX_POINT('',#1137);
#402=VERTEX_POINT('',#1139);
#403=VERTEX_POINT('',#1141);
#404=VERTEX_POINT('',#1148);
#405=VERTEX_POINT('',#1151);
#406=VERTEX_POINT('',#1152);
#407=VERTEX_POINT('',#1171);
#408=VERTEX_POINT('',#1174);
#409=VERTEX_POINT('',#1178);
#410=VERTEX_POINT('',#1182);
#411=VERTEX_POINT('',#1183);
#412=VERTEX_POINT('',#1202);
#413=VERTEX_POINT('',#1204);
#414=VERTEX_POINT('',#1208);
#415=VERTEX_POINT('',#1209);
#416=VERTEX_POINT('',#1211);
#417=VERTEX_POINT('',#1213);
#418=VERTEX_POINT('',#1215);
#419=VERTEX_POINT('',#1217);
#420=VERTEX_POINT('',#1221);
#421=VERTEX_POINT('',#1223);
#422=VERTEX_POINT('',#1227);
#423=VERTEX_POINT('',#1231);
#424=VERTEX_POINT('',#1235);
#425=VERTEX_POINT('',#1239);
#426=EDGE_CURVE('',#384,#384,#368,.T.);
#427=EDGE_CURVE('',#384,#385,#282,.T.);
#428=EDGE_CURVE('',#385,#385,#369,.T.);
#429=EDGE_CURVE('',#386,#386,#370,.T.);
#430=EDGE_CURVE('',#387,#388,#283,.T.);
#431=EDGE_CURVE('',#388,#389,#284,.T.);
#432=EDGE_CURVE('',#389,#390,#285,.T.);
#433=EDGE_CURVE('',#390,#391,#286,.T.);
#434=EDGE_CURVE('',#391,#392,#287,.T.);
#435=EDGE_CURVE('',#392,#387,#288,.T.);
#436=EDGE_CURVE('',#393,#394,#289,.T.);
#437=EDGE_CURVE('',#394,#395,#290,.T.);
#438=EDGE_CURVE('',#395,#396,#291,.T.);
#439=EDGE_CURVE('',#396,#397,#292,.T.);
#440=EDGE_CURVE('',#397,#398,#293,.T.);
#441=EDGE_CURVE('',#398,#393,#294,.T.);
#442=EDGE_CURVE('',#399,#399,#371,.T.);
#443=EDGE_CURVE('',#388,#393,#295,.T.);
#444=EDGE_CURVE('',#389,#398,#296,.T.);
#445=EDGE_CURVE('',#390,#397,#297,.T.);
#446=EDGE_CURVE('',#391,#396,#298,.T.);
#447=EDGE_CURVE('',#392,#395,#299,.T.);
#448=EDGE_CURVE('',#387,#394,#300,.T.);
#449=EDGE_CURVE('',#399,#400,#301,.T.);
#450=EDGE_CURVE('',#400,#400,#372,.T.);
#451=EDGE_CURVE('',#401,#401,#373,.T.);
#452=EDGE_CURVE('',#401,#402,#302,.T.);
#453=EDGE_CURVE('',#402,#403,#374,.T.);
#454=EDGE_CURVE('',#403,#402,#375,.T.);
#455=EDGE_CURVE('',#403,#386,#303,.T.);
#456=EDGE_CURVE('',#404,#404,#376,.T.);
#457=EDGE_CURVE('',#405,#406,#377,.T.);
#458=EDGE_CURVE('',#407,#407,#378,.T.);
#459=EDGE_CURVE('',#408,#408,#379,.T.);
#460=EDGE_CURVE('',#408,#407,#304,.T.);
#461=EDGE_CURVE('',#409,#409,#380,.T.);
#462=EDGE_CURVE('',#409,#408,#305,.T.);
#463=EDGE_CURVE('',#410,#411,#381,.T.);
#464=EDGE_CURVE('',#412,#412,#382,.T.);
#465=EDGE_CURVE('',#412,#413,#306,.T.);
#466=EDGE_CURVE('',#413,#413,#383,.T.);
#467=EDGE_CURVE('',#414,#415,#307,.T.);
#468=EDGE_CURVE('',#415,#416,#308,.T.);
#469=EDGE_CURVE('',#416,#417,#309,.T.);
#470=EDGE_CURVE('',#417,#418,#310,.T.);
#471=EDGE_CURVE('',#418,#419,#311,.T.);
#472=EDGE_CURVE('',#419,#414,#312,.T.);
#473=EDGE_CURVE('',#420,#415,#313,.T.);
#474=EDGE_CURVE('',#421,#420,#314,.T.);
#475=EDGE_CURVE('',#416,#421,#315,.T.);
#476=EDGE_CURVE('',#422,#421,#316,.T.);
#477=EDGE_CURVE('',#417,#422,#317,.T.);
#478=EDGE_CURVE('',#423,#422,#318,.T.);
#479=EDGE_CURVE('',#418,#423,#319,.T.);
#480=EDGE_CURVE('',#424,#423,#320,.T.);
#481=EDGE_CURVE('',#419,#424,#321,.T.);
#482=EDGE_CURVE('',#425,#424,#322,.T.);
#483=EDGE_CURVE('',#414,#425,#323,.T.);
#484=EDGE_CURVE('',#420,#425,#324,.T.);
#485=ORIENTED_EDGE('',*,*,#426,.F.);
#486=ORIENTED_EDGE('',*,*,#427,.T.);
#487=ORIENTED_EDGE('',*,*,#428,.F.);
#488=ORIENTED_EDGE('',*,*,#427,.F.);
#489=ORIENTED_EDGE('',*,*,#429,.F.);
#490=ORIENTED_EDGE('',*,*,#428,.T.);
#491=ORIENTED_EDGE('',*,*,#430,.T.);
#492=ORIENTED_EDGE('',*,*,#431,.T.);
#493=ORIENTED_EDGE('',*,*,#432,.T.);
#494=ORIENTED_EDGE('',*,*,#433,.T.);
#495=ORIENTED_EDGE('',*,*,#434,.T.);
#496=ORIENTED_EDGE('',*,*,#435,.T.);
#497=ORIENTED_EDGE('',*,*,#426,.T.);
#498=ORIENTED_EDGE('',*,*,#436,.T.);
#499=ORIENTED_EDGE('',*,*,#437,.T.);
#500=ORIENTED_EDGE('',*,*,#438,.T.);
#501=ORIENTED_EDGE('',*,*,#439,.T.);
#502=ORIENTED_EDGE('',*,*,#440,.T.);
#503=ORIENTED_EDGE('',*,*,#441,.T.);
#504=ORIENTED_EDGE('',*,*,#442,.F.);
#505=ORIENTED_EDGE('',*,*,#431,.F.);
#506=ORIENTED_EDGE('',*,*,#443,.T.);
#507=ORIENTED_EDGE('',*,*,#441,.F.);
#508=ORIENTED_EDGE('',*,*,#444,.F.);
#509=ORIENTED_EDGE('',*,*,#432,.F.);
#510=ORIENTED_EDGE('',*,*,#444,.T.);
#511=ORIENTED_EDGE('',*,*,#440,.F.);
#512=ORIENTED_EDGE('',*,*,#445,.F.);
#513=ORIENTED_EDGE('',*,*,#433,.F.);
#514=ORIENTED_EDGE('',*,*,#445,.T.);
#515=ORIENTED_EDGE('',*,*,#439,.F.);
#516=ORIENTED_EDGE('',*,*,#446,.F.);
#517=ORIENTED_EDGE('',*,*,#434,.F.);
#518=ORIENTED_EDGE('',*,*,#446,.T.);
#519=ORIENTED_EDGE('',*,*,#438,.F.);
#520=ORIENTED_EDGE('',*,*,#447,.F.);
#521=ORIENTED_EDGE('',*,*,#435,.F.);
#522=ORIENTED_EDGE('',*,*,#447,.T.);
#523=ORIENTED_EDGE('',*,*,#437,.F.);
#524=ORIENTED_EDGE('',*,*,#448,.F.);
#525=ORIENTED_EDGE('',*,*,#430,.F.);
#526=ORIENTED_EDGE('',*,*,#448,.T.);
#527=ORIENTED_EDGE('',*,*,#436,.F.);
#528=ORIENTED_EDGE('',*,*,#443,.F.);
#529=ORIENTED_EDGE('',*,*,#442,.T.);
#530=ORIENTED_EDGE('',*,*,#449,.T.);
#531=ORIENTED_EDGE('',*,*,#450,.T.);
#532=ORIENTED_EDGE('',*,*,#449,.F.);
#533=ORIENTED_EDGE('',*,*,#451,.T.);
#534=ORIENTED_EDGE('',*,*,#452,.T.);
#535=ORIENTED_EDGE('',*,*,#453,.T.);
#536=ORIENTED_EDGE('',*,*,#454,.T.);
#537=ORIENTED_EDGE('',*,*,#452,.F.);
#538=ORIENTED_EDGE('',*,*,#453,.F.);
#539=ORIENTED_EDGE('',*,*,#454,.F.);
#540=ORIENTED_EDGE('',*,*,#455,.T.);
#541=ORIENTED_EDGE('',*,*,#429,.T.);
#542=ORIENTED_EDGE('',*,*,#455,.F.);
#543=ORIENTED_EDGE('',*,*,#451,.F.);
#544=ORIENTED_EDGE('',*,*,#456,.F.);
#545=ORIENTED_EDGE('',*,*,#457,.T.);
#546=ORIENTED_EDGE('',*,*,#457,.F.);
#547=ORIENTED_EDGE('',*,*,#450,.F.);
#548=ORIENTED_EDGE('',*,*,#456,.T.);
#549=ORIENTED_EDGE('',*,*,#458,.F.);
#550=ORIENTED_EDGE('',*,*,#459,.F.);
#551=ORIENTED_EDGE('',*,*,#460,.T.);
#552=ORIENTED_EDGE('',*,*,#458,.T.);
#553=ORIENTED_EDGE('',*,*,#460,.F.);
#554=ORIENTED_EDGE('',*,*,#461,.F.);
#555=ORIENTED_EDGE('',*,*,#462,.T.);
#556=ORIENTED_EDGE('',*,*,#459,.T.);
#557=ORIENTED_EDGE('',*,*,#462,.F.);
#558=ORIENTED_EDGE('',*,*,#463,.T.);
#559=ORIENTED_EDGE('',*,*,#463,.F.);
#560=ORIENTED_EDGE('',*,*,#461,.T.);
#561=ORIENTED_EDGE('',*,*,#464,.F.);
#562=ORIENTED_EDGE('',*,*,#465,.T.);
#563=ORIENTED_EDGE('',*,*,#466,.F.);
#564=ORIENTED_EDGE('',*,*,#465,.F.);
#565=ORIENTED_EDGE('',*,*,#467,.T.);
#566=ORIENTED_EDGE('',*,*,#468,.T.);
#567=ORIENTED_EDGE('',*,*,#469,.T.);
#568=ORIENTED_EDGE('',*,*,#470,.T.);
#569=ORIENTED_EDGE('',*,*,#471,.T.);
#570=ORIENTED_EDGE('',*,*,#472,.T.);
#571=ORIENTED_EDGE('',*,*,#466,.T.);
#572=ORIENTED_EDGE('',*,*,#473,.F.);
#573=ORIENTED_EDGE('',*,*,#474,.F.);
#574=ORIENTED_EDGE('',*,*,#475,.F.);
#575=ORIENTED_EDGE('',*,*,#468,.F.);
#576=ORIENTED_EDGE('',*,*,#475,.T.);
#577=ORIENTED_EDGE('',*,*,#476,.F.);
#578=ORIENTED_EDGE('',*,*,#477,.F.);
#579=ORIENTED_EDGE('',*,*,#469,.F.);
#580=ORIENTED_EDGE('',*,*,#477,.T.);
#581=ORIENTED_EDGE('',*,*,#478,.F.);
#582=ORIENTED_EDGE('',*,*,#479,.F.);
#583=ORIENTED_EDGE('',*,*,#470,.F.);
#584=ORIENTED_EDGE('',*,*,#479,.T.);
#585=ORIENTED_EDGE('',*,*,#480,.F.);
#586=ORIENTED_EDGE('',*,*,#481,.F.);
#587=ORIENTED_EDGE('',*,*,#471,.F.);
#588=ORIENTED_EDGE('',*,*,#481,.T.);
#589=ORIENTED_EDGE('',*,*,#482,.F.);
#590=ORIENTED_EDGE('',*,*,#483,.F.);
#591=ORIENTED_EDGE('',*,*,#472,.F.);
#592=ORIENTED_EDGE('',*,*,#483,.T.);
#593=ORIENTED_EDGE('',*,*,#484,.F.);
#594=ORIENTED_EDGE('',*,*,#473,.T.);
#595=ORIENTED_EDGE('',*,*,#467,.F.);
#596=ORIENTED_EDGE('',*,*,#484,.T.);
#597=ORIENTED_EDGE('',*,*,#482,.T.);
#598=ORIENTED_EDGE('',*,*,#480,.T.);
#599=ORIENTED_EDGE('',*,*,#478,.T.);
#600=ORIENTED_EDGE('',*,*,#476,.T.);
#601=ORIENTED_EDGE('',*,*,#474,.T.);
#602=ORIENTED_EDGE('',*,*,#464,.T.);
#603=CYLINDRICAL_SURFACE('',#725,3.6);
#604=CYLINDRICAL_SURFACE('',#739,4.54999999999998);
#605=CYLINDRICAL_SURFACE('',#745,3.99999999999999);
#606=CYLINDRICAL_SURFACE('',#764,19.7);
#607=CYLINDRICAL_SURFACE('',#781,3.3235);
#608=ADVANCED_FACE('',(#216),#603,.T.);
#609=ADVANCED_FACE('',(#217,#188),#196,.F.);
#610=ADVANCED_FACE('',(#218,#189),#197,.T.);
#611=ADVANCED_FACE('',(#219,#190),#198,.T.);
#612=ADVANCED_FACE('',(#220),#199,.T.);
#613=ADVANCED_FACE('',(#221),#200,.T.);
#614=ADVANCED_FACE('',(#222),#201,.T.);
#615=ADVANCED_FACE('',(#223),#202,.T.);
#616=ADVANCED_FACE('',(#224),#203,.T.);
#617=ADVANCED_FACE('',(#225),#204,.T.);
#618=ADVANCED_FACE('',(#226),#604,.T.);
#619=ADVANCED_FACE('',(#227),#186,.T.);
#620=ADVANCED_FACE('',(#228),#605,.T.);
#621=ADVANCED_FACE('',(#229),#205,.T.);
#622=ADVANCED_FACE('',(#230),#206,.T.);
#623=ADVANCED_FACE('',(#231,#191,#192),#184,.T.);
#624=ADVANCED_FACE('',(#232),#207,.T.);
#625=ADVANCED_FACE('',(#233),#606,.T.);
#626=ADVANCED_FACE('',(#234),#187,.T.);
#627=ADVANCED_FACE('',(#235,#193),#185,.F.);
#628=ADVANCED_FACE('',(#236),#607,.F.);
#629=ADVANCED_FACE('',(#237,#194),#208,.T.);
#630=ADVANCED_FACE('',(#238),#209,.T.);
#631=ADVANCED_FACE('',(#239),#210,.T.);
#632=ADVANCED_FACE('',(#240),#211,.T.);
#633=ADVANCED_FACE('',(#241),#212,.T.);
#634=ADVANCED_FACE('',(#242),#213,.T.);
#635=ADVANCED_FACE('',(#243),#214,.T.);
#636=ADVANCED_FACE('',(#244,#195),#215,.T.);
#637=CLOSED_SHELL('',(#608,#609,#610,#611,#612,#613,#614,#615,#616,#617,
#618,#619,#620,#621,#622,#623));
#638=CLOSED_SHELL('',(#624,#625,#626,#627));
#639=CLOSED_SHELL('',(#628,#629,#630,#631,#632,#633,#634,#635,#636));
#640=DERIVED_UNIT_ELEMENT(#647,1.);
#641=DERIVED_UNIT_ELEMENT(#1299,-3.);
#642=DERIVED_UNIT_ELEMENT(#647,1.);
#643=DERIVED_UNIT_ELEMENT(#1299,-3.);
#644=DERIVED_UNIT_ELEMENT(#647,1.);
#645=DERIVED_UNIT_ELEMENT(#1299,-3.);
#646=DIMENSIONAL_EXPONENTS(0.,1.,0.,0.,0.,0.,0.);
#647=(
CONVERSION_BASED_UNIT('gram',#649)
MASS_UNIT()
NAMED_UNIT(#646)
);
#648=(
MASS_UNIT()
NAMED_UNIT(*)
SI_UNIT(.KILO.,.GRAM.)
);
#649=MASS_MEASURE_WITH_UNIT(MASS_MEASURE(0.001),#648);
#650=DERIVED_UNIT((#640,#641));
#651=DERIVED_UNIT((#642,#643));
#652=DERIVED_UNIT((#644,#645));
#653=MEASURE_REPRESENTATION_ITEM('density measure',
POSITIVE_RATIO_MEASURE(1.),#650);
#654=MEASURE_REPRESENTATION_ITEM('density measure',
POSITIVE_RATIO_MEASURE(1.),#651);
#655=MEASURE_REPRESENTATION_ITEM('density measure',
POSITIVE_RATIO_MEASURE(1.),#652);
#656=PROPERTY_DEFINITION_REPRESENTATION(#671,#662);
#657=PROPERTY_DEFINITION_REPRESENTATION(#672,#663);
#658=PROPERTY_DEFINITION_REPRESENTATION(#673,#664);
#659=PROPERTY_DEFINITION_REPRESENTATION(#674,#665);
#660=PROPERTY_DEFINITION_REPRESENTATION(#675,#666);
#661=PROPERTY_DEFINITION_REPRESENTATION(#676,#667);
#662=REPRESENTATION('material name',(#668),#1294);
#663=REPRESENTATION('density',(#653),#1294);
#664=REPRESENTATION('material name',(#669),#1295);
#665=REPRESENTATION('density',(#654),#1295);
#666=REPRESENTATION('material name',(#670),#1296);
#667=REPRESENTATION('density',(#655),#1296);
#668=DESCRIPTIVE_REPRESENTATION_ITEM('Generic','Generic');
#669=DESCRIPTIVE_REPRESENTATION_ITEM('Generic','Generic');
#670=DESCRIPTIVE_REPRESENTATION_ITEM('Generic','Generic');
#671=PROPERTY_DEFINITION('material property','material name',#1319);
#672=PROPERTY_DEFINITION('material property','density of part',#1319);
#673=PROPERTY_DEFINITION('material property','material name',#1320);
#674=PROPERTY_DEFINITION('material property','density of part',#1320);
#675=PROPERTY_DEFINITION('material property','material name',#1321);
#676=PROPERTY_DEFINITION('material property','density of part',#1321);
#677=PRESENTATION_STYLE_ASSIGNMENT((#683));
#678=PRESENTATION_STYLE_ASSIGNMENT((#684));
#679=PRESENTATION_STYLE_ASSIGNMENT((NULL_STYLE(.NULL.)));
#680=PRESENTATION_STYLE_ASSIGNMENT((NULL_STYLE(.NULL.)));
#681=PRESENTATION_STYLE_ASSIGNMENT((NULL_STYLE(.NULL.)));
#682=PRESENTATION_STYLE_ASSIGNMENT((NULL_STYLE(.NULL.)));
#683=SURFACE_STYLE_USAGE(.BOTH.,#689);
#684=SURFACE_STYLE_USAGE(.BOTH.,#690);
#685=SURFACE_STYLE_RENDERING_WITH_PROPERTIES($,#697,(#687));
#686=SURFACE_STYLE_RENDERING_WITH_PROPERTIES($,#698,(#688));
#687=SURFACE_STYLE_TRANSPARENT(0.);
#688=SURFACE_STYLE_TRANSPARENT(0.);
#689=SURFACE_SIDE_STYLE('',(#691,#685));
#690=SURFACE_SIDE_STYLE('',(#692,#686));
#691=SURFACE_STYLE_FILL_AREA(#693);
#692=SURFACE_STYLE_FILL_AREA(#694);
#693=FILL_AREA_STYLE('',(#695));
#694=FILL_AREA_STYLE('',(#696));
#695=FILL_AREA_STYLE_COLOUR('',#697);
#696=FILL_AREA_STYLE_COLOUR('',#698);
#697=COLOUR_RGB('',0.749019607843137,0.749019607843137,0.749019607843137);
#698=COLOUR_RGB('',0.250980392156863,0.250980392156863,0.250980392156863);
#699=DATE_TIME_ROLE('creation_date');
#700=DATE_TIME_ROLE('creation_date');
#701=DATE_TIME_ROLE('creation_date');
#702=DATE_TIME_ROLE('creation_date');
#703=APPLIED_DATE_AND_TIME_ASSIGNMENT(#707,#699,(#1318));
#704=APPLIED_DATE_AND_TIME_ASSIGNMENT(#708,#700,(#1319));
#705=APPLIED_DATE_AND_TIME_ASSIGNMENT(#709,#701,(#1320));
#706=APPLIED_DATE_AND_TIME_ASSIGNMENT(#710,#702,(#1321));
#707=DATE_AND_TIME(#711,#715);
#708=DATE_AND_TIME(#712,#716);
#709=DATE_AND_TIME(#713,#717);
#710=DATE_AND_TIME(#714,#718);
#711=CALENDAR_DATE(2026,13,5);
#712=CALENDAR_DATE(2026,13,5);
#713=CALENDAR_DATE(2026,13,5);
#714=CALENDAR_DATE(2026,13,5);
#715=LOCAL_TIME(0,0,0.,#719);
#716=LOCAL_TIME(0,0,0.,#720);
#717=LOCAL_TIME(0,0,0.,#721);
#718=LOCAL_TIME(0,0,0.,#722);
#719=COORDINATED_UNIVERSAL_TIME_OFFSET(0,0,.BEHIND.);
#720=COORDINATED_UNIVERSAL_TIME_OFFSET(0,0,.BEHIND.);
#721=COORDINATED_UNIVERSAL_TIME_OFFSET(0,0,.BEHIND.);
#722=COORDINATED_UNIVERSAL_TIME_OFFSET(0,0,.BEHIND.);
#723=AXIS2_PLACEMENT_3D('',#1081,#828,#829);
#724=AXIS2_PLACEMENT_3D('',#1082,#830,#831);
#725=AXIS2_PLACEMENT_3D('',#1083,#832,#833);
#726=AXIS2_PLACEMENT_3D('',#1085,#834,#835);
#727=AXIS2_PLACEMENT_3D('',#1088,#837,#838);
#728=AXIS2_PLACEMENT_3D('',#1089,#839,#840);
#729=AXIS2_PLACEMENT_3D('',#1091,#841,#842);
#730=AXIS2_PLACEMENT_3D('',#1092,#843,#844);
#731=AXIS2_PLACEMENT_3D('',#1105,#851,#852);
#732=AXIS2_PLACEMENT_3D('',#1119,#859,#860);
#733=AXIS2_PLACEMENT_3D('',#1120,#861,#862);
#734=AXIS2_PLACEMENT_3D('',#1123,#865,#866);
#735=AXIS2_PLACEMENT_3D('',#1125,#868,#869);
#736=AXIS2_PLACEMENT_3D('',#1127,#871,#872);
#737=AXIS2_PLACEMENT_3D('',#1129,#874,#875);
#738=AXIS2_PLACEMENT_3D('',#1131,#877,#878);
#739=AXIS2_PLACEMENT_3D('',#1132,#879,#880);
#740=AXIS2_PLACEMENT_3D('',#1135,#882,#883);
#741=AXIS2_PLACEMENT_3D('',#1136,#884,#885);
#742=AXIS2_PLACEMENT_3D('',#1138,#886,#887);
#743=AXIS2_PLACEMENT_3D('',#1142,#889,#890);
#744=AXIS2_PLACEMENT_3D('',#1143,#891,#892);
#745=AXIS2_PLACEMENT_3D('',#1144,#893,#894);
#746=AXIS2_PLACEMENT_3D('',#1146,#896,#897);
#747=AXIS2_PLACEMENT_3D('',#1147,#898,#899);
#748=AXIS2_PLACEMENT_3D('',#1149,#900,#901);
#749=AXIS2_PLACEMENT_3D('',#1150,#902,#903);
#750=AXIS2_PLACEMENT_3D('',#1153,#904,#905);
#751=AXIS2_PLACEMENT_3D('view reference',#1154,#906,#907);
#752=AXIS2_PLACEMENT_3D('view window',#1155,#908,#909);
#753=AXIS2_PLACEMENT_3D('view reference',#1157,#910,#911);
#754=AXIS2_PLACEMENT_3D('view window',#1158,#912,#913);
#755=AXIS2_PLACEMENT_3D('view reference',#1160,#914,#915);
#756=AXIS2_PLACEMENT_3D('view window',#1161,#916,#917);
#757=AXIS2_PLACEMENT_3D('view reference',#1163,#918,#919);
#758=AXIS2_PLACEMENT_3D('view window',#1164,#920,#921);
#759=AXIS2_PLACEMENT_3D('view reference',#1166,#922,#923);
#760=AXIS2_PLACEMENT_3D('view window',#1167,#924,#925);
#761=AXIS2_PLACEMENT_3D('',#1169,#926,#927);
#762=AXIS2_PLACEMENT_3D('',#1170,#928,#929);
#763=AXIS2_PLACEMENT_3D('',#1172,#930,#931);
#764=AXIS2_PLACEMENT_3D('',#1173,#932,#933);
#765=AXIS2_PLACEMENT_3D('',#1175,#934,#935);
#766=AXIS2_PLACEMENT_3D('',#1177,#937,#938);
#767=AXIS2_PLACEMENT_3D('',#1179,#939,#940);
#768=AXIS2_PLACEMENT_3D('',#1181,#942,#943);
#769=AXIS2_PLACEMENT_3D('',#1184,#944,#945);
#770=AXIS2_PLACEMENT_3D('view reference',#1185,#946,#947);
#771=AXIS2_PLACEMENT_3D('view window',#1186,#948,#949);
#772=AXIS2_PLACEMENT_3D('view reference',#1188,#950,#951);
#773=AXIS2_PLACEMENT_3D('view window',#1189,#952,#953);
#774=AXIS2_PLACEMENT_3D('view reference',#1191,#954,#955);
#775=AXIS2_PLACEMENT_3D('view window',#1192,#956,#957);
#776=AXIS2_PLACEMENT_3D('view reference',#1194,#958,#959);
#777=AXIS2_PLACEMENT_3D('view window',#1195,#960,#961);
#778=AXIS2_PLACEMENT_3D('view reference',#1197,#962,#963);
#779=AXIS2_PLACEMENT_3D('view window',#1198,#964,#965);
#780=AXIS2_PLACEMENT_3D('',#1200,#966,#967);
#781=AXIS2_PLACEMENT_3D('',#1201,#968,#969);
#782=AXIS2_PLACEMENT_3D('',#1203,#970,#971);
#783=AXIS2_PLACEMENT_3D('',#1206,#973,#974);
#784=AXIS2_PLACEMENT_3D('',#1207,#975,#976);
#785=AXIS2_PLACEMENT_3D('',#1220,#983,#984);
#786=AXIS2_PLACEMENT_3D('',#1226,#988,#989);
#787=AXIS2_PLACEMENT_3D('',#1230,#992,#993);
#788=AXIS2_PLACEMENT_3D('',#1234,#996,#997);
#789=AXIS2_PLACEMENT_3D('',#1238,#1000,#1001);
#790=AXIS2_PLACEMENT_3D('',#1242,#1004,#1005);
#791=AXIS2_PLACEMENT_3D('',#1244,#1007,#1008);
#792=AXIS2_PLACEMENT_3D('view reference',#1245,#1009,#1010);
#793=AXIS2_PLACEMENT_3D('view window',#1246,#1011,#1012);
#794=AXIS2_PLACEMENT_3D('view reference',#1248,#1013,#1014);
#795=AXIS2_PLACEMENT_3D('view window',#1249,#1015,#1016);
#796=AXIS2_PLACEMENT_3D('view reference',#1251,#1017,#1018);
#797=AXIS2_PLACEMENT_3D('view window',#1252,#1019,#1020);
#798=AXIS2_PLACEMENT_3D('view reference',#1254,#1021,#1022);
#799=AXIS2_PLACEMENT_3D('view window',#1255,#1023,#1024);
#800=AXIS2_PLACEMENT_3D('view reference',#1257,#1025,#1026);
#801=AXIS2_PLACEMENT_3D('view window',#1258,#1027,#1028);
#802=AXIS2_PLACEMENT_3D('',#1260,#1029,#1030);
#803=AXIS2_PLACEMENT_3D('',#1261,#1031,#1032);
#804=AXIS2_PLACEMENT_3D('',#1262,#1033,#1034);
#805=AXIS2_PLACEMENT_3D('view reference',#1263,#1035,#1036);
#806=AXIS2_PLACEMENT_3D('view window',#1264,#1037,#1038);
#807=AXIS2_PLACEMENT_3D('view reference',#1266,#1039,#1040);
#808=AXIS2_PLACEMENT_3D('view window',#1267,#1041,#1042);
#809=AXIS2_PLACEMENT_3D('',#1269,#1043,#1044);
#810=AXIS2_PLACEMENT_3D('',#1270,#1045,#1046);
#811=AXIS2_PLACEMENT_3D('',#1271,#1047,#1048);
#812=AXIS2_PLACEMENT_3D('',#1272,#1049,#1050);
#813=AXIS2_PLACEMENT_3D('',#1273,#1051,#1052);
#814=AXIS2_PLACEMENT_3D('',#1274,#1053,#1054);
#815=AXIS2_PLACEMENT_3D('',#1275,#1055,#1056);
#816=AXIS2_PLACEMENT_3D('',#1276,#1057,#1058);
#817=AXIS2_PLACEMENT_3D('',#1277,#1059,#1060);
#818=AXIS2_PLACEMENT_3D('',#1278,#1061,#1062);
#819=AXIS2_PLACEMENT_3D('',#1279,#1063,#1064);
#820=AXIS2_PLACEMENT_3D('',#1280,#1065,#1066);
#821=AXIS2_PLACEMENT_3D('',#1281,#1067,#1068);
#822=AXIS2_PLACEMENT_3D('',#1282,#1069,#1070);
#823=AXIS2_PLACEMENT_3D('',#1283,#1071,#1072);
#824=AXIS2_PLACEMENT_3D('',#1284,#1073,#1074);
#825=AXIS2_PLACEMENT_3D('',#1285,#1075,#1076);
#826=AXIS2_PLACEMENT_3D('',#1286,#1077,#1078);
#827=AXIS2_PLACEMENT_3D('',#1287,#1079,#1080);
#828=DIRECTION('axis',(0.,0.,1.));
#829=DIRECTION('refdir',(1.,0.,0.));
#830=DIRECTION('axis',(0.,0.,1.));
#831=DIRECTION('refdir',(1.,0.,0.));
#832=DIRECTION('center_axis',(0.,1.,0.));
#833=DIRECTION('ref_axis',(-1.,0.,0.));
#834=DIRECTION('center_axis',(0.,-1.,0.));
#835=DIRECTION('ref_axis',(-1.,0.,0.));
#836=DIRECTION('',(0.,1.,0.));
#837=DIRECTION('center_axis',(0.,1.,0.));
#838=DIRECTION('ref_axis',(-1.,0.,0.));
#839=DIRECTION('center_axis',(0.,1.,0.));
#840=DIRECTION('ref_axis',(0.,0.,1.));
#841=DIRECTION('center_axis',(0.,1.,0.));
#842=DIRECTION('ref_axis',(1.,0.,0.));
#843=DIRECTION('center_axis',(0.,1.,0.));
#844=DIRECTION('ref_axis',(0.,0.,1.));
#845=DIRECTION('',(-0.5,0.,0.866025403784439));
#846=DIRECTION('',(0.5,0.,0.866025403784439));
#847=DIRECTION('',(1.,0.,2.74708955197652E-16));
#848=DIRECTION('',(0.5,0.,-0.866025403784438));
#849=DIRECTION('',(-0.5,0.,-0.866025403784439));
#850=DIRECTION('',(-1.,0.,0.));
#851=DIRECTION('center_axis',(0.,-1.,0.));
#852=DIRECTION('ref_axis',(0.,0.,-1.));
#853=DIRECTION('',(0.5,0.,-0.866025403784439));
#854=DIRECTION('',(1.,0.,0.));
#855=DIRECTION('',(0.5,0.,0.866025403784439));
#856=DIRECTION('',(-0.5,0.,0.866025403784438));
#857=DIRECTION('',(-1.,0.,-2.74708955197652E-16));
#858=DIRECTION('',(-0.5,0.,-0.866025403784439));
#859=DIRECTION('center_axis',(0.,-1.,0.));
#860=DIRECTION('ref_axis',(1.,0.,0.));
#861=DIRECTION('center_axis',(-0.866025403784439,0.,0.5));
#862=DIRECTION('ref_axis',(-0.5,0.,-0.866025403784439));
#863=DIRECTION('',(0.,-1.,0.));
#864=DIRECTION('',(0.,-1.,0.));
#865=DIRECTION('center_axis',(-2.74708955197652E-16,0.,1.));
#866=DIRECTION('ref_axis',(-1.,0.,-2.74708955197652E-16));
#867=DIRECTION('',(0.,-1.,0.));
#868=DIRECTION('center_axis',(0.866025403784438,0.,0.5));
#869=DIRECTION('ref_axis',(-0.5,0.,0.866025403784438));
#870=DIRECTION('',(0.,-1.,0.));
#871=DIRECTION('center_axis',(0.866025403784439,0.,-0.5));
#872=DIRECTION('ref_axis',(0.5,0.,0.866025403784439));
#873=DIRECTION('',(0.,-1.,0.));
#874=DIRECTION('center_axis',(0.,0.,-1.));
#875=DIRECTION('ref_axis',(1.,0.,0.));
#876=DIRECTION('',(0.,-1.,0.));
#877=DIRECTION('center_axis',(-0.866025403784439,0.,-0.5));
#878=DIRECTION('ref_axis',(0.5,0.,-0.866025403784439));
#879=DIRECTION('center_axis',(0.,1.,0.));
#880=DIRECTION('ref_axis',(1.,0.,0.));
#881=DIRECTION('',(0.,-1.,0.));
#882=DIRECTION('center_axis',(0.,1.,0.));
#883=DIRECTION('ref_axis',(1.,0.,0.));
#884=DIRECTION('center_axis',(0.,-1.,0.));
#885=DIRECTION('ref_axis',(-1.,0.,0.));
#886=DIRECTION('center_axis',(0.,-1.,0.));
#887=DIRECTION('ref_axis',(-1.,0.,0.));
#888=DIRECTION('',(0.707106781186551,-0.707106781186544,-8.65956056235498E-17));
#889=DIRECTION('center_axis',(0.,1.,0.));
#890=DIRECTION('ref_axis',(-1.,0.,0.));
#891=DIRECTION('center_axis',(0.,1.,0.));
#892=DIRECTION('ref_axis',(-1.,0.,0.));
#893=DIRECTION('center_axis',(0.,1.,0.));
#894=DIRECTION('ref_axis',(1.,0.,0.));
#895=DIRECTION('',(0.,-1.,0.));
#896=DIRECTION('center_axis',(0.,1.,0.));
#897=DIRECTION('ref_axis',(0.,0.,1.));
#898=DIRECTION('center_axis',(0.,-1.,0.));
#899=DIRECTION('ref_axis',(0.,0.,-1.));
#900=DIRECTION('center_axis',(0.,1.,0.));
#901=DIRECTION('ref_axis',(1.,0.,0.));
#902=DIRECTION('center_axis',(6.12323399573677E-17,0.,1.));
#903=DIRECTION('ref_axis',(1.,0.,0.));
#904=DIRECTION('center_axis',(1.57478443209242E-16,-1.,0.));
#905=DIRECTION('ref_axis',(-1.,-1.57478443209242E-16,0.));
#906=DIRECTION('center_axis',(-0.00871195210838308,-0.459846727983323,-0.887955566823866));
#907=DIRECTION('ref_axis',(-0.99995630212859,0.00701716412915539,0.00617683097559095));
#908=DIRECTION('center_axis',(0.,0.,1.));
#909=DIRECTION('ref_axis',(1.,0.,0.));
#910=DIRECTION('center_axis',(-0.577350269189626,0.577350269189626,-0.577350269189626));
#911=DIRECTION('ref_axis',(-0.707106781186548,-0.707106781186548,0.));
#912=DIRECTION('center_axis',(0.,0.,1.));
#913=DIRECTION('ref_axis',(1.,0.,0.));
#914=DIRECTION('center_axis',(-2.22044604925031E-16,0.,-1.));
#915=DIRECTION('ref_axis',(-1.,0.,2.22044604925031E-16));
#916=DIRECTION('center_axis',(0.,0.,1.));
#917=DIRECTION('ref_axis',(1.,0.,0.));
#918=DIRECTION('center_axis',(0.,-1.,0.));
#919=DIRECTION('ref_axis',(-1.,0.,0.));
#920=DIRECTION('center_axis',(0.,0.,1.));
#921=DIRECTION('ref_axis',(1.,0.,0.));
#922=DIRECTION('center_axis',(-1.,0.,0.));
#923=DIRECTION('ref_axis',(0.,0.,1.));
#924=DIRECTION('center_axis',(0.,0.,1.));
#925=DIRECTION('ref_axis',(1.,0.,0.));
#926=DIRECTION('axis',(0.,0.,1.));
#927=DIRECTION('refdir',(1.,0.,0.));
#928=DIRECTION('center_axis',(0.,-1.,0.));
#929=DIRECTION('ref_axis',(0.,0.,-1.));
#930=DIRECTION('center_axis',(0.,1.,0.));
#931=DIRECTION('ref_axis',(1.,0.,0.));
#932=DIRECTION('center_axis',(0.,1.,0.));
#933=DIRECTION('ref_axis',(1.,0.,0.));
#934=DIRECTION('center_axis',(0.,1.,0.));
#935=DIRECTION('ref_axis',(1.,0.,0.));
#936=DIRECTION('',(0.,-1.,0.));
#937=DIRECTION('center_axis',(0.,-1.,0.));
#938=DIRECTION('ref_axis',(1.,0.,0.));
#939=DIRECTION('center_axis',(0.,1.,0.));
#940=DIRECTION('ref_axis',(1.,0.,0.));
#941=DIRECTION('',(-0.779588505848727,-0.626292073675333,9.54720568339712E-17));
#942=DIRECTION('center_axis',(6.12323399573677E-17,0.,1.));
#943=DIRECTION('ref_axis',(1.,0.,0.));
#944=DIRECTION('center_axis',(0.,-1.,0.));
#945=DIRECTION('ref_axis',(-1.,0.,0.));
#946=DIRECTION('center_axis',(-0.00871195210838308,-0.459846727983323,-0.887955566823866));
#947=DIRECTION('ref_axis',(-0.99995630212859,0.00701716412915539,0.00617683097559095));
#948=DIRECTION('center_axis',(0.,0.,1.));
#949=DIRECTION('ref_axis',(1.,0.,0.));
#950=DIRECTION('center_axis',(-0.577350269189626,0.577350269189626,-0.577350269189626));
#951=DIRECTION('ref_axis',(-0.707106781186548,-0.707106781186548,0.));
#952=DIRECTION('center_axis',(0.,0.,1.));
#953=DIRECTION('ref_axis',(1.,0.,0.));
#954=DIRECTION('center_axis',(-2.22044604925031E-16,0.,-1.));
#955=DIRECTION('ref_axis',(-1.,0.,2.22044604925031E-16));
#956=DIRECTION('center_axis',(0.,0.,1.));
#957=DIRECTION('ref_axis',(1.,0.,0.));
#958=DIRECTION('center_axis',(0.,-1.,0.));
#959=DIRECTION('ref_axis',(-1.,0.,0.));
#960=DIRECTION('center_axis',(0.,0.,1.));
#961=DIRECTION('ref_axis',(1.,0.,0.));
#962=DIRECTION('center_axis',(-1.,0.,0.));
#963=DIRECTION('ref_axis',(0.,0.,1.));
#964=DIRECTION('center_axis',(0.,0.,1.));
#965=DIRECTION('ref_axis',(1.,0.,0.));
#966=DIRECTION('axis',(0.,0.,1.));
#967=DIRECTION('refdir',(1.,0.,0.));
#968=DIRECTION('center_axis',(0.,1.,0.));
#969=DIRECTION('ref_axis',(1.,0.,0.));
#970=DIRECTION('center_axis',(0.,-1.,0.));
#971=DIRECTION('ref_axis',(1.,0.,0.));
#972=DIRECTION('',(0.,-1.,0.));
#973=DIRECTION('center_axis',(0.,1.,0.));
#974=DIRECTION('ref_axis',(1.,0.,0.));
#975=DIRECTION('center_axis',(0.,-1.,0.));
#976=DIRECTION('ref_axis',(0.,0.,-1.));
#977=DIRECTION('',(1.,0.,5.49417910395304E-16));
#978=DIRECTION('',(0.5,0.,0.866025403784439));
#979=DIRECTION('',(-0.5,0.,0.866025403784438));
#980=DIRECTION('',(-1.,0.,0.));
#981=DIRECTION('',(-0.5,0.,-0.866025403784439));
#982=DIRECTION('',(0.500000000000001,0.,-0.866025403784438));
#983=DIRECTION('center_axis',(0.866025403784439,0.,-0.5));
#984=DIRECTION('ref_axis',(-0.5,0.,-0.866025403784439));
#985=DIRECTION('',(0.,-1.,0.));
#986=DIRECTION('',(-0.5,0.,-0.866025403784439));
#987=DIRECTION('',(0.,1.,0.));
#988=DIRECTION('center_axis',(0.866025403784438,0.,0.5));
#989=DIRECTION('ref_axis',(0.5,0.,-0.866025403784438));
#990=DIRECTION('',(0.5,0.,-0.866025403784438));
#991=DIRECTION('',(0.,1.,0.));
#992=DIRECTION('center_axis',(0.,0.,1.));
#993=DIRECTION('ref_axis',(1.,0.,0.));
#994=DIRECTION('',(1.,0.,0.));
#995=DIRECTION('',(0.,1.,0.));
#996=DIRECTION('center_axis',(-0.866025403784439,0.,0.5));
#997=DIRECTION('ref_axis',(0.5,0.,0.866025403784439));
#998=DIRECTION('',(0.5,0.,0.866025403784439));
#999=DIRECTION('',(0.,1.,0.));
#1000=DIRECTION('center_axis',(-0.866025403784438,0.,-0.500000000000001));
#1001=DIRECTION('ref_axis',(-0.500000000000001,0.,0.866025403784438));
#1002=DIRECTION('',(-0.500000000000001,0.,0.866025403784438));
#1003=DIRECTION('',(0.,1.,0.));
#1004=DIRECTION('center_axis',(5.49417910395304E-16,0.,-1.));
#1005=DIRECTION('ref_axis',(-1.,0.,-5.49417910395304E-16));
#1006=DIRECTION('',(-1.,0.,-5.49417910395304E-16));
#1007=DIRECTION('center_axis',(0.,1.,0.));
#1008=DIRECTION('ref_axis',(0.,0.,1.));
#1009=DIRECTION('center_axis',(-0.00871195210838308,-0.459846727983323,
-0.887955566823866));
#1010=DIRECTION('ref_axis',(-0.99995630212859,0.00701716412915539,0.00617683097559095));
#1011=DIRECTION('center_axis',(0.,0.,1.));
#1012=DIRECTION('ref_axis',(1.,0.,0.));
#1013=DIRECTION('center_axis',(-0.577350269189626,0.577350269189626,-0.577350269189626));
#1014=DIRECTION('ref_axis',(-0.707106781186548,-0.707106781186548,0.));
#1015=DIRECTION('center_axis',(0.,0.,1.));
#1016=DIRECTION('ref_axis',(1.,0.,0.));
#1017=DIRECTION('center_axis',(-2.22044604925031E-16,0.,-1.));
#1018=DIRECTION('ref_axis',(-1.,0.,2.22044604925031E-16));
#1019=DIRECTION('center_axis',(0.,0.,1.));
#1020=DIRECTION('ref_axis',(1.,0.,0.));
#1021=DIRECTION('center_axis',(0.,-1.,0.));
#1022=DIRECTION('ref_axis',(-1.,0.,0.));
#1023=DIRECTION('center_axis',(0.,0.,1.));
#1024=DIRECTION('ref_axis',(1.,0.,0.));
#1025=DIRECTION('center_axis',(-1.,0.,0.));
#1026=DIRECTION('ref_axis',(0.,0.,1.));
#1027=DIRECTION('center_axis',(0.,0.,1.));
#1028=DIRECTION('ref_axis',(1.,0.,0.));
#1029=DIRECTION('',(7.63278329429795E-17,2.77555756156289E-16,-1.));
#1030=DIRECTION('',(-1.,-5.55111512312578E-17,-7.63278329429796E-17));
#1031=DIRECTION('',(5.82421735698109E-17,-6.91175655798307E-17,-1.));
#1032=DIRECTION('',(-1.,-1.11022302462516E-16,-5.82421735698109E-17));
#1033=DIRECTION('',(4.60164416415359E-32,-3.31583407087579E-16,1.));
#1034=DIRECTION('',(1.,1.38777878078145E-16,0.));
#1035=DIRECTION('center_axis',(-0.00871195210838308,-0.459846727983323,
-0.887955566823866));
#1036=DIRECTION('ref_axis',(-0.99995630212859,0.00701716412915539,0.00617683097559095));
#1037=DIRECTION('center_axis',(0.,0.,1.));
#1038=DIRECTION('ref_axis',(1.,0.,0.));
#1039=DIRECTION('center_axis',(2.22044604925031E-16,0.,-1.));
#1040=DIRECTION('ref_axis',(-1.,0.,-2.22044604925031E-16));
#1041=DIRECTION('center_axis',(0.,0.,1.));
#1042=DIRECTION('ref_axis',(1.,0.,0.));
#1043=DIRECTION('center_axis',(0.,0.,1.));
#1044=DIRECTION('ref_axis',(1.,0.,0.));
#1045=DIRECTION('center_axis',(0.,0.,1.));
#1046=DIRECTION('ref_axis',(1.,0.,0.));
#1047=DIRECTION('center_axis',(0.,0.,1.));
#1048=DIRECTION('ref_axis',(1.,0.,0.));
#1049=DIRECTION('center_axis',(0.,0.,1.));
#1050=DIRECTION('ref_axis',(1.,0.,0.));
#1051=DIRECTION('center_axis',(0.,0.,1.));
#1052=DIRECTION('ref_axis',(1.,0.,0.));
#1053=DIRECTION('center_axis',(0.,0.,1.));
#1054=DIRECTION('ref_axis',(1.,0.,0.));
#1055=DIRECTION('center_axis',(0.,0.,1.));
#1056=DIRECTION('ref_axis',(1.,0.,0.));
#1057=DIRECTION('center_axis',(0.,0.,1.));
#1058=DIRECTION('ref_axis',(1.,0.,0.));
#1059=DIRECTION('center_axis',(0.,0.,1.));
#1060=DIRECTION('ref_axis',(1.,0.,0.));
#1061=DIRECTION('center_axis',(0.,0.,1.));
#1062=DIRECTION('ref_axis',(1.,0.,0.));
#1063=DIRECTION('center_axis',(0.,0.,1.));
#1064=DIRECTION('ref_axis',(1.,0.,0.));
#1065=DIRECTION('center_axis',(0.,0.,1.));
#1066=DIRECTION('ref_axis',(1.,0.,0.));
#1067=DIRECTION('center_axis',(0.,0.,1.));
#1068=DIRECTION('ref_axis',(1.,0.,0.));
#1069=DIRECTION('center_axis',(0.,0.,1.));
#1070=DIRECTION('ref_axis',(1.,0.,0.));
#1071=DIRECTION('center_axis',(0.,0.,1.));
#1072=DIRECTION('ref_axis',(1.,0.,0.));
#1073=DIRECTION('center_axis',(0.,0.,1.));
#1074=DIRECTION('ref_axis',(1.,0.,0.));
#1075=DIRECTION('center_axis',(0.,0.,1.));
#1076=DIRECTION('ref_axis',(1.,0.,0.));
#1077=DIRECTION('center_axis',(0.,0.,1.));
#1078=DIRECTION('ref_axis',(1.,0.,0.));
#1079=DIRECTION('center_axis',(0.,0.,1.));
#1080=DIRECTION('ref_axis',(1.,0.,0.));
#1081=CARTESIAN_POINT('',(0.,0.,0.));
#1082=CARTESIAN_POINT('',(0.,0.,0.));
#1083=CARTESIAN_POINT('Origin',(0.,23.1,0.));
#1084=CARTESIAN_POINT('',(3.6,23.1,-4.40872847693047E-16));
#1085=CARTESIAN_POINT('Origin',(0.,23.1,0.));
#1086=CARTESIAN_POINT('',(3.6,24.5,-4.40872847693047E-16));
#1087=CARTESIAN_POINT('',(3.6,23.1,-4.40872847693047E-16));
#1088=CARTESIAN_POINT('Origin',(0.,24.5,0.));
#1089=CARTESIAN_POINT('Origin',(0.,24.5,0.));
#1090=CARTESIAN_POINT('',(-3.99999999999999,24.5,4.8985871965894E-16));
#1091=CARTESIAN_POINT('Origin',(0.,24.5,0.));
#1092=CARTESIAN_POINT('Origin',(5.55111512312578E-16,23.1,0.));
#1093=CARTESIAN_POINT('',(-4.04145188432738,23.1,-7.));
#1094=CARTESIAN_POINT('',(-8.08290376865476,23.1,-1.28369537222284E-15));
#1095=CARTESIAN_POINT('',(-4.04145188432738,23.1,-7.));
#1096=CARTESIAN_POINT('',(-4.04145188432738,23.1,7.));
#1097=CARTESIAN_POINT('',(-8.08290376865476,23.1,-1.11022302462516E-15));
#1098=CARTESIAN_POINT('',(4.04145188432738,23.1,7.));
#1099=CARTESIAN_POINT('',(-4.04145188432738,23.1,7.));
#1100=CARTESIAN_POINT('',(8.08290376865476,23.1,3.50414142147315E-15));
#1101=CARTESIAN_POINT('',(4.04145188432738,23.1,7.));
#1102=CARTESIAN_POINT('',(4.04145188432738,23.1,-7.));
#1103=CARTESIAN_POINT('',(8.08290376865476,23.1,3.33066907387547E-15));
#1104=CARTESIAN_POINT('',(4.04145188432738,23.1,-7.));
#1105=CARTESIAN_POINT('Origin',(5.55111512312578E-16,16.5,0.));
#1106=CARTESIAN_POINT('',(-8.08290376865476,16.5,-1.11022302462516E-15));
#1107=CARTESIAN_POINT('',(-4.04145188432738,16.5,-7.));
#1108=CARTESIAN_POINT('',(-4.04145188432738,16.5,-7.));
#1109=CARTESIAN_POINT('',(4.04145188432738,16.5,-7.));
#1110=CARTESIAN_POINT('',(4.04145188432738,16.5,-7.));
#1111=CARTESIAN_POINT('',(8.08290376865476,16.5,3.33066907387547E-15));
#1112=CARTESIAN_POINT('',(8.08290376865476,16.5,3.33066907387547E-15));
#1113=CARTESIAN_POINT('',(4.04145188432738,16.5,7.));
#1114=CARTESIAN_POINT('',(4.04145188432738,16.5,7.));
#1115=CARTESIAN_POINT('',(-4.04145188432738,16.5,7.));
#1116=CARTESIAN_POINT('',(-4.04145188432738,16.5,7.));
#1117=CARTESIAN_POINT('',(-8.08290376865476,16.5,-1.11022302462516E-15));
#1118=CARTESIAN_POINT('',(-4.54999999999998,16.5,-5.57214293612043E-16));
#1119=CARTESIAN_POINT('Origin',(0.,16.5,0.));
#1120=CARTESIAN_POINT('Origin',(-4.04145188432738,23.1,7.));
#1121=CARTESIAN_POINT('',(-8.08290376865476,23.1,-1.28369537222284E-15));
#1122=CARTESIAN_POINT('',(-4.04145188432738,23.1,7.));
#1123=CARTESIAN_POINT('Origin',(4.04145188432738,23.1,7.));
#1124=CARTESIAN_POINT('',(4.04145188432738,23.1,7.));
#1125=CARTESIAN_POINT('Origin',(8.08290376865476,23.1,3.33066907387547E-15));
#1126=CARTESIAN_POINT('',(8.08290376865476,23.1,3.50414142147315E-15));
#1127=CARTESIAN_POINT('Origin',(4.04145188432738,23.1,-7.));
#1128=CARTESIAN_POINT('',(4.04145188432738,23.1,-7.));
#1129=CARTESIAN_POINT('Origin',(-4.04145188432738,23.1,-7.));
#1130=CARTESIAN_POINT('',(-4.04145188432738,23.1,-7.));
#1131=CARTESIAN_POINT('Origin',(-8.08290376865476,23.1,-1.11022302462516E-15));
#1132=CARTESIAN_POINT('Origin',(0.,18.1,0.));
#1133=CARTESIAN_POINT('',(-4.54999999999998,11.7,5.57214293612043E-16));
#1134=CARTESIAN_POINT('',(-4.54999999999998,18.1,5.57214293612043E-16));
#1135=CARTESIAN_POINT('Origin',(0.,11.7,0.));
#1136=CARTESIAN_POINT('Origin',(0.,71.6,0.));
#1137=CARTESIAN_POINT('',(2.99999999999998,72.1,3.67394039744203E-16));
#1138=CARTESIAN_POINT('Origin',(0.,72.1,0.));
#1139=CARTESIAN_POINT('',(3.99999999999999,71.1,-4.8985871965894E-16));
#1140=CARTESIAN_POINT('',(3.49999999999998,71.6,-4.28626379701571E-16));
#1141=CARTESIAN_POINT('',(-3.99999999999999,71.1,4.8985871965894E-16));
#1142=CARTESIAN_POINT('Origin',(0.,71.1,0.));
#1143=CARTESIAN_POINT('Origin',(0.,71.1,0.));
#1144=CARTESIAN_POINT('Origin',(0.,48.3,0.));
#1145=CARTESIAN_POINT('',(-3.99999999999999,48.3,4.8985871965894E-16));
#1146=CARTESIAN_POINT('Origin',(-1.94289029309402E-14,72.1,0.));
#1147=CARTESIAN_POINT('Origin',(3.13454246851875,-8.22490400103143E-17,
0.));
#1148=CARTESIAN_POINT('',(3.13454246851875,-8.22490400103143E-17,0.));
#1149=CARTESIAN_POINT('Origin',(0.,0.,0.));
#1150=CARTESIAN_POINT('Origin',(-2.22044604925031E-15,6.31483519286548,
0.));
#1151=CARTESIAN_POINT('',(-2.65213404594976E-15,6.31483519286548,7.05));
#1152=CARTESIAN_POINT('',(-2.65213404594976E-15,6.31483519286548,-7.05));
#1153=CARTESIAN_POINT('Origin',(-2.22044604925031E-15,6.31483519286548,
0.));
#1154=CARTESIAN_POINT('Origin',(15.3878834388549,197.420641052319,272.583681257289));
#1155=CARTESIAN_POINT('Origin',(-125.675612617667,-77.9188798229536,308.075997564592));
#1156=CARTESIAN_POINT('',(0.,0.,0.));
#1157=CARTESIAN_POINT('Origin',(9.80776221726431,-9.80776221726431,9.80776221726431));
#1158=CARTESIAN_POINT('Origin',(-13.9055118110236,-10.,16.9875424688562));
#1159=CARTESIAN_POINT('',(0.,0.,0.));
#1160=CARTESIAN_POINT('Origin',(2.61331282407732E-14,0.,117.693146607172));
#1161=CARTESIAN_POINT('Origin',(-13.9055118110236,-10.,117.693146607172));
#1162=CARTESIAN_POINT('',(0.,0.,0.));
#1163=CARTESIAN_POINT('Origin',(0.,117.693146607172,0.));
#1164=CARTESIAN_POINT('Origin',(-13.9055118110236,-10.,117.693146607172));
#1165=CARTESIAN_POINT('',(0.,0.,0.));
#1166=CARTESIAN_POINT('Origin',(117.693146607172,0.,0.));
#1167=CARTESIAN_POINT('Origin',(-13.9055118110236,-10.,117.693146607172));
#1168=CARTESIAN_POINT('',(0.,0.,0.));
#1169=CARTESIAN_POINT('',(0.,0.,0.));
#1170=CARTESIAN_POINT('Origin',(19.7,0.,0.));
#1171=CARTESIAN_POINT('',(-19.7,0.,2.41255419432029E-15));
#1172=CARTESIAN_POINT('Origin',(0.,0.,0.));
#1173=CARTESIAN_POINT('Origin',(0.,4.,0.));
#1174=CARTESIAN_POINT('',(-19.7,8.,2.41255419432029E-15));
#1175=CARTESIAN_POINT('Origin',(0.,8.,0.));
#1176=CARTESIAN_POINT('',(-19.7,4.,2.41255419432029E-15));
#1177=CARTESIAN_POINT('Origin',(0.,13.75,0.));
#1178=CARTESIAN_POINT('',(-5.3851648071345,19.5,6.59492484393824E-16));
#1179=CARTESIAN_POINT('Origin',(0.,19.5,0.));
#1180=CARTESIAN_POINT('',(-12.5425824035673,13.75,1.53602333935705E-15));
#1181=CARTESIAN_POINT('Origin',(-2.74627044708794E-15,14.95,0.));
#1182=CARTESIAN_POINT('',(-3.17795844378738E-15,14.95,7.05));
#1183=CARTESIAN_POINT('',(-3.17795844378738E-15,14.95,-7.05));
#1184=CARTESIAN_POINT('Origin',(-2.74627044708794E-15,14.95,0.));
#1185=CARTESIAN_POINT('Origin',(15.3878834388549,197.420641052319,272.583681257289));
#1186=CARTESIAN_POINT('Origin',(-125.675612617667,-77.9188798229536,308.075997564592));
#1187=CARTESIAN_POINT('',(0.,0.,0.));
#1188=CARTESIAN_POINT('Origin',(9.80776221726431,-9.80776221726431,9.80776221726431));
#1189=CARTESIAN_POINT('Origin',(-13.9055118110236,-10.,16.9875424688562));
#1190=CARTESIAN_POINT('',(0.,0.,0.));
#1191=CARTESIAN_POINT('Origin',(2.61331282407732E-14,0.,117.693146607172));
#1192=CARTESIAN_POINT('Origin',(-13.9055118110236,-10.,117.693146607172));
#1193=CARTESIAN_POINT('',(0.,0.,0.));
#1194=CARTESIAN_POINT('Origin',(0.,117.693146607172,0.));
#1195=CARTESIAN_POINT('Origin',(-13.9055118110236,-10.,117.693146607172));
#1196=CARTESIAN_POINT('',(0.,0.,0.));
#1197=CARTESIAN_POINT('Origin',(117.693146607172,0.,0.));
#1198=CARTESIAN_POINT('Origin',(-13.9055118110236,-10.,117.693146607172));
#1199=CARTESIAN_POINT('',(0.,0.,0.));
#1200=CARTESIAN_POINT('',(0.,0.,0.));
#1201=CARTESIAN_POINT('Origin',(0.,-19.3823247373792,0.));
#1202=CARTESIAN_POINT('',(-3.3235,2.65,4.07011363696623E-16));
#1203=CARTESIAN_POINT('Origin',(0.,2.65,0.));
#1204=CARTESIAN_POINT('',(-3.3235,-2.65,4.07011363696623E-16));
#1205=CARTESIAN_POINT('',(-3.3235,-19.3823247373792,4.07011363696623E-16));
#1206=CARTESIAN_POINT('Origin',(0.,-2.65,0.));
#1207=CARTESIAN_POINT('Origin',(-1.11022302462516E-15,-2.65,-2.22044604925031E-15));
#1208=CARTESIAN_POINT('',(-4.04145188432738,-2.65,-7.));
#1209=CARTESIAN_POINT('',(4.04145188432738,-2.65,-7.));
#1210=CARTESIAN_POINT('',(4.04145188432738,-2.65,-7.));
#1211=CARTESIAN_POINT('',(8.08290376865476,-2.65,2.22044604925031E-15));
#1212=CARTESIAN_POINT('',(8.08290376865476,-2.65,2.22044604925031E-15));
#1213=CARTESIAN_POINT('',(4.04145188432738,-2.65,7.));
#1214=CARTESIAN_POINT('',(4.04145188432738,-2.65,7.));
#1215=CARTESIAN_POINT('',(-4.04145188432738,-2.65,7.));
#1216=CARTESIAN_POINT('',(-4.04145188432738,-2.65,7.));
#1217=CARTESIAN_POINT('',(-8.08290376865476,-2.65,-5.55111512312578E-15));
#1218=CARTESIAN_POINT('',(-8.08290376865476,-2.65,-5.55111512312578E-15));
#1219=CARTESIAN_POINT('',(-4.04145188432738,-2.65,-7.));
#1220=CARTESIAN_POINT('Origin',(8.08290376865476,0.,2.22044604925031E-15));
#1221=CARTESIAN_POINT('',(4.04145188432738,2.65,-7.));
#1222=CARTESIAN_POINT('',(4.04145188432738,0.,-7.));
#1223=CARTESIAN_POINT('',(8.08290376865476,2.65,2.22044604925031E-15));
#1224=CARTESIAN_POINT('',(8.08290376865476,2.65,2.22044604925031E-15));
#1225=CARTESIAN_POINT('',(8.08290376865476,0.,2.22044604925031E-15));
#1226=CARTESIAN_POINT('Origin',(4.04145188432738,0.,7.));
#1227=CARTESIAN_POINT('',(4.04145188432738,2.65,7.));
#1228=CARTESIAN_POINT('',(4.04145188432738,2.65,7.));
#1229=CARTESIAN_POINT('',(4.04145188432738,0.,7.));
#1230=CARTESIAN_POINT('Origin',(-4.04145188432738,0.,7.));
#1231=CARTESIAN_POINT('',(-4.04145188432738,2.65,7.));
#1232=CARTESIAN_POINT('',(-4.04145188432738,2.65,7.));
#1233=CARTESIAN_POINT('',(-4.04145188432738,0.,7.));
#1234=CARTESIAN_POINT('Origin',(-8.08290376865476,0.,-5.55111512312578E-15));
#1235=CARTESIAN_POINT('',(-8.08290376865476,2.65,-5.55111512312578E-15));
#1236=CARTESIAN_POINT('',(-8.08290376865476,2.65,-5.55111512312578E-15));
#1237=CARTESIAN_POINT('',(-8.08290376865476,0.,-5.55111512312578E-15));
#1238=CARTESIAN_POINT('Origin',(-4.04145188432738,0.,-7.));
#1239=CARTESIAN_POINT('',(-4.04145188432738,2.65,-7.));
#1240=CARTESIAN_POINT('',(-4.04145188432738,2.65,-7.));
#1241=CARTESIAN_POINT('',(-4.04145188432738,0.,-7.));
#1242=CARTESIAN_POINT('Origin',(4.04145188432738,0.,-7.));
#1243=CARTESIAN_POINT('',(4.04145188432738,2.65,-7.));
#1244=CARTESIAN_POINT('Origin',(-1.11022302462516E-15,2.65,-2.22044604925031E-15));
#1245=CARTESIAN_POINT('Origin',(15.3878834388549,197.420641052319,272.583681257289));
#1246=CARTESIAN_POINT('Origin',(-125.675612617667,-77.9188798229536,308.075997564592));
#1247=CARTESIAN_POINT('',(0.,0.,0.));
#1248=CARTESIAN_POINT('Origin',(9.80776221726431,-9.80776221726431,9.80776221726431));
#1249=CARTESIAN_POINT('Origin',(-13.9055118110236,-10.,16.9875424688562));
#1250=CARTESIAN_POINT('',(0.,0.,0.));
#1251=CARTESIAN_POINT('Origin',(2.61331282407732E-14,0.,117.693146607172));
#1252=CARTESIAN_POINT('Origin',(-13.9055118110236,-10.,117.693146607172));
#1253=CARTESIAN_POINT('',(0.,0.,0.));
#1254=CARTESIAN_POINT('Origin',(0.,117.693146607172,0.));
#1255=CARTESIAN_POINT('Origin',(-13.9055118110236,-10.,117.693146607172));
#1256=CARTESIAN_POINT('',(0.,0.,0.));
#1257=CARTESIAN_POINT('Origin',(117.693146607172,0.,0.));
#1258=CARTESIAN_POINT('Origin',(-13.9055118110236,-10.,117.693146607172));
#1259=CARTESIAN_POINT('',(0.,0.,0.));
#1260=CARTESIAN_POINT('',(-1.13040022185104E-15,6.13516480713452,-2.61323254842702E-15));
#1261=CARTESIAN_POINT('',(8.21073318940322E-48,-4.93038065763132E-32,3.40775908437362E-48));
#1262=CARTESIAN_POINT('',(-8.96441143936234E-15,62.5851648071345,1.30547898865955E-14));
#1263=CARTESIAN_POINT('Origin',(15.3878834388549,197.420641052319,272.583681257289));
#1264=CARTESIAN_POINT('Origin',(-125.675612617667,-77.9188798229536,308.075997564592));
#1265=CARTESIAN_POINT('',(0.,0.,0.));
#1266=CARTESIAN_POINT('Origin',(-7.06265486829397E-14,55.3675824035672,
308.073698330952));
#1267=CARTESIAN_POINT('Origin',(-125.675612617667,-77.9188798229536,308.073698330952));
#1268=CARTESIAN_POINT('',(0.,0.,0.));
#1269=CARTESIAN_POINT('Origin',(0.,0.,0.));
#1270=CARTESIAN_POINT('Origin',(0.,0.,0.));
#1271=CARTESIAN_POINT('Origin',(0.,0.,0.));
#1272=CARTESIAN_POINT('Origin',(0.,0.,0.));
#1273=CARTESIAN_POINT('Origin',(0.,0.,0.));
#1274=CARTESIAN_POINT('Origin',(0.,0.,0.));
#1275=CARTESIAN_POINT('Origin',(0.,0.,0.));
#1276=CARTESIAN_POINT('Origin',(0.,0.,0.));
#1277=CARTESIAN_POINT('Origin',(0.,0.,0.));
#1278=CARTESIAN_POINT('Origin',(0.,0.,0.));
#1279=CARTESIAN_POINT('Origin',(0.,0.,0.));
#1280=CARTESIAN_POINT('Origin',(0.,0.,0.));
#1281=CARTESIAN_POINT('Origin',(0.,0.,0.));
#1282=CARTESIAN_POINT('Origin',(0.,0.,0.));
#1283=CARTESIAN_POINT('Origin',(0.,0.,0.));
#1284=CARTESIAN_POINT('Origin',(0.,0.,0.));
#1285=CARTESIAN_POINT('Origin',(0.,0.,0.));
#1286=CARTESIAN_POINT('Origin',(0.,0.,0.));
#1287=CARTESIAN_POINT('Origin',(0.,0.,0.));
#1288=UNCERTAINTY_MEASURE_WITH_UNIT(LENGTH_MEASURE(0.01),#1298,
'DISTANCE_ACCURACY_VALUE',
'Maximum model space distance between geometric entities at asserted c
onnectivities');
#1289=UNCERTAINTY_MEASURE_WITH_UNIT(LENGTH_MEASURE(0.01),#1298,
'DISTANCE_ACCURACY_VALUE',
'Maximum model space distance between geometric entities at asserted c
onnectivities');
#1290=UNCERTAINTY_MEASURE_WITH_UNIT(LENGTH_MEASURE(0.01),#1298,
'DISTANCE_ACCURACY_VALUE',
'Maximum model space distance between geometric entities at asserted c
onnectivities');
#1291=UNCERTAINTY_MEASURE_WITH_UNIT(LENGTH_MEASURE(0.01),#1298,
'DISTANCE_ACCURACY_VALUE',
'Maximum model space distance between geometric entities at asserted c
onnectivities');
#1292=UNCERTAINTY_MEASURE_WITH_UNIT(LENGTH_MEASURE(0.01),#1298,
'DISTANCE_ACCURACY_VALUE',
'Maximum model space distance between geometric entities at asserted c
onnectivities');
#1293=(
GEOMETRIC_REPRESENTATION_CONTEXT(3)
GLOBAL_UNCERTAINTY_ASSIGNED_CONTEXT((#1288))
GLOBAL_UNIT_ASSIGNED_CONTEXT((#1298,#1300,#1301))
REPRESENTATION_CONTEXT('','3D')
);
#1294=(
GEOMETRIC_REPRESENTATION_CONTEXT(3)
GLOBAL_UNCERTAINTY_ASSIGNED_CONTEXT((#1289))
GLOBAL_UNIT_ASSIGNED_CONTEXT((#1298,#1300,#1301))
REPRESENTATION_CONTEXT('','3D')
);
#1295=(
GEOMETRIC_REPRESENTATION_CONTEXT(3)
GLOBAL_UNCERTAINTY_ASSIGNED_CONTEXT((#1290))
GLOBAL_UNIT_ASSIGNED_CONTEXT((#1298,#1300,#1301))
REPRESENTATION_CONTEXT('','3D')
);
#1296=(
GEOMETRIC_REPRESENTATION_CONTEXT(3)
GLOBAL_UNCERTAINTY_ASSIGNED_CONTEXT((#1291))
GLOBAL_UNIT_ASSIGNED_CONTEXT((#1298,#1300,#1301))
REPRESENTATION_CONTEXT('','3D')
);
#1297=(
GEOMETRIC_REPRESENTATION_CONTEXT(3)
GLOBAL_UNCERTAINTY_ASSIGNED_CONTEXT((#1292))
GLOBAL_UNIT_ASSIGNED_CONTEXT((#1298,#1300,#1301))
REPRESENTATION_CONTEXT('','3D')
);
#1298=(
LENGTH_UNIT()
NAMED_UNIT(*)
SI_UNIT(.MILLI.,.METRE.)
);
#1299=(
LENGTH_UNIT()
NAMED_UNIT(*)
SI_UNIT(.CENTI.,.METRE.)
);
#1300=(
NAMED_UNIT(*)
PLANE_ANGLE_UNIT()
SI_UNIT($,.RADIAN.)
);
#1301=(
NAMED_UNIT(*)
SI_UNIT($,.STERADIAN.)
SOLID_ANGLE_UNIT()
);
#1302=SHAPE_DEFINITION_REPRESENTATION(#1306,#1313);
#1303=SHAPE_DEFINITION_REPRESENTATION(#1307,#1314);
#1304=SHAPE_DEFINITION_REPRESENTATION(#1308,#1315);
#1305=SHAPE_DEFINITION_REPRESENTATION(#1309,#1316);
#1306=PRODUCT_DEFINITION_SHAPE('',$,#1318);
#1307=PRODUCT_DEFINITION_SHAPE('',$,#1319);
#1308=PRODUCT_DEFINITION_SHAPE('',$,#1320);
#1309=PRODUCT_DEFINITION_SHAPE('',$,#1321);
#1310=PRODUCT_DEFINITION_SHAPE($,$,#116);
#1311=PRODUCT_DEFINITION_SHAPE($,$,#117);
#1312=PRODUCT_DEFINITION_SHAPE($,$,#118);
#1313=SHAPE_REPRESENTATION('',(#723,#802,#803,#804),#1293);
#1314=SHAPE_REPRESENTATION('',(#724,#181),#1294);
#1315=SHAPE_REPRESENTATION('',(#761,#182),#1295);
#1316=SHAPE_REPRESENTATION('',(#780,#183),#1296);
#1317=PRODUCT_DEFINITION_CONTEXT('part definition',#1331,'design');
#1318=PRODUCT_DEFINITION('BD40-8x50','BD40',#1322,#1317);
#1319=PRODUCT_DEFINITION('M8 Thread L50','M8 Thread L50',#1323,#1317);
#1320=PRODUCT_DEFINITION('Base50','Base50',#1324,#1317);
#1321=PRODUCT_DEFINITION('NutM8','NutM8',#1325,#1317);
#1322=PRODUCT_DEFINITION_FORMATION('',$,#1333);
#1323=PRODUCT_DEFINITION_FORMATION('',$,#1334);
#1324=PRODUCT_DEFINITION_FORMATION('',$,#1335);
#1325=PRODUCT_DEFINITION_FORMATION('',$,#1336);
#1326=PRODUCT_RELATED_PRODUCT_CATEGORY('BD40','BD40',(#1333));
#1327=PRODUCT_RELATED_PRODUCT_CATEGORY('M8 Thread L50','M8 Thread L50',
(#1334));
#1328=PRODUCT_RELATED_PRODUCT_CATEGORY('Base50','Base50',(#1335));
#1329=PRODUCT_RELATED_PRODUCT_CATEGORY('NutM8','NutM8',(#1336));
#1330=APPLICATION_PROTOCOL_DEFINITION('international standard',
'ap242_managed_model_based_3d_engineering',2011,#1331);
#1331=APPLICATION_CONTEXT('Managed model based 3d engineering');
#1332=PRODUCT_CONTEXT('part definition',#1331,'mechanical');
#1333=PRODUCT('BD40-8x50','BD40',$,(#1332));
#1334=PRODUCT('M8 Thread L50','M8 Thread L50',$,(#1332));
#1335=PRODUCT('Base50','Base50',$,(#1332));
#1336=PRODUCT('NutM8','NutM8',$,(#1332));
ENDSEC;
END-ISO-10303-21;
