ISO-10303-21;
HEADER;
/* Generated by software containing ST-Developer
 * from STEP Tools, Inc. (www.steptools.com) 
 */

FILE_DESCRIPTION(
/* description */ ('www.motedis.com/part/LP40111',
'CAx-IF Rec.Pracs.---Representation and Presentation of Product Manufa
cturing Information (PMI)---4.0---2014-10-13'),
/* implementation_level */ '2;1');

FILE_NAME(
/* name */ 'Motedis_LP40111.stp',
/* time_stamp */ '2026-07-07T12:24:42+02:00',
/* author */ ('Motedis'),
/* organization */ ('Motedis GmbH'),
/* preprocessor_version */ 'ST-DEVELOPER v20.1',
/* originating_system */ 'Autodesk Inventor 2026',
/* authorisation */ 'Motedis GmbH');

FILE_SCHEMA (('AP242_MANAGED_MODEL_BASED_3D_ENGINEERING_MIM_LF { 1 0 10303 442 2 1 4 }'));
ENDSEC;

DATA;
#10=MODEL_GEOMETRIC_VIEW('Isometric',$,#41,#35);
#11=MODEL_GEOMETRIC_VIEW('Front',$,#42,#36);
#12=MODEL_GEOMETRIC_VIEW('Top',$,#43,#37);
#13=MODEL_GEOMETRIC_VIEW('Right',$,#44,#38);
#14=MECHANICAL_DESIGN_AND_DRAUGHTING_RELATIONSHIP('[Primary]','',#33,#34);
#15=MECHANICAL_DESIGN_AND_DRAUGHTING_RELATIONSHIP('Isometric','',#35,#34);
#16=MECHANICAL_DESIGN_AND_DRAUGHTING_RELATIONSHIP('Front','',#36,#34);
#17=MECHANICAL_DESIGN_AND_DRAUGHTING_RELATIONSHIP('Top','',#37,#34);
#18=MECHANICAL_DESIGN_AND_DRAUGHTING_RELATIONSHIP('Right','',#38,#34);
#19=DEFAULT_MODEL_GEOMETRIC_VIEW('[Primary]',$,#40,#33,$,$,#781,*);
#20=MAPPED_ITEM('',#26,#495);
#21=MAPPED_ITEM('',#27,#496);
#22=MAPPED_ITEM('',#28,#497);
#23=MAPPED_ITEM('',#29,#498);
#24=MAPPED_ITEM('',#30,#499);
#25=MAPPED_ITEM('',#31,#500);
#26=REPRESENTATION_MAP(#495,#32);
#27=REPRESENTATION_MAP(#496,#782);
#28=REPRESENTATION_MAP(#497,#32);
#29=REPRESENTATION_MAP(#498,#32);
#30=REPRESENTATION_MAP(#499,#32);
#31=REPRESENTATION_MAP(#500,#32);
#32=ADVANCED_BREP_SHAPE_REPRESENTATION('[Primary]',(#57),#774);
#33=DRAUGHTING_MODEL('[Primary]',(#20,#40),#774);
#34=DRAUGHTING_MODEL('',(#21,#496),#774);
#35=DRAUGHTING_MODEL('Isometric',(#22,#41),#774);
#36=DRAUGHTING_MODEL('Front',(#23,#42),#774);
#37=DRAUGHTING_MODEL('Top',(#24,#43),#774);
#38=DRAUGHTING_MODEL('Right',(#25,#44),#774);
#39=MECHANICAL_DESIGN_GEOMETRIC_PRESENTATION_REPRESENTATION('',(#55),#775);
#40=CAMERA_MODEL_D3('[Primary]',#485,#45);
#41=CAMERA_MODEL_D3('Isometric',#487,#46);
#42=CAMERA_MODEL_D3('Front',#489,#47);
#43=CAMERA_MODEL_D3('Top',#491,#48);
#44=CAMERA_MODEL_D3('Right',#493,#49);
#45=VIEW_VOLUME(.PARALLEL.,#753,399.571927724485,0.,.F.,0.,.F.,.F.,#50);
#46=VIEW_VOLUME(.PARALLEL.,#756,10.,0.,.F.,0.,.F.,.F.,#51);
#47=VIEW_VOLUME(.PARALLEL.,#759,10.,0.,.F.,0.,.F.,.F.,#52);
#48=VIEW_VOLUME(.PARALLEL.,#762,10.,0.,.F.,0.,.F.,.F.,#53);
#49=VIEW_VOLUME(.PARALLEL.,#765,10.,0.,.F.,0.,.F.,.F.,#54);
#50=PLANAR_BOX('view window',250.837906065983,140.7270479428,#486);
#51=PLANAR_BOX('view window',199.984430520007,112.196832540132,#488);
#52=PLANAR_BOX('view window',221.390525337857,124.206247619954,#490);
#53=PLANAR_BOX('view window',23.5393802996889,13.206247619954,#492);
#54=PLANAR_BOX('view window',221.390525337857,124.206247619954,#494);
#55=STYLED_ITEM('',(#791),#57);
#56=STYLED_ITEM('',(#792),#21);
#57=MANIFOLD_SOLID_BREP('Solid2',#421);
#58=FACE_BOUND('',#98,.T.);
#59=FACE_BOUND('',#99,.T.);
#60=FACE_BOUND('',#100,.T.);
#61=FACE_BOUND('',#101,.T.);
#62=FACE_BOUND('',#102,.T.);
#63=FACE_BOUND('',#119,.T.);
#64=FACE_BOUND('',#120,.T.);
#65=FACE_BOUND('',#121,.T.);
#66=FACE_BOUND('',#122,.T.);
#67=FACE_BOUND('',#123,.T.);
#68=PLANE('',#447);
#69=PLANE('',#448);
#70=PLANE('',#461);
#71=PLANE('',#464);
#72=PLANE('',#467);
#73=PLANE('',#470);
#74=PLANE('',#483);
#75=PLANE('',#484);
#76=FACE_OUTER_BOUND('',#95,.T.);
#77=FACE_OUTER_BOUND('',#96,.T.);
#78=FACE_OUTER_BOUND('',#97,.T.);
#79=FACE_OUTER_BOUND('',#103,.T.);
#80=FACE_OUTER_BOUND('',#104,.T.);
#81=FACE_OUTER_BOUND('',#105,.T.);
#82=FACE_OUTER_BOUND('',#106,.T.);
#83=FACE_OUTER_BOUND('',#107,.T.);
#84=FACE_OUTER_BOUND('',#108,.T.);
#85=FACE_OUTER_BOUND('',#109,.T.);
#86=FACE_OUTER_BOUND('',#110,.T.);
#87=FACE_OUTER_BOUND('',#111,.T.);
#88=FACE_OUTER_BOUND('',#112,.T.);
#89=FACE_OUTER_BOUND('',#113,.T.);
#90=FACE_OUTER_BOUND('',#114,.T.);
#91=FACE_OUTER_BOUND('',#115,.T.);
#92=FACE_OUTER_BOUND('',#116,.T.);
#93=FACE_OUTER_BOUND('',#117,.T.);
#94=FACE_OUTER_BOUND('',#118,.T.);
#95=EDGE_LOOP('',(#289,#290,#291,#292));
#96=EDGE_LOOP('',(#293,#294,#295,#296));
#97=EDGE_LOOP('',(#297,#298,#299,#300,#301,#302,#303,#304,#305,#306,#307,
#308));
#98=EDGE_LOOP('',(#309));
#99=EDGE_LOOP('',(#310));
#100=EDGE_LOOP('',(#311));
#101=EDGE_LOOP('',(#312));
#102=EDGE_LOOP('',(#313));
#103=EDGE_LOOP('',(#314,#315,#316,#317));
#104=EDGE_LOOP('',(#318,#319,#320,#321));
#105=EDGE_LOOP('',(#322,#323,#324,#325));
#106=EDGE_LOOP('',(#326,#327,#328,#329));
#107=EDGE_LOOP('',(#330,#331,#332,#333));
#108=EDGE_LOOP('',(#334,#335,#336,#337));
#109=EDGE_LOOP('',(#338,#339,#340,#341));
#110=EDGE_LOOP('',(#342,#343,#344,#345));
#111=EDGE_LOOP('',(#346,#347,#348,#349));
#112=EDGE_LOOP('',(#350,#351,#352,#353));
#113=EDGE_LOOP('',(#354,#355,#356,#357));
#114=EDGE_LOOP('',(#358,#359,#360,#361));
#115=EDGE_LOOP('',(#362,#363,#364,#365));
#116=EDGE_LOOP('',(#366,#367,#368,#369));
#117=EDGE_LOOP('',(#370,#371,#372,#373));
#118=EDGE_LOOP('',(#374,#375,#376,#377,#378,#379,#380,#381,#382,#383,#384,
#385));
#119=EDGE_LOOP('',(#386));
#120=EDGE_LOOP('',(#387));
#121=EDGE_LOOP('',(#388));
#122=EDGE_LOOP('',(#389));
#123=EDGE_LOOP('',(#390));
#124=LINE('',#652,#153);
#125=LINE('',#655,#154);
#126=LINE('',#658,#155);
#127=LINE('',#660,#156);
#128=LINE('',#661,#157);
#129=LINE('',#664,#158);
#130=LINE('',#668,#159);
#131=LINE('',#672,#160);
#132=LINE('',#676,#161);
#133=LINE('',#680,#162);
#134=LINE('',#695,#163);
#135=LINE('',#698,#164);
#136=LINE('',#699,#165);
#137=LINE('',#703,#166);
#138=LINE('',#706,#167);
#139=LINE('',#707,#168);
#140=LINE('',#711,#169);
#141=LINE('',#714,#170);
#142=LINE('',#715,#171);
#143=LINE('',#719,#172);
#144=LINE('',#722,#173);
#145=LINE('',#723,#174);
#146=LINE('',#727,#175);
#147=LINE('',#730,#176);
#148=LINE('',#734,#177);
#149=LINE('',#738,#178);
#150=LINE('',#742,#179);
#151=LINE('',#746,#180);
#152=LINE('',#749,#181);
#153=VECTOR('',#507,10.);
#154=VECTOR('',#510,10.);
#155=VECTOR('',#513,10.);
#156=VECTOR('',#514,10.);
#157=VECTOR('',#515,10.);
#158=VECTOR('',#518,10.);
#159=VECTOR('',#521,10.);
#160=VECTOR('',#524,10.);
#161=VECTOR('',#527,10.);
#162=VECTOR('',#530,10.);
#163=VECTOR('',#547,10.);
#164=VECTOR('',#550,10.);
#165=VECTOR('',#551,10.);
#166=VECTOR('',#556,10.);
#167=VECTOR('',#559,10.);
#168=VECTOR('',#560,10.);
#169=VECTOR('',#565,10.);
#170=VECTOR('',#568,10.);
#171=VECTOR('',#569,10.);
#172=VECTOR('',#574,10.);
#173=VECTOR('',#577,10.);
#174=VECTOR('',#578,10.);
#175=VECTOR('',#583,10.);
#176=VECTOR('',#586,4.25);
#177=VECTOR('',#591,4.25);
#178=VECTOR('',#596,4.25);
#179=VECTOR('',#601,4.25);
#180=VECTOR('',#606,4.25);
#181=VECTOR('',#611,10.);
#182=CIRCLE('',#445,2.);
#183=CIRCLE('',#446,2.);
#184=CIRCLE('',#449,2.);
#185=CIRCLE('',#450,2.);
#186=CIRCLE('',#451,2.);
#187=CIRCLE('',#452,2.);
#188=CIRCLE('',#453,2.);
#189=CIRCLE('',#454,4.25);
#190=CIRCLE('',#455,4.25);
#191=CIRCLE('',#456,4.25);
#192=CIRCLE('',#457,4.25);
#193=CIRCLE('',#458,4.25);
#194=CIRCLE('',#460,2.);
#195=CIRCLE('',#463,2.);
#196=CIRCLE('',#466,2.);
#197=CIRCLE('',#469,2.);
#198=CIRCLE('',#472,2.);
#199=CIRCLE('',#474,4.25);
#200=CIRCLE('',#476,4.25);
#201=CIRCLE('',#478,4.25);
#202=CIRCLE('',#480,4.25);
#203=CIRCLE('',#482,4.25);
#204=VERTEX_POINT('',#648);
#205=VERTEX_POINT('',#649);
#206=VERTEX_POINT('',#651);
#207=VERTEX_POINT('',#653);
#208=VERTEX_POINT('',#657);
#209=VERTEX_POINT('',#659);
#210=VERTEX_POINT('',#663);
#211=VERTEX_POINT('',#665);
#212=VERTEX_POINT('',#667);
#213=VERTEX_POINT('',#669);
#214=VERTEX_POINT('',#671);
#215=VERTEX_POINT('',#673);
#216=VERTEX_POINT('',#675);
#217=VERTEX_POINT('',#677);
#218=VERTEX_POINT('',#679);
#219=VERTEX_POINT('',#682);
#220=VERTEX_POINT('',#684);
#221=VERTEX_POINT('',#686);
#222=VERTEX_POINT('',#688);
#223=VERTEX_POINT('',#690);
#224=VERTEX_POINT('',#693);
#225=VERTEX_POINT('',#697);
#226=VERTEX_POINT('',#701);
#227=VERTEX_POINT('',#705);
#228=VERTEX_POINT('',#709);
#229=VERTEX_POINT('',#713);
#230=VERTEX_POINT('',#717);
#231=VERTEX_POINT('',#721);
#232=VERTEX_POINT('',#725);
#233=VERTEX_POINT('',#729);
#234=VERTEX_POINT('',#733);
#235=VERTEX_POINT('',#737);
#236=VERTEX_POINT('',#741);
#237=VERTEX_POINT('',#745);
#238=EDGE_CURVE('',#204,#205,#182,.T.);
#239=EDGE_CURVE('',#205,#206,#124,.T.);
#240=EDGE_CURVE('',#206,#207,#183,.T.);
#241=EDGE_CURVE('',#207,#204,#125,.T.);
#242=EDGE_CURVE('',#207,#208,#126,.T.);
#243=EDGE_CURVE('',#209,#208,#127,.T.);
#244=EDGE_CURVE('',#204,#209,#128,.T.);
#245=EDGE_CURVE('',#210,#206,#129,.T.);
#246=EDGE_CURVE('',#211,#210,#184,.T.);
#247=EDGE_CURVE('',#212,#211,#130,.T.);
#248=EDGE_CURVE('',#213,#212,#185,.T.);
#249=EDGE_CURVE('',#214,#213,#131,.T.);
#250=EDGE_CURVE('',#215,#214,#186,.T.);
#251=EDGE_CURVE('',#216,#215,#132,.T.);
#252=EDGE_CURVE('',#217,#216,#187,.T.);
#253=EDGE_CURVE('',#218,#217,#133,.T.);
#254=EDGE_CURVE('',#208,#218,#188,.T.);
#255=EDGE_CURVE('',#219,#219,#189,.T.);
#256=EDGE_CURVE('',#220,#220,#190,.T.);
#257=EDGE_CURVE('',#221,#221,#191,.T.);
#258=EDGE_CURVE('',#222,#222,#192,.T.);
#259=EDGE_CURVE('',#223,#223,#193,.T.);
#260=EDGE_CURVE('',#224,#209,#194,.T.);
#261=EDGE_CURVE('',#218,#224,#134,.T.);
#262=EDGE_CURVE('',#225,#217,#135,.T.);
#263=EDGE_CURVE('',#224,#225,#136,.T.);
#264=EDGE_CURVE('',#226,#225,#195,.T.);
#265=EDGE_CURVE('',#216,#226,#137,.T.);
#266=EDGE_CURVE('',#227,#215,#138,.T.);
#267=EDGE_CURVE('',#226,#227,#139,.T.);
#268=EDGE_CURVE('',#228,#227,#196,.T.);
#269=EDGE_CURVE('',#214,#228,#140,.T.);
#270=EDGE_CURVE('',#229,#213,#141,.T.);
#271=EDGE_CURVE('',#228,#229,#142,.T.);
#272=EDGE_CURVE('',#230,#229,#197,.T.);
#273=EDGE_CURVE('',#212,#230,#143,.T.);
#274=EDGE_CURVE('',#231,#211,#144,.T.);
#275=EDGE_CURVE('',#230,#231,#145,.T.);
#276=EDGE_CURVE('',#232,#231,#198,.T.);
#277=EDGE_CURVE('',#210,#232,#146,.T.);
#278=EDGE_CURVE('',#223,#233,#147,.T.);
#279=EDGE_CURVE('',#233,#233,#199,.T.);
#280=EDGE_CURVE('',#222,#234,#148,.T.);
#281=EDGE_CURVE('',#234,#234,#200,.T.);
#282=EDGE_CURVE('',#221,#235,#149,.T.);
#283=EDGE_CURVE('',#235,#235,#201,.T.);
#284=EDGE_CURVE('',#220,#236,#150,.T.);
#285=EDGE_CURVE('',#236,#236,#202,.T.);
#286=EDGE_CURVE('',#219,#237,#151,.T.);
#287=EDGE_CURVE('',#237,#237,#203,.T.);
#288=EDGE_CURVE('',#232,#205,#152,.T.);
#289=ORIENTED_EDGE('',*,*,#238,.T.);
#290=ORIENTED_EDGE('',*,*,#239,.T.);
#291=ORIENTED_EDGE('',*,*,#240,.T.);
#292=ORIENTED_EDGE('',*,*,#241,.T.);
#293=ORIENTED_EDGE('',*,*,#241,.F.);
#294=ORIENTED_EDGE('',*,*,#242,.T.);
#295=ORIENTED_EDGE('',*,*,#243,.F.);
#296=ORIENTED_EDGE('',*,*,#244,.F.);
#297=ORIENTED_EDGE('',*,*,#240,.F.);
#298=ORIENTED_EDGE('',*,*,#245,.F.);
#299=ORIENTED_EDGE('',*,*,#246,.F.);
#300=ORIENTED_EDGE('',*,*,#247,.F.);
#301=ORIENTED_EDGE('',*,*,#248,.F.);
#302=ORIENTED_EDGE('',*,*,#249,.F.);
#303=ORIENTED_EDGE('',*,*,#250,.F.);
#304=ORIENTED_EDGE('',*,*,#251,.F.);
#305=ORIENTED_EDGE('',*,*,#252,.F.);
#306=ORIENTED_EDGE('',*,*,#253,.F.);
#307=ORIENTED_EDGE('',*,*,#254,.F.);
#308=ORIENTED_EDGE('',*,*,#242,.F.);
#309=ORIENTED_EDGE('',*,*,#255,.F.);
#310=ORIENTED_EDGE('',*,*,#256,.F.);
#311=ORIENTED_EDGE('',*,*,#257,.F.);
#312=ORIENTED_EDGE('',*,*,#258,.F.);
#313=ORIENTED_EDGE('',*,*,#259,.F.);
#314=ORIENTED_EDGE('',*,*,#260,.T.);
#315=ORIENTED_EDGE('',*,*,#243,.T.);
#316=ORIENTED_EDGE('',*,*,#254,.T.);
#317=ORIENTED_EDGE('',*,*,#261,.T.);
#318=ORIENTED_EDGE('',*,*,#261,.F.);
#319=ORIENTED_EDGE('',*,*,#253,.T.);
#320=ORIENTED_EDGE('',*,*,#262,.F.);
#321=ORIENTED_EDGE('',*,*,#263,.F.);
#322=ORIENTED_EDGE('',*,*,#264,.T.);
#323=ORIENTED_EDGE('',*,*,#262,.T.);
#324=ORIENTED_EDGE('',*,*,#252,.T.);
#325=ORIENTED_EDGE('',*,*,#265,.T.);
#326=ORIENTED_EDGE('',*,*,#265,.F.);
#327=ORIENTED_EDGE('',*,*,#251,.T.);
#328=ORIENTED_EDGE('',*,*,#266,.F.);
#329=ORIENTED_EDGE('',*,*,#267,.F.);
#330=ORIENTED_EDGE('',*,*,#268,.T.);
#331=ORIENTED_EDGE('',*,*,#266,.T.);
#332=ORIENTED_EDGE('',*,*,#250,.T.);
#333=ORIENTED_EDGE('',*,*,#269,.T.);
#334=ORIENTED_EDGE('',*,*,#269,.F.);
#335=ORIENTED_EDGE('',*,*,#249,.T.);
#336=ORIENTED_EDGE('',*,*,#270,.F.);
#337=ORIENTED_EDGE('',*,*,#271,.F.);
#338=ORIENTED_EDGE('',*,*,#272,.T.);
#339=ORIENTED_EDGE('',*,*,#270,.T.);
#340=ORIENTED_EDGE('',*,*,#248,.T.);
#341=ORIENTED_EDGE('',*,*,#273,.T.);
#342=ORIENTED_EDGE('',*,*,#273,.F.);
#343=ORIENTED_EDGE('',*,*,#247,.T.);
#344=ORIENTED_EDGE('',*,*,#274,.F.);
#345=ORIENTED_EDGE('',*,*,#275,.F.);
#346=ORIENTED_EDGE('',*,*,#276,.T.);
#347=ORIENTED_EDGE('',*,*,#274,.T.);
#348=ORIENTED_EDGE('',*,*,#246,.T.);
#349=ORIENTED_EDGE('',*,*,#277,.T.);
#350=ORIENTED_EDGE('',*,*,#259,.T.);
#351=ORIENTED_EDGE('',*,*,#278,.T.);
#352=ORIENTED_EDGE('',*,*,#279,.F.);
#353=ORIENTED_EDGE('',*,*,#278,.F.);
#354=ORIENTED_EDGE('',*,*,#258,.T.);
#355=ORIENTED_EDGE('',*,*,#280,.T.);
#356=ORIENTED_EDGE('',*,*,#281,.F.);
#357=ORIENTED_EDGE('',*,*,#280,.F.);
#358=ORIENTED_EDGE('',*,*,#257,.T.);
#359=ORIENTED_EDGE('',*,*,#282,.T.);
#360=ORIENTED_EDGE('',*,*,#283,.F.);
#361=ORIENTED_EDGE('',*,*,#282,.F.);
#362=ORIENTED_EDGE('',*,*,#256,.T.);
#363=ORIENTED_EDGE('',*,*,#284,.T.);
#364=ORIENTED_EDGE('',*,*,#285,.F.);
#365=ORIENTED_EDGE('',*,*,#284,.F.);
#366=ORIENTED_EDGE('',*,*,#255,.T.);
#367=ORIENTED_EDGE('',*,*,#286,.T.);
#368=ORIENTED_EDGE('',*,*,#287,.F.);
#369=ORIENTED_EDGE('',*,*,#286,.F.);
#370=ORIENTED_EDGE('',*,*,#239,.F.);
#371=ORIENTED_EDGE('',*,*,#288,.F.);
#372=ORIENTED_EDGE('',*,*,#277,.F.);
#373=ORIENTED_EDGE('',*,*,#245,.T.);
#374=ORIENTED_EDGE('',*,*,#238,.F.);
#375=ORIENTED_EDGE('',*,*,#244,.T.);
#376=ORIENTED_EDGE('',*,*,#260,.F.);
#377=ORIENTED_EDGE('',*,*,#263,.T.);
#378=ORIENTED_EDGE('',*,*,#264,.F.);
#379=ORIENTED_EDGE('',*,*,#267,.T.);
#380=ORIENTED_EDGE('',*,*,#268,.F.);
#381=ORIENTED_EDGE('',*,*,#271,.T.);
#382=ORIENTED_EDGE('',*,*,#272,.F.);
#383=ORIENTED_EDGE('',*,*,#275,.T.);
#384=ORIENTED_EDGE('',*,*,#276,.F.);
#385=ORIENTED_EDGE('',*,*,#288,.T.);
#386=ORIENTED_EDGE('',*,*,#287,.T.);
#387=ORIENTED_EDGE('',*,*,#285,.T.);
#388=ORIENTED_EDGE('',*,*,#283,.T.);
#389=ORIENTED_EDGE('',*,*,#281,.T.);
#390=ORIENTED_EDGE('',*,*,#279,.T.);
#391=CYLINDRICAL_SURFACE('',#444,2.);
#392=CYLINDRICAL_SURFACE('',#459,2.);
#393=CYLINDRICAL_SURFACE('',#462,2.);
#394=CYLINDRICAL_SURFACE('',#465,2.);
#395=CYLINDRICAL_SURFACE('',#468,2.);
#396=CYLINDRICAL_SURFACE('',#471,2.);
#397=CYLINDRICAL_SURFACE('',#473,4.25);
#398=CYLINDRICAL_SURFACE('',#475,4.25);
#399=CYLINDRICAL_SURFACE('',#477,4.25);
#400=CYLINDRICAL_SURFACE('',#479,4.25);
#401=CYLINDRICAL_SURFACE('',#481,4.25);
#402=ADVANCED_FACE('',(#76),#391,.T.);
#403=ADVANCED_FACE('',(#77),#68,.T.);
#404=ADVANCED_FACE('',(#78,#58,#59,#60,#61,#62),#69,.F.);
#405=ADVANCED_FACE('',(#79),#392,.T.);
#406=ADVANCED_FACE('',(#80),#70,.T.);
#407=ADVANCED_FACE('',(#81),#393,.T.);
#408=ADVANCED_FACE('',(#82),#71,.T.);
#409=ADVANCED_FACE('',(#83),#394,.T.);
#410=ADVANCED_FACE('',(#84),#72,.T.);
#411=ADVANCED_FACE('',(#85),#395,.T.);
#412=ADVANCED_FACE('',(#86),#73,.T.);
#413=ADVANCED_FACE('',(#87),#396,.T.);
#414=ADVANCED_FACE('',(#88),#397,.F.);
#415=ADVANCED_FACE('',(#89),#398,.F.);
#416=ADVANCED_FACE('',(#90),#399,.F.);
#417=ADVANCED_FACE('',(#91),#400,.F.);
#418=ADVANCED_FACE('',(#92),#401,.F.);
#419=ADVANCED_FACE('',(#93),#74,.T.);
#420=ADVANCED_FACE('',(#94,#63,#64,#65,#66,#67),#75,.T.);
#421=CLOSED_SHELL('',(#402,#403,#404,#405,#406,#407,#408,#409,#410,#411,
#412,#413,#414,#415,#416,#417,#418,#419,#420));
#422=DERIVED_UNIT_ELEMENT(#425,1.);
#423=DERIVED_UNIT_ELEMENT(#777,-3.);
#424=DIMENSIONAL_EXPONENTS(0.,1.,0.,0.,0.,0.,0.);
#425=(
CONVERSION_BASED_UNIT('gram',#427)
MASS_UNIT()
NAMED_UNIT(#424)
);
#426=(
MASS_UNIT()
NAMED_UNIT(*)
SI_UNIT(.KILO.,.GRAM.)
);
#427=MASS_MEASURE_WITH_UNIT(MASS_MEASURE(0.001),#426);
#428=DERIVED_UNIT((#422,#423));
#429=MEASURE_REPRESENTATION_ITEM('density measure',
POSITIVE_RATIO_MEASURE(1.),#428);
#430=PROPERTY_DEFINITION_REPRESENTATION(#435,#432);
#431=PROPERTY_DEFINITION_REPRESENTATION(#436,#433);
#432=REPRESENTATION('material name',(#434),#774);
#433=REPRESENTATION('density',(#429),#774);
#434=DESCRIPTIVE_REPRESENTATION_ITEM('Generic','Generic');
#435=PROPERTY_DEFINITION('material property','material name',#784);
#436=PROPERTY_DEFINITION('material property','density of part',#784);
#437=DATE_TIME_ROLE('creation_date');
#438=APPLIED_DATE_AND_TIME_ASSIGNMENT(#439,#437,(#784));
#439=DATE_AND_TIME(#440,#441);
#440=CALENDAR_DATE(2024,2,4);
#441=LOCAL_TIME(16,23,39.,#442);
#442=COORDINATED_UNIVERSAL_TIME_OFFSET(0,0,.BEHIND.);
#443=AXIS2_PLACEMENT_3D('',#646,#501,#502);
#444=AXIS2_PLACEMENT_3D('',#647,#503,#504);
#445=AXIS2_PLACEMENT_3D('',#650,#505,#506);
#446=AXIS2_PLACEMENT_3D('',#654,#508,#509);
#447=AXIS2_PLACEMENT_3D('',#656,#511,#512);
#448=AXIS2_PLACEMENT_3D('',#662,#516,#517);
#449=AXIS2_PLACEMENT_3D('',#666,#519,#520);
#450=AXIS2_PLACEMENT_3D('',#670,#522,#523);
#451=AXIS2_PLACEMENT_3D('',#674,#525,#526);
#452=AXIS2_PLACEMENT_3D('',#678,#528,#529);
#453=AXIS2_PLACEMENT_3D('',#681,#531,#532);
#454=AXIS2_PLACEMENT_3D('',#683,#533,#534);
#455=AXIS2_PLACEMENT_3D('',#685,#535,#536);
#456=AXIS2_PLACEMENT_3D('',#687,#537,#538);
#457=AXIS2_PLACEMENT_3D('',#689,#539,#540);
#458=AXIS2_PLACEMENT_3D('',#691,#541,#542);
#459=AXIS2_PLACEMENT_3D('',#692,#543,#544);
#460=AXIS2_PLACEMENT_3D('',#694,#545,#546);
#461=AXIS2_PLACEMENT_3D('',#696,#548,#549);
#462=AXIS2_PLACEMENT_3D('',#700,#552,#553);
#463=AXIS2_PLACEMENT_3D('',#702,#554,#555);
#464=AXIS2_PLACEMENT_3D('',#704,#557,#558);
#465=AXIS2_PLACEMENT_3D('',#708,#561,#562);
#466=AXIS2_PLACEMENT_3D('',#710,#563,#564);
#467=AXIS2_PLACEMENT_3D('',#712,#566,#567);
#468=AXIS2_PLACEMENT_3D('',#716,#570,#571);
#469=AXIS2_PLACEMENT_3D('',#718,#572,#573);
#470=AXIS2_PLACEMENT_3D('',#720,#575,#576);
#471=AXIS2_PLACEMENT_3D('',#724,#579,#580);
#472=AXIS2_PLACEMENT_3D('',#726,#581,#582);
#473=AXIS2_PLACEMENT_3D('',#728,#584,#585);
#474=AXIS2_PLACEMENT_3D('',#731,#587,#588);
#475=AXIS2_PLACEMENT_3D('',#732,#589,#590);
#476=AXIS2_PLACEMENT_3D('',#735,#592,#593);
#477=AXIS2_PLACEMENT_3D('',#736,#594,#595);
#478=AXIS2_PLACEMENT_3D('',#739,#597,#598);
#479=AXIS2_PLACEMENT_3D('',#740,#599,#600);
#480=AXIS2_PLACEMENT_3D('',#743,#602,#603);
#481=AXIS2_PLACEMENT_3D('',#744,#604,#605);
#482=AXIS2_PLACEMENT_3D('',#747,#607,#608);
#483=AXIS2_PLACEMENT_3D('',#748,#609,#610);
#484=AXIS2_PLACEMENT_3D('',#750,#612,#613);
#485=AXIS2_PLACEMENT_3D('view reference',#751,#614,#615);
#486=AXIS2_PLACEMENT_3D('view window',#752,#616,#617);
#487=AXIS2_PLACEMENT_3D('view reference',#754,#618,#619);
#488=AXIS2_PLACEMENT_3D('view window',#755,#620,#621);
#489=AXIS2_PLACEMENT_3D('view reference',#757,#622,#623);
#490=AXIS2_PLACEMENT_3D('view window',#758,#624,#625);
#491=AXIS2_PLACEMENT_3D('view reference',#760,#626,#627);
#492=AXIS2_PLACEMENT_3D('view window',#761,#628,#629);
#493=AXIS2_PLACEMENT_3D('view reference',#763,#630,#631);
#494=AXIS2_PLACEMENT_3D('view window',#764,#632,#633);
#495=AXIS2_PLACEMENT_3D('',#766,#634,#635);
#496=AXIS2_PLACEMENT_3D('',#767,#636,#637);
#497=AXIS2_PLACEMENT_3D('',#768,#638,#639);
#498=AXIS2_PLACEMENT_3D('',#769,#640,#641);
#499=AXIS2_PLACEMENT_3D('',#770,#642,#643);
#500=AXIS2_PLACEMENT_3D('',#771,#644,#645);
#501=DIRECTION('axis',(0.,0.,1.));
#502=DIRECTION('refdir',(1.,0.,0.));
#503=DIRECTION('center_axis',(0.,0.,1.));
#504=DIRECTION('ref_axis',(-0.525731112119134,0.85065080835204,0.));
#505=DIRECTION('center_axis',(0.,0.,-1.));
#506=DIRECTION('ref_axis',(-0.525731112119134,0.85065080835204,0.));
#507=DIRECTION('',(0.,0.,-1.));
#508=DIRECTION('center_axis',(0.,0.,1.));
#509=DIRECTION('ref_axis',(-0.525731112119134,0.85065080835204,0.));
#510=DIRECTION('',(0.,0.,1.));
#511=DIRECTION('center_axis',(-0.894427190999916,0.447213595499958,0.));
#512=DIRECTION('ref_axis',(-0.447213595499958,-0.894427190999916,0.));
#513=DIRECTION('',(-0.447213595499958,-0.894427190999916,0.));
#514=DIRECTION('',(0.,0.,-1.));
#515=DIRECTION('',(-0.447213595499958,-0.894427190999916,0.));
#516=DIRECTION('center_axis',(0.,0.,1.));
#517=DIRECTION('ref_axis',(1.,0.,0.));
#518=DIRECTION('',(-1.,0.,0.));
#519=DIRECTION('center_axis',(0.,0.,1.));
#520=DIRECTION('ref_axis',(0.52573111211914,0.850650808352036,0.));
#521=DIRECTION('',(-0.447213595499958,0.894427190999916,0.));
#522=DIRECTION('center_axis',(0.,0.,1.));
#523=DIRECTION('ref_axis',(0.97324898946773,0.229752920547362,0.));
#524=DIRECTION('',(0.,1.,0.));
#525=DIRECTION('center_axis',(0.,0.,1.));
#526=DIRECTION('ref_axis',(0.707106781186546,-0.707106781186549,0.));
#527=DIRECTION('',(1.,0.,0.));
#528=DIRECTION('center_axis',(0.,0.,1.));
#529=DIRECTION('ref_axis',(-0.707106781186548,-0.707106781186547,0.));
#530=DIRECTION('',(0.,-1.,0.));
#531=DIRECTION('center_axis',(0.,0.,1.));
#532=DIRECTION('ref_axis',(-0.973248989467731,0.22975292054736,0.));
#533=DIRECTION('center_axis',(0.,0.,-1.));
#534=DIRECTION('ref_axis',(-1.,0.,0.));
#535=DIRECTION('center_axis',(0.,0.,-1.));
#536=DIRECTION('ref_axis',(-1.,0.,0.));
#537=DIRECTION('center_axis',(0.,0.,-1.));
#538=DIRECTION('ref_axis',(-1.,0.,0.));
#539=DIRECTION('center_axis',(0.,0.,-1.));
#540=DIRECTION('ref_axis',(-1.,0.,0.));
#541=DIRECTION('center_axis',(0.,0.,-1.));
#542=DIRECTION('ref_axis',(-1.,0.,0.));
#543=DIRECTION('center_axis',(0.,0.,1.));
#544=DIRECTION('ref_axis',(-0.973248989467731,0.22975292054736,0.));
#545=DIRECTION('center_axis',(0.,0.,-1.));
#546=DIRECTION('ref_axis',(-0.973248989467731,0.22975292054736,0.));
#547=DIRECTION('',(0.,0.,1.));
#548=DIRECTION('center_axis',(-1.,0.,0.));
#549=DIRECTION('ref_axis',(0.,-1.,0.));
#550=DIRECTION('',(0.,0.,-1.));
#551=DIRECTION('',(0.,-1.,0.));
#552=DIRECTION('center_axis',(0.,0.,1.));
#553=DIRECTION('ref_axis',(-0.707106781186548,-0.707106781186547,0.));
#554=DIRECTION('center_axis',(0.,0.,-1.));
#555=DIRECTION('ref_axis',(-0.707106781186548,-0.707106781186547,0.));
#556=DIRECTION('',(0.,0.,1.));
#557=DIRECTION('center_axis',(0.,-1.,0.));
#558=DIRECTION('ref_axis',(1.,0.,0.));
#559=DIRECTION('',(0.,0.,-1.));
#560=DIRECTION('',(1.,0.,0.));
#561=DIRECTION('center_axis',(0.,0.,1.));
#562=DIRECTION('ref_axis',(0.707106781186546,-0.707106781186549,0.));
#563=DIRECTION('center_axis',(0.,0.,-1.));
#564=DIRECTION('ref_axis',(0.707106781186546,-0.707106781186549,0.));
#565=DIRECTION('',(0.,0.,1.));
#566=DIRECTION('center_axis',(1.,0.,0.));
#567=DIRECTION('ref_axis',(0.,1.,0.));
#568=DIRECTION('',(0.,0.,-1.));
#569=DIRECTION('',(0.,1.,0.));
#570=DIRECTION('center_axis',(0.,0.,1.));
#571=DIRECTION('ref_axis',(0.97324898946773,0.229752920547362,0.));
#572=DIRECTION('center_axis',(0.,0.,-1.));
#573=DIRECTION('ref_axis',(0.97324898946773,0.229752920547362,0.));
#574=DIRECTION('',(0.,0.,1.));
#575=DIRECTION('center_axis',(0.894427190999916,0.447213595499958,0.));
#576=DIRECTION('ref_axis',(-0.447213595499958,0.894427190999916,0.));
#577=DIRECTION('',(0.,0.,-1.));
#578=DIRECTION('',(-0.447213595499958,0.894427190999916,0.));
#579=DIRECTION('center_axis',(0.,0.,1.));
#580=DIRECTION('ref_axis',(0.52573111211914,0.850650808352036,0.));
#581=DIRECTION('center_axis',(0.,0.,-1.));
#582=DIRECTION('ref_axis',(0.52573111211914,0.850650808352036,0.));
#583=DIRECTION('',(0.,0.,1.));
#584=DIRECTION('center_axis',(0.,0.,1.));
#585=DIRECTION('ref_axis',(-1.,0.,0.));
#586=DIRECTION('',(0.,0.,1.));
#587=DIRECTION('center_axis',(0.,0.,-1.));
#588=DIRECTION('ref_axis',(-1.,0.,0.));
#589=DIRECTION('center_axis',(0.,0.,1.));
#590=DIRECTION('ref_axis',(-1.,0.,0.));
#591=DIRECTION('',(0.,0.,1.));
#592=DIRECTION('center_axis',(0.,0.,-1.));
#593=DIRECTION('ref_axis',(-1.,0.,0.));
#594=DIRECTION('center_axis',(0.,0.,1.));
#595=DIRECTION('ref_axis',(-1.,0.,0.));
#596=DIRECTION('',(0.,0.,1.));
#597=DIRECTION('center_axis',(0.,0.,-1.));
#598=DIRECTION('ref_axis',(-1.,0.,0.));
#599=DIRECTION('center_axis',(0.,0.,1.));
#600=DIRECTION('ref_axis',(-1.,0.,0.));
#601=DIRECTION('',(0.,0.,1.));
#602=DIRECTION('center_axis',(0.,0.,-1.));
#603=DIRECTION('ref_axis',(-1.,0.,0.));
#604=DIRECTION('center_axis',(0.,0.,1.));
#605=DIRECTION('ref_axis',(-1.,0.,0.));
#606=DIRECTION('',(0.,0.,1.));
#607=DIRECTION('center_axis',(0.,0.,-1.));
#608=DIRECTION('ref_axis',(-1.,0.,0.));
#609=DIRECTION('center_axis',(0.,1.,0.));
#610=DIRECTION('ref_axis',(-1.,0.,0.));
#611=DIRECTION('',(-1.,0.,0.));
#612=DIRECTION('center_axis',(0.,0.,1.));
#613=DIRECTION('ref_axis',(1.,0.,0.));
#614=DIRECTION('center_axis',(-0.577350269189626,-0.577350269189626,-0.577350269189626));
#615=DIRECTION('ref_axis',(-0.707106781186548,-1.38777878078145E-16,0.707106781186547));
#616=DIRECTION('center_axis',(0.,0.,1.));
#617=DIRECTION('ref_axis',(1.,0.,0.));
#618=DIRECTION('center_axis',(-0.577350269189626,0.577350269189626,-0.577350269189626));
#619=DIRECTION('ref_axis',(-0.707106781186547,-0.707106781186548,-1.38777878078145E-16));
#620=DIRECTION('center_axis',(0.,0.,1.));
#621=DIRECTION('ref_axis',(1.,0.,0.));
#622=DIRECTION('center_axis',(0.,0.,-1.));
#623=DIRECTION('ref_axis',(-1.,8.32667268468867E-17,0.));
#624=DIRECTION('center_axis',(0.,0.,1.));
#625=DIRECTION('ref_axis',(1.,0.,0.));
#626=DIRECTION('center_axis',(0.,-1.,0.));
#627=DIRECTION('ref_axis',(-1.,0.,1.73472347597681E-18));
#628=DIRECTION('center_axis',(0.,0.,1.));
#629=DIRECTION('ref_axis',(1.,0.,0.));
#630=DIRECTION('center_axis',(-1.,0.,0.));
#631=DIRECTION('ref_axis',(0.,1.73472347597681E-18,1.));
#632=DIRECTION('center_axis',(0.,0.,1.));
#633=DIRECTION('ref_axis',(1.,0.,0.));
#634=DIRECTION('center_axis',(0.,0.,1.));
#635=DIRECTION('ref_axis',(1.,0.,0.));
#636=DIRECTION('center_axis',(0.,0.,1.));
#637=DIRECTION('ref_axis',(1.,0.,0.));
#638=DIRECTION('center_axis',(0.,0.,1.));
#639=DIRECTION('ref_axis',(1.,0.,0.));
#640=DIRECTION('center_axis',(0.,0.,1.));
#641=DIRECTION('ref_axis',(1.,0.,0.));
#642=DIRECTION('center_axis',(0.,0.,1.));
#643=DIRECTION('ref_axis',(1.,0.,0.));
#644=DIRECTION('center_axis',(0.,0.,1.));
#645=DIRECTION('ref_axis',(1.,0.,0.));
#646=CARTESIAN_POINT('',(0.,0.,0.));
#647=CARTESIAN_POINT('Origin',(39.2360679774998,114.,0.));
#648=CARTESIAN_POINT('',(37.4472135955,114.894427191,5.));
#649=CARTESIAN_POINT('',(39.2360679774998,116.,5.));
#650=CARTESIAN_POINT('Origin',(39.2360679774998,114.,5.));
#651=CARTESIAN_POINT('',(39.2360679774998,116.,0.));
#652=CARTESIAN_POINT('',(39.2360679774998,116.,0.));
#653=CARTESIAN_POINT('',(37.4472135955,114.894427191,0.));
#654=CARTESIAN_POINT('Origin',(39.2360679774998,114.,0.));
#655=CARTESIAN_POINT('',(37.4472135955,114.894427191,0.));
#656=CARTESIAN_POINT('Origin',(38.,116.,0.));
#657=CARTESIAN_POINT('',(0.21114561800017,40.4222912360003,0.));
#658=CARTESIAN_POINT('',(38.,116.,0.));
#659=CARTESIAN_POINT('',(0.21114561800017,40.4222912360003,5.));
#660=CARTESIAN_POINT('',(0.211145618000166,40.4222912360003,0.));
#661=CARTESIAN_POINT('',(38.,116.,5.));
#662=CARTESIAN_POINT('Origin',(58.,58.,0.));
#663=CARTESIAN_POINT('',(76.7639320225002,116.,0.));
#664=CARTESIAN_POINT('',(78.,116.,0.));
#665=CARTESIAN_POINT('',(78.5527864045,114.894427191,0.));
#666=CARTESIAN_POINT('Origin',(76.7639320225002,114.,0.));
#667=CARTESIAN_POINT('',(115.788854382,40.4222912360003,0.));
#668=CARTESIAN_POINT('',(116.,40.,0.));
#669=CARTESIAN_POINT('',(116.,39.5278640450004,0.));
#670=CARTESIAN_POINT('Origin',(114.,39.5278640450004,0.));
#671=CARTESIAN_POINT('',(116.,2.,0.));
#672=CARTESIAN_POINT('',(116.,0.,0.));
#673=CARTESIAN_POINT('',(114.,0.,0.));
#674=CARTESIAN_POINT('Origin',(114.,2.,0.));
#675=CARTESIAN_POINT('',(2.,0.,0.));
#676=CARTESIAN_POINT('',(0.,0.,0.));
#677=CARTESIAN_POINT('',(0.,2.,0.));
#678=CARTESIAN_POINT('Origin',(2.,2.,0.));
#679=CARTESIAN_POINT('',(0.,39.5278640450004,0.));
#680=CARTESIAN_POINT('',(0.,40.,0.));
#681=CARTESIAN_POINT('Origin',(2.,39.5278640450004,0.));
#682=CARTESIAN_POINT('',(62.25,98.,0.));
#683=CARTESIAN_POINT('Origin',(58.,98.,0.));
#684=CARTESIAN_POINT('',(62.25,58.,0.));
#685=CARTESIAN_POINT('Origin',(58.,58.,0.));
#686=CARTESIAN_POINT('',(22.25,18.,0.));
#687=CARTESIAN_POINT('Origin',(18.,18.,0.));
#688=CARTESIAN_POINT('',(102.25,18.,0.));
#689=CARTESIAN_POINT('Origin',(98.,18.,0.));
#690=CARTESIAN_POINT('',(62.25,18.,0.));
#691=CARTESIAN_POINT('Origin',(58.,18.,0.));
#692=CARTESIAN_POINT('Origin',(2.,39.5278640450004,0.));
#693=CARTESIAN_POINT('',(0.,39.5278640450004,5.));
#694=CARTESIAN_POINT('Origin',(2.,39.5278640450004,5.));
#695=CARTESIAN_POINT('',(0.,39.5278640450004,0.));
#696=CARTESIAN_POINT('Origin',(0.,40.,0.));
#697=CARTESIAN_POINT('',(0.,2.,5.));
#698=CARTESIAN_POINT('',(0.,2.,0.));
#699=CARTESIAN_POINT('',(0.,40.,5.));
#700=CARTESIAN_POINT('Origin',(2.,2.,0.));
#701=CARTESIAN_POINT('',(2.,0.,5.));
#702=CARTESIAN_POINT('Origin',(2.,2.,5.));
#703=CARTESIAN_POINT('',(2.,0.,0.));
#704=CARTESIAN_POINT('Origin',(0.,0.,0.));
#705=CARTESIAN_POINT('',(114.,0.,5.));
#706=CARTESIAN_POINT('',(114.,0.,0.));
#707=CARTESIAN_POINT('',(0.,0.,5.));
#708=CARTESIAN_POINT('Origin',(114.,2.,0.));
#709=CARTESIAN_POINT('',(116.,2.,5.));
#710=CARTESIAN_POINT('Origin',(114.,2.,5.));
#711=CARTESIAN_POINT('',(116.,2.,0.));
#712=CARTESIAN_POINT('Origin',(116.,0.,0.));
#713=CARTESIAN_POINT('',(116.,39.5278640450004,5.));
#714=CARTESIAN_POINT('',(116.,39.5278640450004,0.));
#715=CARTESIAN_POINT('',(116.,0.,5.));
#716=CARTESIAN_POINT('Origin',(114.,39.5278640450004,0.));
#717=CARTESIAN_POINT('',(115.788854382,40.4222912360003,5.));
#718=CARTESIAN_POINT('Origin',(114.,39.5278640450004,5.));
#719=CARTESIAN_POINT('',(115.788854382,40.4222912360003,0.));
#720=CARTESIAN_POINT('Origin',(116.,40.,0.));
#721=CARTESIAN_POINT('',(78.5527864045,114.894427191,5.));
#722=CARTESIAN_POINT('',(78.5527864045,114.894427191,0.));
#723=CARTESIAN_POINT('',(116.,40.,5.));
#724=CARTESIAN_POINT('Origin',(76.7639320225002,114.,0.));
#725=CARTESIAN_POINT('',(76.7639320225002,116.,5.));
#726=CARTESIAN_POINT('Origin',(76.7639320225002,114.,5.));
#727=CARTESIAN_POINT('',(76.7639320225002,116.,0.));
#728=CARTESIAN_POINT('Origin',(58.,18.,0.));
#729=CARTESIAN_POINT('',(62.25,18.,5.));
#730=CARTESIAN_POINT('',(62.25,18.,0.));
#731=CARTESIAN_POINT('Origin',(58.,18.,5.));
#732=CARTESIAN_POINT('Origin',(98.,18.,0.));
#733=CARTESIAN_POINT('',(102.25,18.,5.));
#734=CARTESIAN_POINT('',(102.25,18.,0.));
#735=CARTESIAN_POINT('Origin',(98.,18.,5.));
#736=CARTESIAN_POINT('Origin',(18.,18.,0.));
#737=CARTESIAN_POINT('',(22.25,18.,5.));
#738=CARTESIAN_POINT('',(22.25,18.,0.));
#739=CARTESIAN_POINT('Origin',(18.,18.,5.));
#740=CARTESIAN_POINT('Origin',(58.,58.,0.));
#741=CARTESIAN_POINT('',(62.25,58.,5.));
#742=CARTESIAN_POINT('',(62.25,58.,0.));
#743=CARTESIAN_POINT('Origin',(58.,58.,5.));
#744=CARTESIAN_POINT('Origin',(58.,98.,0.));
#745=CARTESIAN_POINT('',(62.25,98.,5.));
#746=CARTESIAN_POINT('',(62.25,98.,0.));
#747=CARTESIAN_POINT('Origin',(58.,98.,5.));
#748=CARTESIAN_POINT('Origin',(78.,116.,0.));
#749=CARTESIAN_POINT('',(78.,116.,5.));
#750=CARTESIAN_POINT('Origin',(58.,58.,5.));
#751=CARTESIAN_POINT('Origin',(262.816894380665,247.226535038323,182.035450678059));
#752=CARTESIAN_POINT('Origin',(-125.418953032991,-70.3635239713999,399.571927724485));
#753=CARTESIAN_POINT('',(0.,0.,0.));
#754=CARTESIAN_POINT('Origin',(63.7735026918963,52.2264973081037,8.27350269189626));
#755=CARTESIAN_POINT('Origin',(-99.9922152600034,-56.0984162700661,10.));
#756=CARTESIAN_POINT('',(0.,0.,0.));
#757=CARTESIAN_POINT('Origin',(58.,58.,12.5));
#758=CARTESIAN_POINT('Origin',(-110.695262668928,-62.103123809977,10.));
#759=CARTESIAN_POINT('',(0.,0.,0.));
#760=CARTESIAN_POINT('Origin',(58.,68.,2.5));
#761=CARTESIAN_POINT('Origin',(-11.7696901498445,-6.60312380997698,10.));
#762=CARTESIAN_POINT('',(0.,0.,0.));
#763=CARTESIAN_POINT('Origin',(68.,58.,2.5));
#764=CARTESIAN_POINT('Origin',(-110.695262668928,-62.103123809977,10.));
#765=CARTESIAN_POINT('',(0.,0.,0.));
#766=CARTESIAN_POINT('Origin',(0.,0.,0.));
#767=CARTESIAN_POINT('Origin',(0.,0.,0.));
#768=CARTESIAN_POINT('Origin',(0.,0.,0.));
#769=CARTESIAN_POINT('Origin',(0.,0.,0.));
#770=CARTESIAN_POINT('Origin',(0.,0.,0.));
#771=CARTESIAN_POINT('Origin',(0.,0.,0.));
#772=UNCERTAINTY_MEASURE_WITH_UNIT(LENGTH_MEASURE(0.01),#776,
'DISTANCE_ACCURACY_VALUE',
'Maximum model space distance between geometric entities at asserted c
onnectivities');
#773=UNCERTAINTY_MEASURE_WITH_UNIT(LENGTH_MEASURE(0.01),#776,
'DISTANCE_ACCURACY_VALUE',
'Maximum model space distance between geometric entities at asserted c
onnectivities');
#774=(
GEOMETRIC_REPRESENTATION_CONTEXT(3)
GLOBAL_UNCERTAINTY_ASSIGNED_CONTEXT((#772))
GLOBAL_UNIT_ASSIGNED_CONTEXT((#776,#778,#779))
REPRESENTATION_CONTEXT('','3D')
);
#775=(
GEOMETRIC_REPRESENTATION_CONTEXT(3)
GLOBAL_UNCERTAINTY_ASSIGNED_CONTEXT((#773))
GLOBAL_UNIT_ASSIGNED_CONTEXT((#776,#778,#779))
REPRESENTATION_CONTEXT('','3D')
);
#776=(
LENGTH_UNIT()
NAMED_UNIT(*)
SI_UNIT(.MILLI.,.METRE.)
);
#777=(
LENGTH_UNIT()
NAMED_UNIT(*)
SI_UNIT(.CENTI.,.METRE.)
);
#778=(
NAMED_UNIT(*)
PLANE_ANGLE_UNIT()
SI_UNIT($,.RADIAN.)
);
#779=(
NAMED_UNIT(*)
SI_UNIT($,.STERADIAN.)
SOLID_ANGLE_UNIT()
);
#780=SHAPE_DEFINITION_REPRESENTATION(#781,#782);
#781=PRODUCT_DEFINITION_SHAPE('',$,#784);
#782=SHAPE_REPRESENTATION('',(#443,#57),#774);
#783=PRODUCT_DEFINITION_CONTEXT('part definition',#788,'design');
#784=PRODUCT_DEFINITION('Motedis_LP40111','Motedis_LP40111',#785,#783);
#785=PRODUCT_DEFINITION_FORMATION('www.motedis.com/part/LP40111',$,#790);
#786=PRODUCT_RELATED_PRODUCT_CATEGORY('Motedis_LP40111',
'Motedis_LP40111',(#790));
#787=APPLICATION_PROTOCOL_DEFINITION('international standard',
'ap242_managed_model_based_3d_engineering',2011,#788);
#788=APPLICATION_CONTEXT('Managed model based 3d engineering');
#789=PRODUCT_CONTEXT('part definition',#788,'mechanical');
#790=PRODUCT('Motedis_LP40111','Motedis_LP40111','www.motedis.com/part/LP40111',(#789));
#791=PRESENTATION_STYLE_ASSIGNMENT((#793));
#792=PRESENTATION_STYLE_ASSIGNMENT((NULL_STYLE(.NULL.)));
#793=SURFACE_STYLE_USAGE(.BOTH.,#796);
#794=SURFACE_STYLE_RENDERING_WITH_PROPERTIES($,#800,(#795));
#795=SURFACE_STYLE_TRANSPARENT(0.);
#796=SURFACE_SIDE_STYLE('',(#797,#794));
#797=SURFACE_STYLE_FILL_AREA(#798);
#798=FILL_AREA_STYLE('',(#799));
#799=FILL_AREA_STYLE_COLOUR('',#800);
#800=COLOUR_RGB('',0.749019607843137,0.749019607843137,0.749019607843137);
ENDSEC;
END-ISO-10303-21;
