ISO-10303-21;
HEADER;
/* Generated by software containing ST-Developer
 * from STEP Tools, Inc. (www.steptools.com) 
 */

FILE_DESCRIPTION(
/* description */ (''),
/* implementation_level */ '2;1');

FILE_NAME(
/* name */ 'RT_DRV_MC_003_ShaftCoupling.stp',
/* time_stamp */ '2026-05-11T15:02:09+02:00',
/* author */ ('louis'),
/* organization */ (''),
/* preprocessor_version */ 'ST-DEVELOPER v20',
/* originating_system */ 'Autodesk Inventor 2025',
/* authorisation */ '');

FILE_SCHEMA (('AUTOMOTIVE_DESIGN { 1 0 10303 214 3 1 1 }'));
ENDSEC;

DATA;
#10=MECHANICAL_DESIGN_GEOMETRIC_PRESENTATION_REPRESENTATION('',(#13),#1300);
#11=SHAPE_REPRESENTATION_RELATIONSHIP('SRR','None',#1307,#12);
#12=ADVANCED_BREP_SHAPE_REPRESENTATION('',(#14),#1299);
#13=STYLED_ITEM('',(#1316),#14);
#14=MANIFOLD_SOLID_BREP('Solid1',#662);
#15=FACE_BOUND('',#107,.T.);
#16=FACE_BOUND('',#108,.T.);
#17=FACE_BOUND('',#113,.T.);
#18=FACE_BOUND('',#114,.T.);
#19=FACE_BOUND('',#115,.T.);
#20=FACE_BOUND('',#125,.T.);
#21=FACE_BOUND('',#126,.T.);
#22=FACE_BOUND('',#131,.T.);
#23=FACE_BOUND('',#132,.T.);
#24=FACE_BOUND('',#133,.T.);
#25=FACE_BOUND('',#134,.T.);
#26=FACE_BOUND('',#136,.T.);
#27=FACE_BOUND('',#140,.T.);
#28=CONICAL_SURFACE('',#691,7.1,0.785398163397448);
#29=CONICAL_SURFACE('',#695,15.9,0.785398163397448);
#30=CONICAL_SURFACE('',#699,7.1,0.785398163397448);
#31=CONICAL_SURFACE('',#714,7.1,0.785398163397448);
#32=CONICAL_SURFACE('',#717,15.9,0.785398163397448);
#33=CONICAL_SURFACE('',#721,7.1,0.785398163397448);
#34=CONICAL_SURFACE('',#742,1.0335,1.02974425867665);
#35=CONICAL_SURFACE('',#745,1.0335,1.02974425867665);
#36=CONICAL_SURFACE('',#748,1.0335,1.02974425867665);
#37=PLANE('',#689);
#38=PLANE('',#690);
#39=PLANE('',#694);
#40=PLANE('',#698);
#41=PLANE('',#702);
#42=PLANE('',#703);
#43=PLANE('',#706);
#44=PLANE('',#707);
#45=PLANE('',#708);
#46=PLANE('',#712);
#47=PLANE('',#713);
#48=PLANE('',#716);
#49=PLANE('',#720);
#50=PLANE('',#724);
#51=PLANE('',#725);
#52=PLANE('',#729);
#53=PLANE('',#730);
#54=PLANE('',#732);
#55=PLANE('',#737);
#56=FACE_OUTER_BOUND('',#96,.T.);
#57=FACE_OUTER_BOUND('',#97,.T.);
#58=FACE_OUTER_BOUND('',#98,.T.);
#59=FACE_OUTER_BOUND('',#99,.T.);
#60=FACE_OUTER_BOUND('',#100,.T.);
#61=FACE_OUTER_BOUND('',#101,.T.);
#62=FACE_OUTER_BOUND('',#102,.T.);
#63=FACE_OUTER_BOUND('',#103,.T.);
#64=FACE_OUTER_BOUND('',#104,.T.);
#65=FACE_OUTER_BOUND('',#105,.T.);
#66=FACE_OUTER_BOUND('',#106,.T.);
#67=FACE_OUTER_BOUND('',#109,.T.);
#68=FACE_OUTER_BOUND('',#110,.T.);
#69=FACE_OUTER_BOUND('',#111,.T.);
#70=FACE_OUTER_BOUND('',#112,.T.);
#71=FACE_OUTER_BOUND('',#116,.T.);
#72=FACE_OUTER_BOUND('',#117,.T.);
#73=FACE_OUTER_BOUND('',#118,.T.);
#74=FACE_OUTER_BOUND('',#119,.T.);
#75=FACE_OUTER_BOUND('',#120,.T.);
#76=FACE_OUTER_BOUND('',#121,.T.);
#77=FACE_OUTER_BOUND('',#122,.T.);
#78=FACE_OUTER_BOUND('',#123,.T.);
#79=FACE_OUTER_BOUND('',#124,.T.);
#80=FACE_OUTER_BOUND('',#127,.T.);
#81=FACE_OUTER_BOUND('',#128,.T.);
#82=FACE_OUTER_BOUND('',#129,.T.);
#83=FACE_OUTER_BOUND('',#130,.T.);
#84=FACE_OUTER_BOUND('',#135,.T.);
#85=FACE_OUTER_BOUND('',#137,.T.);
#86=FACE_OUTER_BOUND('',#138,.T.);
#87=FACE_OUTER_BOUND('',#139,.T.);
#88=FACE_OUTER_BOUND('',#141,.T.);
#89=FACE_OUTER_BOUND('',#142,.T.);
#90=FACE_OUTER_BOUND('',#143,.T.);
#91=FACE_OUTER_BOUND('',#144,.T.);
#92=FACE_OUTER_BOUND('',#145,.T.);
#93=FACE_OUTER_BOUND('',#146,.T.);
#94=FACE_OUTER_BOUND('',#147,.T.);
#95=FACE_OUTER_BOUND('',#148,.T.);
#96=EDGE_LOOP('',(#430,#431,#432,#433));
#97=EDGE_LOOP('',(#434,#435,#436,#437));
#98=EDGE_LOOP('',(#438,#439,#440,#441));
#99=EDGE_LOOP('',(#442,#443,#444,#445));
#100=EDGE_LOOP('',(#446,#447,#448,#449));
#101=EDGE_LOOP('',(#450,#451,#452,#453));
#102=EDGE_LOOP('',(#454,#455,#456,#457));
#103=EDGE_LOOP('',(#458,#459,#460,#461));
#104=EDGE_LOOP('',(#462,#463,#464,#465));
#105=EDGE_LOOP('',(#466,#467,#468,#469));
#106=EDGE_LOOP('',(#470,#471,#472,#473));
#107=EDGE_LOOP('',(#474));
#108=EDGE_LOOP('',(#475));
#109=EDGE_LOOP('',(#476,#477,#478,#479));
#110=EDGE_LOOP('',(#480,#481,#482,#483));
#111=EDGE_LOOP('',(#484,#485,#486,#487));
#112=EDGE_LOOP('',(#488,#489,#490,#491,#492,#493,#494,#495));
#113=EDGE_LOOP('',(#496));
#114=EDGE_LOOP('',(#497));
#115=EDGE_LOOP('',(#498));
#116=EDGE_LOOP('',(#499,#500,#501,#502));
#117=EDGE_LOOP('',(#503,#504,#505,#506));
#118=EDGE_LOOP('',(#507,#508,#509,#510));
#119=EDGE_LOOP('',(#511,#512,#513,#514));
#120=EDGE_LOOP('',(#515,#516,#517,#518));
#121=EDGE_LOOP('',(#519,#520,#521,#522));
#122=EDGE_LOOP('',(#523,#524,#525,#526));
#123=EDGE_LOOP('',(#527,#528,#529,#530));
#124=EDGE_LOOP('',(#531,#532,#533,#534));
#125=EDGE_LOOP('',(#535));
#126=EDGE_LOOP('',(#536));
#127=EDGE_LOOP('',(#537,#538,#539,#540));
#128=EDGE_LOOP('',(#541,#542,#543,#544));
#129=EDGE_LOOP('',(#545,#546,#547,#548,#549,#550,#551,#552));
#130=EDGE_LOOP('',(#553,#554,#555,#556));
#131=EDGE_LOOP('',(#557));
#132=EDGE_LOOP('',(#558));
#133=EDGE_LOOP('',(#559,#560,#561,#562));
#134=EDGE_LOOP('',(#563,#564,#565,#566));
#135=EDGE_LOOP('',(#567,#568));
#136=EDGE_LOOP('',(#569));
#137=EDGE_LOOP('',(#570,#571,#572,#573));
#138=EDGE_LOOP('',(#574,#575,#576,#577));
#139=EDGE_LOOP('',(#578,#579));
#140=EDGE_LOOP('',(#580));
#141=EDGE_LOOP('',(#581,#582,#583,#584));
#142=EDGE_LOOP('',(#585,#586,#587,#588));
#143=EDGE_LOOP('',(#589,#590,#591));
#144=EDGE_LOOP('',(#592,#593,#594,#595));
#145=EDGE_LOOP('',(#596,#597,#598));
#146=EDGE_LOOP('',(#599,#600,#601,#602));
#147=EDGE_LOOP('',(#603,#604,#605));
#148=EDGE_LOOP('',(#606,#607,#608,#609));
#149=B_SPLINE_CURVE_WITH_KNOTS('',3,(#935,#936,#937,#938,#939,#940,#941,
#942,#943,#944,#945,#946,#947,#948,#949,#950,#951,#952,#953,#954,#955,#956,
#957,#958,#959,#960,#961,#962,#963,#964,#965,#966,#967,#968,#969,#970,#971,
#972),.UNSPECIFIED.,.T.,.F.,(4,2,2,2,2,2,2,2,2,2,2,2,2,2,2,2,2,2,4),(0.,
0.0309920833751737,0.0619841667503474,0.123968333500695,0.219751193528655,
0.315534053556615,0.400243119421304,0.484952185285994,0.544719878934372,
0.60448757258275,0.664255266231128,0.724022959879506,0.808732025744196,
0.893441091608886,0.989223951636846,1.08500681166481,1.14699097841515,1.17798306179033,
1.2089751451655),.UNSPECIFIED.);
#150=B_SPLINE_CURVE_WITH_KNOTS('',3,(#978,#979,#980,#981,#982,#983,#984,
#985,#986,#987,#988,#989,#990,#991,#992,#993,#994,#995,#996,#997,#998,#999,
#1000,#1001,#1002,#1003,#1004,#1005,#1006,#1007,#1008,#1009,#1010,#1011,
#1012,#1013,#1014,#1015),.UNSPECIFIED.,.T.,.F.,(4,2,2,2,2,2,2,2,2,2,2,2,
2,2,2,2,2,2,4),(0.,0.0309920833751737,0.0619841667503474,0.123968333500695,
0.219751193528655,0.315534053556615,0.400243119421305,0.484952185285995,
0.544719878934373,0.604487572582751,0.664255266231129,0.724022959879507,
0.808732025744197,0.893441091608887,0.989223951636847,1.08500681166481,
1.14699097841515,1.17798306179033,1.2089751451655),.UNSPECIFIED.);
#151=B_SPLINE_CURVE_WITH_KNOTS('',3,(#1029,#1030,#1031,#1032),
 .UNSPECIFIED.,.F.,.F.,(4,4),(0.,0.0313915531929443),.UNSPECIFIED.);
#152=B_SPLINE_CURVE_WITH_KNOTS('',3,(#1038,#1039,#1040,#1041),
 .UNSPECIFIED.,.F.,.F.,(4,4),(0.,0.0330535893171559),.UNSPECIFIED.);
#153=B_SPLINE_CURVE_WITH_KNOTS('',3,(#1047,#1048,#1049,#1050),
 .UNSPECIFIED.,.F.,.F.,(4,4),(0.,0.0354885307022944),.UNSPECIFIED.);
#154=B_SPLINE_CURVE_WITH_KNOTS('',3,(#1056,#1057,#1058,#1059),
 .UNSPECIFIED.,.F.,.F.,(4,4),(0.,0.0354885307022968),.UNSPECIFIED.);
#155=B_SPLINE_CURVE_WITH_KNOTS('',3,(#1066,#1067,#1068,#1069),
 .UNSPECIFIED.,.F.,.F.,(4,4),(0.,0.0330535893171677),.UNSPECIFIED.);
#156=B_SPLINE_CURVE_WITH_KNOTS('',3,(#1075,#1076,#1077,#1078),
 .UNSPECIFIED.,.F.,.F.,(4,4),(0.,0.03139155319287),.UNSPECIFIED.);
#157=B_SPLINE_CURVE_WITH_KNOTS('',3,(#1116,#1117,#1118,#1119),
 .UNSPECIFIED.,.F.,.F.,(4,4),(0.,0.0313915531929337),.UNSPECIFIED.);
#158=B_SPLINE_CURVE_WITH_KNOTS('',3,(#1123,#1124,#1125,#1126),
 .UNSPECIFIED.,.F.,.F.,(4,4),(0.,0.0330535893171604),.UNSPECIFIED.);
#159=B_SPLINE_CURVE_WITH_KNOTS('',3,(#1130,#1131,#1132,#1133),
 .UNSPECIFIED.,.F.,.F.,(4,4),(0.,0.0354885307023738),.UNSPECIFIED.);
#160=B_SPLINE_CURVE_WITH_KNOTS('',3,(#1138,#1139,#1140,#1141),
 .UNSPECIFIED.,.F.,.F.,(4,4),(0.,0.0354885307023172),.UNSPECIFIED.);
#161=B_SPLINE_CURVE_WITH_KNOTS('',3,(#1148,#1149,#1150,#1151),
 .UNSPECIFIED.,.F.,.F.,(4,4),(0.,0.0330535893171773),.UNSPECIFIED.);
#162=B_SPLINE_CURVE_WITH_KNOTS('',3,(#1157,#1158,#1159,#1160),
 .UNSPECIFIED.,.F.,.F.,(4,4),(0.,0.0313915531928768),.UNSPECIFIED.);
#163=B_SPLINE_CURVE_WITH_KNOTS('',3,(#1178,#1179,#1180,#1181,#1182,#1183,
#1184,#1185,#1186,#1187,#1188,#1189,#1190,#1191,#1192,#1193,#1194,#1195,
#1196,#1197,#1198,#1199),.UNSPECIFIED.,.F.,.F.,(4,2,2,2,2,2,2,2,2,2,4),
(0.636126787277704,0.908481855578153,1.10502901401989,1.30157617246163,
1.44879939214304,1.59602261182445,1.74324583150586,1.89046905118726,2.087016209629,
2.28356336807074,2.55591843637119),.UNSPECIFIED.);
#164=B_SPLINE_CURVE_WITH_KNOTS('',3,(#1201,#1202,#1203,#1204,#1205,#1206,
#1207,#1208),.UNSPECIFIED.,.F.,.F.,(4,2,2,4),(2.55591843637119,2.56378185292351,
2.84400033777628,3.02879232697425),.UNSPECIFIED.);
#165=B_SPLINE_CURVE_WITH_KNOTS('',3,(#1211,#1212,#1213,#1214,#1215,#1216,
#1217,#1218),.UNSPECIFIED.,.F.,.F.,(4,2,2,4),(0.163252896674649,0.348044885872621,
0.628263370725387,0.636126787277704),.UNSPECIFIED.);
#166=B_SPLINE_CURVE_WITH_KNOTS('',3,(#1221,#1222,#1223,#1224,#1225,#1226,
#1227,#1228,#1229,#1230,#1231,#1232,#1233,#1234,#1235,#1236,#1237,#1238,
#1239,#1240,#1241,#1242),.UNSPECIFIED.,.F.,.F.,(4,2,2,2,2,2,2,2,2,2,4),
(0.636126787277701,0.908481855578151,1.10502901401989,1.30157617246163,
1.44879939214304,1.59602261182445,1.75219264752562,1.9083626832268,2.09591244087652,
2.28346219852625,2.5558172668267),.UNSPECIFIED.);
#167=B_SPLINE_CURVE_WITH_KNOTS('',3,(#1244,#1245,#1246,#1247,#1248,#1249,
#1250,#1251),.UNSPECIFIED.,.F.,.F.,(4,2,2,4),(2.55591843637119,2.56378185292351,
2.84400033777627,3.02879232697425),.UNSPECIFIED.);
#168=B_SPLINE_CURVE_WITH_KNOTS('',3,(#1254,#1255,#1256,#1257,#1258,#1259,
#1260,#1261),.UNSPECIFIED.,.F.,.F.,(4,2,2,4),(0.163252896674643,0.34804488587262,
0.628263370725386,0.6361267872777),.UNSPECIFIED.);
#169=LINE('',#934,#213);
#170=LINE('',#977,#214);
#171=LINE('',#1019,#215);
#172=LINE('',#1021,#216);
#173=LINE('',#1023,#217);
#174=LINE('',#1024,#218);
#175=LINE('',#1027,#219);
#176=LINE('',#1033,#220);
#177=LINE('',#1045,#221);
#178=LINE('',#1051,#222);
#179=LINE('',#1063,#223);
#180=LINE('',#1065,#224);
#181=LINE('',#1080,#225);
#182=LINE('',#1081,#226);
#183=LINE('',#1084,#227);
#184=LINE('',#1086,#228);
#185=LINE('',#1087,#229);
#186=LINE('',#1090,#230);
#187=LINE('',#1094,#231);
#188=LINE('',#1095,#232);
#189=LINE('',#1098,#233);
#190=LINE('',#1099,#234);
#191=LINE('',#1110,#235);
#192=LINE('',#1111,#236);
#193=LINE('',#1112,#237);
#194=LINE('',#1115,#238);
#195=LINE('',#1129,#239);
#196=LINE('',#1145,#240);
#197=LINE('',#1147,#241);
#198=LINE('',#1162,#242);
#199=LINE('',#1163,#243);
#200=LINE('',#1165,#244);
#201=LINE('',#1166,#245);
#202=LINE('',#1172,#246);
#203=LINE('',#1210,#247);
#204=LINE('',#1253,#248);
#205=LINE('',#1268,#249);
#206=LINE('',#1275,#250);
#207=LINE('',#1280,#251);
#208=LINE('',#1282,#252);
#209=LINE('',#1287,#253);
#210=LINE('',#1289,#254);
#211=LINE('',#1294,#255);
#212=LINE('',#1296,#256);
#213=VECTOR('',#757,1.621);
#214=VECTOR('',#762,1.621);
#215=VECTOR('',#765,10.);
#216=VECTOR('',#766,10.);
#217=VECTOR('',#767,10.);
#218=VECTOR('',#768,10.);
#219=VECTOR('',#771,10.);
#220=VECTOR('',#772,10.);
#221=VECTOR('',#781,10.);
#222=VECTOR('',#782,10.);
#223=VECTOR('',#791,10.);
#224=VECTOR('',#792,10.);
#225=VECTOR('',#801,10.);
#226=VECTOR('',#802,10.);
#227=VECTOR('',#805,10.);
#228=VECTOR('',#806,10.);
#229=VECTOR('',#807,10.);
#230=VECTOR('',#810,10.);
#231=VECTOR('',#815,10.);
#232=VECTOR('',#816,10.);
#233=VECTOR('',#819,10.);
#234=VECTOR('',#820,10.);
#235=VECTOR('',#831,10.);
#236=VECTOR('',#832,10.);
#237=VECTOR('',#833,10.);
#238=VECTOR('',#836,10.);
#239=VECTOR('',#843,10.);
#240=VECTOR('',#852,10.);
#241=VECTOR('',#853,10.);
#242=VECTOR('',#862,10.);
#243=VECTOR('',#863,10.);
#244=VECTOR('',#866,10.);
#245=VECTOR('',#867,10.);
#246=VECTOR('',#874,10.);
#247=VECTOR('',#881,10.);
#248=VECTOR('',#882,10.);
#249=VECTOR('',#893,2.25);
#250=VECTOR('',#904,2.25);
#251=VECTOR('',#909,1.0335);
#252=VECTOR('',#912,2.067);
#253=VECTOR('',#917,1.0335);
#254=VECTOR('',#920,2.067);
#255=VECTOR('',#925,1.0335);
#256=VECTOR('',#928,2.067);
#257=CIRCLE('',#686,1.621);
#258=CIRCLE('',#688,1.621);
#259=CIRCLE('',#692,7.2);
#260=CIRCLE('',#693,7.);
#261=CIRCLE('',#696,15.8);
#262=CIRCLE('',#697,16.);
#263=CIRCLE('',#700,7.);
#264=CIRCLE('',#701,7.2);
#265=CIRCLE('',#705,7.);
#266=CIRCLE('',#709,2.067);
#267=CIRCLE('',#710,2.067);
#268=CIRCLE('',#711,2.067);
#269=CIRCLE('',#715,7.2);
#270=CIRCLE('',#718,15.8);
#271=CIRCLE('',#719,16.);
#272=CIRCLE('',#722,7.);
#273=CIRCLE('',#723,7.2);
#274=CIRCLE('',#726,2.25);
#275=CIRCLE('',#727,2.25);
#276=CIRCLE('',#733,4.);
#277=CIRCLE('',#734,2.25);
#278=CIRCLE('',#738,4.);
#279=CIRCLE('',#739,2.25);
#280=CIRCLE('',#743,2.067);
#281=CIRCLE('',#746,2.067);
#282=CIRCLE('',#749,2.067);
#283=VERTEX_POINT('',#931);
#284=VERTEX_POINT('',#933);
#285=VERTEX_POINT('',#974);
#286=VERTEX_POINT('',#976);
#287=VERTEX_POINT('',#1017);
#288=VERTEX_POINT('',#1018);
#289=VERTEX_POINT('',#1020);
#290=VERTEX_POINT('',#1022);
#291=VERTEX_POINT('',#1026);
#292=VERTEX_POINT('',#1028);
#293=VERTEX_POINT('',#1035);
#294=VERTEX_POINT('',#1037);
#295=VERTEX_POINT('',#1044);
#296=VERTEX_POINT('',#1046);
#297=VERTEX_POINT('',#1053);
#298=VERTEX_POINT('',#1055);
#299=VERTEX_POINT('',#1062);
#300=VERTEX_POINT('',#1064);
#301=VERTEX_POINT('',#1071);
#302=VERTEX_POINT('',#1073);
#303=VERTEX_POINT('',#1083);
#304=VERTEX_POINT('',#1085);
#305=VERTEX_POINT('',#1089);
#306=VERTEX_POINT('',#1093);
#307=VERTEX_POINT('',#1097);
#308=VERTEX_POINT('',#1101);
#309=VERTEX_POINT('',#1103);
#310=VERTEX_POINT('',#1105);
#311=VERTEX_POINT('',#1108);
#312=VERTEX_POINT('',#1109);
#313=VERTEX_POINT('',#1114);
#314=VERTEX_POINT('',#1121);
#315=VERTEX_POINT('',#1128);
#316=VERTEX_POINT('',#1135);
#317=VERTEX_POINT('',#1137);
#318=VERTEX_POINT('',#1144);
#319=VERTEX_POINT('',#1146);
#320=VERTEX_POINT('',#1153);
#321=VERTEX_POINT('',#1155);
#322=VERTEX_POINT('',#1167);
#323=VERTEX_POINT('',#1169);
#324=VERTEX_POINT('',#1176);
#325=VERTEX_POINT('',#1177);
#326=VERTEX_POINT('',#1200);
#327=VERTEX_POINT('',#1209);
#328=VERTEX_POINT('',#1219);
#329=VERTEX_POINT('',#1220);
#330=VERTEX_POINT('',#1243);
#331=VERTEX_POINT('',#1252);
#332=VERTEX_POINT('',#1264);
#333=VERTEX_POINT('',#1271);
#334=VERTEX_POINT('',#1277);
#335=VERTEX_POINT('',#1279);
#336=VERTEX_POINT('',#1284);
#337=VERTEX_POINT('',#1286);
#338=VERTEX_POINT('',#1291);
#339=VERTEX_POINT('',#1293);
#340=EDGE_CURVE('',#283,#283,#257,.T.);
#341=EDGE_CURVE('',#283,#284,#169,.T.);
#342=EDGE_CURVE('',#284,#284,#149,.T.);
#343=EDGE_CURVE('',#285,#285,#258,.T.);
#344=EDGE_CURVE('',#285,#286,#170,.T.);
#345=EDGE_CURVE('',#286,#286,#150,.T.);
#346=EDGE_CURVE('',#287,#288,#171,.T.);
#347=EDGE_CURVE('',#288,#289,#172,.T.);
#348=EDGE_CURVE('',#289,#290,#173,.T.);
#349=EDGE_CURVE('',#287,#290,#174,.T.);
#350=EDGE_CURVE('',#288,#291,#175,.T.);
#351=EDGE_CURVE('',#291,#292,#151,.T.);
#352=EDGE_CURVE('',#292,#289,#176,.T.);
#353=EDGE_CURVE('',#291,#293,#259,.T.);
#354=EDGE_CURVE('',#293,#294,#152,.T.);
#355=EDGE_CURVE('',#294,#292,#260,.T.);
#356=EDGE_CURVE('',#293,#295,#177,.T.);
#357=EDGE_CURVE('',#295,#296,#153,.T.);
#358=EDGE_CURVE('',#296,#294,#178,.T.);
#359=EDGE_CURVE('',#295,#297,#261,.T.);
#360=EDGE_CURVE('',#297,#298,#154,.T.);
#361=EDGE_CURVE('',#298,#296,#262,.T.);
#362=EDGE_CURVE('',#299,#298,#179,.T.);
#363=EDGE_CURVE('',#297,#300,#180,.T.);
#364=EDGE_CURVE('',#300,#299,#155,.T.);
#365=EDGE_CURVE('',#301,#299,#263,.T.);
#366=EDGE_CURVE('',#300,#302,#264,.T.);
#367=EDGE_CURVE('',#302,#301,#156,.T.);
#368=EDGE_CURVE('',#290,#301,#181,.T.);
#369=EDGE_CURVE('',#302,#287,#182,.T.);
#370=EDGE_CURVE('',#303,#299,#183,.T.);
#371=EDGE_CURVE('',#304,#303,#184,.T.);
#372=EDGE_CURVE('',#304,#298,#185,.T.);
#373=EDGE_CURVE('',#305,#301,#186,.T.);
#374=EDGE_CURVE('',#303,#305,#265,.T.);
#375=EDGE_CURVE('',#290,#306,#187,.T.);
#376=EDGE_CURVE('',#305,#306,#188,.T.);
#377=EDGE_CURVE('',#307,#289,#189,.T.);
#378=EDGE_CURVE('',#306,#307,#190,.T.);
#379=EDGE_CURVE('',#308,#308,#266,.T.);
#380=EDGE_CURVE('',#309,#309,#267,.T.);
#381=EDGE_CURVE('',#310,#310,#268,.T.);
#382=EDGE_CURVE('',#311,#312,#191,.T.);
#383=EDGE_CURVE('',#312,#306,#192,.T.);
#384=EDGE_CURVE('',#311,#307,#193,.T.);
#385=EDGE_CURVE('',#312,#313,#194,.T.);
#386=EDGE_CURVE('',#313,#305,#157,.T.);
#387=EDGE_CURVE('',#313,#314,#269,.T.);
#388=EDGE_CURVE('',#314,#303,#158,.T.);
#389=EDGE_CURVE('',#314,#315,#195,.T.);
#390=EDGE_CURVE('',#315,#304,#159,.T.);
#391=EDGE_CURVE('',#315,#316,#270,.T.);
#392=EDGE_CURVE('',#316,#317,#160,.T.);
#393=EDGE_CURVE('',#317,#304,#271,.T.);
#394=EDGE_CURVE('',#318,#317,#196,.T.);
#395=EDGE_CURVE('',#316,#319,#197,.T.);
#396=EDGE_CURVE('',#319,#318,#161,.T.);
#397=EDGE_CURVE('',#320,#318,#272,.T.);
#398=EDGE_CURVE('',#319,#321,#273,.T.);
#399=EDGE_CURVE('',#321,#320,#162,.T.);
#400=EDGE_CURVE('',#307,#320,#198,.T.);
#401=EDGE_CURVE('',#321,#311,#199,.T.);
#402=EDGE_CURVE('',#317,#296,#200,.T.);
#403=EDGE_CURVE('',#318,#294,#201,.T.);
#404=EDGE_CURVE('',#322,#322,#274,.T.);
#405=EDGE_CURVE('',#323,#323,#275,.T.);
#406=EDGE_CURVE('',#320,#292,#202,.T.);
#407=EDGE_CURVE('',#324,#325,#163,.T.);
#408=EDGE_CURVE('',#325,#326,#164,.T.);
#409=EDGE_CURVE('',#326,#327,#203,.T.);
#410=EDGE_CURVE('',#327,#324,#165,.T.);
#411=EDGE_CURVE('',#328,#329,#166,.T.);
#412=EDGE_CURVE('',#329,#330,#167,.T.);
#413=EDGE_CURVE('',#330,#331,#204,.T.);
#414=EDGE_CURVE('',#331,#328,#168,.T.);
#415=EDGE_CURVE('',#326,#327,#276,.T.);
#416=EDGE_CURVE('',#332,#332,#277,.T.);
#417=EDGE_CURVE('',#332,#323,#205,.T.);
#418=EDGE_CURVE('',#330,#331,#278,.T.);
#419=EDGE_CURVE('',#333,#333,#279,.T.);
#420=EDGE_CURVE('',#333,#322,#206,.T.);
#421=EDGE_CURVE('',#334,#334,#280,.T.);
#422=EDGE_CURVE('',#334,#335,#207,.T.);
#423=EDGE_CURVE('',#310,#334,#208,.T.);
#424=EDGE_CURVE('',#336,#336,#281,.T.);
#425=EDGE_CURVE('',#336,#337,#209,.T.);
#426=EDGE_CURVE('',#309,#336,#210,.T.);
#427=EDGE_CURVE('',#338,#338,#282,.T.);
#428=EDGE_CURVE('',#338,#339,#211,.T.);
#429=EDGE_CURVE('',#308,#338,#212,.T.);
#430=ORIENTED_EDGE('',*,*,#340,.F.);
#431=ORIENTED_EDGE('',*,*,#341,.T.);
#432=ORIENTED_EDGE('',*,*,#342,.F.);
#433=ORIENTED_EDGE('',*,*,#341,.F.);
#434=ORIENTED_EDGE('',*,*,#343,.F.);
#435=ORIENTED_EDGE('',*,*,#344,.T.);
#436=ORIENTED_EDGE('',*,*,#345,.F.);
#437=ORIENTED_EDGE('',*,*,#344,.F.);
#438=ORIENTED_EDGE('',*,*,#346,.T.);
#439=ORIENTED_EDGE('',*,*,#347,.T.);
#440=ORIENTED_EDGE('',*,*,#348,.T.);
#441=ORIENTED_EDGE('',*,*,#349,.F.);
#442=ORIENTED_EDGE('',*,*,#350,.T.);
#443=ORIENTED_EDGE('',*,*,#351,.T.);
#444=ORIENTED_EDGE('',*,*,#352,.T.);
#445=ORIENTED_EDGE('',*,*,#347,.F.);
#446=ORIENTED_EDGE('',*,*,#353,.T.);
#447=ORIENTED_EDGE('',*,*,#354,.T.);
#448=ORIENTED_EDGE('',*,*,#355,.T.);
#449=ORIENTED_EDGE('',*,*,#351,.F.);
#450=ORIENTED_EDGE('',*,*,#356,.T.);
#451=ORIENTED_EDGE('',*,*,#357,.T.);
#452=ORIENTED_EDGE('',*,*,#358,.T.);
#453=ORIENTED_EDGE('',*,*,#354,.F.);
#454=ORIENTED_EDGE('',*,*,#359,.T.);
#455=ORIENTED_EDGE('',*,*,#360,.T.);
#456=ORIENTED_EDGE('',*,*,#361,.T.);
#457=ORIENTED_EDGE('',*,*,#357,.F.);
#458=ORIENTED_EDGE('',*,*,#362,.T.);
#459=ORIENTED_EDGE('',*,*,#360,.F.);
#460=ORIENTED_EDGE('',*,*,#363,.T.);
#461=ORIENTED_EDGE('',*,*,#364,.T.);
#462=ORIENTED_EDGE('',*,*,#365,.T.);
#463=ORIENTED_EDGE('',*,*,#364,.F.);
#464=ORIENTED_EDGE('',*,*,#366,.T.);
#465=ORIENTED_EDGE('',*,*,#367,.T.);
#466=ORIENTED_EDGE('',*,*,#368,.T.);
#467=ORIENTED_EDGE('',*,*,#367,.F.);
#468=ORIENTED_EDGE('',*,*,#369,.T.);
#469=ORIENTED_EDGE('',*,*,#349,.T.);
#470=ORIENTED_EDGE('',*,*,#362,.F.);
#471=ORIENTED_EDGE('',*,*,#370,.F.);
#472=ORIENTED_EDGE('',*,*,#371,.F.);
#473=ORIENTED_EDGE('',*,*,#372,.T.);
#474=ORIENTED_EDGE('',*,*,#340,.T.);
#475=ORIENTED_EDGE('',*,*,#343,.T.);
#476=ORIENTED_EDGE('',*,*,#365,.F.);
#477=ORIENTED_EDGE('',*,*,#373,.F.);
#478=ORIENTED_EDGE('',*,*,#374,.F.);
#479=ORIENTED_EDGE('',*,*,#370,.T.);
#480=ORIENTED_EDGE('',*,*,#368,.F.);
#481=ORIENTED_EDGE('',*,*,#375,.T.);
#482=ORIENTED_EDGE('',*,*,#376,.F.);
#483=ORIENTED_EDGE('',*,*,#373,.T.);
#484=ORIENTED_EDGE('',*,*,#348,.F.);
#485=ORIENTED_EDGE('',*,*,#377,.F.);
#486=ORIENTED_EDGE('',*,*,#378,.F.);
#487=ORIENTED_EDGE('',*,*,#375,.F.);
#488=ORIENTED_EDGE('',*,*,#346,.F.);
#489=ORIENTED_EDGE('',*,*,#369,.F.);
#490=ORIENTED_EDGE('',*,*,#366,.F.);
#491=ORIENTED_EDGE('',*,*,#363,.F.);
#492=ORIENTED_EDGE('',*,*,#359,.F.);
#493=ORIENTED_EDGE('',*,*,#356,.F.);
#494=ORIENTED_EDGE('',*,*,#353,.F.);
#495=ORIENTED_EDGE('',*,*,#350,.F.);
#496=ORIENTED_EDGE('',*,*,#379,.T.);
#497=ORIENTED_EDGE('',*,*,#380,.T.);
#498=ORIENTED_EDGE('',*,*,#381,.T.);
#499=ORIENTED_EDGE('',*,*,#382,.T.);
#500=ORIENTED_EDGE('',*,*,#383,.T.);
#501=ORIENTED_EDGE('',*,*,#378,.T.);
#502=ORIENTED_EDGE('',*,*,#384,.F.);
#503=ORIENTED_EDGE('',*,*,#385,.T.);
#504=ORIENTED_EDGE('',*,*,#386,.T.);
#505=ORIENTED_EDGE('',*,*,#376,.T.);
#506=ORIENTED_EDGE('',*,*,#383,.F.);
#507=ORIENTED_EDGE('',*,*,#387,.T.);
#508=ORIENTED_EDGE('',*,*,#388,.T.);
#509=ORIENTED_EDGE('',*,*,#374,.T.);
#510=ORIENTED_EDGE('',*,*,#386,.F.);
#511=ORIENTED_EDGE('',*,*,#389,.T.);
#512=ORIENTED_EDGE('',*,*,#390,.T.);
#513=ORIENTED_EDGE('',*,*,#371,.T.);
#514=ORIENTED_EDGE('',*,*,#388,.F.);
#515=ORIENTED_EDGE('',*,*,#391,.T.);
#516=ORIENTED_EDGE('',*,*,#392,.T.);
#517=ORIENTED_EDGE('',*,*,#393,.T.);
#518=ORIENTED_EDGE('',*,*,#390,.F.);
#519=ORIENTED_EDGE('',*,*,#394,.T.);
#520=ORIENTED_EDGE('',*,*,#392,.F.);
#521=ORIENTED_EDGE('',*,*,#395,.T.);
#522=ORIENTED_EDGE('',*,*,#396,.T.);
#523=ORIENTED_EDGE('',*,*,#397,.T.);
#524=ORIENTED_EDGE('',*,*,#396,.F.);
#525=ORIENTED_EDGE('',*,*,#398,.T.);
#526=ORIENTED_EDGE('',*,*,#399,.T.);
#527=ORIENTED_EDGE('',*,*,#400,.T.);
#528=ORIENTED_EDGE('',*,*,#399,.F.);
#529=ORIENTED_EDGE('',*,*,#401,.T.);
#530=ORIENTED_EDGE('',*,*,#384,.T.);
#531=ORIENTED_EDGE('',*,*,#358,.F.);
#532=ORIENTED_EDGE('',*,*,#402,.F.);
#533=ORIENTED_EDGE('',*,*,#394,.F.);
#534=ORIENTED_EDGE('',*,*,#403,.T.);
#535=ORIENTED_EDGE('',*,*,#404,.T.);
#536=ORIENTED_EDGE('',*,*,#405,.T.);
#537=ORIENTED_EDGE('',*,*,#355,.F.);
#538=ORIENTED_EDGE('',*,*,#403,.F.);
#539=ORIENTED_EDGE('',*,*,#397,.F.);
#540=ORIENTED_EDGE('',*,*,#406,.T.);
#541=ORIENTED_EDGE('',*,*,#352,.F.);
#542=ORIENTED_EDGE('',*,*,#406,.F.);
#543=ORIENTED_EDGE('',*,*,#400,.F.);
#544=ORIENTED_EDGE('',*,*,#377,.T.);
#545=ORIENTED_EDGE('',*,*,#382,.F.);
#546=ORIENTED_EDGE('',*,*,#401,.F.);
#547=ORIENTED_EDGE('',*,*,#398,.F.);
#548=ORIENTED_EDGE('',*,*,#395,.F.);
#549=ORIENTED_EDGE('',*,*,#391,.F.);
#550=ORIENTED_EDGE('',*,*,#389,.F.);
#551=ORIENTED_EDGE('',*,*,#387,.F.);
#552=ORIENTED_EDGE('',*,*,#385,.F.);
#553=ORIENTED_EDGE('',*,*,#361,.F.);
#554=ORIENTED_EDGE('',*,*,#372,.F.);
#555=ORIENTED_EDGE('',*,*,#393,.F.);
#556=ORIENTED_EDGE('',*,*,#402,.T.);
#557=ORIENTED_EDGE('',*,*,#342,.T.);
#558=ORIENTED_EDGE('',*,*,#345,.T.);
#559=ORIENTED_EDGE('',*,*,#407,.T.);
#560=ORIENTED_EDGE('',*,*,#408,.T.);
#561=ORIENTED_EDGE('',*,*,#409,.T.);
#562=ORIENTED_EDGE('',*,*,#410,.T.);
#563=ORIENTED_EDGE('',*,*,#411,.T.);
#564=ORIENTED_EDGE('',*,*,#412,.T.);
#565=ORIENTED_EDGE('',*,*,#413,.T.);
#566=ORIENTED_EDGE('',*,*,#414,.T.);
#567=ORIENTED_EDGE('',*,*,#409,.F.);
#568=ORIENTED_EDGE('',*,*,#415,.T.);
#569=ORIENTED_EDGE('',*,*,#416,.F.);
#570=ORIENTED_EDGE('',*,*,#410,.F.);
#571=ORIENTED_EDGE('',*,*,#415,.F.);
#572=ORIENTED_EDGE('',*,*,#408,.F.);
#573=ORIENTED_EDGE('',*,*,#407,.F.);
#574=ORIENTED_EDGE('',*,*,#416,.T.);
#575=ORIENTED_EDGE('',*,*,#417,.T.);
#576=ORIENTED_EDGE('',*,*,#405,.F.);
#577=ORIENTED_EDGE('',*,*,#417,.F.);
#578=ORIENTED_EDGE('',*,*,#413,.F.);
#579=ORIENTED_EDGE('',*,*,#418,.T.);
#580=ORIENTED_EDGE('',*,*,#419,.F.);
#581=ORIENTED_EDGE('',*,*,#414,.F.);
#582=ORIENTED_EDGE('',*,*,#418,.F.);
#583=ORIENTED_EDGE('',*,*,#412,.F.);
#584=ORIENTED_EDGE('',*,*,#411,.F.);
#585=ORIENTED_EDGE('',*,*,#419,.T.);
#586=ORIENTED_EDGE('',*,*,#420,.T.);
#587=ORIENTED_EDGE('',*,*,#404,.F.);
#588=ORIENTED_EDGE('',*,*,#420,.F.);
#589=ORIENTED_EDGE('',*,*,#421,.T.);
#590=ORIENTED_EDGE('',*,*,#422,.T.);
#591=ORIENTED_EDGE('',*,*,#422,.F.);
#592=ORIENTED_EDGE('',*,*,#381,.F.);
#593=ORIENTED_EDGE('',*,*,#423,.T.);
#594=ORIENTED_EDGE('',*,*,#421,.F.);
#595=ORIENTED_EDGE('',*,*,#423,.F.);
#596=ORIENTED_EDGE('',*,*,#424,.T.);
#597=ORIENTED_EDGE('',*,*,#425,.T.);
#598=ORIENTED_EDGE('',*,*,#425,.F.);
#599=ORIENTED_EDGE('',*,*,#380,.F.);
#600=ORIENTED_EDGE('',*,*,#426,.T.);
#601=ORIENTED_EDGE('',*,*,#424,.F.);
#602=ORIENTED_EDGE('',*,*,#426,.F.);
#603=ORIENTED_EDGE('',*,*,#427,.T.);
#604=ORIENTED_EDGE('',*,*,#428,.T.);
#605=ORIENTED_EDGE('',*,*,#428,.F.);
#606=ORIENTED_EDGE('',*,*,#379,.F.);
#607=ORIENTED_EDGE('',*,*,#429,.T.);
#608=ORIENTED_EDGE('',*,*,#427,.F.);
#609=ORIENTED_EDGE('',*,*,#429,.F.);
#610=CYLINDRICAL_SURFACE('',#685,1.621);
#611=CYLINDRICAL_SURFACE('',#687,1.621);
#612=CYLINDRICAL_SURFACE('',#704,7.);
#613=CYLINDRICAL_SURFACE('',#728,7.);
#614=CYLINDRICAL_SURFACE('',#731,16.);
#615=CYLINDRICAL_SURFACE('',#735,4.);
#616=CYLINDRICAL_SURFACE('',#736,2.25);
#617=CYLINDRICAL_SURFACE('',#740,4.);
#618=CYLINDRICAL_SURFACE('',#741,2.25);
#619=CYLINDRICAL_SURFACE('',#744,2.067);
#620=CYLINDRICAL_SURFACE('',#747,2.067);
#621=CYLINDRICAL_SURFACE('',#750,2.067);
#622=ADVANCED_FACE('',(#56),#610,.F.);
#623=ADVANCED_FACE('',(#57),#611,.F.);
#624=ADVANCED_FACE('',(#58),#37,.T.);
#625=ADVANCED_FACE('',(#59),#38,.T.);
#626=ADVANCED_FACE('',(#60),#28,.F.);
#627=ADVANCED_FACE('',(#61),#39,.T.);
#628=ADVANCED_FACE('',(#62),#29,.T.);
#629=ADVANCED_FACE('',(#63),#40,.T.);
#630=ADVANCED_FACE('',(#64),#30,.F.);
#631=ADVANCED_FACE('',(#65),#41,.T.);
#632=ADVANCED_FACE('',(#66,#15,#16),#42,.T.);
#633=ADVANCED_FACE('',(#67),#612,.F.);
#634=ADVANCED_FACE('',(#68),#43,.T.);
#635=ADVANCED_FACE('',(#69),#44,.T.);
#636=ADVANCED_FACE('',(#70,#17,#18,#19),#45,.T.);
#637=ADVANCED_FACE('',(#71),#46,.T.);
#638=ADVANCED_FACE('',(#72),#47,.T.);
#639=ADVANCED_FACE('',(#73),#31,.F.);
#640=ADVANCED_FACE('',(#74),#48,.T.);
#641=ADVANCED_FACE('',(#75),#32,.T.);
#642=ADVANCED_FACE('',(#76),#49,.T.);
#643=ADVANCED_FACE('',(#77),#33,.F.);
#644=ADVANCED_FACE('',(#78),#50,.T.);
#645=ADVANCED_FACE('',(#79,#20,#21),#51,.T.);
#646=ADVANCED_FACE('',(#80),#613,.F.);
#647=ADVANCED_FACE('',(#81),#52,.T.);
#648=ADVANCED_FACE('',(#82),#53,.F.);
#649=ADVANCED_FACE('',(#83,#22,#23,#24,#25),#614,.T.);
#650=ADVANCED_FACE('',(#84,#26),#54,.T.);
#651=ADVANCED_FACE('',(#85),#615,.F.);
#652=ADVANCED_FACE('',(#86),#616,.F.);
#653=ADVANCED_FACE('',(#87,#27),#55,.T.);
#654=ADVANCED_FACE('',(#88),#617,.F.);
#655=ADVANCED_FACE('',(#89),#618,.F.);
#656=ADVANCED_FACE('',(#90),#34,.F.);
#657=ADVANCED_FACE('',(#91),#619,.F.);
#658=ADVANCED_FACE('',(#92),#35,.F.);
#659=ADVANCED_FACE('',(#93),#620,.F.);
#660=ADVANCED_FACE('',(#94),#36,.F.);
#661=ADVANCED_FACE('',(#95),#621,.F.);
#662=CLOSED_SHELL('',(#622,#623,#624,#625,#626,#627,#628,#629,#630,#631,
#632,#633,#634,#635,#636,#637,#638,#639,#640,#641,#642,#643,#644,#645,#646,
#647,#648,#649,#650,#651,#652,#653,#654,#655,#656,#657,#658,#659,#660,#661));
#663=DERIVED_UNIT_ELEMENT(#666,1.);
#664=DERIVED_UNIT_ELEMENT(#1302,-3.);
#665=DIMENSIONAL_EXPONENTS(0.,1.,0.,0.,0.,0.,0.);
#666=(
CONVERSION_BASED_UNIT('gram',#668)
MASS_UNIT()
NAMED_UNIT(#665)
);
#667=(
MASS_UNIT()
NAMED_UNIT(*)
SI_UNIT(.KILO.,.GRAM.)
);
#668=MASS_MEASURE_WITH_UNIT(MASS_MEASURE(0.001),#667);
#669=DERIVED_UNIT((#663,#664));
#670=MEASURE_REPRESENTATION_ITEM('density measure',
POSITIVE_RATIO_MEASURE(1.),#669);
#671=PROPERTY_DEFINITION_REPRESENTATION(#676,#673);
#672=PROPERTY_DEFINITION_REPRESENTATION(#677,#674);
#673=REPRESENTATION('material name',(#675),#1299);
#674=REPRESENTATION('density',(#670),#1299);
#675=DESCRIPTIVE_REPRESENTATION_ITEM('Generic','Generic');
#676=PROPERTY_DEFINITION('material property','material name',#1309);
#677=PROPERTY_DEFINITION('material property','density of part',#1309);
#678=DATE_TIME_ROLE('creation_date');
#679=APPLIED_DATE_AND_TIME_ASSIGNMENT(#680,#678,(#1309));
#680=DATE_AND_TIME(#681,#682);
#681=CALENDAR_DATE(2026,11,5);
#682=LOCAL_TIME(0,0,0.,#683);
#683=COORDINATED_UNIVERSAL_TIME_OFFSET(0,0,.BEHIND.);
#684=AXIS2_PLACEMENT_3D('',#929,#751,#752);
#685=AXIS2_PLACEMENT_3D('',#930,#753,#754);
#686=AXIS2_PLACEMENT_3D('',#932,#755,#756);
#687=AXIS2_PLACEMENT_3D('',#973,#758,#759);
#688=AXIS2_PLACEMENT_3D('',#975,#760,#761);
#689=AXIS2_PLACEMENT_3D('',#1016,#763,#764);
#690=AXIS2_PLACEMENT_3D('',#1025,#769,#770);
#691=AXIS2_PLACEMENT_3D('',#1034,#773,#774);
#692=AXIS2_PLACEMENT_3D('',#1036,#775,#776);
#693=AXIS2_PLACEMENT_3D('',#1042,#777,#778);
#694=AXIS2_PLACEMENT_3D('',#1043,#779,#780);
#695=AXIS2_PLACEMENT_3D('',#1052,#783,#784);
#696=AXIS2_PLACEMENT_3D('',#1054,#785,#786);
#697=AXIS2_PLACEMENT_3D('',#1060,#787,#788);
#698=AXIS2_PLACEMENT_3D('',#1061,#789,#790);
#699=AXIS2_PLACEMENT_3D('',#1070,#793,#794);
#700=AXIS2_PLACEMENT_3D('',#1072,#795,#796);
#701=AXIS2_PLACEMENT_3D('',#1074,#797,#798);
#702=AXIS2_PLACEMENT_3D('',#1079,#799,#800);
#703=AXIS2_PLACEMENT_3D('',#1082,#803,#804);
#704=AXIS2_PLACEMENT_3D('',#1088,#808,#809);
#705=AXIS2_PLACEMENT_3D('',#1091,#811,#812);
#706=AXIS2_PLACEMENT_3D('',#1092,#813,#814);
#707=AXIS2_PLACEMENT_3D('',#1096,#817,#818);
#708=AXIS2_PLACEMENT_3D('',#1100,#821,#822);
#709=AXIS2_PLACEMENT_3D('',#1102,#823,#824);
#710=AXIS2_PLACEMENT_3D('',#1104,#825,#826);
#711=AXIS2_PLACEMENT_3D('',#1106,#827,#828);
#712=AXIS2_PLACEMENT_3D('',#1107,#829,#830);
#713=AXIS2_PLACEMENT_3D('',#1113,#834,#835);
#714=AXIS2_PLACEMENT_3D('',#1120,#837,#838);
#715=AXIS2_PLACEMENT_3D('',#1122,#839,#840);
#716=AXIS2_PLACEMENT_3D('',#1127,#841,#842);
#717=AXIS2_PLACEMENT_3D('',#1134,#844,#845);
#718=AXIS2_PLACEMENT_3D('',#1136,#846,#847);
#719=AXIS2_PLACEMENT_3D('',#1142,#848,#849);
#720=AXIS2_PLACEMENT_3D('',#1143,#850,#851);
#721=AXIS2_PLACEMENT_3D('',#1152,#854,#855);
#722=AXIS2_PLACEMENT_3D('',#1154,#856,#857);
#723=AXIS2_PLACEMENT_3D('',#1156,#858,#859);
#724=AXIS2_PLACEMENT_3D('',#1161,#860,#861);
#725=AXIS2_PLACEMENT_3D('',#1164,#864,#865);
#726=AXIS2_PLACEMENT_3D('',#1168,#868,#869);
#727=AXIS2_PLACEMENT_3D('',#1170,#870,#871);
#728=AXIS2_PLACEMENT_3D('',#1171,#872,#873);
#729=AXIS2_PLACEMENT_3D('',#1173,#875,#876);
#730=AXIS2_PLACEMENT_3D('',#1174,#877,#878);
#731=AXIS2_PLACEMENT_3D('',#1175,#879,#880);
#732=AXIS2_PLACEMENT_3D('',#1262,#883,#884);
#733=AXIS2_PLACEMENT_3D('',#1263,#885,#886);
#734=AXIS2_PLACEMENT_3D('',#1265,#887,#888);
#735=AXIS2_PLACEMENT_3D('',#1266,#889,#890);
#736=AXIS2_PLACEMENT_3D('',#1267,#891,#892);
#737=AXIS2_PLACEMENT_3D('',#1269,#894,#895);
#738=AXIS2_PLACEMENT_3D('',#1270,#896,#897);
#739=AXIS2_PLACEMENT_3D('',#1272,#898,#899);
#740=AXIS2_PLACEMENT_3D('',#1273,#900,#901);
#741=AXIS2_PLACEMENT_3D('',#1274,#902,#903);
#742=AXIS2_PLACEMENT_3D('',#1276,#905,#906);
#743=AXIS2_PLACEMENT_3D('',#1278,#907,#908);
#744=AXIS2_PLACEMENT_3D('',#1281,#910,#911);
#745=AXIS2_PLACEMENT_3D('',#1283,#913,#914);
#746=AXIS2_PLACEMENT_3D('',#1285,#915,#916);
#747=AXIS2_PLACEMENT_3D('',#1288,#918,#919);
#748=AXIS2_PLACEMENT_3D('',#1290,#921,#922);
#749=AXIS2_PLACEMENT_3D('',#1292,#923,#924);
#750=AXIS2_PLACEMENT_3D('',#1295,#926,#927);
#751=DIRECTION('axis',(0.,0.,1.));
#752=DIRECTION('refdir',(1.,0.,0.));
#753=DIRECTION('center_axis',(-1.22805269190159E-16,1.,0.));
#754=DIRECTION('ref_axis',(1.,1.22805269190159E-16,0.));
#755=DIRECTION('center_axis',(1.22805269190159E-16,-1.,0.));
#756=DIRECTION('ref_axis',(1.,1.22805269190159E-16,0.));
#757=DIRECTION('',(1.22805269190159E-16,-1.,0.));
#758=DIRECTION('center_axis',(-1.22805269190159E-16,1.,0.));
#759=DIRECTION('ref_axis',(1.,1.22805269190159E-16,0.));
#760=DIRECTION('center_axis',(1.22805269190159E-16,-1.,0.));
#761=DIRECTION('ref_axis',(1.,1.22805269190159E-16,0.));
#762=DIRECTION('',(1.22805269190159E-16,-1.,0.));
#763=DIRECTION('center_axis',(-0.353553390593273,-0.612372435695794,0.707106781186549));
#764=DIRECTION('ref_axis',(0.894427190999917,0.,0.447213595499956));
#765=DIRECTION('',(-0.866025403784439,0.499999999999999,0.));
#766=DIRECTION('',(0.211324865405186,-0.788675134594814,-0.577350269189625));
#767=DIRECTION('',(0.866025403784439,-0.499999999999999,0.));
#768=DIRECTION('',(-0.788675134594813,-0.211324865405189,-0.577350269189625));
#769=DIRECTION('center_axis',(0.612372435695796,-0.353553390593274,0.707106781186547));
#770=DIRECTION('ref_axis',(0.755928946018454,0.,-0.654653670707978));
#771=DIRECTION('',(-0.499999999999999,-0.866025403784439,0.));
#772=DIRECTION('',(0.499999999999999,0.866025403784439,0.));
#773=DIRECTION('center_axis',(0.,0.,1.));
#774=DIRECTION('ref_axis',(-1.,0.,0.));
#775=DIRECTION('center_axis',(0.,0.,1.));
#776=DIRECTION('ref_axis',(-1.,0.,0.));
#777=DIRECTION('center_axis',(0.,0.,-1.));
#778=DIRECTION('ref_axis',(-1.,0.,0.));
#779=DIRECTION('center_axis',(0.,-0.707106781186548,0.707106781186547));
#780=DIRECTION('ref_axis',(1.,0.,0.));
#781=DIRECTION('',(-1.,0.,0.));
#782=DIRECTION('',(1.,0.,0.));
#783=DIRECTION('center_axis',(0.,0.,-1.));
#784=DIRECTION('ref_axis',(1.,0.,0.));
#785=DIRECTION('center_axis',(0.,0.,-1.));
#786=DIRECTION('ref_axis',(1.,0.,0.));
#787=DIRECTION('center_axis',(0.,0.,1.));
#788=DIRECTION('ref_axis',(1.,0.,0.));
#789=DIRECTION('center_axis',(-8.68364386098008E-17,0.707106781186548,0.707106781186547));
#790=DIRECTION('ref_axis',(1.,0.,1.22805269190159E-16));
#791=DIRECTION('',(-1.,-1.22805269190159E-16,0.));
#792=DIRECTION('',(1.,1.22805269190159E-16,0.));
#793=DIRECTION('center_axis',(0.,0.,1.));
#794=DIRECTION('ref_axis',(1.,0.,0.));
#795=DIRECTION('center_axis',(0.,0.,-1.));
#796=DIRECTION('ref_axis',(1.,0.,0.));
#797=DIRECTION('center_axis',(0.,0.,1.));
#798=DIRECTION('ref_axis',(1.,0.,0.));
#799=DIRECTION('center_axis',(-0.612372435695794,0.353553390593274,0.707106781186548));
#800=DIRECTION('ref_axis',(0.755928946018455,0.,0.654653670707977));
#801=DIRECTION('',(-0.5,-0.866025403784439,0.));
#802=DIRECTION('',(0.5,0.866025403784439,0.));
#803=DIRECTION('center_axis',(-1.22805269190159E-16,1.,0.));
#804=DIRECTION('ref_axis',(-1.,-1.22805269190159E-16,0.));
#805=DIRECTION('',(0.,0.,1.));
#806=DIRECTION('',(1.,1.22805269190159E-16,0.));
#807=DIRECTION('',(0.,0.,1.));
#808=DIRECTION('center_axis',(0.,0.,1.));
#809=DIRECTION('ref_axis',(0.401055654449258,-0.916053689493295,0.));
#810=DIRECTION('',(0.,0.,1.));
#811=DIRECTION('center_axis',(0.,0.,1.));
#812=DIRECTION('ref_axis',(1.,0.,0.));
#813=DIRECTION('center_axis',(-0.866025403784439,0.5,0.));
#814=DIRECTION('ref_axis',(-0.5,-0.866025403784439,0.));
#815=DIRECTION('',(0.,0.,-1.));
#816=DIRECTION('',(0.5,0.866025403784439,0.));
#817=DIRECTION('center_axis',(-0.499999999999999,-0.866025403784439,0.));
#818=DIRECTION('ref_axis',(0.866025403784439,-0.499999999999999,0.));
#819=DIRECTION('',(0.,0.,1.));
#820=DIRECTION('',(-0.866025403784439,0.499999999999999,0.));
#821=DIRECTION('center_axis',(0.,0.,1.));
#822=DIRECTION('ref_axis',(1.,0.,0.));
#823=DIRECTION('center_axis',(0.,0.,-1.));
#824=DIRECTION('ref_axis',(1.,0.,0.));
#825=DIRECTION('center_axis',(0.,0.,-1.));
#826=DIRECTION('ref_axis',(1.,0.,0.));
#827=DIRECTION('center_axis',(0.,0.,-1.));
#828=DIRECTION('ref_axis',(1.,0.,0.));
#829=DIRECTION('center_axis',(-0.353553390593273,-0.612372435695794,-0.707106781186549));
#830=DIRECTION('ref_axis',(-0.894427190999917,0.,0.447213595499956));
#831=DIRECTION('',(0.866025403784439,-0.499999999999999,0.));
#832=DIRECTION('',(-0.788675134594813,-0.211324865405189,0.577350269189625));
#833=DIRECTION('',(0.211324865405189,-0.788675134594813,0.577350269189625));
#834=DIRECTION('center_axis',(-0.612372435695794,0.353553390593274,-0.707106781186548));
#835=DIRECTION('ref_axis',(-0.755928946018455,0.,0.654653670707977));
#836=DIRECTION('',(-0.5,-0.866025403784439,0.));
#837=DIRECTION('center_axis',(0.,0.,-1.));
#838=DIRECTION('ref_axis',(1.,0.,0.));
#839=DIRECTION('center_axis',(0.,0.,-1.));
#840=DIRECTION('ref_axis',(1.,0.,0.));
#841=DIRECTION('center_axis',(-8.68364386098008E-17,0.707106781186548,-0.707106781186547));
#842=DIRECTION('ref_axis',(-1.,0.,1.22805269190159E-16));
#843=DIRECTION('',(-1.,-1.22805269190159E-16,0.));
#844=DIRECTION('center_axis',(0.,0.,1.));
#845=DIRECTION('ref_axis',(1.,0.,0.));
#846=DIRECTION('center_axis',(0.,0.,1.));
#847=DIRECTION('ref_axis',(1.,0.,0.));
#848=DIRECTION('center_axis',(0.,0.,-1.));
#849=DIRECTION('ref_axis',(1.,0.,0.));
#850=DIRECTION('center_axis',(0.,-0.707106781186548,-0.707106781186547));
#851=DIRECTION('ref_axis',(-1.,0.,0.));
#852=DIRECTION('',(-1.,0.,0.));
#853=DIRECTION('',(1.,0.,0.));
#854=DIRECTION('center_axis',(0.,0.,-1.));
#855=DIRECTION('ref_axis',(-1.,0.,0.));
#856=DIRECTION('center_axis',(0.,0.,1.));
#857=DIRECTION('ref_axis',(-1.,0.,0.));
#858=DIRECTION('center_axis',(0.,0.,-1.));
#859=DIRECTION('ref_axis',(-1.,0.,0.));
#860=DIRECTION('center_axis',(0.612372435695796,-0.353553390593274,-0.707106781186547));
#861=DIRECTION('ref_axis',(-0.755928946018454,0.,-0.654653670707978));
#862=DIRECTION('',(-0.499999999999999,-0.866025403784439,0.));
#863=DIRECTION('',(0.499999999999999,0.866025403784439,0.));
#864=DIRECTION('center_axis',(0.,-1.,0.));
#865=DIRECTION('ref_axis',(1.,0.,0.));
#866=DIRECTION('',(0.,0.,1.));
#867=DIRECTION('',(0.,0.,1.));
#868=DIRECTION('center_axis',(0.,1.,0.));
#869=DIRECTION('ref_axis',(1.,1.22805269190159E-16,0.));
#870=DIRECTION('center_axis',(0.,1.,0.));
#871=DIRECTION('ref_axis',(1.,1.22805269190159E-16,0.));
#872=DIRECTION('center_axis',(0.,0.,1.));
#873=DIRECTION('ref_axis',(-1.,0.,0.));
#874=DIRECTION('',(0.,0.,1.));
#875=DIRECTION('center_axis',(0.866025403784439,-0.499999999999999,0.));
#876=DIRECTION('ref_axis',(0.499999999999999,0.866025403784439,0.));
#877=DIRECTION('center_axis',(0.,0.,1.));
#878=DIRECTION('ref_axis',(1.,0.,0.));
#879=DIRECTION('center_axis',(0.,0.,1.));
#880=DIRECTION('ref_axis',(1.,0.,0.));
#881=DIRECTION('',(0.,0.,-1.));
#882=DIRECTION('',(0.,0.,-1.));
#883=DIRECTION('center_axis',(-1.22805269190159E-16,1.,0.));
#884=DIRECTION('ref_axis',(1.,1.22805269190159E-16,0.));
#885=DIRECTION('center_axis',(-1.22805269190159E-16,1.,0.));
#886=DIRECTION('ref_axis',(1.,1.22805269190159E-16,0.));
#887=DIRECTION('center_axis',(-1.22805269190159E-16,1.,0.));
#888=DIRECTION('ref_axis',(1.,1.22805269190159E-16,0.));
#889=DIRECTION('center_axis',(-1.22805269190159E-16,1.,0.));
#890=DIRECTION('ref_axis',(1.,1.22805269190159E-16,0.));
#891=DIRECTION('center_axis',(-1.22805269190159E-16,1.,0.));
#892=DIRECTION('ref_axis',(1.,1.22805269190159E-16,0.));
#893=DIRECTION('',(1.22805269190159E-16,-1.,0.));
#894=DIRECTION('center_axis',(-1.22805269190159E-16,1.,0.));
#895=DIRECTION('ref_axis',(1.,1.22805269190159E-16,0.));
#896=DIRECTION('center_axis',(-1.22805269190159E-16,1.,0.));
#897=DIRECTION('ref_axis',(1.,1.22805269190159E-16,0.));
#898=DIRECTION('center_axis',(-1.22805269190159E-16,1.,0.));
#899=DIRECTION('ref_axis',(1.,1.22805269190159E-16,0.));
#900=DIRECTION('center_axis',(-1.22805269190159E-16,1.,0.));
#901=DIRECTION('ref_axis',(1.,1.22805269190159E-16,0.));
#902=DIRECTION('center_axis',(-1.22805269190159E-16,1.,0.));
#903=DIRECTION('ref_axis',(1.,1.22805269190159E-16,0.));
#904=DIRECTION('',(1.22805269190159E-16,-1.,0.));
#905=DIRECTION('center_axis',(0.,0.,1.));
#906=DIRECTION('ref_axis',(1.,0.,0.));
#907=DIRECTION('center_axis',(0.,0.,1.));
#908=DIRECTION('ref_axis',(1.,0.,0.));
#909=DIRECTION('',(0.857167300702112,1.04972719113862E-16,-0.515038074910054));
#910=DIRECTION('center_axis',(0.,0.,1.));
#911=DIRECTION('ref_axis',(1.,0.,0.));
#912=DIRECTION('',(0.,0.,-1.));
#913=DIRECTION('center_axis',(0.,0.,1.));
#914=DIRECTION('ref_axis',(1.,0.,0.));
#915=DIRECTION('center_axis',(0.,0.,1.));
#916=DIRECTION('ref_axis',(1.,0.,0.));
#917=DIRECTION('',(0.857167300702112,1.04972719113862E-16,-0.515038074910054));
#918=DIRECTION('center_axis',(0.,0.,1.));
#919=DIRECTION('ref_axis',(1.,0.,0.));
#920=DIRECTION('',(0.,0.,-1.));
#921=DIRECTION('center_axis',(0.,0.,1.));
#922=DIRECTION('ref_axis',(1.,0.,0.));
#923=DIRECTION('center_axis',(0.,0.,1.));
#924=DIRECTION('ref_axis',(1.,0.,0.));
#925=DIRECTION('',(0.857167300702112,1.04972719113862E-16,-0.515038074910054));
#926=DIRECTION('center_axis',(0.,0.,1.));
#927=DIRECTION('ref_axis',(1.,0.,0.));
#928=DIRECTION('',(0.,0.,-1.));
#929=CARTESIAN_POINT('',(0.,0.,0.));
#930=CARTESIAN_POINT('Origin',(-11.4484613264734,-50.4570421833482,5.));
#931=CARTESIAN_POINT('',(-13.0694613264734,-0.999999999999996,5.));
#932=CARTESIAN_POINT('Origin',(-11.4484613264734,-0.999999999999996,5.));
#933=CARTESIAN_POINT('',(-13.0694613264734,-9.2297985154507,5.));
#934=CARTESIAN_POINT('',(-13.0694613264734,-50.4570421833482,5.));
#935=CARTESIAN_POINT('Ctrl Pts',(-13.0694613264734,-9.2297985154507,5.));
#936=CARTESIAN_POINT('Ctrl Pts',(-13.0694613264734,-9.2297985154507,5.10330694458391));
#937=CARTESIAN_POINT('Ctrl Pts',(-13.0594614952033,-9.24400233757296,5.20613768225689));
#938=CARTESIAN_POINT('Ctrl Pts',(-13.0214333060707,-9.29748971713951,5.40450576823785));
#939=CARTESIAN_POINT('Ctrl Pts',(-12.9933952670675,-9.33676734813091,5.50004285844966));
#940=CARTESIAN_POINT('Ctrl Pts',(-12.8886212808162,-9.48143566809774,5.76842122663112));
#941=CARTESIAN_POINT('Ctrl Pts',(-12.7903408092412,-9.61432298839271,5.92307396849472));
#942=CARTESIAN_POINT('Ctrl Pts',(-12.5307679723235,-9.95222455072603,6.23130255654286));
#943=CARTESIAN_POINT('Ctrl Pts',(-12.3344654309579,-10.1965258385015,6.37778378645036));
#944=CARTESIAN_POINT('Ctrl Pts',(-11.9050151135354,-10.6948020975856,6.57316560448239));
#945=CARTESIAN_POINT('Ctrl Pts',(-11.6715023164662,-10.9488798956181,6.621));
#946=CARTESIAN_POINT('Ctrl Pts',(-11.2512068917414,-11.3793704858936,6.621));
#947=CARTESIAN_POINT('Ctrl Pts',(-11.0312092928692,-11.5928947856976,6.58317597920506));
#948=CARTESIAN_POINT('Ctrl Pts',(-10.6072608069769,-11.9820200972467,6.4046093496957));
#949=CARTESIAN_POINT('Ctrl Pts',(-10.4035570018475,-12.157787320113,6.26364252046706));
#950=CARTESIAN_POINT('Ctrl Pts',(-10.1231065084987,-12.3913482012707,5.94943718701997));
#951=CARTESIAN_POINT('Ctrl Pts',(-10.0147096336465,-12.4785622272638,5.7827121943794));
#952=CARTESIAN_POINT('Ctrl Pts',(-9.86666499072075,-12.5959456053054,5.40768021458969));
#953=CARTESIAN_POINT('Ctrl Pts',(-9.82746132647341,-12.626203066507,5.19922564549459));
#954=CARTESIAN_POINT('Ctrl Pts',(-9.82746132647341,-12.626203066507,4.80077435450541));
#955=CARTESIAN_POINT('Ctrl Pts',(-9.86666499072075,-12.5959456053054,4.59231978541031));
#956=CARTESIAN_POINT('Ctrl Pts',(-10.0147096336465,-12.4785622272638,4.2172878056206));
#957=CARTESIAN_POINT('Ctrl Pts',(-10.1231065084987,-12.3913482012707,4.05056281298003));
#958=CARTESIAN_POINT('Ctrl Pts',(-10.4035570018475,-12.157787320113,3.73635747953294));
#959=CARTESIAN_POINT('Ctrl Pts',(-10.6072608069769,-11.9820200972467,3.59539065030429));
#960=CARTESIAN_POINT('Ctrl Pts',(-11.0312092928692,-11.5928947856976,3.41682402079493));
#961=CARTESIAN_POINT('Ctrl Pts',(-11.2512068917414,-11.3793704858936,3.379));
#962=CARTESIAN_POINT('Ctrl Pts',(-11.6715023164662,-10.9488798956181,3.379));
#963=CARTESIAN_POINT('Ctrl Pts',(-11.9050151135354,-10.6948020975856,3.4268343955176));
#964=CARTESIAN_POINT('Ctrl Pts',(-12.3344654309579,-10.1965258385015,3.62221621354964));
#965=CARTESIAN_POINT('Ctrl Pts',(-12.5307679723235,-9.95222455072603,3.76869744345714));
#966=CARTESIAN_POINT('Ctrl Pts',(-12.7903408092412,-9.61432298839271,4.07692603150528));
#967=CARTESIAN_POINT('Ctrl Pts',(-12.8886212808162,-9.48143566809774,4.23157877336888));
#968=CARTESIAN_POINT('Ctrl Pts',(-12.9933952670675,-9.33676734813091,4.49995714155034));
#969=CARTESIAN_POINT('Ctrl Pts',(-13.0214333060707,-9.29748971713951,4.59549423176214));
#970=CARTESIAN_POINT('Ctrl Pts',(-13.0594614952033,-9.24400233757296,4.79386231774311));
#971=CARTESIAN_POINT('Ctrl Pts',(-13.0694613264734,-9.2297985154507,4.89669305541609));
#972=CARTESIAN_POINT('Ctrl Pts',(-13.0694613264734,-9.2297985154507,5.));
#973=CARTESIAN_POINT('Origin',(-11.4484613264734,-50.4570421833482,-5.00000000000001));
#974=CARTESIAN_POINT('',(-13.0694613264734,-0.999999999999996,-5.00000000000001));
#975=CARTESIAN_POINT('Origin',(-11.4484613264734,-0.999999999999996,-5.00000000000001));
#976=CARTESIAN_POINT('',(-13.0694613264734,-9.22979851545069,-5.00000000000001));
#977=CARTESIAN_POINT('',(-13.0694613264734,-50.4570421833482,-5.00000000000001));
#978=CARTESIAN_POINT('Ctrl Pts',(-13.0694613264734,-9.22979851545069,-5.00000000000001));
#979=CARTESIAN_POINT('Ctrl Pts',(-13.0694613264734,-9.22979851545069,-4.89669305541609));
#980=CARTESIAN_POINT('Ctrl Pts',(-13.0594614952033,-9.24400233757295,-4.79386231774312));
#981=CARTESIAN_POINT('Ctrl Pts',(-13.0214333060707,-9.2974897171395,-4.59549423176215));
#982=CARTESIAN_POINT('Ctrl Pts',(-12.9933952670675,-9.33676734813089,-4.49995714155035));
#983=CARTESIAN_POINT('Ctrl Pts',(-12.8886212808162,-9.48143566809772,-4.23157877336889));
#984=CARTESIAN_POINT('Ctrl Pts',(-12.7903408092412,-9.61432298839269,-4.07692603150528));
#985=CARTESIAN_POINT('Ctrl Pts',(-12.5307679723235,-9.95222455072602,-3.76869744345715));
#986=CARTESIAN_POINT('Ctrl Pts',(-12.3344654309579,-10.1965258385015,-3.62221621354965));
#987=CARTESIAN_POINT('Ctrl Pts',(-11.9050151135354,-10.6948020975856,-3.42683439551761));
#988=CARTESIAN_POINT('Ctrl Pts',(-11.6715023164662,-10.948879895618,-3.37900000000001));
#989=CARTESIAN_POINT('Ctrl Pts',(-11.2512068917414,-11.3793704858936,-3.37900000000001));
#990=CARTESIAN_POINT('Ctrl Pts',(-11.0312092928692,-11.5928947856976,-3.41682402079494));
#991=CARTESIAN_POINT('Ctrl Pts',(-10.6072608069769,-11.9820200972466,-3.5953906503043));
#992=CARTESIAN_POINT('Ctrl Pts',(-10.4035570018475,-12.157787320113,-3.73635747953295));
#993=CARTESIAN_POINT('Ctrl Pts',(-10.1231065084987,-12.3913482012707,-4.05056281298004));
#994=CARTESIAN_POINT('Ctrl Pts',(-10.0147096336465,-12.4785622272638,-4.21728780562061));
#995=CARTESIAN_POINT('Ctrl Pts',(-9.86666499072076,-12.5959456053054,-4.59231978541032));
#996=CARTESIAN_POINT('Ctrl Pts',(-9.82746132647342,-12.6262030665069,-4.80077435450541));
#997=CARTESIAN_POINT('Ctrl Pts',(-9.82746132647342,-12.6262030665069,-5.1992256454946));
#998=CARTESIAN_POINT('Ctrl Pts',(-9.86666499072076,-12.5959456053054,-5.40768021458969));
#999=CARTESIAN_POINT('Ctrl Pts',(-10.0147096336465,-12.4785622272638,-5.78271219437941));
#1000=CARTESIAN_POINT('Ctrl Pts',(-10.1231065084987,-12.3913482012707,-5.94943718701998));
#1001=CARTESIAN_POINT('Ctrl Pts',(-10.4035570018475,-12.157787320113,-6.26364252046707));
#1002=CARTESIAN_POINT('Ctrl Pts',(-10.6072608069769,-11.9820200972466,-6.40460934969571));
#1003=CARTESIAN_POINT('Ctrl Pts',(-11.0312092928692,-11.5928947856976,-6.58317597920507));
#1004=CARTESIAN_POINT('Ctrl Pts',(-11.2512068917414,-11.3793704858936,-6.62100000000001));
#1005=CARTESIAN_POINT('Ctrl Pts',(-11.6715023164663,-10.948879895618,-6.62100000000001));
#1006=CARTESIAN_POINT('Ctrl Pts',(-11.9050151135354,-10.6948020975856,-6.5731656044824));
#1007=CARTESIAN_POINT('Ctrl Pts',(-12.3344654309579,-10.1965258385015,-6.37778378645036));
#1008=CARTESIAN_POINT('Ctrl Pts',(-12.5307679723235,-9.95222455072602,-6.23130255654286));
#1009=CARTESIAN_POINT('Ctrl Pts',(-12.7903408092412,-9.61432298839269,-5.92307396849473));
#1010=CARTESIAN_POINT('Ctrl Pts',(-12.8886212808162,-9.48143566809773,-5.76842122663112));
#1011=CARTESIAN_POINT('Ctrl Pts',(-12.9933952670675,-9.33676734813089,-5.50004285844966));
#1012=CARTESIAN_POINT('Ctrl Pts',(-13.0214333060707,-9.2974897171395,-5.40450576823786));
#1013=CARTESIAN_POINT('Ctrl Pts',(-13.0594614952033,-9.24400233757295,-5.2061376822569));
#1014=CARTESIAN_POINT('Ctrl Pts',(-13.0694613264734,-9.22979851545069,-5.10330694458392));
#1015=CARTESIAN_POINT('Ctrl Pts',(-13.0694613264734,-9.22979851545069,-5.00000000000001));
#1016=CARTESIAN_POINT('Origin',(3.62333335351857,8.76225257374727,9.9));
#1017=CARTESIAN_POINT('',(7.08826859021798,6.87724133595217,10.));
#1018=CARTESIAN_POINT('',(2.41173140978201,9.57724133595217,10.));
#1019=CARTESIAN_POINT('',(3.67333335351858,8.84885511412571,10.));
#1020=CARTESIAN_POINT('',(2.4849364905389,9.30403625519528,9.8));
#1021=CARTESIAN_POINT('',(2.41173140978201,9.57724133595217,10.));
#1022=CARTESIAN_POINT('',(6.81506350946109,6.80403625519529,9.8));
#1023=CARTESIAN_POINT('',(3.57333335351858,8.67565003336882,9.8));
#1024=CARTESIAN_POINT('',(7.08826859021798,6.87724133595217,10.));
#1025=CARTESIAN_POINT('Origin',(-0.615123909928746,4.13457413505299,9.9));
#1026=CARTESIAN_POINT('',(0.999020728975061,7.13035466039931,10.));
#1027=CARTESIAN_POINT('',(-0.70172645030719,4.18457413505299,10.));
#1028=CARTESIAN_POINT('',(1.1041106981944,6.91237582645306,9.8));
#1029=CARTESIAN_POINT('Ctrl Pts',(0.999020728975061,7.13035466039931,10.));
#1030=CARTESIAN_POINT('Ctrl Pts',(1.0343472193185,7.05796360772057,9.93321083559667));
#1031=CARTESIAN_POINT('Ctrl Pts',(1.06938840438523,6.98529568883942,9.86653031970959));
#1032=CARTESIAN_POINT('Ctrl Pts',(1.1041106981944,6.91237582645306,9.8));
#1033=CARTESIAN_POINT('',(-0.528521369550302,4.08457413505299,9.8));
#1034=CARTESIAN_POINT('Origin',(0.,0.,9.9));
#1035=CARTESIAN_POINT('',(-7.09929573971954,1.2,10.));
#1036=CARTESIAN_POINT('Origin',(0.,0.,10.));
#1037=CARTESIAN_POINT('',(-6.92820323027551,1.,9.8));
#1038=CARTESIAN_POINT('Ctrl Pts',(-7.09929573971954,1.2,10.));
#1039=CARTESIAN_POINT('Ctrl Pts',(-7.04277529455601,1.13312410740726,9.93312410740726));
#1040=CARTESIAN_POINT('Ctrl Pts',(-6.98574217422866,1.06644024956048,9.86644024956048));
#1041=CARTESIAN_POINT('Ctrl Pts',(-6.92820323027551,1.,9.8));
#1042=CARTESIAN_POINT('Origin',(0.,0.,9.8));
#1043=CARTESIAN_POINT('Origin',(-7.97653956700348,1.1,9.9));
#1044=CARTESIAN_POINT('',(-15.7543644746464,1.2,10.));
#1045=CARTESIAN_POINT('',(-7.97653956700348,1.2,10.));
#1046=CARTESIAN_POINT('',(-15.9687194226713,1.,9.8));
#1047=CARTESIAN_POINT('Ctrl Pts',(-15.7543644746464,1.2,10.));
#1048=CARTESIAN_POINT('Ctrl Pts',(-15.8261224600149,1.13349991438459,9.93349991438459));
#1049=CARTESIAN_POINT('Ctrl Pts',(-15.8975747688673,1.06682876558935,9.86682876558935));
#1050=CARTESIAN_POINT('Ctrl Pts',(-15.9687194226713,1.,9.8));
#1051=CARTESIAN_POINT('',(-7.97653956700348,1.,9.8));
#1052=CARTESIAN_POINT('Origin',(0.,0.,9.9));
#1053=CARTESIAN_POINT('',(-15.7543644746464,-1.2,10.));
#1054=CARTESIAN_POINT('Origin',(0.,0.,10.));
#1055=CARTESIAN_POINT('',(-15.9687194226713,-1.,9.8));
#1056=CARTESIAN_POINT('Ctrl Pts',(-15.7543644746464,-1.2,10.));
#1057=CARTESIAN_POINT('Ctrl Pts',(-15.8261224600149,-1.13349991438458,9.93349991438458));
#1058=CARTESIAN_POINT('Ctrl Pts',(-15.8975747688673,-1.06682876558934,9.86682876558933));
#1059=CARTESIAN_POINT('Ctrl Pts',(-15.9687194226713,-1.,9.8));
#1060=CARTESIAN_POINT('Origin',(0.,0.,9.8));
#1061=CARTESIAN_POINT('Origin',(-3.45628147080558,-1.1,9.9));
#1062=CARTESIAN_POINT('',(-6.92820323027551,-1.,9.8));
#1063=CARTESIAN_POINT('',(-3.45628147080558,-0.999999999999999,9.8));
#1064=CARTESIAN_POINT('',(-7.09929573971954,-1.2,10.));
#1065=CARTESIAN_POINT('',(-3.45628147080558,-1.2,10.));
#1066=CARTESIAN_POINT('Ctrl Pts',(-7.09929573971954,-1.2,10.));
#1067=CARTESIAN_POINT('Ctrl Pts',(-7.042775294556,-1.13312410740723,9.93312410740723));
#1068=CARTESIAN_POINT('Ctrl Pts',(-6.98574217422865,-1.06644024956046,9.86644024956047));
#1069=CARTESIAN_POINT('Ctrl Pts',(-6.92820323027551,-1.,9.8));
#1070=CARTESIAN_POINT('Origin',(0.,0.,9.9));
#1071=CARTESIAN_POINT('',(5.4342377171166,4.41237582645307,9.8));
#1072=CARTESIAN_POINT('Origin',(0.,0.,9.8));
#1073=CARTESIAN_POINT('',(5.67555790941103,4.43035466039931,10.));
#1074=CARTESIAN_POINT('Origin',(0.,0.,10.));
#1075=CARTESIAN_POINT('Ctrl Pts',(5.67555790941103,4.43035466039931,10.));
#1076=CARTESIAN_POINT('Ctrl Pts',(5.59520217361302,4.42475277212392,9.93321083559682));
#1077=CARTESIAN_POINT('Ctrl Pts',(5.51474931728833,4.41876536912983,9.86653031970967));
#1078=CARTESIAN_POINT('Ctrl Pts',(5.4342377171166,4.41237582645307,9.8));
#1079=CARTESIAN_POINT('Origin',(4.57862108592258,2.7304043494241,9.9));
#1080=CARTESIAN_POINT('',(4.49201854554414,2.7804043494241,9.8));
#1081=CARTESIAN_POINT('',(4.66522362630102,2.6804043494241,10.));
#1082=CARTESIAN_POINT('Origin',(-6.92820323027551,-1.,0.));
#1083=CARTESIAN_POINT('',(-6.92820323027551,-1.,-9.8));
#1084=CARTESIAN_POINT('',(-6.92820323027551,-1.,0.));
#1085=CARTESIAN_POINT('',(-15.9687194226713,-1.,-9.8));
#1086=CARTESIAN_POINT('',(-3.45628147080558,-0.999999999999999,-9.8));
#1087=CARTESIAN_POINT('',(-15.9687194226713,-1.,0.));
#1088=CARTESIAN_POINT('Origin',(0.,0.,0.));
#1089=CARTESIAN_POINT('',(5.4342377171166,4.41237582645307,-9.8));
#1090=CARTESIAN_POINT('',(5.4342377171166,4.41237582645307,0.));
#1091=CARTESIAN_POINT('Origin',(0.,0.,-9.8));
#1092=CARTESIAN_POINT('Origin',(6.81506350946109,6.80403625519529,0.));
#1093=CARTESIAN_POINT('',(6.81506350946109,6.80403625519529,-9.8));
#1094=CARTESIAN_POINT('',(6.81506350946109,6.80403625519529,0.));
#1095=CARTESIAN_POINT('',(4.49201854554414,2.7804043494241,-9.8));
#1096=CARTESIAN_POINT('Origin',(2.4849364905389,9.30403625519528,0.));
#1097=CARTESIAN_POINT('',(2.4849364905389,9.30403625519528,-9.8));
#1098=CARTESIAN_POINT('',(2.4849364905389,9.30403625519528,0.));
#1099=CARTESIAN_POINT('',(3.57333335351858,8.67565003336882,-9.8));
#1100=CARTESIAN_POINT('Origin',(0.0156402886643436,0.,10.));
#1101=CARTESIAN_POINT('',(-6.293182617407,9.0630778703665,10.));
#1102=CARTESIAN_POINT('Origin',(-4.226182617407,9.0630778703665,10.));
#1103=CARTESIAN_POINT('',(-7.80276436351046,-8.19152044288992,10.));
#1104=CARTESIAN_POINT('Origin',(-5.73576436351046,-8.19152044288992,10.));
#1105=CARTESIAN_POINT('',(7.89494698091746,-0.871557427476584,10.));
#1106=CARTESIAN_POINT('Origin',(9.96194698091746,-0.871557427476584,10.));
#1107=CARTESIAN_POINT('Origin',(3.62333335351857,8.76225257374727,-9.9));
#1108=CARTESIAN_POINT('',(2.41173140978201,9.57724133595217,-10.));
#1109=CARTESIAN_POINT('',(7.08826859021798,6.87724133595217,-10.));
#1110=CARTESIAN_POINT('',(3.67333335351858,8.84885511412571,-10.));
#1111=CARTESIAN_POINT('',(7.08826859021798,6.87724133595217,-10.));
#1112=CARTESIAN_POINT('',(2.41173140978201,9.57724133595217,-10.));
#1113=CARTESIAN_POINT('Origin',(4.57862108592258,2.7304043494241,-9.9));
#1114=CARTESIAN_POINT('',(5.67555790941103,4.43035466039931,-10.));
#1115=CARTESIAN_POINT('',(4.66522362630102,2.6804043494241,-10.));
#1116=CARTESIAN_POINT('Ctrl Pts',(5.67555790941103,4.43035466039931,-10.));
#1117=CARTESIAN_POINT('Ctrl Pts',(5.59520217361285,4.42475277212391,-9.93321083559669));
#1118=CARTESIAN_POINT('Ctrl Pts',(5.51474931728825,4.41876536912983,-9.8665303197096));
#1119=CARTESIAN_POINT('Ctrl Pts',(5.4342377171166,4.41237582645307,-9.8));
#1120=CARTESIAN_POINT('Origin',(0.,0.,-9.9));
#1121=CARTESIAN_POINT('',(-7.09929573971954,-1.2,-10.));
#1122=CARTESIAN_POINT('Origin',(0.,0.,-10.));
#1123=CARTESIAN_POINT('Ctrl Pts',(-7.09929573971954,-1.2,-10.));
#1124=CARTESIAN_POINT('Ctrl Pts',(-7.04277529455601,-1.13312410740725,-9.93312410740725));
#1125=CARTESIAN_POINT('Ctrl Pts',(-6.98574217422866,-1.06644024956047,-9.86644024956047));
#1126=CARTESIAN_POINT('Ctrl Pts',(-6.92820323027551,-1.,-9.8));
#1127=CARTESIAN_POINT('Origin',(-3.45628147080558,-1.1,-9.9));
#1128=CARTESIAN_POINT('',(-15.7543644746464,-1.2,-10.));
#1129=CARTESIAN_POINT('',(-3.45628147080558,-1.2,-10.));
#1130=CARTESIAN_POINT('Ctrl Pts',(-15.7543644746464,-1.2,-10.));
#1131=CARTESIAN_POINT('Ctrl Pts',(-15.8261224600151,-1.13349991438444,-9.93349991438444));
#1132=CARTESIAN_POINT('Ctrl Pts',(-15.8975747688677,-1.06682876558904,-9.86682876558904));
#1133=CARTESIAN_POINT('Ctrl Pts',(-15.9687194226713,-1.,-9.8));
#1134=CARTESIAN_POINT('Origin',(0.,0.,-9.9));
#1135=CARTESIAN_POINT('',(-15.7543644746464,1.2,-10.));
#1136=CARTESIAN_POINT('Origin',(0.,0.,-10.));
#1137=CARTESIAN_POINT('',(-15.9687194226713,1.,-9.8));
#1138=CARTESIAN_POINT('Ctrl Pts',(-15.7543644746464,1.2,-10.));
#1139=CARTESIAN_POINT('Ctrl Pts',(-15.826122460015,1.13349991438455,-9.93349991438454));
#1140=CARTESIAN_POINT('Ctrl Pts',(-15.8975747688674,1.06682876558926,-9.86682876558925));
#1141=CARTESIAN_POINT('Ctrl Pts',(-15.9687194226713,1.,-9.8));
#1142=CARTESIAN_POINT('Origin',(0.,0.,-9.8));
#1143=CARTESIAN_POINT('Origin',(-7.97653956700348,1.1,-9.9));
#1144=CARTESIAN_POINT('',(-6.92820323027551,1.,-9.8));
#1145=CARTESIAN_POINT('',(-7.97653956700348,1.,-9.8));
#1146=CARTESIAN_POINT('',(-7.09929573971954,1.2,-10.));
#1147=CARTESIAN_POINT('',(-7.97653956700348,1.2,-10.));
#1148=CARTESIAN_POINT('Ctrl Pts',(-7.09929573971954,1.2,-10.));
#1149=CARTESIAN_POINT('Ctrl Pts',(-7.04277529455598,1.13312410740721,-9.93312410740721));
#1150=CARTESIAN_POINT('Ctrl Pts',(-6.98574217422864,1.06644024956046,-9.86644024956046));
#1151=CARTESIAN_POINT('Ctrl Pts',(-6.92820323027551,1.,-9.8));
#1152=CARTESIAN_POINT('Origin',(0.,0.,-9.9));
#1153=CARTESIAN_POINT('',(1.1041106981944,6.91237582645306,-9.8));
#1154=CARTESIAN_POINT('Origin',(0.,0.,-9.8));
#1155=CARTESIAN_POINT('',(0.99902072897506,7.13035466039931,-10.));
#1156=CARTESIAN_POINT('Origin',(0.,0.,-10.));
#1157=CARTESIAN_POINT('Ctrl Pts',(0.99902072897506,7.13035466039931,-10.));
#1158=CARTESIAN_POINT('Ctrl Pts',(1.03434721931843,7.05796360772073,-9.93321083559681));
#1159=CARTESIAN_POINT('Ctrl Pts',(1.06938840438519,6.98529568883949,-9.86653031970966));
#1160=CARTESIAN_POINT('Ctrl Pts',(1.10411069819441,6.91237582645306,-9.8));
#1161=CARTESIAN_POINT('Origin',(-0.615123909928746,4.13457413505299,-9.9));
#1162=CARTESIAN_POINT('',(-0.528521369550302,4.08457413505299,-9.8));
#1163=CARTESIAN_POINT('',(-0.70172645030719,4.18457413505299,-10.));
#1164=CARTESIAN_POINT('Origin',(-15.9687194226713,1.,0.));
#1165=CARTESIAN_POINT('',(-15.9687194226713,1.,0.));
#1166=CARTESIAN_POINT('',(-6.92820323027551,1.,0.));
#1167=CARTESIAN_POINT('',(-13.6984613264734,1.00000000000001,5.));
#1168=CARTESIAN_POINT('Origin',(-11.4484613264734,1.,5.));
#1169=CARTESIAN_POINT('',(-13.6984613264734,1.00000000000001,-5.00000000000001));
#1170=CARTESIAN_POINT('Origin',(-11.4484613264734,1.,-5.00000000000001));
#1171=CARTESIAN_POINT('Origin',(0.,0.,0.));
#1172=CARTESIAN_POINT('',(1.1041106981944,6.91237582645306,0.));
#1173=CARTESIAN_POINT('Origin',(1.1041106981944,6.91237582645306,0.));
#1174=CARTESIAN_POINT('Origin',(0.0156402886643436,0.,-10.));
#1175=CARTESIAN_POINT('Origin',(0.,0.,0.));
#1176=CARTESIAN_POINT('',(-13.228756555323,9.,-8.58197555800366));
#1177=CARTESIAN_POINT('',(-13.228756555323,9.,-1.41802444199635));
#1178=CARTESIAN_POINT('Ctrl Pts',(-13.228756555323,9.,-8.58197555800366));
#1179=CARTESIAN_POINT('Ctrl Pts',(-12.6988156766992,9.77893987466976,-8.84536407155121));
#1180=CARTESIAN_POINT('Ctrl Pts',(-12.0826702449121,10.5277382085894,-9.00000000000001));
#1181=CARTESIAN_POINT('Ctrl Pts',(-10.9907795159039,11.6461150854134,-9.00000000000001));
#1182=CARTESIAN_POINT('Ctrl Pts',(-10.4624847387993,12.1233383200671,-8.91684467673289));
#1183=CARTESIAN_POINT('Ctrl Pts',(-9.42441447652483,12.9467881175794,-8.49529124383537));
#1184=CARTESIAN_POINT('Ctrl Pts',(-8.91635845783226,13.2940348496881,-8.15465707239083));
#1185=CARTESIAN_POINT('Ctrl Pts',(-8.20162902329304,13.742776469647,-7.37949096597859));
#1186=CARTESIAN_POINT('Ctrl Pts',(-7.92175554456013,13.9029536887988,-6.95469747749767));
#1187=CARTESIAN_POINT('Ctrl Pts',(-7.54488909636252,14.1110232432881,-6.01025929521358));
#1188=CARTESIAN_POINT('Ctrl Pts',(-7.44846132647342,14.1605234319932,-5.4907440656047));
#1189=CARTESIAN_POINT('Ctrl Pts',(-7.44846132647342,14.1605234319932,-4.50925593439531));
#1190=CARTESIAN_POINT('Ctrl Pts',(-7.54488909636252,14.1110232432881,-3.98974070478644));
#1191=CARTESIAN_POINT('Ctrl Pts',(-7.92175554456013,13.9029536887988,-3.04530252250235));
#1192=CARTESIAN_POINT('Ctrl Pts',(-8.20162902329304,13.742776469647,-2.62050903402143));
#1193=CARTESIAN_POINT('Ctrl Pts',(-8.91635845783226,13.2940348496881,-1.84534292760918));
#1194=CARTESIAN_POINT('Ctrl Pts',(-9.42441447652483,12.9467881175794,-1.50470875616464));
#1195=CARTESIAN_POINT('Ctrl Pts',(-10.4624847387993,12.1233383200671,-1.08315532326713));
#1196=CARTESIAN_POINT('Ctrl Pts',(-10.9907795159039,11.6461150854134,-1.00000000000001));
#1197=CARTESIAN_POINT('Ctrl Pts',(-12.0826702449121,10.5277382085894,-1.00000000000001));
#1198=CARTESIAN_POINT('Ctrl Pts',(-12.6988156766992,9.77893987466977,-1.1546359284488));
#1199=CARTESIAN_POINT('Ctrl Pts',(-13.228756555323,9.,-1.41802444199635));
#1200=CARTESIAN_POINT('',(-15.1986841535707,5.,-3.60865937056423));
#1201=CARTESIAN_POINT('Ctrl Pts',(-13.228756555323,9.,-1.41802444199635));
#1202=CARTESIAN_POINT('Ctrl Pts',(-13.2440569714405,8.97751050222065,-1.4256289768047));
#1203=CARTESIAN_POINT('Ctrl Pts',(-13.2592893369145,8.95499772312603,-1.43332196394256));
#1204=CARTESIAN_POINT('Ctrl Pts',(-13.8148084767395,8.12944532994944,-1.71834564861935));
#1205=CARTESIAN_POINT('Ctrl Pts',(-14.263471253499,7.29643775138489,-2.10552180611125));
#1206=CARTESIAN_POINT('Ctrl Pts',(-14.8248237249775,6.0433707156764,-2.82476768886786));
#1207=CARTESIAN_POINT('Ctrl Pts',(-15.0431695636734,5.47272342662415,-3.18948497671653));
#1208=CARTESIAN_POINT('Ctrl Pts',(-15.1986841535707,5.,-3.60865937056423));
#1209=CARTESIAN_POINT('',(-15.1986841535707,5.,-6.39134062943579));
#1210=CARTESIAN_POINT('',(-15.1986841535707,5.,0.));
#1211=CARTESIAN_POINT('Ctrl Pts',(-15.1986841535707,5.,-6.39134062943579));
#1212=CARTESIAN_POINT('Ctrl Pts',(-15.0431695636734,5.47272342662414,-6.81051502328349));
#1213=CARTESIAN_POINT('Ctrl Pts',(-14.8248237249775,6.0433707156764,-7.17523231113215));
#1214=CARTESIAN_POINT('Ctrl Pts',(-14.263471253499,7.29643775138489,-7.89447819388876));
#1215=CARTESIAN_POINT('Ctrl Pts',(-13.8148084767395,8.12944532994944,-8.28165435138066));
#1216=CARTESIAN_POINT('Ctrl Pts',(-13.2592893369145,8.95499772312603,-8.56667803605746));
#1217=CARTESIAN_POINT('Ctrl Pts',(-13.2440569714405,8.97751050222065,-8.57437102319532));
#1218=CARTESIAN_POINT('Ctrl Pts',(-13.228756555323,9.,-8.58197555800366));
#1219=CARTESIAN_POINT('',(-13.228756555323,9.,1.41802444199635));
#1220=CARTESIAN_POINT('',(-13.228756555323,9.,8.58197555800364));
#1221=CARTESIAN_POINT('Ctrl Pts',(-13.228756555323,9.,1.41802444199635));
#1222=CARTESIAN_POINT('Ctrl Pts',(-12.6988156766992,9.77893987466977,1.1546359284488));
#1223=CARTESIAN_POINT('Ctrl Pts',(-12.0826702449121,10.5277382085894,0.999999999999998));
#1224=CARTESIAN_POINT('Ctrl Pts',(-10.9907795159039,11.6461150854134,0.999999999999997));
#1225=CARTESIAN_POINT('Ctrl Pts',(-10.4624847387993,12.1233383200671,1.08315532326712));
#1226=CARTESIAN_POINT('Ctrl Pts',(-9.42441447652482,12.9467881175794,1.50470875616463));
#1227=CARTESIAN_POINT('Ctrl Pts',(-8.91635845783225,13.2940348496881,1.84534292760917));
#1228=CARTESIAN_POINT('Ctrl Pts',(-8.20162902329303,13.742776469647,2.62050903402142));
#1229=CARTESIAN_POINT('Ctrl Pts',(-7.92175554456012,13.9029536887988,3.04530252250234));
#1230=CARTESIAN_POINT('Ctrl Pts',(-7.54488909636251,14.1110232432881,3.98974070478643));
#1231=CARTESIAN_POINT('Ctrl Pts',(-7.44846132647341,14.1605234319933,4.5092559343953));
#1232=CARTESIAN_POINT('Ctrl Pts',(-7.44846132647341,14.1605234319933,5.52056678567058));
#1233=CARTESIAN_POINT('Ctrl Pts',(-7.5568644562286,14.1050008449291,6.06885824854069));
#1234=CARTESIAN_POINT('Ctrl Pts',(-7.97525970619172,13.8727245630319,7.05520052074724));
#1235=CARTESIAN_POINT('Ctrl Pts',(-8.28463489738142,13.693915499304,7.49302782040038));
#1236=CARTESIAN_POINT('Ctrl Pts',(-9.02282631202876,13.2218454162,8.23121923504773));
#1237=CARTESIAN_POINT('Ctrl Pts',(-9.51331219916962,12.8803639736518,8.54111893976105));
#1238=CARTESIAN_POINT('Ctrl Pts',(-10.5085018203768,12.0821471854187,8.92438508516293));
#1239=CARTESIAN_POINT('Ctrl Pts',(-11.0117309594025,11.6246554197871,9.));
#1240=CARTESIAN_POINT('Ctrl Pts',(-12.0826702449121,10.5277382085894,9.));
#1241=CARTESIAN_POINT('Ctrl Pts',(-12.6988156766992,9.77893987466977,8.8453640715512));
#1242=CARTESIAN_POINT('Ctrl Pts',(-13.228756555323,9.,8.58197555800364));
#1243=CARTESIAN_POINT('',(-15.1986841535707,5.,6.39134062943574));
#1244=CARTESIAN_POINT('Ctrl Pts',(-13.228756555323,9.,8.58197555800364));
#1245=CARTESIAN_POINT('Ctrl Pts',(-13.2440569714405,8.97751050222066,8.5743710231953));
#1246=CARTESIAN_POINT('Ctrl Pts',(-13.2592893369145,8.95499772312605,8.56667803605745));
#1247=CARTESIAN_POINT('Ctrl Pts',(-13.8148084767395,8.12944532994947,8.28165435138066));
#1248=CARTESIAN_POINT('Ctrl Pts',(-14.263471253499,7.29643775138492,7.89447819388876));
#1249=CARTESIAN_POINT('Ctrl Pts',(-14.8248237249775,6.04337071567643,7.17523231113214));
#1250=CARTESIAN_POINT('Ctrl Pts',(-15.0431695636734,5.47272342662415,6.81051502328346));
#1251=CARTESIAN_POINT('Ctrl Pts',(-15.1986841535707,5.,6.39134062943575));
#1252=CARTESIAN_POINT('',(-15.1986841535707,5.,3.60865937056425));
#1253=CARTESIAN_POINT('',(-15.1986841535707,5.,0.));
#1254=CARTESIAN_POINT('Ctrl Pts',(-15.1986841535707,5.,3.60865937056425));
#1255=CARTESIAN_POINT('Ctrl Pts',(-15.0431695636734,5.47272342662415,3.18948497671653));
#1256=CARTESIAN_POINT('Ctrl Pts',(-14.8248237249775,6.04337071567642,2.82476768886786));
#1257=CARTESIAN_POINT('Ctrl Pts',(-14.263471253499,7.29643775138491,2.10552180611124));
#1258=CARTESIAN_POINT('Ctrl Pts',(-13.8148084767395,8.12944532994946,1.71834564861934));
#1259=CARTESIAN_POINT('Ctrl Pts',(-13.2592893369145,8.95499772312605,1.43332196394255));
#1260=CARTESIAN_POINT('Ctrl Pts',(-13.2440569714405,8.97751050222065,1.42562897680469));
#1261=CARTESIAN_POINT('Ctrl Pts',(-13.228756555323,9.,1.41802444199635));
#1262=CARTESIAN_POINT('Origin',(-11.4484613264734,5.,-5.00000000000001));
#1263=CARTESIAN_POINT('Origin',(-11.4484613264734,5.,-5.00000000000001));
#1264=CARTESIAN_POINT('',(-13.6984613264734,5.,-5.00000000000001));
#1265=CARTESIAN_POINT('Origin',(-11.4484613264734,5.,-5.00000000000001));
#1266=CARTESIAN_POINT('Origin',(-11.4484613264734,7.,-5.00000000000001));
#1267=CARTESIAN_POINT('Origin',(-11.4484613264734,-40.4570421833482,-5.00000000000001));
#1268=CARTESIAN_POINT('',(-13.6984613264734,-40.4570421833482,-5.00000000000001));
#1269=CARTESIAN_POINT('Origin',(-11.4484613264734,5.,5.));
#1270=CARTESIAN_POINT('Origin',(-11.4484613264734,5.,5.));
#1271=CARTESIAN_POINT('',(-13.6984613264734,5.,5.));
#1272=CARTESIAN_POINT('Origin',(-11.4484613264734,5.,5.));
#1273=CARTESIAN_POINT('Origin',(-11.4484613264734,7.,5.));
#1274=CARTESIAN_POINT('Origin',(-11.4484613264734,-40.4570421833482,5.));
#1275=CARTESIAN_POINT('',(-13.6984613264734,-40.4570421833482,5.));
#1276=CARTESIAN_POINT('Origin',(9.96194698091746,-0.871557427476584,-4.82098944976498));
#1277=CARTESIAN_POINT('',(7.89494698091746,-0.871557427476584,-4.2));
#1278=CARTESIAN_POINT('Origin',(9.96194698091746,-0.871557427476584,-4.2));
#1279=CARTESIAN_POINT('',(9.96194698091746,-0.871557427476584,-5.44197889952997));
#1280=CARTESIAN_POINT('',(8.92844698091746,-0.871557427476584,-4.82098944976498));
#1281=CARTESIAN_POINT('Origin',(9.96194698091746,-0.871557427476584,2.9));
#1282=CARTESIAN_POINT('',(7.89494698091746,-0.871557427476584,2.9));
#1283=CARTESIAN_POINT('Origin',(-5.73576436351046,-8.19152044288992,-4.82098944976498));
#1284=CARTESIAN_POINT('',(-7.80276436351046,-8.19152044288992,-4.2));
#1285=CARTESIAN_POINT('Origin',(-5.73576436351046,-8.19152044288992,-4.2));
#1286=CARTESIAN_POINT('',(-5.73576436351046,-8.19152044288992,-5.44197889952997));
#1287=CARTESIAN_POINT('',(-6.76926436351046,-8.19152044288992,-4.82098944976498));
#1288=CARTESIAN_POINT('Origin',(-5.73576436351046,-8.19152044288992,2.9));
#1289=CARTESIAN_POINT('',(-7.80276436351046,-8.19152044288992,2.9));
#1290=CARTESIAN_POINT('Origin',(-4.226182617407,9.0630778703665,-4.82098944976498));
#1291=CARTESIAN_POINT('',(-6.293182617407,9.0630778703665,-4.2));
#1292=CARTESIAN_POINT('Origin',(-4.226182617407,9.0630778703665,-4.2));
#1293=CARTESIAN_POINT('',(-4.226182617407,9.0630778703665,-5.44197889952997));
#1294=CARTESIAN_POINT('',(-5.259682617407,9.0630778703665,-4.82098944976498));
#1295=CARTESIAN_POINT('Origin',(-4.226182617407,9.0630778703665,2.9));
#1296=CARTESIAN_POINT('',(-6.293182617407,9.0630778703665,2.9));
#1297=UNCERTAINTY_MEASURE_WITH_UNIT(LENGTH_MEASURE(0.01),#1301,
'DISTANCE_ACCURACY_VALUE',
'Maximum model space distance between geometric entities at asserted c
onnectivities');
#1298=UNCERTAINTY_MEASURE_WITH_UNIT(LENGTH_MEASURE(0.01),#1301,
'DISTANCE_ACCURACY_VALUE',
'Maximum model space distance between geometric entities at asserted c
onnectivities');
#1299=(
GEOMETRIC_REPRESENTATION_CONTEXT(3)
GLOBAL_UNCERTAINTY_ASSIGNED_CONTEXT((#1297))
GLOBAL_UNIT_ASSIGNED_CONTEXT((#1301,#1303,#1304))
REPRESENTATION_CONTEXT('','3D')
);
#1300=(
GEOMETRIC_REPRESENTATION_CONTEXT(3)
GLOBAL_UNCERTAINTY_ASSIGNED_CONTEXT((#1298))
GLOBAL_UNIT_ASSIGNED_CONTEXT((#1301,#1303,#1304))
REPRESENTATION_CONTEXT('','3D')
);
#1301=(
LENGTH_UNIT()
NAMED_UNIT(*)
SI_UNIT(.MILLI.,.METRE.)
);
#1302=(
LENGTH_UNIT()
NAMED_UNIT(*)
SI_UNIT(.CENTI.,.METRE.)
);
#1303=(
NAMED_UNIT(*)
PLANE_ANGLE_UNIT()
SI_UNIT($,.RADIAN.)
);
#1304=(
NAMED_UNIT(*)
SI_UNIT($,.STERADIAN.)
SOLID_ANGLE_UNIT()
);
#1305=SHAPE_DEFINITION_REPRESENTATION(#1306,#1307);
#1306=PRODUCT_DEFINITION_SHAPE('',$,#1309);
#1307=SHAPE_REPRESENTATION('',(#684),#1299);
#1308=PRODUCT_DEFINITION_CONTEXT('part definition',#1313,'design');
#1309=PRODUCT_DEFINITION('RT_DRV_MC_003_ShaftCoupling',
'RT_DRV_MC_003_ShaftCoupling',#1310,#1308);
#1310=PRODUCT_DEFINITION_FORMATION('',$,#1315);
#1311=PRODUCT_RELATED_PRODUCT_CATEGORY('RT_DRV_MC_003_ShaftCoupling',
'RT_DRV_MC_003_ShaftCoupling',(#1315));
#1312=APPLICATION_PROTOCOL_DEFINITION('international standard',
'automotive_design',2009,#1313);
#1313=APPLICATION_CONTEXT(
'Core Data for Automotive Mechanical Design Process');
#1314=PRODUCT_CONTEXT('part definition',#1313,'mechanical');
#1315=PRODUCT('RT_DRV_MC_003_ShaftCoupling',
'RT_DRV_MC_003_ShaftCoupling',$,(#1314));
#1316=PRESENTATION_STYLE_ASSIGNMENT((#1317));
#1317=SURFACE_STYLE_USAGE(.BOTH.,#1320);
#1318=SURFACE_STYLE_RENDERING_WITH_PROPERTIES($,#1324,(#1319));
#1319=SURFACE_STYLE_TRANSPARENT(0.);
#1320=SURFACE_SIDE_STYLE('',(#1321,#1318));
#1321=SURFACE_STYLE_FILL_AREA(#1322);
#1322=FILL_AREA_STYLE('',(#1323));
#1323=FILL_AREA_STYLE_COLOUR('',#1324);
#1324=COLOUR_RGB('',0.749019607843137,0.749019607843137,0.749019607843137);
ENDSEC;
END-ISO-10303-21;
