ISO-10303-21;
HEADER;
/* Generated by software containing ST-Developer
 * from STEP Tools, Inc. (www.steptools.com) 
 */

FILE_DESCRIPTION(
/* description */ (''),
/* implementation_level */ '2;1');

FILE_NAME(
/* name */ 'RT_FRM_V2_MC_004_TopDynamicsPlate.stp',
/* time_stamp */ '2026-09-20T13:43:36+02:00',
/* author */ ('louis'),
/* organization */ (''),
/* preprocessor_version */ 'ST-DEVELOPER v20',
/* originating_system */ 'Autodesk Inventor 2025',
/* authorisation */ '');

FILE_SCHEMA (('AUTOMOTIVE_DESIGN { 1 0 10303 214 3 1 1 }'));
ENDSEC;

DATA;
#10=MECHANICAL_DESIGN_GEOMETRIC_PRESENTATION_REPRESENTATION('',(#13),#1740);
#11=SHAPE_REPRESENTATION_RELATIONSHIP('SRR','None',#1747,#12);
#12=ADVANCED_BREP_SHAPE_REPRESENTATION('',(#14),#1739);
#13=STYLED_ITEM('',(#1756),#14);
#14=MANIFOLD_SOLID_BREP('Solid1',#1003);
#15=FACE_BOUND('',#142,.T.);
#16=FACE_BOUND('',#143,.T.);
#17=FACE_BOUND('',#144,.T.);
#18=FACE_BOUND('',#145,.T.);
#19=FACE_BOUND('',#146,.T.);
#20=FACE_BOUND('',#147,.T.);
#21=FACE_BOUND('',#148,.T.);
#22=FACE_BOUND('',#149,.T.);
#23=FACE_BOUND('',#150,.T.);
#24=FACE_BOUND('',#151,.T.);
#25=FACE_BOUND('',#152,.T.);
#26=FACE_BOUND('',#153,.T.);
#27=FACE_BOUND('',#154,.T.);
#28=FACE_BOUND('',#155,.T.);
#29=FACE_BOUND('',#156,.T.);
#30=FACE_BOUND('',#157,.T.);
#31=FACE_BOUND('',#158,.T.);
#32=FACE_BOUND('',#159,.T.);
#33=FACE_BOUND('',#160,.T.);
#34=FACE_BOUND('',#161,.T.);
#35=FACE_BOUND('',#162,.T.);
#36=FACE_BOUND('',#163,.T.);
#37=FACE_BOUND('',#167,.T.);
#38=FACE_BOUND('',#168,.T.);
#39=FACE_BOUND('',#169,.T.);
#40=FACE_BOUND('',#170,.T.);
#41=FACE_BOUND('',#171,.T.);
#42=FACE_BOUND('',#172,.T.);
#43=FACE_BOUND('',#173,.T.);
#44=FACE_BOUND('',#174,.T.);
#45=FACE_BOUND('',#175,.T.);
#46=FACE_BOUND('',#176,.T.);
#47=FACE_BOUND('',#177,.T.);
#48=FACE_BOUND('',#178,.T.);
#49=FACE_BOUND('',#179,.T.);
#50=FACE_BOUND('',#180,.T.);
#51=FACE_BOUND('',#181,.T.);
#52=FACE_BOUND('',#182,.T.);
#53=FACE_BOUND('',#183,.T.);
#54=FACE_BOUND('',#184,.T.);
#55=FACE_BOUND('',#185,.T.);
#56=FACE_BOUND('',#186,.T.);
#57=FACE_BOUND('',#187,.T.);
#58=FACE_BOUND('',#188,.T.);
#59=PLANE('',#1095);
#60=PLANE('',#1114);
#61=PLANE('',#1128);
#62=PLANE('',#1130);
#63=PLANE('',#1132);
#64=PLANE('',#1136);
#65=PLANE('',#1138);
#66=PLANE('',#1140);
#67=PLANE('',#1142);
#68=PLANE('',#1145);
#69=PLANE('',#1146);
#70=FACE_OUTER_BOUND('',#118,.T.);
#71=FACE_OUTER_BOUND('',#119,.T.);
#72=FACE_OUTER_BOUND('',#120,.T.);
#73=FACE_OUTER_BOUND('',#121,.T.);
#74=FACE_OUTER_BOUND('',#122,.T.);
#75=FACE_OUTER_BOUND('',#123,.T.);
#76=FACE_OUTER_BOUND('',#124,.T.);
#77=FACE_OUTER_BOUND('',#125,.T.);
#78=FACE_OUTER_BOUND('',#126,.T.);
#79=FACE_OUTER_BOUND('',#127,.T.);
#80=FACE_OUTER_BOUND('',#128,.T.);
#81=FACE_OUTER_BOUND('',#129,.T.);
#82=FACE_OUTER_BOUND('',#130,.T.);
#83=FACE_OUTER_BOUND('',#131,.T.);
#84=FACE_OUTER_BOUND('',#132,.T.);
#85=FACE_OUTER_BOUND('',#133,.T.);
#86=FACE_OUTER_BOUND('',#134,.T.);
#87=FACE_OUTER_BOUND('',#135,.T.);
#88=FACE_OUTER_BOUND('',#136,.T.);
#89=FACE_OUTER_BOUND('',#137,.T.);
#90=FACE_OUTER_BOUND('',#138,.T.);
#91=FACE_OUTER_BOUND('',#139,.T.);
#92=FACE_OUTER_BOUND('',#140,.T.);
#93=FACE_OUTER_BOUND('',#141,.T.);
#94=FACE_OUTER_BOUND('',#164,.T.);
#95=FACE_OUTER_BOUND('',#165,.T.);
#96=FACE_OUTER_BOUND('',#166,.T.);
#97=FACE_OUTER_BOUND('',#189,.T.);
#98=FACE_OUTER_BOUND('',#190,.T.);
#99=FACE_OUTER_BOUND('',#191,.T.);
#100=FACE_OUTER_BOUND('',#192,.T.);
#101=FACE_OUTER_BOUND('',#193,.T.);
#102=FACE_OUTER_BOUND('',#194,.T.);
#103=FACE_OUTER_BOUND('',#195,.T.);
#104=FACE_OUTER_BOUND('',#196,.T.);
#105=FACE_OUTER_BOUND('',#197,.T.);
#106=FACE_OUTER_BOUND('',#198,.T.);
#107=FACE_OUTER_BOUND('',#199,.T.);
#108=FACE_OUTER_BOUND('',#200,.T.);
#109=FACE_OUTER_BOUND('',#201,.T.);
#110=FACE_OUTER_BOUND('',#202,.T.);
#111=FACE_OUTER_BOUND('',#203,.T.);
#112=FACE_OUTER_BOUND('',#204,.T.);
#113=FACE_OUTER_BOUND('',#205,.T.);
#114=FACE_OUTER_BOUND('',#206,.T.);
#115=FACE_OUTER_BOUND('',#207,.T.);
#116=FACE_OUTER_BOUND('',#208,.T.);
#117=FACE_OUTER_BOUND('',#209,.T.);
#118=EDGE_LOOP('',(#642,#643,#644,#645));
#119=EDGE_LOOP('',(#646,#647,#648,#649));
#120=EDGE_LOOP('',(#650,#651,#652,#653));
#121=EDGE_LOOP('',(#654,#655,#656,#657));
#122=EDGE_LOOP('',(#658,#659,#660,#661));
#123=EDGE_LOOP('',(#662,#663,#664,#665));
#124=EDGE_LOOP('',(#666,#667,#668,#669));
#125=EDGE_LOOP('',(#670,#671,#672,#673));
#126=EDGE_LOOP('',(#674,#675,#676,#677));
#127=EDGE_LOOP('',(#678,#679,#680,#681));
#128=EDGE_LOOP('',(#682,#683,#684,#685));
#129=EDGE_LOOP('',(#686,#687,#688,#689));
#130=EDGE_LOOP('',(#690,#691,#692,#693));
#131=EDGE_LOOP('',(#694,#695,#696,#697));
#132=EDGE_LOOP('',(#698,#699,#700,#701));
#133=EDGE_LOOP('',(#702,#703,#704,#705));
#134=EDGE_LOOP('',(#706,#707,#708,#709));
#135=EDGE_LOOP('',(#710,#711,#712,#713));
#136=EDGE_LOOP('',(#714,#715,#716,#717));
#137=EDGE_LOOP('',(#718,#719,#720,#721));
#138=EDGE_LOOP('',(#722,#723,#724,#725));
#139=EDGE_LOOP('',(#726,#727,#728,#729));
#140=EDGE_LOOP('',(#730,#731,#732,#733));
#141=EDGE_LOOP('',(#734,#735,#736,#737,#738,#739,#740,#741,#742,#743,#744,
#745,#746,#747,#748,#749,#750,#751,#752,#753,#754,#755,#756,#757));
#142=EDGE_LOOP('',(#758));
#143=EDGE_LOOP('',(#759));
#144=EDGE_LOOP('',(#760));
#145=EDGE_LOOP('',(#761));
#146=EDGE_LOOP('',(#762));
#147=EDGE_LOOP('',(#763));
#148=EDGE_LOOP('',(#764));
#149=EDGE_LOOP('',(#765));
#150=EDGE_LOOP('',(#766));
#151=EDGE_LOOP('',(#767));
#152=EDGE_LOOP('',(#768));
#153=EDGE_LOOP('',(#769));
#154=EDGE_LOOP('',(#770));
#155=EDGE_LOOP('',(#771));
#156=EDGE_LOOP('',(#772));
#157=EDGE_LOOP('',(#773));
#158=EDGE_LOOP('',(#774));
#159=EDGE_LOOP('',(#775));
#160=EDGE_LOOP('',(#776));
#161=EDGE_LOOP('',(#777));
#162=EDGE_LOOP('',(#778));
#163=EDGE_LOOP('',(#779));
#164=EDGE_LOOP('',(#780,#781,#782,#783));
#165=EDGE_LOOP('',(#784,#785,#786,#787));
#166=EDGE_LOOP('',(#788,#789,#790,#791,#792,#793,#794,#795,#796,#797,#798,
#799,#800,#801,#802,#803,#804,#805,#806,#807,#808,#809,#810,#811));
#167=EDGE_LOOP('',(#812));
#168=EDGE_LOOP('',(#813));
#169=EDGE_LOOP('',(#814));
#170=EDGE_LOOP('',(#815));
#171=EDGE_LOOP('',(#816));
#172=EDGE_LOOP('',(#817));
#173=EDGE_LOOP('',(#818));
#174=EDGE_LOOP('',(#819));
#175=EDGE_LOOP('',(#820));
#176=EDGE_LOOP('',(#821));
#177=EDGE_LOOP('',(#822));
#178=EDGE_LOOP('',(#823));
#179=EDGE_LOOP('',(#824));
#180=EDGE_LOOP('',(#825));
#181=EDGE_LOOP('',(#826));
#182=EDGE_LOOP('',(#827));
#183=EDGE_LOOP('',(#828));
#184=EDGE_LOOP('',(#829));
#185=EDGE_LOOP('',(#830));
#186=EDGE_LOOP('',(#831));
#187=EDGE_LOOP('',(#832));
#188=EDGE_LOOP('',(#833));
#189=EDGE_LOOP('',(#834,#835,#836,#837));
#190=EDGE_LOOP('',(#838,#839,#840,#841));
#191=EDGE_LOOP('',(#842,#843,#844,#845));
#192=EDGE_LOOP('',(#846,#847,#848,#849));
#193=EDGE_LOOP('',(#850,#851,#852,#853));
#194=EDGE_LOOP('',(#854,#855,#856,#857));
#195=EDGE_LOOP('',(#858,#859,#860,#861));
#196=EDGE_LOOP('',(#862,#863,#864,#865));
#197=EDGE_LOOP('',(#866,#867,#868,#869));
#198=EDGE_LOOP('',(#870,#871,#872,#873));
#199=EDGE_LOOP('',(#874,#875,#876,#877));
#200=EDGE_LOOP('',(#878,#879,#880,#881));
#201=EDGE_LOOP('',(#882,#883,#884,#885));
#202=EDGE_LOOP('',(#886,#887,#888,#889));
#203=EDGE_LOOP('',(#890,#891,#892,#893));
#204=EDGE_LOOP('',(#894,#895,#896,#897));
#205=EDGE_LOOP('',(#898,#899,#900,#901));
#206=EDGE_LOOP('',(#902,#903,#904,#905));
#207=EDGE_LOOP('',(#906,#907,#908,#909));
#208=EDGE_LOOP('',(#910,#911,#912,#913));
#209=EDGE_LOOP('',(#914,#915,#916,#917));
#210=LINE('',#1463,#274);
#211=LINE('',#1469,#275);
#212=LINE('',#1475,#276);
#213=LINE('',#1481,#277);
#214=LINE('',#1487,#278);
#215=LINE('',#1493,#279);
#216=LINE('',#1499,#280);
#217=LINE('',#1505,#281);
#218=LINE('',#1511,#282);
#219=LINE('',#1517,#283);
#220=LINE('',#1523,#284);
#221=LINE('',#1529,#285);
#222=LINE('',#1535,#286);
#223=LINE('',#1541,#287);
#224=LINE('',#1547,#288);
#225=LINE('',#1553,#289);
#226=LINE('',#1559,#290);
#227=LINE('',#1565,#291);
#228=LINE('',#1571,#292);
#229=LINE('',#1577,#293);
#230=LINE('',#1583,#294);
#231=LINE('',#1590,#295);
#232=LINE('',#1593,#296);
#233=LINE('',#1598,#297);
#234=LINE('',#1602,#298);
#235=LINE('',#1606,#299);
#236=LINE('',#1610,#300);
#237=LINE('',#1618,#301);
#238=LINE('',#1622,#302);
#239=LINE('',#1626,#303);
#240=LINE('',#1634,#304);
#241=LINE('',#1638,#305);
#242=LINE('',#1642,#306);
#243=LINE('',#1650,#307);
#244=LINE('',#1651,#308);
#245=LINE('',#1655,#309);
#246=LINE('',#1660,#310);
#247=LINE('',#1664,#311);
#248=LINE('',#1668,#312);
#249=LINE('',#1676,#313);
#250=LINE('',#1680,#314);
#251=LINE('',#1684,#315);
#252=LINE('',#1687,#316);
#253=LINE('',#1691,#317);
#254=LINE('',#1694,#318);
#255=LINE('',#1698,#319);
#256=LINE('',#1700,#320);
#257=LINE('',#1702,#321);
#258=LINE('',#1703,#322);
#259=LINE('',#1705,#323);
#260=LINE('',#1707,#324);
#261=LINE('',#1708,#325);
#262=LINE('',#1710,#326);
#263=LINE('',#1712,#327);
#264=LINE('',#1714,#328);
#265=LINE('',#1716,#329);
#266=LINE('',#1717,#330);
#267=LINE('',#1719,#331);
#268=LINE('',#1721,#332);
#269=LINE('',#1723,#333);
#270=LINE('',#1725,#334);
#271=LINE('',#1726,#335);
#272=LINE('',#1728,#336);
#273=LINE('',#1730,#337);
#274=VECTOR('',#1154,2.75);
#275=VECTOR('',#1161,2.75);
#276=VECTOR('',#1168,2.75);
#277=VECTOR('',#1175,2.75);
#278=VECTOR('',#1182,2.75);
#279=VECTOR('',#1189,2.75);
#280=VECTOR('',#1196,2.75);
#281=VECTOR('',#1203,2.75);
#282=VECTOR('',#1210,2.75);
#283=VECTOR('',#1217,2.75);
#284=VECTOR('',#1224,2.75);
#285=VECTOR('',#1231,2.75);
#286=VECTOR('',#1238,2.75);
#287=VECTOR('',#1245,2.75);
#288=VECTOR('',#1252,2.75);
#289=VECTOR('',#1259,2.75);
#290=VECTOR('',#1266,2.75);
#291=VECTOR('',#1273,2.75);
#292=VECTOR('',#1280,3.3);
#293=VECTOR('',#1287,3.3);
#294=VECTOR('',#1294,3.3);
#295=VECTOR('',#1301,10.);
#296=VECTOR('',#1304,10.);
#297=VECTOR('',#1309,10.);
#298=VECTOR('',#1314,10.);
#299=VECTOR('',#1317,10.);
#300=VECTOR('',#1320,10.);
#301=VECTOR('',#1327,10.);
#302=VECTOR('',#1330,10.);
#303=VECTOR('',#1333,10.);
#304=VECTOR('',#1340,10.);
#305=VECTOR('',#1343,10.);
#306=VECTOR('',#1346,10.);
#307=VECTOR('',#1355,10.);
#308=VECTOR('',#1356,10.);
#309=VECTOR('',#1361,10.);
#310=VECTOR('',#1366,10.);
#311=VECTOR('',#1369,10.);
#312=VECTOR('',#1372,10.);
#313=VECTOR('',#1379,10.);
#314=VECTOR('',#1382,10.);
#315=VECTOR('',#1385,10.);
#316=VECTOR('',#1388,10.);
#317=VECTOR('',#1391,10.);
#318=VECTOR('',#1394,10.);
#319=VECTOR('',#1399,10.);
#320=VECTOR('',#1402,10.);
#321=VECTOR('',#1405,10.);
#322=VECTOR('',#1406,10.);
#323=VECTOR('',#1409,10.);
#324=VECTOR('',#1412,10.);
#325=VECTOR('',#1413,10.);
#326=VECTOR('',#1416,10.);
#327=VECTOR('',#1419,10.);
#328=VECTOR('',#1422,5.5);
#329=VECTOR('',#1425,10.);
#330=VECTOR('',#1426,10.);
#331=VECTOR('',#1429,10.);
#332=VECTOR('',#1432,10.);
#333=VECTOR('',#1435,10.);
#334=VECTOR('',#1438,10.);
#335=VECTOR('',#1439,10.);
#336=VECTOR('',#1442,10.);
#337=VECTOR('',#1445,10.);
#338=CIRCLE('',#1027,2.75);
#339=CIRCLE('',#1028,2.75);
#340=CIRCLE('',#1030,2.75);
#341=CIRCLE('',#1031,2.75);
#342=CIRCLE('',#1033,2.75);
#343=CIRCLE('',#1034,2.75);
#344=CIRCLE('',#1036,2.75);
#345=CIRCLE('',#1037,2.75);
#346=CIRCLE('',#1039,2.75);
#347=CIRCLE('',#1040,2.75);
#348=CIRCLE('',#1042,2.75);
#349=CIRCLE('',#1043,2.75);
#350=CIRCLE('',#1045,2.75);
#351=CIRCLE('',#1046,2.75);
#352=CIRCLE('',#1048,2.75);
#353=CIRCLE('',#1049,2.75);
#354=CIRCLE('',#1051,2.75);
#355=CIRCLE('',#1052,2.75);
#356=CIRCLE('',#1054,2.75);
#357=CIRCLE('',#1055,2.75);
#358=CIRCLE('',#1057,2.75);
#359=CIRCLE('',#1058,2.75);
#360=CIRCLE('',#1060,2.75);
#361=CIRCLE('',#1061,2.75);
#362=CIRCLE('',#1063,2.75);
#363=CIRCLE('',#1064,2.75);
#364=CIRCLE('',#1066,2.75);
#365=CIRCLE('',#1067,2.75);
#366=CIRCLE('',#1069,2.75);
#367=CIRCLE('',#1070,2.75);
#368=CIRCLE('',#1072,2.75);
#369=CIRCLE('',#1073,2.75);
#370=CIRCLE('',#1075,2.75);
#371=CIRCLE('',#1076,2.75);
#372=CIRCLE('',#1078,2.75);
#373=CIRCLE('',#1079,2.75);
#374=CIRCLE('',#1081,3.3);
#375=CIRCLE('',#1082,3.3);
#376=CIRCLE('',#1084,3.3);
#377=CIRCLE('',#1085,3.3);
#378=CIRCLE('',#1087,3.3);
#379=CIRCLE('',#1088,3.3);
#380=CIRCLE('',#1090,15.);
#381=CIRCLE('',#1091,15.);
#382=CIRCLE('',#1093,175.);
#383=CIRCLE('',#1094,175.);
#384=CIRCLE('',#1096,10.);
#385=CIRCLE('',#1097,10.);
#386=CIRCLE('',#1098,15.);
#387=CIRCLE('',#1099,175.);
#388=CIRCLE('',#1100,15.);
#389=CIRCLE('',#1101,10.);
#390=CIRCLE('',#1102,10.);
#391=CIRCLE('',#1103,15.);
#392=CIRCLE('',#1104,175.);
#393=CIRCLE('',#1105,15.);
#394=CIRCLE('',#1106,10.);
#395=CIRCLE('',#1107,10.);
#396=CIRCLE('',#1108,15.);
#397=CIRCLE('',#1109,5.5);
#398=CIRCLE('',#1111,15.);
#399=CIRCLE('',#1113,175.);
#400=CIRCLE('',#1115,15.);
#401=CIRCLE('',#1116,10.);
#402=CIRCLE('',#1117,10.);
#403=CIRCLE('',#1118,15.);
#404=CIRCLE('',#1119,175.);
#405=CIRCLE('',#1120,15.);
#406=CIRCLE('',#1121,10.);
#407=CIRCLE('',#1122,10.);
#408=CIRCLE('',#1123,15.);
#409=CIRCLE('',#1124,10.);
#410=CIRCLE('',#1125,10.);
#411=CIRCLE('',#1126,5.5);
#412=VERTEX_POINT('',#1460);
#413=VERTEX_POINT('',#1462);
#414=VERTEX_POINT('',#1466);
#415=VERTEX_POINT('',#1468);
#416=VERTEX_POINT('',#1472);
#417=VERTEX_POINT('',#1474);
#418=VERTEX_POINT('',#1478);
#419=VERTEX_POINT('',#1480);
#420=VERTEX_POINT('',#1484);
#421=VERTEX_POINT('',#1486);
#422=VERTEX_POINT('',#1490);
#423=VERTEX_POINT('',#1492);
#424=VERTEX_POINT('',#1496);
#425=VERTEX_POINT('',#1498);
#426=VERTEX_POINT('',#1502);
#427=VERTEX_POINT('',#1504);
#428=VERTEX_POINT('',#1508);
#429=VERTEX_POINT('',#1510);
#430=VERTEX_POINT('',#1514);
#431=VERTEX_POINT('',#1516);
#432=VERTEX_POINT('',#1520);
#433=VERTEX_POINT('',#1522);
#434=VERTEX_POINT('',#1526);
#435=VERTEX_POINT('',#1528);
#436=VERTEX_POINT('',#1532);
#437=VERTEX_POINT('',#1534);
#438=VERTEX_POINT('',#1538);
#439=VERTEX_POINT('',#1540);
#440=VERTEX_POINT('',#1544);
#441=VERTEX_POINT('',#1546);
#442=VERTEX_POINT('',#1550);
#443=VERTEX_POINT('',#1552);
#444=VERTEX_POINT('',#1556);
#445=VERTEX_POINT('',#1558);
#446=VERTEX_POINT('',#1562);
#447=VERTEX_POINT('',#1564);
#448=VERTEX_POINT('',#1568);
#449=VERTEX_POINT('',#1570);
#450=VERTEX_POINT('',#1574);
#451=VERTEX_POINT('',#1576);
#452=VERTEX_POINT('',#1580);
#453=VERTEX_POINT('',#1582);
#454=VERTEX_POINT('',#1586);
#455=VERTEX_POINT('',#1587);
#456=VERTEX_POINT('',#1589);
#457=VERTEX_POINT('',#1591);
#458=VERTEX_POINT('',#1595);
#459=VERTEX_POINT('',#1597);
#460=VERTEX_POINT('',#1601);
#461=VERTEX_POINT('',#1603);
#462=VERTEX_POINT('',#1605);
#463=VERTEX_POINT('',#1607);
#464=VERTEX_POINT('',#1609);
#465=VERTEX_POINT('',#1611);
#466=VERTEX_POINT('',#1613);
#467=VERTEX_POINT('',#1615);
#468=VERTEX_POINT('',#1617);
#469=VERTEX_POINT('',#1619);
#470=VERTEX_POINT('',#1621);
#471=VERTEX_POINT('',#1623);
#472=VERTEX_POINT('',#1625);
#473=VERTEX_POINT('',#1627);
#474=VERTEX_POINT('',#1629);
#475=VERTEX_POINT('',#1631);
#476=VERTEX_POINT('',#1633);
#477=VERTEX_POINT('',#1635);
#478=VERTEX_POINT('',#1637);
#479=VERTEX_POINT('',#1639);
#480=VERTEX_POINT('',#1641);
#481=VERTEX_POINT('',#1644);
#482=VERTEX_POINT('',#1647);
#483=VERTEX_POINT('',#1648);
#484=VERTEX_POINT('',#1653);
#485=VERTEX_POINT('',#1657);
#486=VERTEX_POINT('',#1659);
#487=VERTEX_POINT('',#1661);
#488=VERTEX_POINT('',#1663);
#489=VERTEX_POINT('',#1665);
#490=VERTEX_POINT('',#1667);
#491=VERTEX_POINT('',#1669);
#492=VERTEX_POINT('',#1671);
#493=VERTEX_POINT('',#1673);
#494=VERTEX_POINT('',#1675);
#495=VERTEX_POINT('',#1677);
#496=VERTEX_POINT('',#1679);
#497=VERTEX_POINT('',#1681);
#498=VERTEX_POINT('',#1683);
#499=VERTEX_POINT('',#1686);
#500=VERTEX_POINT('',#1688);
#501=VERTEX_POINT('',#1690);
#502=VERTEX_POINT('',#1692);
#503=VERTEX_POINT('',#1695);
#504=EDGE_CURVE('',#412,#412,#338,.T.);
#505=EDGE_CURVE('',#412,#413,#210,.T.);
#506=EDGE_CURVE('',#413,#413,#339,.T.);
#507=EDGE_CURVE('',#414,#414,#340,.T.);
#508=EDGE_CURVE('',#414,#415,#211,.T.);
#509=EDGE_CURVE('',#415,#415,#341,.T.);
#510=EDGE_CURVE('',#416,#416,#342,.T.);
#511=EDGE_CURVE('',#416,#417,#212,.T.);
#512=EDGE_CURVE('',#417,#417,#343,.T.);
#513=EDGE_CURVE('',#418,#418,#344,.T.);
#514=EDGE_CURVE('',#418,#419,#213,.T.);
#515=EDGE_CURVE('',#419,#419,#345,.T.);
#516=EDGE_CURVE('',#420,#420,#346,.T.);
#517=EDGE_CURVE('',#420,#421,#214,.T.);
#518=EDGE_CURVE('',#421,#421,#347,.T.);
#519=EDGE_CURVE('',#422,#422,#348,.T.);
#520=EDGE_CURVE('',#422,#423,#215,.T.);
#521=EDGE_CURVE('',#423,#423,#349,.T.);
#522=EDGE_CURVE('',#424,#424,#350,.T.);
#523=EDGE_CURVE('',#424,#425,#216,.T.);
#524=EDGE_CURVE('',#425,#425,#351,.T.);
#525=EDGE_CURVE('',#426,#426,#352,.T.);
#526=EDGE_CURVE('',#426,#427,#217,.T.);
#527=EDGE_CURVE('',#427,#427,#353,.T.);
#528=EDGE_CURVE('',#428,#428,#354,.T.);
#529=EDGE_CURVE('',#428,#429,#218,.T.);
#530=EDGE_CURVE('',#429,#429,#355,.T.);
#531=EDGE_CURVE('',#430,#430,#356,.T.);
#532=EDGE_CURVE('',#430,#431,#219,.T.);
#533=EDGE_CURVE('',#431,#431,#357,.T.);
#534=EDGE_CURVE('',#432,#432,#358,.T.);
#535=EDGE_CURVE('',#432,#433,#220,.T.);
#536=EDGE_CURVE('',#433,#433,#359,.T.);
#537=EDGE_CURVE('',#434,#434,#360,.T.);
#538=EDGE_CURVE('',#434,#435,#221,.T.);
#539=EDGE_CURVE('',#435,#435,#361,.T.);
#540=EDGE_CURVE('',#436,#436,#362,.T.);
#541=EDGE_CURVE('',#436,#437,#222,.T.);
#542=EDGE_CURVE('',#437,#437,#363,.T.);
#543=EDGE_CURVE('',#438,#438,#364,.T.);
#544=EDGE_CURVE('',#438,#439,#223,.T.);
#545=EDGE_CURVE('',#439,#439,#365,.T.);
#546=EDGE_CURVE('',#440,#440,#366,.T.);
#547=EDGE_CURVE('',#440,#441,#224,.T.);
#548=EDGE_CURVE('',#441,#441,#367,.T.);
#549=EDGE_CURVE('',#442,#442,#368,.T.);
#550=EDGE_CURVE('',#442,#443,#225,.T.);
#551=EDGE_CURVE('',#443,#443,#369,.T.);
#552=EDGE_CURVE('',#444,#444,#370,.T.);
#553=EDGE_CURVE('',#444,#445,#226,.T.);
#554=EDGE_CURVE('',#445,#445,#371,.T.);
#555=EDGE_CURVE('',#446,#446,#372,.T.);
#556=EDGE_CURVE('',#446,#447,#227,.T.);
#557=EDGE_CURVE('',#447,#447,#373,.T.);
#558=EDGE_CURVE('',#448,#448,#374,.T.);
#559=EDGE_CURVE('',#448,#449,#228,.T.);
#560=EDGE_CURVE('',#449,#449,#375,.T.);
#561=EDGE_CURVE('',#450,#450,#376,.T.);
#562=EDGE_CURVE('',#450,#451,#229,.T.);
#563=EDGE_CURVE('',#451,#451,#377,.T.);
#564=EDGE_CURVE('',#452,#452,#378,.T.);
#565=EDGE_CURVE('',#452,#453,#230,.T.);
#566=EDGE_CURVE('',#453,#453,#379,.T.);
#567=EDGE_CURVE('',#454,#455,#380,.T.);
#568=EDGE_CURVE('',#455,#456,#231,.T.);
#569=EDGE_CURVE('',#456,#457,#381,.T.);
#570=EDGE_CURVE('',#457,#454,#232,.T.);
#571=EDGE_CURVE('',#458,#455,#382,.T.);
#572=EDGE_CURVE('',#459,#458,#233,.T.);
#573=EDGE_CURVE('',#456,#459,#383,.T.);
#574=EDGE_CURVE('',#454,#460,#234,.T.);
#575=EDGE_CURVE('',#461,#460,#384,.T.);
#576=EDGE_CURVE('',#461,#462,#235,.T.);
#577=EDGE_CURVE('',#463,#462,#385,.T.);
#578=EDGE_CURVE('',#463,#464,#236,.T.);
#579=EDGE_CURVE('',#465,#464,#386,.T.);
#580=EDGE_CURVE('',#465,#466,#387,.T.);
#581=EDGE_CURVE('',#467,#466,#388,.T.);
#582=EDGE_CURVE('',#467,#468,#237,.T.);
#583=EDGE_CURVE('',#469,#468,#389,.T.);
#584=EDGE_CURVE('',#469,#470,#238,.T.);
#585=EDGE_CURVE('',#471,#470,#390,.T.);
#586=EDGE_CURVE('',#471,#472,#239,.T.);
#587=EDGE_CURVE('',#473,#472,#391,.T.);
#588=EDGE_CURVE('',#473,#474,#392,.T.);
#589=EDGE_CURVE('',#475,#474,#393,.T.);
#590=EDGE_CURVE('',#475,#476,#240,.T.);
#591=EDGE_CURVE('',#477,#476,#394,.T.);
#592=EDGE_CURVE('',#477,#478,#241,.T.);
#593=EDGE_CURVE('',#479,#478,#395,.T.);
#594=EDGE_CURVE('',#479,#480,#242,.T.);
#595=EDGE_CURVE('',#458,#480,#396,.T.);
#596=EDGE_CURVE('',#481,#481,#397,.T.);
#597=EDGE_CURVE('',#482,#483,#398,.T.);
#598=EDGE_CURVE('',#483,#465,#243,.T.);
#599=EDGE_CURVE('',#464,#482,#244,.T.);
#600=EDGE_CURVE('',#484,#483,#399,.T.);
#601=EDGE_CURVE('',#466,#484,#245,.T.);
#602=EDGE_CURVE('',#485,#459,#400,.T.);
#603=EDGE_CURVE('',#485,#486,#246,.T.);
#604=EDGE_CURVE('',#487,#486,#401,.T.);
#605=EDGE_CURVE('',#487,#488,#247,.T.);
#606=EDGE_CURVE('',#489,#488,#402,.T.);
#607=EDGE_CURVE('',#489,#490,#248,.T.);
#608=EDGE_CURVE('',#491,#490,#403,.T.);
#609=EDGE_CURVE('',#491,#492,#404,.T.);
#610=EDGE_CURVE('',#493,#492,#405,.T.);
#611=EDGE_CURVE('',#493,#494,#249,.T.);
#612=EDGE_CURVE('',#495,#494,#406,.T.);
#613=EDGE_CURVE('',#495,#496,#250,.T.);
#614=EDGE_CURVE('',#497,#496,#407,.T.);
#615=EDGE_CURVE('',#497,#498,#251,.T.);
#616=EDGE_CURVE('',#484,#498,#408,.T.);
#617=EDGE_CURVE('',#482,#499,#252,.T.);
#618=EDGE_CURVE('',#500,#499,#409,.T.);
#619=EDGE_CURVE('',#500,#501,#253,.T.);
#620=EDGE_CURVE('',#502,#501,#410,.T.);
#621=EDGE_CURVE('',#502,#457,#254,.T.);
#622=EDGE_CURVE('',#503,#503,#411,.T.);
#623=EDGE_CURVE('',#480,#485,#255,.T.);
#624=EDGE_CURVE('',#486,#479,#256,.T.);
#625=EDGE_CURVE('',#474,#491,#257,.T.);
#626=EDGE_CURVE('',#490,#475,#258,.T.);
#627=EDGE_CURVE('',#476,#489,#259,.T.);
#628=EDGE_CURVE('',#492,#473,#260,.T.);
#629=EDGE_CURVE('',#472,#493,#261,.T.);
#630=EDGE_CURVE('',#494,#471,#262,.T.);
#631=EDGE_CURVE('',#498,#467,#263,.T.);
#632=EDGE_CURVE('',#481,#503,#264,.T.);
#633=EDGE_CURVE('',#496,#469,#265,.T.);
#634=EDGE_CURVE('',#468,#497,#266,.T.);
#635=EDGE_CURVE('',#470,#495,#267,.T.);
#636=EDGE_CURVE('',#488,#477,#268,.T.);
#637=EDGE_CURVE('',#478,#487,#269,.T.);
#638=EDGE_CURVE('',#501,#461,#270,.T.);
#639=EDGE_CURVE('',#460,#502,#271,.T.);
#640=EDGE_CURVE('',#462,#500,#272,.T.);
#641=EDGE_CURVE('',#499,#463,#273,.T.);
#642=ORIENTED_EDGE('',*,*,#504,.F.);
#643=ORIENTED_EDGE('',*,*,#505,.T.);
#644=ORIENTED_EDGE('',*,*,#506,.F.);
#645=ORIENTED_EDGE('',*,*,#505,.F.);
#646=ORIENTED_EDGE('',*,*,#507,.F.);
#647=ORIENTED_EDGE('',*,*,#508,.T.);
#648=ORIENTED_EDGE('',*,*,#509,.F.);
#649=ORIENTED_EDGE('',*,*,#508,.F.);
#650=ORIENTED_EDGE('',*,*,#510,.F.);
#651=ORIENTED_EDGE('',*,*,#511,.T.);
#652=ORIENTED_EDGE('',*,*,#512,.F.);
#653=ORIENTED_EDGE('',*,*,#511,.F.);
#654=ORIENTED_EDGE('',*,*,#513,.F.);
#655=ORIENTED_EDGE('',*,*,#514,.T.);
#656=ORIENTED_EDGE('',*,*,#515,.F.);
#657=ORIENTED_EDGE('',*,*,#514,.F.);
#658=ORIENTED_EDGE('',*,*,#516,.F.);
#659=ORIENTED_EDGE('',*,*,#517,.T.);
#660=ORIENTED_EDGE('',*,*,#518,.F.);
#661=ORIENTED_EDGE('',*,*,#517,.F.);
#662=ORIENTED_EDGE('',*,*,#519,.F.);
#663=ORIENTED_EDGE('',*,*,#520,.T.);
#664=ORIENTED_EDGE('',*,*,#521,.F.);
#665=ORIENTED_EDGE('',*,*,#520,.F.);
#666=ORIENTED_EDGE('',*,*,#522,.F.);
#667=ORIENTED_EDGE('',*,*,#523,.T.);
#668=ORIENTED_EDGE('',*,*,#524,.F.);
#669=ORIENTED_EDGE('',*,*,#523,.F.);
#670=ORIENTED_EDGE('',*,*,#525,.F.);
#671=ORIENTED_EDGE('',*,*,#526,.T.);
#672=ORIENTED_EDGE('',*,*,#527,.F.);
#673=ORIENTED_EDGE('',*,*,#526,.F.);
#674=ORIENTED_EDGE('',*,*,#528,.F.);
#675=ORIENTED_EDGE('',*,*,#529,.T.);
#676=ORIENTED_EDGE('',*,*,#530,.F.);
#677=ORIENTED_EDGE('',*,*,#529,.F.);
#678=ORIENTED_EDGE('',*,*,#531,.F.);
#679=ORIENTED_EDGE('',*,*,#532,.T.);
#680=ORIENTED_EDGE('',*,*,#533,.F.);
#681=ORIENTED_EDGE('',*,*,#532,.F.);
#682=ORIENTED_EDGE('',*,*,#534,.F.);
#683=ORIENTED_EDGE('',*,*,#535,.T.);
#684=ORIENTED_EDGE('',*,*,#536,.F.);
#685=ORIENTED_EDGE('',*,*,#535,.F.);
#686=ORIENTED_EDGE('',*,*,#537,.F.);
#687=ORIENTED_EDGE('',*,*,#538,.T.);
#688=ORIENTED_EDGE('',*,*,#539,.F.);
#689=ORIENTED_EDGE('',*,*,#538,.F.);
#690=ORIENTED_EDGE('',*,*,#540,.F.);
#691=ORIENTED_EDGE('',*,*,#541,.T.);
#692=ORIENTED_EDGE('',*,*,#542,.F.);
#693=ORIENTED_EDGE('',*,*,#541,.F.);
#694=ORIENTED_EDGE('',*,*,#543,.F.);
#695=ORIENTED_EDGE('',*,*,#544,.T.);
#696=ORIENTED_EDGE('',*,*,#545,.F.);
#697=ORIENTED_EDGE('',*,*,#544,.F.);
#698=ORIENTED_EDGE('',*,*,#546,.F.);
#699=ORIENTED_EDGE('',*,*,#547,.T.);
#700=ORIENTED_EDGE('',*,*,#548,.F.);
#701=ORIENTED_EDGE('',*,*,#547,.F.);
#702=ORIENTED_EDGE('',*,*,#549,.F.);
#703=ORIENTED_EDGE('',*,*,#550,.T.);
#704=ORIENTED_EDGE('',*,*,#551,.F.);
#705=ORIENTED_EDGE('',*,*,#550,.F.);
#706=ORIENTED_EDGE('',*,*,#552,.F.);
#707=ORIENTED_EDGE('',*,*,#553,.T.);
#708=ORIENTED_EDGE('',*,*,#554,.F.);
#709=ORIENTED_EDGE('',*,*,#553,.F.);
#710=ORIENTED_EDGE('',*,*,#555,.F.);
#711=ORIENTED_EDGE('',*,*,#556,.T.);
#712=ORIENTED_EDGE('',*,*,#557,.F.);
#713=ORIENTED_EDGE('',*,*,#556,.F.);
#714=ORIENTED_EDGE('',*,*,#558,.F.);
#715=ORIENTED_EDGE('',*,*,#559,.T.);
#716=ORIENTED_EDGE('',*,*,#560,.F.);
#717=ORIENTED_EDGE('',*,*,#559,.F.);
#718=ORIENTED_EDGE('',*,*,#561,.F.);
#719=ORIENTED_EDGE('',*,*,#562,.T.);
#720=ORIENTED_EDGE('',*,*,#563,.F.);
#721=ORIENTED_EDGE('',*,*,#562,.F.);
#722=ORIENTED_EDGE('',*,*,#564,.F.);
#723=ORIENTED_EDGE('',*,*,#565,.T.);
#724=ORIENTED_EDGE('',*,*,#566,.F.);
#725=ORIENTED_EDGE('',*,*,#565,.F.);
#726=ORIENTED_EDGE('',*,*,#567,.T.);
#727=ORIENTED_EDGE('',*,*,#568,.T.);
#728=ORIENTED_EDGE('',*,*,#569,.T.);
#729=ORIENTED_EDGE('',*,*,#570,.T.);
#730=ORIENTED_EDGE('',*,*,#568,.F.);
#731=ORIENTED_EDGE('',*,*,#571,.F.);
#732=ORIENTED_EDGE('',*,*,#572,.F.);
#733=ORIENTED_EDGE('',*,*,#573,.F.);
#734=ORIENTED_EDGE('',*,*,#567,.F.);
#735=ORIENTED_EDGE('',*,*,#574,.T.);
#736=ORIENTED_EDGE('',*,*,#575,.F.);
#737=ORIENTED_EDGE('',*,*,#576,.T.);
#738=ORIENTED_EDGE('',*,*,#577,.F.);
#739=ORIENTED_EDGE('',*,*,#578,.T.);
#740=ORIENTED_EDGE('',*,*,#579,.F.);
#741=ORIENTED_EDGE('',*,*,#580,.T.);
#742=ORIENTED_EDGE('',*,*,#581,.F.);
#743=ORIENTED_EDGE('',*,*,#582,.T.);
#744=ORIENTED_EDGE('',*,*,#583,.F.);
#745=ORIENTED_EDGE('',*,*,#584,.T.);
#746=ORIENTED_EDGE('',*,*,#585,.F.);
#747=ORIENTED_EDGE('',*,*,#586,.T.);
#748=ORIENTED_EDGE('',*,*,#587,.F.);
#749=ORIENTED_EDGE('',*,*,#588,.T.);
#750=ORIENTED_EDGE('',*,*,#589,.F.);
#751=ORIENTED_EDGE('',*,*,#590,.T.);
#752=ORIENTED_EDGE('',*,*,#591,.F.);
#753=ORIENTED_EDGE('',*,*,#592,.T.);
#754=ORIENTED_EDGE('',*,*,#593,.F.);
#755=ORIENTED_EDGE('',*,*,#594,.T.);
#756=ORIENTED_EDGE('',*,*,#595,.F.);
#757=ORIENTED_EDGE('',*,*,#571,.T.);
#758=ORIENTED_EDGE('',*,*,#506,.T.);
#759=ORIENTED_EDGE('',*,*,#509,.T.);
#760=ORIENTED_EDGE('',*,*,#512,.T.);
#761=ORIENTED_EDGE('',*,*,#515,.T.);
#762=ORIENTED_EDGE('',*,*,#518,.T.);
#763=ORIENTED_EDGE('',*,*,#521,.T.);
#764=ORIENTED_EDGE('',*,*,#524,.T.);
#765=ORIENTED_EDGE('',*,*,#527,.T.);
#766=ORIENTED_EDGE('',*,*,#530,.T.);
#767=ORIENTED_EDGE('',*,*,#533,.T.);
#768=ORIENTED_EDGE('',*,*,#536,.T.);
#769=ORIENTED_EDGE('',*,*,#539,.T.);
#770=ORIENTED_EDGE('',*,*,#542,.T.);
#771=ORIENTED_EDGE('',*,*,#545,.T.);
#772=ORIENTED_EDGE('',*,*,#548,.T.);
#773=ORIENTED_EDGE('',*,*,#551,.T.);
#774=ORIENTED_EDGE('',*,*,#554,.T.);
#775=ORIENTED_EDGE('',*,*,#557,.T.);
#776=ORIENTED_EDGE('',*,*,#558,.T.);
#777=ORIENTED_EDGE('',*,*,#561,.T.);
#778=ORIENTED_EDGE('',*,*,#564,.T.);
#779=ORIENTED_EDGE('',*,*,#596,.T.);
#780=ORIENTED_EDGE('',*,*,#597,.T.);
#781=ORIENTED_EDGE('',*,*,#598,.T.);
#782=ORIENTED_EDGE('',*,*,#579,.T.);
#783=ORIENTED_EDGE('',*,*,#599,.T.);
#784=ORIENTED_EDGE('',*,*,#598,.F.);
#785=ORIENTED_EDGE('',*,*,#600,.F.);
#786=ORIENTED_EDGE('',*,*,#601,.F.);
#787=ORIENTED_EDGE('',*,*,#580,.F.);
#788=ORIENTED_EDGE('',*,*,#569,.F.);
#789=ORIENTED_EDGE('',*,*,#573,.T.);
#790=ORIENTED_EDGE('',*,*,#602,.F.);
#791=ORIENTED_EDGE('',*,*,#603,.T.);
#792=ORIENTED_EDGE('',*,*,#604,.F.);
#793=ORIENTED_EDGE('',*,*,#605,.T.);
#794=ORIENTED_EDGE('',*,*,#606,.F.);
#795=ORIENTED_EDGE('',*,*,#607,.T.);
#796=ORIENTED_EDGE('',*,*,#608,.F.);
#797=ORIENTED_EDGE('',*,*,#609,.T.);
#798=ORIENTED_EDGE('',*,*,#610,.F.);
#799=ORIENTED_EDGE('',*,*,#611,.T.);
#800=ORIENTED_EDGE('',*,*,#612,.F.);
#801=ORIENTED_EDGE('',*,*,#613,.T.);
#802=ORIENTED_EDGE('',*,*,#614,.F.);
#803=ORIENTED_EDGE('',*,*,#615,.T.);
#804=ORIENTED_EDGE('',*,*,#616,.F.);
#805=ORIENTED_EDGE('',*,*,#600,.T.);
#806=ORIENTED_EDGE('',*,*,#597,.F.);
#807=ORIENTED_EDGE('',*,*,#617,.T.);
#808=ORIENTED_EDGE('',*,*,#618,.F.);
#809=ORIENTED_EDGE('',*,*,#619,.T.);
#810=ORIENTED_EDGE('',*,*,#620,.F.);
#811=ORIENTED_EDGE('',*,*,#621,.T.);
#812=ORIENTED_EDGE('',*,*,#504,.T.);
#813=ORIENTED_EDGE('',*,*,#507,.T.);
#814=ORIENTED_EDGE('',*,*,#510,.T.);
#815=ORIENTED_EDGE('',*,*,#513,.T.);
#816=ORIENTED_EDGE('',*,*,#516,.T.);
#817=ORIENTED_EDGE('',*,*,#519,.T.);
#818=ORIENTED_EDGE('',*,*,#522,.T.);
#819=ORIENTED_EDGE('',*,*,#525,.T.);
#820=ORIENTED_EDGE('',*,*,#528,.T.);
#821=ORIENTED_EDGE('',*,*,#531,.T.);
#822=ORIENTED_EDGE('',*,*,#534,.T.);
#823=ORIENTED_EDGE('',*,*,#537,.T.);
#824=ORIENTED_EDGE('',*,*,#540,.T.);
#825=ORIENTED_EDGE('',*,*,#543,.T.);
#826=ORIENTED_EDGE('',*,*,#546,.T.);
#827=ORIENTED_EDGE('',*,*,#549,.T.);
#828=ORIENTED_EDGE('',*,*,#552,.T.);
#829=ORIENTED_EDGE('',*,*,#555,.T.);
#830=ORIENTED_EDGE('',*,*,#560,.T.);
#831=ORIENTED_EDGE('',*,*,#563,.T.);
#832=ORIENTED_EDGE('',*,*,#566,.T.);
#833=ORIENTED_EDGE('',*,*,#622,.T.);
#834=ORIENTED_EDGE('',*,*,#602,.T.);
#835=ORIENTED_EDGE('',*,*,#572,.T.);
#836=ORIENTED_EDGE('',*,*,#595,.T.);
#837=ORIENTED_EDGE('',*,*,#623,.T.);
#838=ORIENTED_EDGE('',*,*,#623,.F.);
#839=ORIENTED_EDGE('',*,*,#594,.F.);
#840=ORIENTED_EDGE('',*,*,#624,.F.);
#841=ORIENTED_EDGE('',*,*,#603,.F.);
#842=ORIENTED_EDGE('',*,*,#589,.T.);
#843=ORIENTED_EDGE('',*,*,#625,.T.);
#844=ORIENTED_EDGE('',*,*,#608,.T.);
#845=ORIENTED_EDGE('',*,*,#626,.T.);
#846=ORIENTED_EDGE('',*,*,#626,.F.);
#847=ORIENTED_EDGE('',*,*,#607,.F.);
#848=ORIENTED_EDGE('',*,*,#627,.F.);
#849=ORIENTED_EDGE('',*,*,#590,.F.);
#850=ORIENTED_EDGE('',*,*,#610,.T.);
#851=ORIENTED_EDGE('',*,*,#628,.T.);
#852=ORIENTED_EDGE('',*,*,#587,.T.);
#853=ORIENTED_EDGE('',*,*,#629,.T.);
#854=ORIENTED_EDGE('',*,*,#629,.F.);
#855=ORIENTED_EDGE('',*,*,#586,.F.);
#856=ORIENTED_EDGE('',*,*,#630,.F.);
#857=ORIENTED_EDGE('',*,*,#611,.F.);
#858=ORIENTED_EDGE('',*,*,#581,.T.);
#859=ORIENTED_EDGE('',*,*,#601,.T.);
#860=ORIENTED_EDGE('',*,*,#616,.T.);
#861=ORIENTED_EDGE('',*,*,#631,.T.);
#862=ORIENTED_EDGE('',*,*,#596,.F.);
#863=ORIENTED_EDGE('',*,*,#632,.T.);
#864=ORIENTED_EDGE('',*,*,#622,.F.);
#865=ORIENTED_EDGE('',*,*,#632,.F.);
#866=ORIENTED_EDGE('',*,*,#614,.T.);
#867=ORIENTED_EDGE('',*,*,#633,.T.);
#868=ORIENTED_EDGE('',*,*,#583,.T.);
#869=ORIENTED_EDGE('',*,*,#634,.T.);
#870=ORIENTED_EDGE('',*,*,#633,.F.);
#871=ORIENTED_EDGE('',*,*,#613,.F.);
#872=ORIENTED_EDGE('',*,*,#635,.F.);
#873=ORIENTED_EDGE('',*,*,#584,.F.);
#874=ORIENTED_EDGE('',*,*,#606,.T.);
#875=ORIENTED_EDGE('',*,*,#636,.T.);
#876=ORIENTED_EDGE('',*,*,#591,.T.);
#877=ORIENTED_EDGE('',*,*,#627,.T.);
#878=ORIENTED_EDGE('',*,*,#636,.F.);
#879=ORIENTED_EDGE('',*,*,#605,.F.);
#880=ORIENTED_EDGE('',*,*,#637,.F.);
#881=ORIENTED_EDGE('',*,*,#592,.F.);
#882=ORIENTED_EDGE('',*,*,#620,.T.);
#883=ORIENTED_EDGE('',*,*,#638,.T.);
#884=ORIENTED_EDGE('',*,*,#575,.T.);
#885=ORIENTED_EDGE('',*,*,#639,.T.);
#886=ORIENTED_EDGE('',*,*,#638,.F.);
#887=ORIENTED_EDGE('',*,*,#619,.F.);
#888=ORIENTED_EDGE('',*,*,#640,.F.);
#889=ORIENTED_EDGE('',*,*,#576,.F.);
#890=ORIENTED_EDGE('',*,*,#618,.T.);
#891=ORIENTED_EDGE('',*,*,#641,.T.);
#892=ORIENTED_EDGE('',*,*,#577,.T.);
#893=ORIENTED_EDGE('',*,*,#640,.T.);
#894=ORIENTED_EDGE('',*,*,#599,.F.);
#895=ORIENTED_EDGE('',*,*,#578,.F.);
#896=ORIENTED_EDGE('',*,*,#641,.F.);
#897=ORIENTED_EDGE('',*,*,#617,.F.);
#898=ORIENTED_EDGE('',*,*,#612,.T.);
#899=ORIENTED_EDGE('',*,*,#630,.T.);
#900=ORIENTED_EDGE('',*,*,#585,.T.);
#901=ORIENTED_EDGE('',*,*,#635,.T.);
#902=ORIENTED_EDGE('',*,*,#604,.T.);
#903=ORIENTED_EDGE('',*,*,#624,.T.);
#904=ORIENTED_EDGE('',*,*,#593,.T.);
#905=ORIENTED_EDGE('',*,*,#637,.T.);
#906=ORIENTED_EDGE('',*,*,#631,.F.);
#907=ORIENTED_EDGE('',*,*,#615,.F.);
#908=ORIENTED_EDGE('',*,*,#634,.F.);
#909=ORIENTED_EDGE('',*,*,#582,.F.);
#910=ORIENTED_EDGE('',*,*,#570,.F.);
#911=ORIENTED_EDGE('',*,*,#621,.F.);
#912=ORIENTED_EDGE('',*,*,#639,.F.);
#913=ORIENTED_EDGE('',*,*,#574,.F.);
#914=ORIENTED_EDGE('',*,*,#625,.F.);
#915=ORIENTED_EDGE('',*,*,#588,.F.);
#916=ORIENTED_EDGE('',*,*,#628,.F.);
#917=ORIENTED_EDGE('',*,*,#609,.F.);
#918=CYLINDRICAL_SURFACE('',#1026,2.75);
#919=CYLINDRICAL_SURFACE('',#1029,2.75);
#920=CYLINDRICAL_SURFACE('',#1032,2.75);
#921=CYLINDRICAL_SURFACE('',#1035,2.75);
#922=CYLINDRICAL_SURFACE('',#1038,2.75);
#923=CYLINDRICAL_SURFACE('',#1041,2.75);
#924=CYLINDRICAL_SURFACE('',#1044,2.75);
#925=CYLINDRICAL_SURFACE('',#1047,2.75);
#926=CYLINDRICAL_SURFACE('',#1050,2.75);
#927=CYLINDRICAL_SURFACE('',#1053,2.75);
#928=CYLINDRICAL_SURFACE('',#1056,2.75);
#929=CYLINDRICAL_SURFACE('',#1059,2.75);
#930=CYLINDRICAL_SURFACE('',#1062,2.75);
#931=CYLINDRICAL_SURFACE('',#1065,2.75);
#932=CYLINDRICAL_SURFACE('',#1068,2.75);
#933=CYLINDRICAL_SURFACE('',#1071,2.75);
#934=CYLINDRICAL_SURFACE('',#1074,2.75);
#935=CYLINDRICAL_SURFACE('',#1077,2.75);
#936=CYLINDRICAL_SURFACE('',#1080,3.3);
#937=CYLINDRICAL_SURFACE('',#1083,3.3);
#938=CYLINDRICAL_SURFACE('',#1086,3.3);
#939=CYLINDRICAL_SURFACE('',#1089,15.);
#940=CYLINDRICAL_SURFACE('',#1092,175.);
#941=CYLINDRICAL_SURFACE('',#1110,15.);
#942=CYLINDRICAL_SURFACE('',#1112,175.);
#943=CYLINDRICAL_SURFACE('',#1127,15.);
#944=CYLINDRICAL_SURFACE('',#1129,15.);
#945=CYLINDRICAL_SURFACE('',#1131,15.);
#946=CYLINDRICAL_SURFACE('',#1133,15.);
#947=CYLINDRICAL_SURFACE('',#1134,5.5);
#948=CYLINDRICAL_SURFACE('',#1135,10.);
#949=CYLINDRICAL_SURFACE('',#1137,10.);
#950=CYLINDRICAL_SURFACE('',#1139,10.);
#951=CYLINDRICAL_SURFACE('',#1141,10.);
#952=CYLINDRICAL_SURFACE('',#1143,10.);
#953=CYLINDRICAL_SURFACE('',#1144,10.);
#954=CYLINDRICAL_SURFACE('',#1147,175.);
#955=ADVANCED_FACE('',(#70),#918,.F.);
#956=ADVANCED_FACE('',(#71),#919,.F.);
#957=ADVANCED_FACE('',(#72),#920,.F.);
#958=ADVANCED_FACE('',(#73),#921,.F.);
#959=ADVANCED_FACE('',(#74),#922,.F.);
#960=ADVANCED_FACE('',(#75),#923,.F.);
#961=ADVANCED_FACE('',(#76),#924,.F.);
#962=ADVANCED_FACE('',(#77),#925,.F.);
#963=ADVANCED_FACE('',(#78),#926,.F.);
#964=ADVANCED_FACE('',(#79),#927,.F.);
#965=ADVANCED_FACE('',(#80),#928,.F.);
#966=ADVANCED_FACE('',(#81),#929,.F.);
#967=ADVANCED_FACE('',(#82),#930,.F.);
#968=ADVANCED_FACE('',(#83),#931,.F.);
#969=ADVANCED_FACE('',(#84),#932,.F.);
#970=ADVANCED_FACE('',(#85),#933,.F.);
#971=ADVANCED_FACE('',(#86),#934,.F.);
#972=ADVANCED_FACE('',(#87),#935,.F.);
#973=ADVANCED_FACE('',(#88),#936,.F.);
#974=ADVANCED_FACE('',(#89),#937,.F.);
#975=ADVANCED_FACE('',(#90),#938,.F.);
#976=ADVANCED_FACE('',(#91),#939,.T.);
#977=ADVANCED_FACE('',(#92),#940,.T.);
#978=ADVANCED_FACE('',(#93,#15,#16,#17,#18,#19,#20,#21,#22,#23,#24,#25,
#26,#27,#28,#29,#30,#31,#32,#33,#34,#35,#36),#59,.F.);
#979=ADVANCED_FACE('',(#94),#941,.T.);
#980=ADVANCED_FACE('',(#95),#942,.T.);
#981=ADVANCED_FACE('',(#96,#37,#38,#39,#40,#41,#42,#43,#44,#45,#46,#47,
#48,#49,#50,#51,#52,#53,#54,#55,#56,#57,#58),#60,.T.);
#982=ADVANCED_FACE('',(#97),#943,.T.);
#983=ADVANCED_FACE('',(#98),#61,.F.);
#984=ADVANCED_FACE('',(#99),#944,.T.);
#985=ADVANCED_FACE('',(#100),#62,.T.);
#986=ADVANCED_FACE('',(#101),#945,.T.);
#987=ADVANCED_FACE('',(#102),#63,.F.);
#988=ADVANCED_FACE('',(#103),#946,.T.);
#989=ADVANCED_FACE('',(#104),#947,.F.);
#990=ADVANCED_FACE('',(#105),#948,.F.);
#991=ADVANCED_FACE('',(#106),#64,.T.);
#992=ADVANCED_FACE('',(#107),#949,.F.);
#993=ADVANCED_FACE('',(#108),#65,.T.);
#994=ADVANCED_FACE('',(#109),#950,.F.);
#995=ADVANCED_FACE('',(#110),#66,.T.);
#996=ADVANCED_FACE('',(#111),#951,.F.);
#997=ADVANCED_FACE('',(#112),#67,.F.);
#998=ADVANCED_FACE('',(#113),#952,.F.);
#999=ADVANCED_FACE('',(#114),#953,.F.);
#1000=ADVANCED_FACE('',(#115),#68,.T.);
#1001=ADVANCED_FACE('',(#116),#69,.T.);
#1002=ADVANCED_FACE('',(#117),#954,.T.);
#1003=CLOSED_SHELL('',(#955,#956,#957,#958,#959,#960,#961,#962,#963,#964,
#965,#966,#967,#968,#969,#970,#971,#972,#973,#974,#975,#976,#977,#978,#979,
#980,#981,#982,#983,#984,#985,#986,#987,#988,#989,#990,#991,#992,#993,#994,
#995,#996,#997,#998,#999,#1000,#1001,#1002));
#1004=DERIVED_UNIT_ELEMENT(#1007,1.);
#1005=DERIVED_UNIT_ELEMENT(#1742,-3.);
#1006=DIMENSIONAL_EXPONENTS(0.,1.,0.,0.,0.,0.,0.);
#1007=(
CONVERSION_BASED_UNIT('gram',#1009)
MASS_UNIT()
NAMED_UNIT(#1006)
);
#1008=(
MASS_UNIT()
NAMED_UNIT(*)
SI_UNIT(.KILO.,.GRAM.)
);
#1009=MASS_MEASURE_WITH_UNIT(MASS_MEASURE(0.001),#1008);
#1010=DERIVED_UNIT((#1004,#1005));
#1011=MEASURE_REPRESENTATION_ITEM('density measure',
POSITIVE_RATIO_MEASURE(1.),#1010);
#1012=PROPERTY_DEFINITION_REPRESENTATION(#1017,#1014);
#1013=PROPERTY_DEFINITION_REPRESENTATION(#1018,#1015);
#1014=REPRESENTATION('material name',(#1016),#1739);
#1015=REPRESENTATION('density',(#1011),#1739);
#1016=DESCRIPTIVE_REPRESENTATION_ITEM('Generic','Generic');
#1017=PROPERTY_DEFINITION('material property','material name',#1749);
#1018=PROPERTY_DEFINITION('material property','density of part',#1749);
#1019=DATE_TIME_ROLE('creation_date');
#1020=APPLIED_DATE_AND_TIME_ASSIGNMENT(#1021,#1019,(#1749));
#1021=DATE_AND_TIME(#1022,#1023);
#1022=CALENDAR_DATE(2026,28,4);
#1023=LOCAL_TIME(0,0,0.,#1024);
#1024=COORDINATED_UNIVERSAL_TIME_OFFSET(0,0,.BEHIND.);
#1025=AXIS2_PLACEMENT_3D('',#1458,#1148,#1149);
#1026=AXIS2_PLACEMENT_3D('',#1459,#1150,#1151);
#1027=AXIS2_PLACEMENT_3D('',#1461,#1152,#1153);
#1028=AXIS2_PLACEMENT_3D('',#1464,#1155,#1156);
#1029=AXIS2_PLACEMENT_3D('',#1465,#1157,#1158);
#1030=AXIS2_PLACEMENT_3D('',#1467,#1159,#1160);
#1031=AXIS2_PLACEMENT_3D('',#1470,#1162,#1163);
#1032=AXIS2_PLACEMENT_3D('',#1471,#1164,#1165);
#1033=AXIS2_PLACEMENT_3D('',#1473,#1166,#1167);
#1034=AXIS2_PLACEMENT_3D('',#1476,#1169,#1170);
#1035=AXIS2_PLACEMENT_3D('',#1477,#1171,#1172);
#1036=AXIS2_PLACEMENT_3D('',#1479,#1173,#1174);
#1037=AXIS2_PLACEMENT_3D('',#1482,#1176,#1177);
#1038=AXIS2_PLACEMENT_3D('',#1483,#1178,#1179);
#1039=AXIS2_PLACEMENT_3D('',#1485,#1180,#1181);
#1040=AXIS2_PLACEMENT_3D('',#1488,#1183,#1184);
#1041=AXIS2_PLACEMENT_3D('',#1489,#1185,#1186);
#1042=AXIS2_PLACEMENT_3D('',#1491,#1187,#1188);
#1043=AXIS2_PLACEMENT_3D('',#1494,#1190,#1191);
#1044=AXIS2_PLACEMENT_3D('',#1495,#1192,#1193);
#1045=AXIS2_PLACEMENT_3D('',#1497,#1194,#1195);
#1046=AXIS2_PLACEMENT_3D('',#1500,#1197,#1198);
#1047=AXIS2_PLACEMENT_3D('',#1501,#1199,#1200);
#1048=AXIS2_PLACEMENT_3D('',#1503,#1201,#1202);
#1049=AXIS2_PLACEMENT_3D('',#1506,#1204,#1205);
#1050=AXIS2_PLACEMENT_3D('',#1507,#1206,#1207);
#1051=AXIS2_PLACEMENT_3D('',#1509,#1208,#1209);
#1052=AXIS2_PLACEMENT_3D('',#1512,#1211,#1212);
#1053=AXIS2_PLACEMENT_3D('',#1513,#1213,#1214);
#1054=AXIS2_PLACEMENT_3D('',#1515,#1215,#1216);
#1055=AXIS2_PLACEMENT_3D('',#1518,#1218,#1219);
#1056=AXIS2_PLACEMENT_3D('',#1519,#1220,#1221);
#1057=AXIS2_PLACEMENT_3D('',#1521,#1222,#1223);
#1058=AXIS2_PLACEMENT_3D('',#1524,#1225,#1226);
#1059=AXIS2_PLACEMENT_3D('',#1525,#1227,#1228);
#1060=AXIS2_PLACEMENT_3D('',#1527,#1229,#1230);
#1061=AXIS2_PLACEMENT_3D('',#1530,#1232,#1233);
#1062=AXIS2_PLACEMENT_3D('',#1531,#1234,#1235);
#1063=AXIS2_PLACEMENT_3D('',#1533,#1236,#1237);
#1064=AXIS2_PLACEMENT_3D('',#1536,#1239,#1240);
#1065=AXIS2_PLACEMENT_3D('',#1537,#1241,#1242);
#1066=AXIS2_PLACEMENT_3D('',#1539,#1243,#1244);
#1067=AXIS2_PLACEMENT_3D('',#1542,#1246,#1247);
#1068=AXIS2_PLACEMENT_3D('',#1543,#1248,#1249);
#1069=AXIS2_PLACEMENT_3D('',#1545,#1250,#1251);
#1070=AXIS2_PLACEMENT_3D('',#1548,#1253,#1254);
#1071=AXIS2_PLACEMENT_3D('',#1549,#1255,#1256);
#1072=AXIS2_PLACEMENT_3D('',#1551,#1257,#1258);
#1073=AXIS2_PLACEMENT_3D('',#1554,#1260,#1261);
#1074=AXIS2_PLACEMENT_3D('',#1555,#1262,#1263);
#1075=AXIS2_PLACEMENT_3D('',#1557,#1264,#1265);
#1076=AXIS2_PLACEMENT_3D('',#1560,#1267,#1268);
#1077=AXIS2_PLACEMENT_3D('',#1561,#1269,#1270);
#1078=AXIS2_PLACEMENT_3D('',#1563,#1271,#1272);
#1079=AXIS2_PLACEMENT_3D('',#1566,#1274,#1275);
#1080=AXIS2_PLACEMENT_3D('',#1567,#1276,#1277);
#1081=AXIS2_PLACEMENT_3D('',#1569,#1278,#1279);
#1082=AXIS2_PLACEMENT_3D('',#1572,#1281,#1282);
#1083=AXIS2_PLACEMENT_3D('',#1573,#1283,#1284);
#1084=AXIS2_PLACEMENT_3D('',#1575,#1285,#1286);
#1085=AXIS2_PLACEMENT_3D('',#1578,#1288,#1289);
#1086=AXIS2_PLACEMENT_3D('',#1579,#1290,#1291);
#1087=AXIS2_PLACEMENT_3D('',#1581,#1292,#1293);
#1088=AXIS2_PLACEMENT_3D('',#1584,#1295,#1296);
#1089=AXIS2_PLACEMENT_3D('',#1585,#1297,#1298);
#1090=AXIS2_PLACEMENT_3D('',#1588,#1299,#1300);
#1091=AXIS2_PLACEMENT_3D('',#1592,#1302,#1303);
#1092=AXIS2_PLACEMENT_3D('',#1594,#1305,#1306);
#1093=AXIS2_PLACEMENT_3D('',#1596,#1307,#1308);
#1094=AXIS2_PLACEMENT_3D('',#1599,#1310,#1311);
#1095=AXIS2_PLACEMENT_3D('',#1600,#1312,#1313);
#1096=AXIS2_PLACEMENT_3D('',#1604,#1315,#1316);
#1097=AXIS2_PLACEMENT_3D('',#1608,#1318,#1319);
#1098=AXIS2_PLACEMENT_3D('',#1612,#1321,#1322);
#1099=AXIS2_PLACEMENT_3D('',#1614,#1323,#1324);
#1100=AXIS2_PLACEMENT_3D('',#1616,#1325,#1326);
#1101=AXIS2_PLACEMENT_3D('',#1620,#1328,#1329);
#1102=AXIS2_PLACEMENT_3D('',#1624,#1331,#1332);
#1103=AXIS2_PLACEMENT_3D('',#1628,#1334,#1335);
#1104=AXIS2_PLACEMENT_3D('',#1630,#1336,#1337);
#1105=AXIS2_PLACEMENT_3D('',#1632,#1338,#1339);
#1106=AXIS2_PLACEMENT_3D('',#1636,#1341,#1342);
#1107=AXIS2_PLACEMENT_3D('',#1640,#1344,#1345);
#1108=AXIS2_PLACEMENT_3D('',#1643,#1347,#1348);
#1109=AXIS2_PLACEMENT_3D('',#1645,#1349,#1350);
#1110=AXIS2_PLACEMENT_3D('',#1646,#1351,#1352);
#1111=AXIS2_PLACEMENT_3D('',#1649,#1353,#1354);
#1112=AXIS2_PLACEMENT_3D('',#1652,#1357,#1358);
#1113=AXIS2_PLACEMENT_3D('',#1654,#1359,#1360);
#1114=AXIS2_PLACEMENT_3D('',#1656,#1362,#1363);
#1115=AXIS2_PLACEMENT_3D('',#1658,#1364,#1365);
#1116=AXIS2_PLACEMENT_3D('',#1662,#1367,#1368);
#1117=AXIS2_PLACEMENT_3D('',#1666,#1370,#1371);
#1118=AXIS2_PLACEMENT_3D('',#1670,#1373,#1374);
#1119=AXIS2_PLACEMENT_3D('',#1672,#1375,#1376);
#1120=AXIS2_PLACEMENT_3D('',#1674,#1377,#1378);
#1121=AXIS2_PLACEMENT_3D('',#1678,#1380,#1381);
#1122=AXIS2_PLACEMENT_3D('',#1682,#1383,#1384);
#1123=AXIS2_PLACEMENT_3D('',#1685,#1386,#1387);
#1124=AXIS2_PLACEMENT_3D('',#1689,#1389,#1390);
#1125=AXIS2_PLACEMENT_3D('',#1693,#1392,#1393);
#1126=AXIS2_PLACEMENT_3D('',#1696,#1395,#1396);
#1127=AXIS2_PLACEMENT_3D('',#1697,#1397,#1398);
#1128=AXIS2_PLACEMENT_3D('',#1699,#1400,#1401);
#1129=AXIS2_PLACEMENT_3D('',#1701,#1403,#1404);
#1130=AXIS2_PLACEMENT_3D('',#1704,#1407,#1408);
#1131=AXIS2_PLACEMENT_3D('',#1706,#1410,#1411);
#1132=AXIS2_PLACEMENT_3D('',#1709,#1414,#1415);
#1133=AXIS2_PLACEMENT_3D('',#1711,#1417,#1418);
#1134=AXIS2_PLACEMENT_3D('',#1713,#1420,#1421);
#1135=AXIS2_PLACEMENT_3D('',#1715,#1423,#1424);
#1136=AXIS2_PLACEMENT_3D('',#1718,#1427,#1428);
#1137=AXIS2_PLACEMENT_3D('',#1720,#1430,#1431);
#1138=AXIS2_PLACEMENT_3D('',#1722,#1433,#1434);
#1139=AXIS2_PLACEMENT_3D('',#1724,#1436,#1437);
#1140=AXIS2_PLACEMENT_3D('',#1727,#1440,#1441);
#1141=AXIS2_PLACEMENT_3D('',#1729,#1443,#1444);
#1142=AXIS2_PLACEMENT_3D('',#1731,#1446,#1447);
#1143=AXIS2_PLACEMENT_3D('',#1732,#1448,#1449);
#1144=AXIS2_PLACEMENT_3D('',#1733,#1450,#1451);
#1145=AXIS2_PLACEMENT_3D('',#1734,#1452,#1453);
#1146=AXIS2_PLACEMENT_3D('',#1735,#1454,#1455);
#1147=AXIS2_PLACEMENT_3D('',#1736,#1456,#1457);
#1148=DIRECTION('axis',(0.,0.,1.));
#1149=DIRECTION('refdir',(1.,0.,0.));
#1150=DIRECTION('center_axis',(0.,-1.,0.));
#1151=DIRECTION('ref_axis',(-0.5,0.,-0.866025403784438));
#1152=DIRECTION('center_axis',(0.,-1.,0.));
#1153=DIRECTION('ref_axis',(-0.5,0.,-0.866025403784438));
#1154=DIRECTION('',(0.,-1.,0.));
#1155=DIRECTION('center_axis',(0.,1.,0.));
#1156=DIRECTION('ref_axis',(-0.5,0.,-0.866025403784438));
#1157=DIRECTION('center_axis',(0.,-1.,0.));
#1158=DIRECTION('ref_axis',(-0.5,0.,-0.866025403784438));
#1159=DIRECTION('center_axis',(0.,-1.,0.));
#1160=DIRECTION('ref_axis',(-0.5,0.,-0.866025403784438));
#1161=DIRECTION('',(0.,-1.,0.));
#1162=DIRECTION('center_axis',(0.,1.,0.));
#1163=DIRECTION('ref_axis',(-0.5,0.,-0.866025403784438));
#1164=DIRECTION('center_axis',(0.,-1.,0.));
#1165=DIRECTION('ref_axis',(-0.5,0.,-0.866025403784438));
#1166=DIRECTION('center_axis',(0.,-1.,0.));
#1167=DIRECTION('ref_axis',(-0.5,0.,-0.866025403784438));
#1168=DIRECTION('',(0.,-1.,0.));
#1169=DIRECTION('center_axis',(0.,1.,0.));
#1170=DIRECTION('ref_axis',(-0.5,0.,-0.866025403784438));
#1171=DIRECTION('center_axis',(0.,-1.,0.));
#1172=DIRECTION('ref_axis',(-0.5,0.,-0.866025403784438));
#1173=DIRECTION('center_axis',(0.,-1.,0.));
#1174=DIRECTION('ref_axis',(-0.5,0.,-0.866025403784438));
#1175=DIRECTION('',(0.,-1.,0.));
#1176=DIRECTION('center_axis',(0.,1.,0.));
#1177=DIRECTION('ref_axis',(-0.5,0.,-0.866025403784438));
#1178=DIRECTION('center_axis',(0.,-1.,0.));
#1179=DIRECTION('ref_axis',(-0.5,0.,-0.866025403784438));
#1180=DIRECTION('center_axis',(0.,-1.,0.));
#1181=DIRECTION('ref_axis',(-0.5,0.,-0.866025403784438));
#1182=DIRECTION('',(0.,-1.,0.));
#1183=DIRECTION('center_axis',(0.,1.,0.));
#1184=DIRECTION('ref_axis',(-0.5,0.,-0.866025403784438));
#1185=DIRECTION('center_axis',(0.,-1.,0.));
#1186=DIRECTION('ref_axis',(-0.5,0.,-0.866025403784438));
#1187=DIRECTION('center_axis',(0.,-1.,0.));
#1188=DIRECTION('ref_axis',(-0.5,0.,-0.866025403784438));
#1189=DIRECTION('',(0.,-1.,0.));
#1190=DIRECTION('center_axis',(0.,1.,0.));
#1191=DIRECTION('ref_axis',(-0.5,0.,-0.866025403784438));
#1192=DIRECTION('center_axis',(0.,-1.,0.));
#1193=DIRECTION('ref_axis',(-0.5,0.,0.866025403784439));
#1194=DIRECTION('center_axis',(0.,-1.,0.));
#1195=DIRECTION('ref_axis',(-0.5,0.,0.866025403784439));
#1196=DIRECTION('',(0.,-1.,0.));
#1197=DIRECTION('center_axis',(0.,1.,0.));
#1198=DIRECTION('ref_axis',(-0.5,0.,0.866025403784439));
#1199=DIRECTION('center_axis',(0.,-1.,0.));
#1200=DIRECTION('ref_axis',(-0.5,0.,0.866025403784439));
#1201=DIRECTION('center_axis',(0.,-1.,0.));
#1202=DIRECTION('ref_axis',(-0.5,0.,0.866025403784439));
#1203=DIRECTION('',(0.,-1.,0.));
#1204=DIRECTION('center_axis',(0.,1.,0.));
#1205=DIRECTION('ref_axis',(-0.5,0.,0.866025403784439));
#1206=DIRECTION('center_axis',(0.,-1.,0.));
#1207=DIRECTION('ref_axis',(-0.5,0.,0.866025403784439));
#1208=DIRECTION('center_axis',(0.,-1.,0.));
#1209=DIRECTION('ref_axis',(-0.5,0.,0.866025403784439));
#1210=DIRECTION('',(0.,-1.,0.));
#1211=DIRECTION('center_axis',(0.,1.,0.));
#1212=DIRECTION('ref_axis',(-0.5,0.,0.866025403784439));
#1213=DIRECTION('center_axis',(0.,-1.,0.));
#1214=DIRECTION('ref_axis',(-0.5,0.,0.866025403784439));
#1215=DIRECTION('center_axis',(0.,-1.,0.));
#1216=DIRECTION('ref_axis',(-0.5,0.,0.866025403784439));
#1217=DIRECTION('',(0.,-1.,0.));
#1218=DIRECTION('center_axis',(0.,1.,0.));
#1219=DIRECTION('ref_axis',(-0.5,0.,0.866025403784439));
#1220=DIRECTION('center_axis',(0.,-1.,0.));
#1221=DIRECTION('ref_axis',(-0.5,0.,0.866025403784439));
#1222=DIRECTION('center_axis',(0.,-1.,0.));
#1223=DIRECTION('ref_axis',(-0.5,0.,0.866025403784439));
#1224=DIRECTION('',(0.,-1.,0.));
#1225=DIRECTION('center_axis',(0.,1.,0.));
#1226=DIRECTION('ref_axis',(-0.5,0.,0.866025403784439));
#1227=DIRECTION('center_axis',(0.,-1.,0.));
#1228=DIRECTION('ref_axis',(-0.5,0.,0.866025403784439));
#1229=DIRECTION('center_axis',(0.,-1.,0.));
#1230=DIRECTION('ref_axis',(-0.5,0.,0.866025403784439));
#1231=DIRECTION('',(0.,-1.,0.));
#1232=DIRECTION('center_axis',(0.,1.,0.));
#1233=DIRECTION('ref_axis',(-0.5,0.,0.866025403784439));
#1234=DIRECTION('center_axis',(0.,-1.,0.));
#1235=DIRECTION('ref_axis',(1.,0.,0.));
#1236=DIRECTION('center_axis',(0.,-1.,0.));
#1237=DIRECTION('ref_axis',(1.,0.,0.));
#1238=DIRECTION('',(0.,-1.,0.));
#1239=DIRECTION('center_axis',(0.,1.,0.));
#1240=DIRECTION('ref_axis',(1.,0.,0.));
#1241=DIRECTION('center_axis',(0.,-1.,0.));
#1242=DIRECTION('ref_axis',(1.,0.,0.));
#1243=DIRECTION('center_axis',(0.,-1.,0.));
#1244=DIRECTION('ref_axis',(1.,0.,0.));
#1245=DIRECTION('',(0.,-1.,0.));
#1246=DIRECTION('center_axis',(0.,1.,0.));
#1247=DIRECTION('ref_axis',(1.,0.,0.));
#1248=DIRECTION('center_axis',(0.,-1.,0.));
#1249=DIRECTION('ref_axis',(1.,0.,0.));
#1250=DIRECTION('center_axis',(0.,-1.,0.));
#1251=DIRECTION('ref_axis',(1.,0.,0.));
#1252=DIRECTION('',(0.,-1.,0.));
#1253=DIRECTION('center_axis',(0.,1.,0.));
#1254=DIRECTION('ref_axis',(1.,0.,0.));
#1255=DIRECTION('center_axis',(0.,-1.,0.));
#1256=DIRECTION('ref_axis',(1.,0.,0.));
#1257=DIRECTION('center_axis',(0.,-1.,0.));
#1258=DIRECTION('ref_axis',(1.,0.,0.));
#1259=DIRECTION('',(0.,-1.,0.));
#1260=DIRECTION('center_axis',(0.,1.,0.));
#1261=DIRECTION('ref_axis',(1.,0.,0.));
#1262=DIRECTION('center_axis',(0.,-1.,0.));
#1263=DIRECTION('ref_axis',(1.,0.,0.));
#1264=DIRECTION('center_axis',(0.,-1.,0.));
#1265=DIRECTION('ref_axis',(1.,0.,0.));
#1266=DIRECTION('',(0.,-1.,0.));
#1267=DIRECTION('center_axis',(0.,1.,0.));
#1268=DIRECTION('ref_axis',(1.,0.,0.));
#1269=DIRECTION('center_axis',(0.,-1.,0.));
#1270=DIRECTION('ref_axis',(1.,0.,0.));
#1271=DIRECTION('center_axis',(0.,-1.,0.));
#1272=DIRECTION('ref_axis',(1.,0.,0.));
#1273=DIRECTION('',(0.,-1.,0.));
#1274=DIRECTION('center_axis',(0.,1.,0.));
#1275=DIRECTION('ref_axis',(1.,0.,0.));
#1276=DIRECTION('center_axis',(0.,1.,0.));
#1277=DIRECTION('ref_axis',(1.,0.,0.));
#1278=DIRECTION('center_axis',(0.,1.,0.));
#1279=DIRECTION('ref_axis',(1.,0.,0.));
#1280=DIRECTION('',(0.,1.,0.));
#1281=DIRECTION('center_axis',(0.,-1.,0.));
#1282=DIRECTION('ref_axis',(1.,0.,0.));
#1283=DIRECTION('center_axis',(0.,1.,0.));
#1284=DIRECTION('ref_axis',(1.,0.,0.));
#1285=DIRECTION('center_axis',(0.,1.,0.));
#1286=DIRECTION('ref_axis',(1.,0.,0.));
#1287=DIRECTION('',(0.,1.,0.));
#1288=DIRECTION('center_axis',(0.,-1.,0.));
#1289=DIRECTION('ref_axis',(1.,0.,0.));
#1290=DIRECTION('center_axis',(0.,1.,0.));
#1291=DIRECTION('ref_axis',(1.,0.,0.));
#1292=DIRECTION('center_axis',(0.,1.,0.));
#1293=DIRECTION('ref_axis',(1.,0.,0.));
#1294=DIRECTION('',(0.,1.,0.));
#1295=DIRECTION('center_axis',(0.,-1.,0.));
#1296=DIRECTION('ref_axis',(1.,0.,0.));
#1297=DIRECTION('center_axis',(0.,-1.,0.));
#1298=DIRECTION('ref_axis',(-0.775604602874428,0.,-0.631219058647631));
#1299=DIRECTION('center_axis',(0.,1.,0.));
#1300=DIRECTION('ref_axis',(-0.775604602874428,0.,-0.631219058647631));
#1301=DIRECTION('',(0.,1.,0.));
#1302=DIRECTION('center_axis',(0.,-1.,0.));
#1303=DIRECTION('ref_axis',(-0.775604602874428,0.,-0.631219058647631));
#1304=DIRECTION('',(0.,-1.,0.));
#1305=DIRECTION('center_axis',(0.,-1.,0.));
#1306=DIRECTION('ref_axis',(-1.,0.,0.));
#1307=DIRECTION('center_axis',(0.,-1.,0.));
#1308=DIRECTION('ref_axis',(0.5,0.,-0.866025403784439));
#1309=DIRECTION('',(0.,-1.,0.));
#1310=DIRECTION('center_axis',(0.,1.,0.));
#1311=DIRECTION('ref_axis',(-1.,0.,0.));
#1312=DIRECTION('center_axis',(0.,1.,0.));
#1313=DIRECTION('ref_axis',(0.,0.,1.));
#1314=DIRECTION('',(1.,0.,1.91927360353149E-15));
#1315=DIRECTION('center_axis',(0.,-1.,0.));
#1316=DIRECTION('ref_axis',(0.707106781186547,0.,0.707106781186548));
#1317=DIRECTION('',(-2.53765262771464E-16,0.,-1.));
#1318=DIRECTION('center_axis',(0.,-1.,0.));
#1319=DIRECTION('ref_axis',(0.707106781186548,0.,-0.707106781186547));
#1320=DIRECTION('',(-1.,0.,-1.72734624317834E-15));
#1321=DIRECTION('center_axis',(0.,1.,0.));
#1322=DIRECTION('ref_axis',(-0.775604602874429,0.,0.631219058647629));
#1323=DIRECTION('center_axis',(0.,-1.,0.));
#1324=DIRECTION('ref_axis',(0.5,0.,0.866025403784438));
#1325=DIRECTION('center_axis',(0.,1.,0.));
#1326=DIRECTION('ref_axis',(0.934454041578961,0.,-0.356083760057581));
#1327=DIRECTION('',(-0.500000000000001,0.,0.866025403784438));
#1328=DIRECTION('center_axis',(0.,-1.,0.));
#1329=DIRECTION('ref_axis',(-0.965925826289068,0.,0.258819045102521));
#1330=DIRECTION('',(0.866025403784439,0.,0.5));
#1331=DIRECTION('center_axis',(0.,-1.,0.));
#1332=DIRECTION('ref_axis',(0.258819045102522,0.,0.965925826289068));
#1333=DIRECTION('',(0.500000000000002,0.,-0.866025403784437));
#1334=DIRECTION('center_axis',(0.,1.,0.));
#1335=DIRECTION('ref_axis',(-0.158849438704531,0.,-0.987302818705212));
#1336=DIRECTION('center_axis',(0.,-1.,0.));
#1337=DIRECTION('ref_axis',(-1.,0.,0.));
#1338=DIRECTION('center_axis',(0.,1.,0.));
#1339=DIRECTION('ref_axis',(-0.158849438704531,0.,0.987302818705211));
#1340=DIRECTION('',(-0.499999999999999,0.,-0.866025403784439));
#1341=DIRECTION('center_axis',(0.,-1.,0.));
#1342=DIRECTION('ref_axis',(0.25881904510252,0.,-0.965925826289068));
#1343=DIRECTION('',(-0.866025403784439,0.,0.5));
#1344=DIRECTION('center_axis',(0.,-1.,0.));
#1345=DIRECTION('ref_axis',(-0.965925826289068,0.,-0.258819045102521));
#1346=DIRECTION('',(0.499999999999998,0.,0.86602540378444));
#1347=DIRECTION('center_axis',(0.,1.,0.));
#1348=DIRECTION('ref_axis',(0.934454041578961,0.,0.356083760057582));
#1349=DIRECTION('center_axis',(0.,1.,0.));
#1350=DIRECTION('ref_axis',(1.,0.,0.));
#1351=DIRECTION('center_axis',(0.,1.,0.));
#1352=DIRECTION('ref_axis',(-0.775604602874429,0.,0.631219058647629));
#1353=DIRECTION('center_axis',(0.,-1.,0.));
#1354=DIRECTION('ref_axis',(-0.775604602874429,0.,0.631219058647629));
#1355=DIRECTION('',(0.,-1.,0.));
#1356=DIRECTION('',(0.,1.,0.));
#1357=DIRECTION('center_axis',(0.,-1.,0.));
#1358=DIRECTION('ref_axis',(0.5,0.,-0.866025403784439));
#1359=DIRECTION('center_axis',(0.,1.,0.));
#1360=DIRECTION('ref_axis',(0.5,0.,-0.866025403784439));
#1361=DIRECTION('',(0.,1.,0.));
#1362=DIRECTION('center_axis',(0.,1.,0.));
#1363=DIRECTION('ref_axis',(0.,0.,1.));
#1364=DIRECTION('center_axis',(0.,-1.,0.));
#1365=DIRECTION('ref_axis',(0.934454041578961,0.,0.356083760057582));
#1366=DIRECTION('',(-0.499999999999998,0.,-0.86602540378444));
#1367=DIRECTION('center_axis',(0.,1.,0.));
#1368=DIRECTION('ref_axis',(-0.965925826289068,0.,-0.258819045102521));
#1369=DIRECTION('',(0.866025403784438,0.,-0.500000000000001));
#1370=DIRECTION('center_axis',(0.,1.,0.));
#1371=DIRECTION('ref_axis',(0.25881904510252,0.,-0.965925826289068));
#1372=DIRECTION('',(0.499999999999999,0.,0.866025403784439));
#1373=DIRECTION('center_axis',(0.,-1.,0.));
#1374=DIRECTION('ref_axis',(-0.158849438704531,0.,0.987302818705211));
#1375=DIRECTION('center_axis',(0.,1.,0.));
#1376=DIRECTION('ref_axis',(-1.,0.,0.));
#1377=DIRECTION('center_axis',(0.,-1.,0.));
#1378=DIRECTION('ref_axis',(-0.158849438704531,0.,-0.987302818705212));
#1379=DIRECTION('',(-0.500000000000002,0.,0.866025403784437));
#1380=DIRECTION('center_axis',(0.,1.,0.));
#1381=DIRECTION('ref_axis',(0.258819045102522,0.,0.965925826289068));
#1382=DIRECTION('',(-0.866025403784439,0.,-0.5));
#1383=DIRECTION('center_axis',(0.,1.,0.));
#1384=DIRECTION('ref_axis',(-0.965925826289068,0.,0.258819045102521));
#1385=DIRECTION('',(0.500000000000001,0.,-0.866025403784438));
#1386=DIRECTION('center_axis',(0.,-1.,0.));
#1387=DIRECTION('ref_axis',(0.934454041578961,0.,-0.356083760057581));
#1388=DIRECTION('',(1.,0.,1.72734624317834E-15));
#1389=DIRECTION('center_axis',(0.,1.,0.));
#1390=DIRECTION('ref_axis',(0.707106781186548,0.,-0.707106781186547));
#1391=DIRECTION('',(2.53765262771464E-16,0.,1.));
#1392=DIRECTION('center_axis',(0.,1.,0.));
#1393=DIRECTION('ref_axis',(0.707106781186547,0.,0.707106781186548));
#1394=DIRECTION('',(-1.,0.,-1.91927360353149E-15));
#1395=DIRECTION('center_axis',(0.,-1.,0.));
#1396=DIRECTION('ref_axis',(1.,0.,0.));
#1397=DIRECTION('center_axis',(0.,1.,0.));
#1398=DIRECTION('ref_axis',(0.934454041578961,0.,0.356083760057582));
#1399=DIRECTION('',(0.,1.,0.));
#1400=DIRECTION('center_axis',(-0.86602540378444,0.,0.499999999999998));
#1401=DIRECTION('ref_axis',(-0.499999999999998,0.,-0.86602540378444));
#1402=DIRECTION('',(0.,-1.,0.));
#1403=DIRECTION('center_axis',(0.,-1.,0.));
#1404=DIRECTION('ref_axis',(-0.158849438704531,0.,0.987302818705211));
#1405=DIRECTION('',(0.,1.,0.));
#1406=DIRECTION('',(0.,-1.,0.));
#1407=DIRECTION('center_axis',(-0.866025403784439,0.,0.499999999999999));
#1408=DIRECTION('ref_axis',(-0.499999999999999,0.,-0.866025403784439));
#1409=DIRECTION('',(0.,1.,0.));
#1410=DIRECTION('center_axis',(0.,1.,0.));
#1411=DIRECTION('ref_axis',(-0.158849438704531,0.,-0.987302818705212));
#1412=DIRECTION('',(0.,-1.,0.));
#1413=DIRECTION('',(0.,1.,0.));
#1414=DIRECTION('center_axis',(0.866025403784437,0.,0.500000000000002));
#1415=DIRECTION('ref_axis',(-0.500000000000002,0.,0.866025403784437));
#1416=DIRECTION('',(0.,-1.,0.));
#1417=DIRECTION('center_axis',(0.,-1.,0.));
#1418=DIRECTION('ref_axis',(0.934454041578961,0.,-0.356083760057581));
#1419=DIRECTION('',(0.,-1.,0.));
#1420=DIRECTION('center_axis',(0.,-1.,0.));
#1421=DIRECTION('ref_axis',(1.,0.,0.));
#1422=DIRECTION('',(0.,1.,0.));
#1423=DIRECTION('center_axis',(0.,-1.,0.));
#1424=DIRECTION('ref_axis',(-0.965925826289068,0.,0.258819045102521));
#1425=DIRECTION('',(0.,-1.,0.));
#1426=DIRECTION('',(0.,1.,0.));
#1427=DIRECTION('center_axis',(0.5,0.,-0.866025403784439));
#1428=DIRECTION('ref_axis',(0.866025403784439,0.,0.5));
#1429=DIRECTION('',(0.,1.,0.));
#1430=DIRECTION('center_axis',(0.,-1.,0.));
#1431=DIRECTION('ref_axis',(0.25881904510252,0.,-0.965925826289068));
#1432=DIRECTION('',(0.,-1.,0.));
#1433=DIRECTION('center_axis',(0.500000000000001,0.,0.866025403784438));
#1434=DIRECTION('ref_axis',(-0.866025403784438,0.,0.500000000000001));
#1435=DIRECTION('',(0.,1.,0.));
#1436=DIRECTION('center_axis',(0.,-1.,0.));
#1437=DIRECTION('ref_axis',(0.707106781186547,0.,0.707106781186548));
#1438=DIRECTION('',(0.,-1.,0.));
#1439=DIRECTION('',(0.,1.,0.));
#1440=DIRECTION('center_axis',(-1.,0.,2.53765262771464E-16));
#1441=DIRECTION('ref_axis',(-2.53765262771464E-16,0.,-1.));
#1442=DIRECTION('',(0.,1.,0.));
#1443=DIRECTION('center_axis',(0.,-1.,0.));
#1444=DIRECTION('ref_axis',(0.707106781186548,0.,-0.707106781186547));
#1445=DIRECTION('',(0.,-1.,0.));
#1446=DIRECTION('center_axis',(1.72734624317834E-15,0.,-1.));
#1447=DIRECTION('ref_axis',(1.,0.,1.72734624317834E-15));
#1448=DIRECTION('center_axis',(0.,-1.,0.));
#1449=DIRECTION('ref_axis',(0.258819045102522,0.,0.965925826289068));
#1450=DIRECTION('center_axis',(0.,-1.,0.));
#1451=DIRECTION('ref_axis',(-0.965925826289068,0.,-0.258819045102521));
#1452=DIRECTION('center_axis',(0.866025403784438,0.,0.500000000000001));
#1453=DIRECTION('ref_axis',(-0.500000000000001,0.,0.866025403784438));
#1454=DIRECTION('center_axis',(1.91927360353149E-15,0.,-1.));
#1455=DIRECTION('ref_axis',(1.,0.,1.91927360353149E-15));
#1456=DIRECTION('center_axis',(0.,-1.,0.));
#1457=DIRECTION('ref_axis',(1.,0.,1.22464679914735E-16));
#1458=CARTESIAN_POINT('',(0.,0.,0.));
#1459=CARTESIAN_POINT('Origin',(66.8004472705614,-492.647177124557,-10.0752738648303));
#1460=CARTESIAN_POINT('',(68.1754472705614,0.,-7.69370400442306));
#1461=CARTESIAN_POINT('Origin',(66.8004472705614,0.,-10.0752738648303));
#1462=CARTESIAN_POINT('',(68.1754472705614,-5.,-7.69370400442307));
#1463=CARTESIAN_POINT('',(68.1754472705614,-492.647177124557,-7.69370400442306));
#1464=CARTESIAN_POINT('Origin',(66.8004472705614,-5.,-10.0752738648303));
#1465=CARTESIAN_POINT('Origin',(84.2100705009722,-492.647177124557,-80.8561206166411));
#1466=CARTESIAN_POINT('',(85.5850705009722,0.,-78.474550756234));
#1467=CARTESIAN_POINT('Origin',(84.2100705009722,0.,-80.8561206166411));
#1468=CARTESIAN_POINT('',(85.5850705009722,-5.,-78.4745507562339));
#1469=CARTESIAN_POINT('',(85.5850705009722,-492.647177124557,-78.474550756234));
#1470=CARTESIAN_POINT('Origin',(84.2100705009722,-5.,-80.8561206166411));
#1471=CARTESIAN_POINT('Origin',(106.478050792461,-492.647177124557,-119.425393863442));
#1472=CARTESIAN_POINT('',(107.853050792461,0.,-117.043824003034));
#1473=CARTESIAN_POINT('Origin',(106.478050792461,0.,-119.425393863442));
#1474=CARTESIAN_POINT('',(107.853050792461,-5.,-117.043824003034));
#1475=CARTESIAN_POINT('',(107.853050792461,-492.647177124557,-117.043824003034));
#1476=CARTESIAN_POINT('Origin',(106.478050792461,-5.,-119.425393863442));
#1477=CARTESIAN_POINT('Origin',(157.620136796731,-492.647177124557,-27.4934987984396));
#1478=CARTESIAN_POINT('',(158.995136796731,0.,-25.1119289380324));
#1479=CARTESIAN_POINT('Origin',(157.620136796731,0.,-27.4934987984396));
#1480=CARTESIAN_POINT('',(158.995136796731,-5.,-25.1119289380324));
#1481=CARTESIAN_POINT('',(158.995136796731,-492.647177124557,-25.1119289380324));
#1482=CARTESIAN_POINT('Origin',(157.620136796731,-5.,-27.4934987984396));
#1483=CARTESIAN_POINT('Origin',(106.478050792461,-492.647177124557,119.425393863442));
#1484=CARTESIAN_POINT('',(107.853050792461,0.,121.806963723849));
#1485=CARTESIAN_POINT('Origin',(106.478050792461,0.,119.425393863442));
#1486=CARTESIAN_POINT('',(107.853050792461,-5.,121.806963723849));
#1487=CARTESIAN_POINT('',(107.853050792461,-492.647177124557,121.806963723849));
#1488=CARTESIAN_POINT('Origin',(106.478050792461,-5.,119.425393863442));
#1489=CARTESIAN_POINT('Origin',(124.409539484907,-492.647177124557,106.185892693939));
#1490=CARTESIAN_POINT('',(125.784539484907,0.,108.567462554346));
#1491=CARTESIAN_POINT('Origin',(124.409539484907,0.,106.185892693939));
#1492=CARTESIAN_POINT('',(125.784539484907,-5.,108.567462554346));
#1493=CARTESIAN_POINT('',(125.784539484907,-492.647177124557,108.567462554346));
#1494=CARTESIAN_POINT('Origin',(124.409539484907,-5.,106.185892693939));
#1495=CARTESIAN_POINT('Origin',(-42.1256667523091,-492.647177124557,-52.8132473880539));
#1496=CARTESIAN_POINT('',(-40.7506667523091,0.,-55.1948172484611));
#1497=CARTESIAN_POINT('Origin',(-42.1256667523091,0.,-52.8132473880539));
#1498=CARTESIAN_POINT('',(-40.7506667523091,-5.,-55.1948172484611));
#1499=CARTESIAN_POINT('',(-40.7506667523091,-492.647177124557,-55.1948172484611));
#1500=CARTESIAN_POINT('Origin',(-42.1256667523091,-5.,-52.8132473880539));
#1501=CARTESIAN_POINT('Origin',(-112.128489755956,-492.647177124557,-32.4999999999999));
#1502=CARTESIAN_POINT('',(-110.753489755956,0.,-34.8815698604071));
#1503=CARTESIAN_POINT('Origin',(-112.128489755956,0.,-32.4999999999999));
#1504=CARTESIAN_POINT('',(-110.753489755956,-5.,-34.8815698604071));
#1505=CARTESIAN_POINT('',(-110.753489755956,-492.647177124557,-34.8815698604071));
#1506=CARTESIAN_POINT('Origin',(-112.128489755956,-5.,-32.4999999999999));
#1507=CARTESIAN_POINT('Origin',(-156.664450338933,-492.647177124557,-32.5));
#1508=CARTESIAN_POINT('',(-155.289450338933,0.,-34.8815698604072));
#1509=CARTESIAN_POINT('Origin',(-156.664450338933,0.,-32.5));
#1510=CARTESIAN_POINT('',(-155.289450338933,-5.,-34.8815698604072));
#1511=CARTESIAN_POINT('',(-155.289450338933,-492.647177124557,-34.8815698604072));
#1512=CARTESIAN_POINT('Origin',(-156.664450338933,-5.,-32.5));
#1513=CARTESIAN_POINT('Origin',(-102.620136796731,-492.647177124557,-122.756293214728));
#1514=CARTESIAN_POINT('',(-101.245136796731,0.,-125.137863075135));
#1515=CARTESIAN_POINT('Origin',(-102.620136796731,0.,-122.756293214728));
#1516=CARTESIAN_POINT('',(-101.245136796731,-5.,-125.137863075135));
#1517=CARTESIAN_POINT('',(-101.245136796731,-492.647177124557,-125.137863075135));
#1518=CARTESIAN_POINT('Origin',(-102.620136796731,-5.,-122.756293214728));
#1519=CARTESIAN_POINT('Origin',(50.1863995464722,-492.647177124557,-151.925393863442));
#1520=CARTESIAN_POINT('',(51.5613995464722,0.,-154.306963723849));
#1521=CARTESIAN_POINT('Origin',(50.1863995464722,0.,-151.925393863442));
#1522=CARTESIAN_POINT('',(51.5613995464722,-5.,-154.306963723849));
#1523=CARTESIAN_POINT('',(51.5613995464722,-492.647177124557,-154.306963723849));
#1524=CARTESIAN_POINT('Origin',(50.1863995464722,-5.,-151.925393863442));
#1525=CARTESIAN_POINT('Origin',(29.7549108540255,-492.647177124557,-160.834768014022));
#1526=CARTESIAN_POINT('',(31.1299108540255,0.,-163.21633787443));
#1527=CARTESIAN_POINT('Origin',(29.7549108540255,0.,-160.834768014022));
#1528=CARTESIAN_POINT('',(31.1299108540255,-5.,-163.21633787443));
#1529=CARTESIAN_POINT('',(31.1299108540255,-492.647177124557,-163.21633787443));
#1530=CARTESIAN_POINT('Origin',(29.7549108540255,-5.,-160.834768014022));
#1531=CARTESIAN_POINT('Origin',(-24.6747805182523,-492.647177124557,62.8885212528842));
#1532=CARTESIAN_POINT('',(-27.4247805182523,0.,62.8885212528842));
#1533=CARTESIAN_POINT('Origin',(-24.6747805182523,0.,62.8885212528842));
#1534=CARTESIAN_POINT('',(-27.4247805182523,-5.,62.8885212528842));
#1535=CARTESIAN_POINT('',(-27.4247805182523,-492.647177124557,62.8885212528842));
#1536=CARTESIAN_POINT('Origin',(-24.6747805182523,-5.,62.8885212528842));
#1537=CARTESIAN_POINT('Origin',(-154.164450338933,-492.647177124557,54.6488753200837));
#1538=CARTESIAN_POINT('',(-156.914450338933,0.,54.6488753200837));
#1539=CARTESIAN_POINT('Origin',(-154.164450338933,0.,54.6488753200837));
#1540=CARTESIAN_POINT('',(-156.914450338933,-5.,54.6488753200837));
#1541=CARTESIAN_POINT('',(-156.914450338933,-492.647177124557,54.6488753200837));
#1542=CARTESIAN_POINT('Origin',(-154.164450338933,-5.,54.6488753200837));
#1543=CARTESIAN_POINT('Origin',(-156.664450338933,-492.647177124557,32.5));
#1544=CARTESIAN_POINT('',(-159.414450338933,0.,32.5));
#1545=CARTESIAN_POINT('Origin',(-156.664450338933,0.,32.5));
#1546=CARTESIAN_POINT('',(-159.414450338933,-5.,32.5));
#1547=CARTESIAN_POINT('',(-159.414450338933,-492.647177124557,32.5));
#1548=CARTESIAN_POINT('Origin',(-156.664450338933,-5.,32.5));
#1549=CARTESIAN_POINT('Origin',(-54.9999999999999,-492.647177124557,150.249792013167));
#1550=CARTESIAN_POINT('',(-57.75,0.,150.249792013167));
#1551=CARTESIAN_POINT('Origin',(-54.9999999999999,0.,150.249792013167));
#1552=CARTESIAN_POINT('',(-57.75,-5.,150.249792013167));
#1553=CARTESIAN_POINT('',(-57.75,-492.647177124557,150.249792013167));
#1554=CARTESIAN_POINT('Origin',(-54.9999999999999,-5.,150.249792013167));
#1555=CARTESIAN_POINT('Origin',(50.1863995464722,-492.647177124557,151.925393863442));
#1556=CARTESIAN_POINT('',(47.4363995464722,0.,151.925393863442));
#1557=CARTESIAN_POINT('Origin',(50.1863995464722,0.,151.925393863442));
#1558=CARTESIAN_POINT('',(47.4363995464722,-5.,151.925393863442));
#1559=CARTESIAN_POINT('',(47.4363995464722,-492.647177124557,151.925393863442));
#1560=CARTESIAN_POINT('Origin',(50.1863995464722,-5.,151.925393863442));
#1561=CARTESIAN_POINT('Origin',(27.9184192549838,-492.647177124557,113.356120616641));
#1562=CARTESIAN_POINT('',(25.1684192549838,0.,113.356120616641));
#1563=CARTESIAN_POINT('Origin',(27.9184192549838,0.,113.356120616641));
#1564=CARTESIAN_POINT('',(25.1684192549838,-5.,113.356120616641));
#1565=CARTESIAN_POINT('',(25.1684192549838,-492.647177124557,113.356120616641));
#1566=CARTESIAN_POINT('Origin',(27.9184192549838,-5.,113.356120616641));
#1567=CARTESIAN_POINT('Origin',(40.,487.647177124557,2.73300627798453E-31));
#1568=CARTESIAN_POINT('',(36.7,-5.,4.04133443718627E-16));
#1569=CARTESIAN_POINT('Origin',(40.,-5.,2.73300627798453E-31));
#1570=CARTESIAN_POINT('',(36.7,0.,-4.04133443718626E-16));
#1571=CARTESIAN_POINT('',(36.7,487.647177124557,4.04133443718627E-16));
#1572=CARTESIAN_POINT('Origin',(40.,0.,2.73300627798453E-31));
#1573=CARTESIAN_POINT('Origin',(-39.9999999999998,487.647177124557,100.));
#1574=CARTESIAN_POINT('',(-43.2999999999998,-5.,100.));
#1575=CARTESIAN_POINT('Origin',(-39.9999999999998,-5.,100.));
#1576=CARTESIAN_POINT('',(-43.2999999999998,0.,100.));
#1577=CARTESIAN_POINT('',(-43.2999999999998,487.647177124557,100.));
#1578=CARTESIAN_POINT('Origin',(-39.9999999999998,0.,100.));
#1579=CARTESIAN_POINT('Origin',(-39.9999999999999,487.647177124557,-100.));
#1580=CARTESIAN_POINT('',(-43.2999999999999,-5.,-100.));
#1581=CARTESIAN_POINT('Origin',(-39.9999999999999,-5.,-100.));
#1582=CARTESIAN_POINT('',(-43.2999999999999,0.,-100.));
#1583=CARTESIAN_POINT('',(-43.2999999999999,487.647177124557,-100.));
#1584=CARTESIAN_POINT('Origin',(-39.9999999999999,0.,-100.));
#1585=CARTESIAN_POINT('Origin',(-156.664450338933,0.,32.5));
#1586=CARTESIAN_POINT('',(-156.664450338933,-5.,17.5));
#1587=CARTESIAN_POINT('',(-171.351742558208,-5.,35.546875));
#1588=CARTESIAN_POINT('Origin',(-156.664450338933,-5.,32.5));
#1589=CARTESIAN_POINT('',(-171.351742558208,0.,35.546875));
#1590=CARTESIAN_POINT('',(-171.351742558208,0.,35.546875));
#1591=CARTESIAN_POINT('',(-156.664450338933,0.,17.5));
#1592=CARTESIAN_POINT('Origin',(-156.664450338933,0.,32.5));
#1593=CARTESIAN_POINT('',(-156.664450338933,0.,17.5));
#1594=CARTESIAN_POINT('Origin',(0.,0.,0.));
#1595=CARTESIAN_POINT('',(54.891374503954,-5.,166.168399538139));
#1596=CARTESIAN_POINT('Origin',(0.,-5.,0.));
#1597=CARTESIAN_POINT('',(54.891374503954,0.,166.168399538139));
#1598=CARTESIAN_POINT('',(54.891374503954,0.,166.168399538139));
#1599=CARTESIAN_POINT('Origin',(0.,0.,0.));
#1600=CARTESIAN_POINT('Origin',(87.0614007468293,-5.,-150.794769471623));
#1601=CARTESIAN_POINT('',(-80.,-5.,17.5000000000002));
#1602=CARTESIAN_POINT('',(-70.,-5.,17.5000000000002));
#1603=CARTESIAN_POINT('',(-70.,-5.,7.50000000000016));
#1604=CARTESIAN_POINT('Origin',(-80.,-5.,7.50000000000016));
#1605=CARTESIAN_POINT('',(-70.,-5.,-7.49999999999986));
#1606=CARTESIAN_POINT('',(-70.,-5.,-17.4999999999998));
#1607=CARTESIAN_POINT('',(-80.,-5.,-17.4999999999999));
#1608=CARTESIAN_POINT('Origin',(-80.,-5.,-7.49999999999986));
#1609=CARTESIAN_POINT('',(-156.664450338933,-5.,-17.5));
#1610=CARTESIAN_POINT('',(-43.5307003734147,-5.,-17.4999999999998));
#1611=CARTESIAN_POINT('',(-171.351742558208,-5.,-35.546875));
#1612=CARTESIAN_POINT('Origin',(-156.664450338933,-5.,-32.5));
#1613=CARTESIAN_POINT('',(54.891374503954,-5.,-166.168399538139));
#1614=CARTESIAN_POINT('Origin',(0.,-5.,0.));
#1615=CARTESIAN_POINT('',(63.1767806032387,-5.,-144.425393863442));
#1616=CARTESIAN_POINT('Origin',(50.1863995464722,-5.,-151.925393863442));
#1617=CARTESIAN_POINT('',(24.8445554337722,-5.,-78.0320323027552));
#1618=CARTESIAN_POINT('',(19.8445554337721,-5.,-69.3717782649108));
#1619=CARTESIAN_POINT('',(28.5048094716165,-5.,-64.3717782649108));
#1620=CARTESIAN_POINT('Origin',(33.5048094716166,-5.,-73.0320323027552));
#1621=CARTESIAN_POINT('',(41.4951905283832,-5.,-56.8717782649108));
#1622=CARTESIAN_POINT('',(50.1554445662275,-5.,-51.8717782649108));
#1623=CARTESIAN_POINT('',(55.1554445662276,-5.,-60.5320323027551));
#1624=CARTESIAN_POINT('Origin',(46.4951905283832,-5.,-65.5320323027552));
#1625=CARTESIAN_POINT('',(93.4876697356942,-5.,-126.925393863442));
#1626=CARTESIAN_POINT('',(102.216845313057,-5.,-142.044769471623));
#1627=CARTESIAN_POINT('',(116.460368054254,-5.,-130.621524538139));
#1628=CARTESIAN_POINT('Origin',(106.478050792461,-5.,-119.425393863442));
#1629=CARTESIAN_POINT('',(116.460368054254,-5.,130.621524538139));
#1630=CARTESIAN_POINT('Origin',(0.,-5.,0.));
#1631=CARTESIAN_POINT('',(93.4876697356942,-5.,126.925393863441));
#1632=CARTESIAN_POINT('Origin',(106.478050792461,-5.,119.425393863442));
#1633=CARTESIAN_POINT('',(55.1554445662279,-5.,60.532032302755));
#1634=CARTESIAN_POINT('',(50.1554445662279,-5.,51.8717782649106));
#1635=CARTESIAN_POINT('',(41.4951905283834,-5.,56.8717782649106));
#1636=CARTESIAN_POINT('Origin',(46.4951905283835,-5.,65.532032302755));
#1637=CARTESIAN_POINT('',(28.5048094716168,-5.,64.3717782649107));
#1638=CARTESIAN_POINT('',(92.7183282770082,-5.,27.2980858970049));
#1639=CARTESIAN_POINT('',(24.8445554337724,-5.,78.032032302755));
#1640=CARTESIAN_POINT('Origin',(33.5048094716168,-5.,73.032032302755));
#1641=CARTESIAN_POINT('',(63.1767806032388,-5.,144.425393863442));
#1642=CARTESIAN_POINT('',(6.60990562047971,-5.,46.4486923679056));
#1643=CARTESIAN_POINT('Origin',(50.1863995464722,-5.,151.925393863442));
#1644=CARTESIAN_POINT('',(-5.5,-5.,-6.73555739531044E-16));
#1645=CARTESIAN_POINT('Origin',(0.,-5.,0.));
#1646=CARTESIAN_POINT('Origin',(-156.664450338933,0.,-32.5));
#1647=CARTESIAN_POINT('',(-156.664450338933,0.,-17.5));
#1648=CARTESIAN_POINT('',(-171.351742558208,0.,-35.546875));
#1649=CARTESIAN_POINT('Origin',(-156.664450338933,0.,-32.5));
#1650=CARTESIAN_POINT('',(-171.351742558208,0.,-35.546875));
#1651=CARTESIAN_POINT('',(-156.664450338933,0.,-17.5));
#1652=CARTESIAN_POINT('Origin',(0.,0.,0.));
#1653=CARTESIAN_POINT('',(54.891374503954,0.,-166.168399538139));
#1654=CARTESIAN_POINT('Origin',(0.,0.,0.));
#1655=CARTESIAN_POINT('',(54.891374503954,0.,-166.168399538139));
#1656=CARTESIAN_POINT('Origin',(87.0614007468293,0.,-150.794769471623));
#1657=CARTESIAN_POINT('',(63.1767806032388,0.,144.425393863442));
#1658=CARTESIAN_POINT('Origin',(50.1863995464722,0.,151.925393863442));
#1659=CARTESIAN_POINT('',(24.8445554337724,0.,78.032032302755));
#1660=CARTESIAN_POINT('',(6.60990562047971,0.,46.4486923679056));
#1661=CARTESIAN_POINT('',(28.5048094716168,0.,64.3717782649107));
#1662=CARTESIAN_POINT('Origin',(33.5048094716168,0.,73.032032302755));
#1663=CARTESIAN_POINT('',(41.4951905283835,0.,56.8717782649106));
#1664=CARTESIAN_POINT('',(19.8445554337725,0.,69.3717782649106));
#1665=CARTESIAN_POINT('',(55.1554445662279,0.,60.532032302755));
#1666=CARTESIAN_POINT('Origin',(46.4951905283835,0.,65.532032302755));
#1667=CARTESIAN_POINT('',(93.4876697356942,0.,126.925393863441));
#1668=CARTESIAN_POINT('',(50.1554445662279,0.,51.8717782649106));
#1669=CARTESIAN_POINT('',(116.460368054254,0.,130.621524538139));
#1670=CARTESIAN_POINT('Origin',(106.478050792461,0.,119.425393863442));
#1671=CARTESIAN_POINT('',(116.460368054254,0.,-130.621524538139));
#1672=CARTESIAN_POINT('Origin',(0.,0.,0.));
#1673=CARTESIAN_POINT('',(93.4876697356942,0.,-126.925393863442));
#1674=CARTESIAN_POINT('Origin',(106.478050792461,0.,-119.425393863442));
#1675=CARTESIAN_POINT('',(55.1554445662276,0.,-60.5320323027551));
#1676=CARTESIAN_POINT('',(102.216845313057,0.,-142.044769471623));
#1677=CARTESIAN_POINT('',(41.4951905283832,0.,-56.8717782649108));
#1678=CARTESIAN_POINT('Origin',(46.4951905283832,0.,-65.5320323027552));
#1679=CARTESIAN_POINT('',(28.5048094716165,0.,-64.3717782649108));
#1680=CARTESIAN_POINT('',(50.1554445662275,0.,-51.8717782649108));
#1681=CARTESIAN_POINT('',(24.8445554337722,0.,-78.0320323027552));
#1682=CARTESIAN_POINT('Origin',(33.5048094716166,0.,-73.0320323027552));
#1683=CARTESIAN_POINT('',(63.1767806032387,0.,-144.425393863442));
#1684=CARTESIAN_POINT('',(19.8445554337721,0.,-69.3717782649108));
#1685=CARTESIAN_POINT('Origin',(50.1863995464722,0.,-151.925393863442));
#1686=CARTESIAN_POINT('',(-80.,0.,-17.4999999999999));
#1687=CARTESIAN_POINT('',(-43.5307003734147,0.,-17.4999999999998));
#1688=CARTESIAN_POINT('',(-70.,0.,-7.49999999999986));
#1689=CARTESIAN_POINT('Origin',(-80.,0.,-7.49999999999986));
#1690=CARTESIAN_POINT('',(-70.,0.,7.50000000000016));
#1691=CARTESIAN_POINT('',(-70.,0.,-17.4999999999998));
#1692=CARTESIAN_POINT('',(-80.,0.,17.5000000000002));
#1693=CARTESIAN_POINT('Origin',(-80.,0.,7.50000000000016));
#1694=CARTESIAN_POINT('',(-70.,0.,17.5000000000002));
#1695=CARTESIAN_POINT('',(-5.5,0.,-6.73555739531044E-16));
#1696=CARTESIAN_POINT('Origin',(0.,0.,0.));
#1697=CARTESIAN_POINT('Origin',(50.1863995464722,0.,151.925393863442));
#1698=CARTESIAN_POINT('',(63.1767806032388,0.,144.425393863442));
#1699=CARTESIAN_POINT('Origin',(71.9059561806015,0.,159.544769471623));
#1700=CARTESIAN_POINT('',(24.8445554337724,0.,78.032032302755));
#1701=CARTESIAN_POINT('Origin',(106.478050792461,0.,119.425393863442));
#1702=CARTESIAN_POINT('',(116.460368054254,0.,130.621524538139));
#1703=CARTESIAN_POINT('',(93.4876697356942,0.,126.925393863442));
#1704=CARTESIAN_POINT('Origin',(102.216845313057,0.,142.044769471623));
#1705=CARTESIAN_POINT('',(55.1554445662278,0.,60.532032302755));
#1706=CARTESIAN_POINT('Origin',(106.478050792461,0.,-119.425393863442));
#1707=CARTESIAN_POINT('',(116.460368054254,0.,-130.621524538139));
#1708=CARTESIAN_POINT('',(93.4876697356942,0.,-126.925393863442));
#1709=CARTESIAN_POINT('Origin',(102.216845313057,0.,-142.044769471623));
#1710=CARTESIAN_POINT('',(55.1554445662276,0.,-60.5320323027551));
#1711=CARTESIAN_POINT('Origin',(50.1863995464722,0.,-151.925393863442));
#1712=CARTESIAN_POINT('',(63.1767806032388,0.,-144.425393863442));
#1713=CARTESIAN_POINT('Origin',(0.,-2.,0.));
#1714=CARTESIAN_POINT('',(-5.5,-2.,-6.73555739531044E-16));
#1715=CARTESIAN_POINT('Origin',(33.5048094716166,0.,-73.0320323027552));
#1716=CARTESIAN_POINT('',(28.5048094716166,0.,-64.3717782649108));
#1717=CARTESIAN_POINT('',(24.8445554337722,0.,-78.0320323027552));
#1718=CARTESIAN_POINT('Origin',(19.8445554337721,0.,-69.3717782649108));
#1719=CARTESIAN_POINT('',(41.4951905283832,0.,-56.8717782649108));
#1720=CARTESIAN_POINT('Origin',(46.4951905283835,0.,65.532032302755));
#1721=CARTESIAN_POINT('',(41.4951905283835,0.,56.8717782649106));
#1722=CARTESIAN_POINT('Origin',(50.1554445662279,0.,51.8717782649106));
#1723=CARTESIAN_POINT('',(28.5048094716168,0.,64.3717782649107));
#1724=CARTESIAN_POINT('Origin',(-80.,0.,7.50000000000016));
#1725=CARTESIAN_POINT('',(-70.,0.,7.50000000000016));
#1726=CARTESIAN_POINT('',(-80.,0.,17.5000000000002));
#1727=CARTESIAN_POINT('Origin',(-70.,0.,17.5000000000002));
#1728=CARTESIAN_POINT('',(-70.,0.,-7.49999999999986));
#1729=CARTESIAN_POINT('Origin',(-80.,0.,-7.49999999999986));
#1730=CARTESIAN_POINT('',(-80.,0.,-17.4999999999999));
#1731=CARTESIAN_POINT('Origin',(-174.122801493658,0.,-17.5));
#1732=CARTESIAN_POINT('Origin',(46.4951905283832,0.,-65.5320323027552));
#1733=CARTESIAN_POINT('Origin',(33.5048094716168,0.,73.032032302755));
#1734=CARTESIAN_POINT('Origin',(71.9059561806016,0.,-159.544769471623));
#1735=CARTESIAN_POINT('Origin',(-174.122801493659,0.,17.5));
#1736=CARTESIAN_POINT('Origin',(0.,0.,0.));
#1737=UNCERTAINTY_MEASURE_WITH_UNIT(LENGTH_MEASURE(0.01),#1741,
'DISTANCE_ACCURACY_VALUE',
'Maximum model space distance between geometric entities at asserted c
onnectivities');
#1738=UNCERTAINTY_MEASURE_WITH_UNIT(LENGTH_MEASURE(0.01),#1741,
'DISTANCE_ACCURACY_VALUE',
'Maximum model space distance between geometric entities at asserted c
onnectivities');
#1739=(
GEOMETRIC_REPRESENTATION_CONTEXT(3)
GLOBAL_UNCERTAINTY_ASSIGNED_CONTEXT((#1737))
GLOBAL_UNIT_ASSIGNED_CONTEXT((#1741,#1743,#1744))
REPRESENTATION_CONTEXT('','3D')
);
#1740=(
GEOMETRIC_REPRESENTATION_CONTEXT(3)
GLOBAL_UNCERTAINTY_ASSIGNED_CONTEXT((#1738))
GLOBAL_UNIT_ASSIGNED_CONTEXT((#1741,#1743,#1744))
REPRESENTATION_CONTEXT('','3D')
);
#1741=(
LENGTH_UNIT()
NAMED_UNIT(*)
SI_UNIT(.MILLI.,.METRE.)
);
#1742=(
LENGTH_UNIT()
NAMED_UNIT(*)
SI_UNIT(.CENTI.,.METRE.)
);
#1743=(
NAMED_UNIT(*)
PLANE_ANGLE_UNIT()
SI_UNIT($,.RADIAN.)
);
#1744=(
NAMED_UNIT(*)
SI_UNIT($,.STERADIAN.)
SOLID_ANGLE_UNIT()
);
#1745=SHAPE_DEFINITION_REPRESENTATION(#1746,#1747);
#1746=PRODUCT_DEFINITION_SHAPE('',$,#1749);
#1747=SHAPE_REPRESENTATION('',(#1025),#1739);
#1748=PRODUCT_DEFINITION_CONTEXT('part definition',#1753,'design');
#1749=PRODUCT_DEFINITION('RT_FRM_V2_MC_004_TopDynamicsPlate',
'RT_FRM_V2_MC_004_TopDynamicsPlate',#1750,#1748);
#1750=PRODUCT_DEFINITION_FORMATION('',$,#1755);
#1751=PRODUCT_RELATED_PRODUCT_CATEGORY(
'RT_FRM_V2_MC_004_TopDynamicsPlate','RT_FRM_V2_MC_004_TopDynamicsPlate',
(#1755));
#1752=APPLICATION_PROTOCOL_DEFINITION('international standard',
'automotive_design',2009,#1753);
#1753=APPLICATION_CONTEXT(
'Core Data for Automotive Mechanical Design Process');
#1754=PRODUCT_CONTEXT('part definition',#1753,'mechanical');
#1755=PRODUCT('RT_FRM_V2_MC_004_TopDynamicsPlate',
'RT_FRM_V2_MC_004_TopDynamicsPlate',$,(#1754));
#1756=PRESENTATION_STYLE_ASSIGNMENT((#1757));
#1757=SURFACE_STYLE_USAGE(.BOTH.,#1760);
#1758=SURFACE_STYLE_RENDERING_WITH_PROPERTIES($,#1764,(#1759));
#1759=SURFACE_STYLE_TRANSPARENT(0.);
#1760=SURFACE_SIDE_STYLE('',(#1761,#1758));
#1761=SURFACE_STYLE_FILL_AREA(#1762);
#1762=FILL_AREA_STYLE('',(#1763));
#1763=FILL_AREA_STYLE_COLOUR('',#1764);
#1764=COLOUR_RGB('',0.749019607843137,0.749019607843137,0.749019607843137);
ENDSEC;
END-ISO-10303-21;
