700 0 3 0           
30 Autodesk Translation Framework 20 ASM 231.6.1.65535 NT 24 Wed May 13 11:11:38 2026 
1 9.999999999999999547e-07 1.000000000000000036e-10 
body $3 -1 $-1 $4 $-1 $-1 #
body $5 -1 $-1 $6 $-1 $-1 #
body $7 -1 $-1 $8 $-1 $-1 #
rgb_color-st-attrib $-1 -1 $9 $-1 $0 0.7490196078431372584 0.7490196078431372584 0.7490196078431372584 #
lump $-1 -1 $-1 $-1 $10 $0 #
rgb_color-st-attrib $-1 -1 $11 $-1 $1 0.2509803921568627416 0.2509803921568627416 0.2509803921568627416 #
lump $-1 -1 $-1 $-1 $12 $1 #
rgb_color-st-attrib $-1 -1 $13 $-1 $2 0.7490196078431372584 0.7490196078431372584 0.7490196078431372584 #
lump $-1 -1 $-1 $-1 $14 $2 #
DXID-attrib $-1 -1 $-1 $3 $0 @10 ASM ENTITY @103 M8 THREAD L50.IPT|:|57815C0EDA1BB5E8294DA83C4CEBE13136601172|:|DA4B9237BACCCDF19C0760CAB7AEC4A8359010B0 #
shell $-1 -1 $-1 $-1 $-1 $15 $-1 $4 #
DXID-attrib $-1 -1 $-1 $5 $1 @10 ASM ENTITY @96 BASE50.IPT|:|C879E99C005EB8752C5DE244F334ED2C116A0673|:|DA4B9237BACCCDF19C0760CAB7AEC4A8359010B0 #
shell $-1 -1 $-1 $-1 $-1 $16 $-1 $6 #
DXID-attrib $-1 -1 $-1 $7 $2 @10 ASM ENTITY @95 NUTM8.IPT|:|F8FCB604E0B9D64E0A4E7864B45D3C7B967856AE|:|DA4B9237BACCCDF19C0760CAB7AEC4A8359010B0 #
shell $-1 -1 $-1 $-1 $-1 $17 $-1 $8 #
face $18 -1 $-1 $19 $20 $10 $-1 $21 reversed single #
face $22 -1 $-1 $23 $24 $12 $-1 $25 forward single #
face $26 -1 $-1 $27 $28 $14 $-1 $29 reversed single #
DXID-attrib $-1 -1 $-1 $-1 $15 @10 ASM ENTITY @36 8beb58f2-1166-4df2-9070-b38690177669 #
face $30 -1 $-1 $31 $32 $10 $-1 $33 reversed single #
loop $-1 -1 $-1 $34 $35 $15 #
cone-surface $-1 -1 $-1 -2.412707815293095463e-15 29.23516480713452381 3.79830541878326175e-15 -5.551115123125782702e-17 1 2.775557561562890858e-16 3.600000000000000533 1.998401444325281329e-16 2.747801985947264508e-16 1 I I 0 -1 3.600000000000000533 forward I I I I #
rgb_color-st-attrib $-1 -1 $36 $-1 $16 0.2509803921568627416 0.2509803921568627416 0.2509803921568627416 #
face $37 -1 $-1 $38 $39 $12 $-1 $40 forward single #
loop $-1 -1 $-1 $-1 $41 $16 #
plane-surface $-1 -1 $-1 -19.69999999999999574 -2.187139358511557911e-15 -1.147370819325273853e-15 1.110223024625156294e-16 -1 6.91175655798306716e-17 -5.824217356981087579e-16 6.91175655798306642e-16 10 forward_v I I I I #
DXID-attrib $-1 -1 $-1 $-1 $17 @10 ASM ENTITY @36 79601482-9dca-49d6-9d8b-266bbe00fbe9 #
face $42 -1 $-1 $43 $44 $14 $-1 $45 forward single #
loop $-1 -1 $-1 $46 $47 $17 #
cone-surface $-1 -1 $-1 -6.274573540087312574e-15 43.20284006975526836 6.627932612897414245e-15 -1.387778780781446662e-16 1 3.315834070875793613e-16 3.323500000000000121 4.612282777927138568e-16 0 1 I I -0 1 3.323500000000000121 reversed I I I I #
DXID-attrib $-1 -1 $-1 $-1 $19 @10 ASM ENTITY @36 d78cab68-0aea-4535-a937-6e15fcf5f424 #
face $48 -1 $-1 $49 $50 $10 $-1 $51 forward single #
loop $-1 -1 $-1 $52 $53 $19 #
plane-surface $-1 -1 $-1 -2.490423427016856342e-15 30.63516480713451884 4.18688347740206575e-15 -5.551115123125782702e-17 1 2.775557561562890858e-16 7.63278329429795516e-16 2.775557561562890957e-15 -10 forward_v I I I I #
loop $-1 -1 $-1 $-1 $54 $15 #
coedge $-1 -1 $-1 $35 $35 $55 $56 reversed $20 $-1 #
DXID-attrib $-1 -1 $-1 $22 $16 @10 ASM ENTITY @36 e53fbb93-4575-4ebb-99fa-f79eefc0538c #
rgb_color-st-attrib $-1 -1 $57 $-1 $23 0.2509803921568627416 0.2509803921568627416 0.2509803921568627416 #
face $58 -1 $-1 $59 $60 $12 $-1 $61 forward single #
loop $-1 -1 $-1 $62 $63 $23 #
cone-surface $-1 -1 $-1 -4.440892098500625176e-16 4 -2.764702623193227357e-16 -1.110223024625156294e-16 1 -6.91175655798306716e-17 -19.69999999999999574 -2.187139358511557517e-15 -1.147370819325273853e-15 1 I I 0 1 19.69999999999999574 forward I I I I #
coedge $-1 -1 $-1 $41 $41 $64 $65 reversed $24 $-1 #
DXID-attrib $-1 -1 $-1 $-1 $27 @10 ASM ENTITY @36 3ad95788-dd96-43ed-8ebe-947fae68bae7 #
face $66 -1 $-1 $67 $68 $14 $-1 $69 forward single #
loop $-1 -1 $-1 $70 $71 $27 #
plane-surface $-1 -1 $-1 -9.706873087080410142e-15 59.93516480713451955 9.955647808563098112e-15 1.387778780781446662e-16 -1 -3.315834070875793613e-16 -4.601644164153589735e-31 3.315834070875793515e-15 -10 forward_v I I I I #
loop $-1 -1 $-1 $-1 $72 $17 #
coedge $-1 -1 $-1 $47 $47 $71 $73 reversed $28 $-1 #
DXID-attrib $-1 -1 $-1 $-1 $31 @10 ASM ENTITY @36 d60dfbd1-8cf9-4c89-a454-7e7f174950b5 #
face $74 -1 $-1 $75 $76 $10 $-1 $77 forward single #
loop $-1 -1 $-1 $78 $79 $31 #
plane-surface $-1 -1 $-1 -2.967819327605674127e-15 29.23516480713452381 3.79830541878326175e-15 -5.551115123125782702e-17 1 2.775557561562890858e-16 7.63278329429795516e-16 2.775557561562890957e-15 -10 forward_v I I I I #
loop $-1 -1 $-1 $-1 $55 $19 #
coedge $-1 -1 $-1 $53 $53 $80 $81 reversed $32 $-1 #
coedge $-1 -1 $-1 $54 $54 $79 $82 reversed $34 $-1 #
coedge $-1 -1 $-1 $55 $55 $35 $56 forward $52 $-1 #
edge $-1 -1 $-1 $83 -3.141592653589793116 $83 3.141592653589793116 $35 $84 forward @7 unknown #
DXID-attrib $-1 -1 $-1 $37 $23 @10 ASM ENTITY @36 44880664-c461-49cb-9d18-0b5a4fe6ffe7 #
rgb_color-st-attrib $-1 -1 $85 $-1 $38 0.2509803921568627416 0.2509803921568627416 0.2509803921568627416 #
face $86 -1 $-1 $-1 $87 $12 $-1 $88 forward single #
loop $-1 -1 $-1 $89 $90 $38 #
cone-surface $-1 -1 $-1 -1.526556658859590243e-15 13.75000000000000178 -9.503665267226719779e-16 -1.110223024625156294e-16 1 -6.91175655798306716e-17 -12.54258240356725018 -1.392506377269869634e-15 -7.305072613622193213e-16 1 I I -0.7795885058487272978 0.6262920736753331274 12.54258240356725018 forward I I I I #
loop $-1 -1 $-1 $-1 $64 $23 #
coedge $-1 -1 $-1 $63 $63 $91 $92 reversed $39 $-1 #
coedge $-1 -1 $-1 $64 $64 $41 $65 forward $62 $-1 #
edge $93 -1 $-1 $94 0 $94 6.283185307179586232 $64 $95 forward @7 unknown #
DXID-attrib $-1 -1 $-1 $-1 $43 @10 ASM ENTITY @36 2f18e5a0-b3e4-4da8-b9ab-63808b13edf5 #
face $96 -1 $-1 $97 $98 $14 $-1 $99 forward single #
loop $-1 -1 $-1 $-1 $100 $43 #
plane-surface $-1 -1 $-1 8.082903768654752241 62.58516480713451813 1.52752359358458096e-14 0.8660254037844388186 2.859768714427624377e-16 -0.4999999999999996114 -4.999999999999996447 2.177707149721686087e-15 -8.660254037844389075 forward_v I I I I #
loop $-1 -1 $-1 $-1 $101 $27 #
coedge $-1 -1 $-1 $71 $71 $47 $73 forward $44 $-1 #
coedge $-1 -1 $-1 $72 $72 $102 $103 reversed $46 $-1 #
edge $-1 -1 $-1 $104 -3.141592653589793116 $104 3.141592653589793116 $71 $105 forward @7 unknown #
DXID-attrib $-1 -1 $-1 $-1 $49 @10 ASM ENTITY @36 5cdbd5a3-660b-4147-9e25-61b814ee3523 #
face $106 -1 $-1 $107 $108 $10 $-1 $109 forward single #
loop $-1 -1 $-1 $110 $111 $49 #
plane-surface $-1 -1 $-1 -2.601445729479371996e-15 22.63516480713452239 1.966437428151753458e-15 5.551115123125782702e-17 -1 -2.775557561562890858e-16 -7.63278329429795516e-16 -2.775557561562890957e-15 10 forward_v I I I I #
loop $-1 -1 $-1 $-1 $112 $31 #
coedge $-1 -1 $-1 $79 $79 $54 $82 forward $50 $-1 #
coedge $-1 -1 $-1 $80 $80 $53 $81 forward $113 $-1 #
edge $114 -1 $-1 $115 0 $115 6.283185307179586232 $80 $116 forward @7 unknown #
edge $117 -1 $-1 $118 -3.141592653589793116 $118 3.141592653589793116 $54 $119 forward @7 unknown #
vertex $-1 -1 $-1 $56 $120 #
ellipse-curve $-1 -1 $-1 -2.490423427016856342e-15 30.63516480713451884 4.18688347740206575e-15 -5.551115123125782702e-17 1 2.775557561562890858e-16 3.600000000000000533 1.998401444325281329e-16 2.747801985947264508e-16 1 I I #
DXID-attrib $-1 -1 $-1 $58 $38 @10 ASM ENTITY @36 557afdb9-6cc2-4141-b54f-c612172a7c6f #
rgb_color-st-attrib $-1 -1 $121 $-1 $59 0.2509803921568627416 0.2509803921568627416 0.2509803921568627416 #
loop $-1 -1 $-1 $-1 $122 $59 #
sphere-surface $-1 -1 $-1 1.086487025273330811e-15 14.95000000000000284 -1.03330760541846868e-15 -7.050000000000002487 -1 -1.110223024625156294e-16 -5.824217356981085854e-17 5.824217356981087086e-17 -6.911756557983065927e-17 -1 forward_v I I I I #
loop $-1 -1 $-1 $-1 $91 $38 #
coedge $-1 -1 $-1 $90 $90 $122 $123 reversed $60 $-1 #
coedge $-1 -1 $-1 $91 $91 $63 $92 forward $89 $-1 #
edge $124 -1 $-1 $125 0 $125 6.283185307179586232 $91 $126 forward @7 unknown #
DXID-attrib $-1 -1 $-1 $-1 $65 @10 ASM ENTITY @36 1e9df2f6-2bd6-45b9-88bc-2fa532fb34f1 #
vertex $-1 -1 $-1 $65 $127 #
ellipse-curve $-1 -1 $-1 8.210733189403220163e-47 -4.930380657631322908e-31 3.407759084373617564e-47 -1.110223024625156294e-16 1 -6.91175655798306716e-17 -19.69999999999999574 -2.187139358511557517e-15 -1.147370819325273853e-15 1 I I #
DXID-attrib $-1 -1 $-1 $-1 $67 @10 ASM ENTITY @36 0adc5267-0b3a-4554-923b-0d8449c9935a #
face $128 -1 $-1 $129 $130 $14 $-1 $131 forward single #
loop $-1 -1 $-1 $-1 $132 $67 #
plane-surface $-1 -1 $-1 4.041451884327369903 62.58516480713451813 7.000000000000013323 0.8660254037844384856 -4.560653564481697296e-17 0.5000000000000003331 5.000000000000003553 3.565485930503130973e-15 -8.660254037844385522 forward_v I I I I #
coedge $-1 -1 $-1 $133 $134 $135 $136 reversed $68 $-1 #
coedge $-1 -1 $-1 $137 $138 $139 $140 forward $70 $-1 #
coedge $-1 -1 $-1 $102 $102 $72 $103 forward $141 $-1 #
edge $-1 -1 $-1 $142 0 $142 6.283185307179586232 $102 $143 forward @7 unknown #
vertex $-1 -1 $-1 $73 $144 #
ellipse-curve $-1 -1 $-1 -8.596650062455253602e-15 59.93516480713451955 1.217609385781341119e-14 -1.387778780781446662e-16 1 3.315834070875793613e-16 3.323500000000000121 4.612282777927138568e-16 0 1 I I #
DXID-attrib $-1 -1 $-1 $-1 $75 @10 ASM ENTITY @36 f9a58cbd-1c16-43f6-a907-c92de0f3f581 #
face $145 -1 $-1 $146 $147 $10 $-1 $148 forward single #
loop $-1 -1 $-1 $-1 $149 $75 #
plane-surface $-1 -1 $-1 4.041451884327380562 29.23516480713452381 -6.999999999999996447 0.8660254037844388186 1.868519452377335767e-16 -0.499999999999999778 4.999999999999998224 -2.126147601823166104e-15 8.660254037844389075 forward_v I I I I #
loop $-1 -1 $-1 $-1 $150 $49 #
coedge $-1 -1 $-1 $151 $152 $153 $154 forward $76 $-1 #
coedge $-1 -1 $-1 $155 $156 $157 $158 forward $78 $-1 #
loop $-1 -1 $-1 $159 $80 $160 #
DXID-attrib $-1 -1 $-1 $-1 $81 @10 ASM ENTITY @36 a2573ae3-211e-4585-88c9-985626b71646 #
vertex $-1 -1 $-1 $81 $161 #
ellipse-curve $-1 -1 $-1 -2.490423427016856342e-15 30.63516480713451884 4.18688347740206575e-15 -5.551115123125782702e-17 1 2.775557561562890858e-16 -3.999999999999991118 -2.220446049250307657e-16 -3.053113317719175556e-16 1 I I #
DXID-attrib $-1 -1 $-1 $-1 $82 @10 ASM ENTITY @36 b3b9c68f-21f8-48a0-9fdf-2636aee2a5d9 #
vertex $-1 -1 $-1 $82 $162 #
ellipse-curve $-1 -1 $-1 -2.412707815293095463e-15 29.23516480713452381 3.79830541878326175e-15 5.551115123125782702e-17 -1 -2.775557561562890858e-16 3.600000000000000533 1.998401444325281329e-16 2.747801985947264508e-16 1 I I #
point $-1 -1 $-1 -3.600000000000002753 30.63516480713451884 4.352976126500385725e-15 #
DXID-attrib $-1 -1 $-1 $86 $59 @10 ASM ENTITY @36 0656bba4-8826-4f46-8b04-ad9b8cd6fbf4 #
coedge $-1 -1 $-1 $122 $122 $90 $123 forward $87 $-1 #
edge $163 -1 $-1 $164 0 $164 6.283185307179586232 $122 $165 forward @7 unknown #
DXID-attrib $-1 -1 $-1 $-1 $92 @10 ASM ENTITY @36 60e0bd99-ee2d-4f9c-b7f1-77f502ea0943 #
vertex $-1 -1 $-1 $92 $166 #
ellipse-curve $-1 -1 $-1 -8.881784197001250351e-16 8 -5.529405246386454714e-16 -1.110223024625156294e-16 1 -6.91175655798306716e-17 -19.69999999999999574 -2.187139358511557517e-15 -1.147370819325273853e-15 1 I I #
point $-1 -1 $-1 -19.69999999999999574 -2.187139358511557911e-15 -1.147370819325273853e-15 #
DXID-attrib $-1 -1 $-1 $-1 $97 @10 ASM ENTITY @36 814d371e-8171-486d-8f57-5c064a8e2c10 #
face $167 -1 $-1 $168 $169 $14 $-1 $170 forward single #
loop $-1 -1 $-1 $-1 $171 $97 #
plane-surface $-1 -1 $-1 -4.041451884327388555 62.58516480713451813 7.000000000000013323 4.601644164153589735e-32 -3.315834070875793613e-16 1 10 1.387778780781446662e-15 0 forward_v I I I I #
coedge $-1 -1 $-1 $172 $173 $174 $175 forward $98 $-1 #
coedge $-1 -1 $-1 $174 $100 $176 $177 reversed $68 $-1 #
coedge $-1 -1 $-1 $100 $174 $137 $178 reversed $68 $-1 #
coedge $-1 -1 $-1 $139 $179 $100 $136 forward $180 $-1 #
edge $181 -1 $-1 $182 -0.2650000000000000133 $183 0.2650000000000000133 $135 $184 forward @7 unknown #
coedge $-1 -1 $-1 $185 $101 $134 $178 forward $70 $-1 #
coedge $-1 -1 $-1 $101 $186 $187 $188 forward $70 $-1 #
coedge $-1 -1 $-1 $189 $135 $101 $140 reversed $180 $-1 #
edge $190 -1 $-1 $191 -0.8082903768654761123 $183 0 $139 $192 forward @7 unknown #
loop $-1 -1 $-1 $193 $102 $194 #
vertex $-1 -1 $-1 $103 $195 #
ellipse-curve $-1 -1 $-1 -9.33217281626941981e-15 65.23516480713452381 1.393348591537758184e-14 1.387778780781446662e-16 -1 -3.315834070875793613e-16 3.323500000000000121 4.612282777927138568e-16 0 1 I I #
point $-1 -1 $-1 -3.323500000000008558 59.93516480713451955 1.258310522151003394e-14 #
DXID-attrib $-1 -1 $-1 $-1 $107 @10 ASM ENTITY @36 a9ca45a5-36c7-4d86-ac4c-07a8508753a6 #
face $196 -1 $-1 $197 $198 $10 $-1 $199 forward single #
loop $-1 -1 $-1 $-1 $200 $107 #
plane-surface $-1 -1 $-1 -4.041451884327379673 29.23516480713452381 -6.999999999999999112 3.510367881406315423e-16 2.775557561562890858e-16 -1 10 5.551115123125773827e-16 3.51036788140631562e-15 forward_v I I I I #
coedge $-1 -1 $-1 $201 $202 $155 $203 reversed $108 $-1 #
coedge $-1 -1 $-1 $150 $150 $204 $205 reversed $110 $-1 #
coedge $-1 -1 $-1 $206 $111 $207 $208 forward $76 $-1 #
coedge $-1 -1 $-1 $111 $209 $210 $211 forward $76 $-1 #
coedge $-1 -1 $-1 $212 $213 $111 $154 reversed $214 $-1 #
edge $215 -1 $-1 $216 -0.8082903768654760013 $217 -0 $153 $218 forward @7 unknown #
coedge $-1 -1 $-1 $219 $112 $149 $203 forward $78 $-1 #
coedge $-1 -1 $-1 $112 $220 $221 $222 forward $78 $-1 #
coedge $-1 -1 $-1 $213 $212 $112 $158 reversed $214 $-1 #
edge $223 -1 $-1 $224 0 $225 0.8082903768654760013 $112 $226 forward @7 unknown #
loop $-1 -1 $-1 $-1 $227 $160 #
face $228 -1 $-1 $229 $113 $10 $-1 $230 forward single #
point $-1 -1 $-1 -3.999999999999993783 30.63516480713451884 3.881572145630148491e-15 #
point $-1 -1 $-1 -3.600000000000002753 29.23516480713452381 3.964398067881582513e-15 #
DXID-attrib $-1 -1 $-1 $-1 $123 @10 ASM ENTITY @36 f01f8b14-1aaa-4909-a3eb-b18639bf03c3 #
vertex $-1 -1 $-1 $123 $231 #
ellipse-curve $-1 -1 $-1 -2.164934898019054859e-15 19.5 -1.34779252880669809e-15 -1.110223024625156294e-16 1 -6.91175655798306716e-17 -5.385164807134502851 -5.978733960281813559e-16 -3.136437033991647405e-16 1 I I #
point $-1 -1 $-1 -19.69999999999999574 7.999999999999998224 -1.700311343963919324e-15 #
DXID-attrib $-1 -1 $-1 $-1 $129 @10 ASM ENTITY @36 6f7130d8-4f7c-4fa1-9e21-0ed348fb9138 #
face $232 -1 $-1 $233 $234 $14 $-1 $235 forward single #
loop $-1 -1 $-1 $-1 $236 $129 #
plane-surface $-1 -1 $-1 -8.082903768654771781 62.58516480713451813 7.503674763469713815e-15 -0.8660254037844387076 -2.85976871442762487e-16 0.499999999999999889 4.999999999999999112 -2.177707149721684903e-15 8.660254037844387298 forward_v I I I I #
coedge $-1 -1 $-1 $237 $238 $239 $240 forward $130 $-1 #
coedge $-1 -1 $-1 $239 $132 $241 $242 reversed $98 $-1 #
coedge $-1 -1 $-1 $132 $239 $185 $243 reversed $98 $-1 #
coedge $-1 -1 $-1 $134 $133 $132 $175 reversed $68 $-1 #
edge $244 -1 $-1 $245 -0.2650000000000000133 $246 0.2650000000000000133 $132 $247 forward @7 unknown #
coedge $-1 -1 $-1 $248 $241 $133 $177 forward $193 $-1 #
edge $249 -1 $-1 $246 -0 $182 0.8082903768654760013 $133 $250 forward @7 unknown #
edge $251 -1 $-1 $183 -0.8082903768654760013 $245 0 $134 $252 forward @7 unknown #
coedge $-1 -1 $-1 $135 $189 $248 $253 reversed $180 $-1 #
loop $-1 -1 $-1 $-1 $189 $233 #
DXID-attrib $-1 -1 $-1 $-1 $136 @10 ASM ENTITY @36 42b8f8b4-75aa-4269-a81e-df72fce2ba76 #
vertex $-1 -1 $-1 $136 $254 #
vertex $-1 -1 $-1 $140 $255 #
straight-curve $-1 -1 $-1 4.041451884327375232 62.58516480713451813 -6.999999999999986677 1.387778780781446662e-15 -10 -3.315834070875793515e-15 I I #
coedge $-1 -1 $-1 $256 $137 $173 $243 forward $70 $-1 #
coedge $-1 -1 $-1 $138 $256 $257 $258 forward $70 $-1 #
coedge $-1 -1 $-1 $259 $260 $138 $188 reversed $234 $-1 #
edge $261 -1 $-1 $262 -0.8082903768654762233 $191 -0 $187 $263 forward @7 unknown #
coedge $-1 -1 $-1 $179 $139 $260 $264 forward $180 $-1 #
DXID-attrib $-1 -1 $-1 $-1 $140 @10 ASM ENTITY @36 877f36e7-19fa-4cf2-b9aa-fe7c6bb4ec88 #
vertex $-1 -1 $-1 $140 $265 #
straight-curve $-1 -1 $-1 4.041451884327375232 59.93516480713451955 -6.999999999999987566 10 1.387778780781444887e-15 5.494179103953039419e-15 I I #
loop $-1 -1 $-1 $-1 $248 $194 #
face $266 -1 $-1 $-1 $141 $14 $-1 $267 forward single #
point $-1 -1 $-1 3.323499999999990795 65.23516480713452381 1.393348591537758184e-14 #
DXID-attrib $-1 -1 $-1 $-1 $146 @10 ASM ENTITY @36 631adfdf-7ae7-4c70-b6ed-6f59090932e3 #
face $268 -1 $-1 $269 $270 $10 $-1 $271 forward single #
loop $-1 -1 $-1 $-1 $272 $146 #
plane-surface $-1 -1 $-1 -8.082903768654764676 29.23516480713452381 -1.493141836402681569e-16 -0.8660254037844383745 9.070381091855560773e-17 -0.5000000000000005551 5.000000000000005329 2.681259114135742796e-15 -8.660254037844383745 forward_v I I I I #
coedge $-1 -1 $-1 $273 $274 $219 $275 reversed $147 $-1 #
coedge $-1 -1 $-1 $210 $149 $212 $276 forward $108 $-1 #
coedge $-1 -1 $-1 $149 $210 $273 $277 reversed $108 $-1 #
edge $278 -1 $-1 $225 -1.502314598737159771e-17 $279 0.8082903768654761123 $155 $280 forward @7 unknown #
coedge $-1 -1 $-1 $204 $204 $150 $205 forward $281 $-1 #
edge $-1 -1 $-1 $282 -3.141592653589793116 $282 3.141592653589793116 $204 $283 forward @7 unknown #
coedge $-1 -1 $-1 $284 $151 $285 $286 forward $76 $-1 #
coedge $-1 -1 $-1 $287 $288 $151 $208 reversed $289 $-1 #
edge $290 -1 $-1 $217 -0.8082903768654758903 $291 5.551115123125782702e-17 $207 $292 forward @7 unknown #
coedge $-1 -1 $-1 $152 $284 $293 $294 forward $76 $-1 #
coedge $-1 -1 $-1 $202 $201 $152 $211 reversed $108 $-1 #
edge $295 -1 $-1 $296 -0.8082903768654761123 $216 1.502314598737159771e-17 $210 $297 forward @7 unknown #
coedge $-1 -1 $-1 $157 $153 $201 $276 reversed $214 $-1 #
coedge $-1 -1 $-1 $153 $157 $287 $298 forward $214 $-1 #
loop $-1 -1 $-1 $-1 $157 $299 #
DXID-attrib $-1 -1 $-1 $-1 $154 @10 ASM ENTITY @36 56d9a65a-90ce-46ba-b8f7-7851ee44fecd #
vertex $-1 -1 $-1 $154 $300 #
vertex $-1 -1 $-1 $154 $301 #
straight-curve $-1 -1 $-1 4.041451884327377009 22.63516480713451884 7.000000000000000888 -5.000000000000003553 -2.681259114135743191e-15 8.660254037844385522 I I #
coedge $-1 -1 $-1 $302 $155 $200 $275 forward $78 $-1 #
coedge $-1 -1 $-1 $156 $302 $303 $304 forward $78 $-1 #
coedge $-1 -1 $-1 $288 $287 $156 $222 reversed $289 $-1 #
edge $305 -1 $-1 $306 -5.551115123125782702e-17 $224 0.8082903768654758903 $156 $307 forward @7 unknown #
DXID-attrib $-1 -1 $-1 $-1 $158 @10 ASM ENTITY @36 f5da2a58-be3f-45bf-8fdc-50ccee32b27a #
vertex $-1 -1 $-1 $158 $308 #
vertex $-1 -1 $-1 $158 $309 #
straight-curve $-1 -1 $-1 4.041451884327377009 29.23516480713452381 7.000000000000003553 5.000000000000003553 2.681259114135743191e-15 -8.660254037844385522 F 0 F 0.8082903768654760013 #
coedge $-1 -1 $-1 $227 $227 $310 $311 reversed $159 $-1 #
DXID-attrib $-1 -1 $-1 $-1 $160 @10 ASM ENTITY @36 5261b34d-9fbc-4d4b-80a5-f4ceae356909 #
face $312 -1 $-1 $313 $314 $10 $-1 $315 forward single #
cone-surface $-1 -1 $-1 -3.811588826320792467e-15 54.43516480713451244 1.07927104739217448e-14 -5.551115123125782702e-17 1 2.775557561562890858e-16 -3.999999999999985789 -2.220446049250304699e-16 -3.053113317719171611e-16 1 I I 0 1 3.999999999999985789 forward I I I I #
point $-1 -1 $-1 -5.385164807134504628 19.5 -1.66143623220586288e-15 #
DXID-attrib $-1 -1 $-1 $-1 $168 @10 ASM ENTITY @36 34e0225c-22ae-4a47-8122-e8c4e3b4685f #
face $316 -1 $-1 $194 $180 $14 $-1 $317 forward single #
loop $-1 -1 $-1 $-1 $259 $168 #
plane-surface $-1 -1 $-1 -4.041451884327385891 62.58516480713451813 -6.99999999999999023 -0.8660254037844383745 4.560653564481707157e-17 -0.5000000000000005551 -5.000000000000005329 -3.565485930503130973e-15 8.660254037844383745 forward_v I I I I #
coedge $-1 -1 $-1 $318 $257 $319 $320 forward $169 $-1 #
coedge $-1 -1 $-1 $319 $171 $321 $322 reversed $130 $-1 #
coedge $-1 -1 $-1 $171 $319 $256 $323 reversed $130 $-1 #
coedge $-1 -1 $-1 $173 $172 $171 $240 reversed $98 $-1 #
edge $324 -1 $-1 $325 -0.2650000000000000133 $326 0.2650000000000000133 $171 $327 forward @7 unknown #
coedge $-1 -1 $-1 $176 $321 $172 $242 forward $193 $-1 #
edge $328 -1 $-1 $326 0 $246 0.8082903768654760013 $172 $329 forward @7 unknown #
edge $330 -1 $-1 $245 -0.8082903768654760013 $325 -0 $173 $331 forward @7 unknown #
DXID-attrib $-1 -1 $-1 $-1 $175 @10 ASM ENTITY @36 94ce962d-69f3-4279-bcf3-9733e52b4968 #
vertex $-1 -1 $-1 $178 $332 #
vertex $-1 -1 $-1 $177 $333 #
straight-curve $-1 -1 $-1 8.082903768654752241 62.58516480713451813 1.52752359358458096e-14 -1.387778780781446662e-15 10 3.315834070875793515e-15 I I #
coedge $-1 -1 $-1 $334 $176 $179 $253 forward $193 $-1 #
DXID-attrib $-1 -1 $-1 $-1 $177 @10 ASM ENTITY @36 ad3d590c-4b6d-4757-a3e2-d182576f2d90 #
straight-curve $-1 -1 $-1 8.082903768654752241 65.23516480713452381 1.615393196462789492e-14 -4.999999999999996447 2.177707149721686087e-15 -8.660254037844389075 I I #
DXID-attrib $-1 -1 $-1 $-1 $178 @10 ASM ENTITY @36 ad3444bf-af86-4ad6-859c-a46f0063f2e6 #
straight-curve $-1 -1 $-1 8.082903768654752241 59.93516480713451955 1.439653990706372427e-14 4.999999999999996447 -2.177707149721686087e-15 8.660254037844389075 I I #
edge $335 -1 $-1 $182 -0 $336 0.8082903768654761123 $179 $337 forward @7 unknown #
point $-1 -1 $-1 4.041451884327374344 65.23516480713452381 -6.999999999999984901 #
point $-1 -1 $-1 4.041451884327375232 59.93516480713451955 -6.999999999999987566 #
coedge $-1 -1 $-1 $186 $185 $238 $323 forward $70 $-1 #
coedge $-1 -1 $-1 $236 $338 $186 $258 reversed $169 $-1 #
edge $339 -1 $-1 $340 -0.8082903768654765564 $262 -0 $257 $341 forward @7 unknown #
coedge $-1 -1 $-1 $342 $187 $338 $343 forward $234 $-1 #
coedge $-1 -1 $-1 $187 $342 $189 $264 reversed $234 $-1 #
DXID-attrib $-1 -1 $-1 $-1 $188 @10 ASM ENTITY @36 cedb72c6-ffe1-4e9d-b0ad-12b096249565 #
vertex $-1 -1 $-1 $258 $344 #
straight-curve $-1 -1 $-1 -4.041451884327385891 59.93516480713451955 -6.999999999999992006 5.000000000000005329 3.565485930503130973e-15 -8.660254037844383745 I I #
edge $345 -1 $-1 $191 -0.2650000000000000133 $336 0.2650000000000000133 $189 $346 forward @7 unknown #
point $-1 -1 $-1 -4.041451884327385891 59.93516480713451955 -6.999999999999992006 #
DXID-attrib $-1 -1 $-1 $-1 $194 @10 ASM ENTITY @36 1d0e9af8-76fc-49fb-b862-06d998390225 #
plane-surface $-1 -1 $-1 -1.044239584089457635e-14 65.23516480713452381 1.171303986612726876e-14 -1.387778780781446662e-16 1 3.315834070875793613e-16 4.601644164153589735e-31 -3.315834070875793515e-15 10 forward_v I I I I #
DXID-attrib $-1 -1 $-1 $-1 $197 @10 ASM ENTITY @36 914fa094-4d4c-4bfa-a9f8-8562952dfbbd #
face $347 -1 $-1 $299 $289 $10 $-1 $348 forward single #
loop $-1 -1 $-1 $-1 $303 $197 #
plane-surface $-1 -1 $-1 -4.041451884327380562 29.23516480713452381 7.000000000000004441 -0.8660254037844387076 -1.868519452377336506e-16 0.5 -5 2.126147601823165315e-15 -8.660254037844387298 forward_v I I I I #
coedge $-1 -1 $-1 $349 $350 $302 $351 reversed $198 $-1 #
coedge $-1 -1 $-1 $293 $200 $202 $277 forward $147 $-1 #
coedge $-1 -1 $-1 $200 $293 $349 $352 reversed $147 $-1 #
edge $353 -1 $-1 $279 5.551115123125782702e-17 $354 0.8082903768654761123 $219 $355 forward @7 unknown #
edge $356 -1 $-1 $225 0 $216 0.6600000000000001421 $212 $357 forward @7 unknown #
edge $358 -1 $-1 $279 0 $296 0.6600000000000001421 $273 $359 forward @7 unknown #
DXID-attrib $-1 -1 $-1 $-1 $203 @10 ASM ENTITY @36 f4e5db4a-a72c-4bb3-839c-ff8113a92146 #
vertex $-1 -1 $-1 $203 $360 #
straight-curve $-1 -1 $-1 8.08290376865475757 29.23516480713452381 5.525478971956478576e-15 -4.999999999999998224 2.126147601823166104e-15 -8.660254037844389075 F -1.502314598737159771e-17 F 0.8082903768654761123 #
loop $-1 -1 $-1 $-1 $204 $361 #
vertex $-1 -1 $-1 $205 $362 #
ellipse-curve $-1 -1 $-1 -2.046334217166793726e-15 22.63516480713452239 1.966437428151753458e-15 5.551115123125782702e-17 -1 -2.775557561562890858e-16 -4.549999999999981171 -2.525757381022219691e-16 -3.47291639890555528e-16 1 I I #
coedge $-1 -1 $-1 $209 $206 $363 $364 forward $76 $-1 #
coedge $-1 -1 $-1 $365 $366 $206 $286 reversed $270 $-1 #
edge $367 -1 $-1 $291 -0.8082903768654765564 $368 1.502314598737159463e-17 $285 $369 forward @7 unknown #
coedge $-1 -1 $-1 $221 $207 $213 $298 reversed $289 $-1 #
coedge $-1 -1 $-1 $207 $221 $365 $370 forward $289 $-1 #
loop $-1 -1 $-1 $-1 $221 $269 #
DXID-attrib $-1 -1 $-1 $-1 $208 @10 ASM ENTITY @36 44e7989a-e001-42d8-a01d-45760a1a0e87 #
vertex $-1 -1 $-1 $208 $371 #
straight-curve $-1 -1 $-1 -4.04145188432738145 22.63516480713451884 7.000000000000000888 -10 -5.55111512312578073e-16 -7.632783294297956146e-16 I I #
coedge $-1 -1 $-1 $274 $273 $209 $294 reversed $147 $-1 #
edge $372 -1 $-1 $373 -0.8082903768654761123 $296 -5.551115123125782702e-17 $293 $374 forward @7 unknown #
DXID-attrib $-1 -1 $-1 $-1 $211 @10 ASM ENTITY @36 a6ae868a-8691-4b62-b894-ba1a7ca63621 #
vertex $-1 -1 $-1 $294 $375 #
straight-curve $-1 -1 $-1 8.08290376865475757 22.63516480713452239 3.693610981324970285e-15 4.999999999999998224 -2.126147601823166104e-15 8.660254037844389075 I I #
edge $376 -1 $-1 $224 0 $217 0.6600000000000001421 $213 $377 forward @7 unknown #
face $378 -1 $-1 $361 $214 $10 $-1 $379 forward single #
point $-1 -1 $-1 8.08290376865475757 22.63516480713452239 3.693610981324970285e-15 #
point $-1 -1 $-1 4.041451884327377009 22.63516480713451884 7.000000000000000888 #
coedge $-1 -1 $-1 $220 $219 $272 $351 forward $78 $-1 #
coedge $-1 -1 $-1 $366 $365 $220 $304 reversed $270 $-1 #
edge $380 -1 $-1 $381 -1.502314598737159463e-17 $306 0.8082903768654765564 $220 $382 forward @7 unknown #
DXID-attrib $-1 -1 $-1 $-1 $222 @10 ASM ENTITY @36 e50c4f1e-23c5-4cb5-b9cf-2fedc5624431 #
vertex $-1 -1 $-1 $304 $383 #
straight-curve $-1 -1 $-1 -4.04145188432738145 29.23516480713452381 7.000000000000002665 10 5.55111512312578073e-16 7.632783294297956146e-16 F -5.551115123125782702e-17 F 0.8082903768654758903 #
point $-1 -1 $-1 4.041451884327377009 29.23516480713452381 7.000000000000003553 #
point $-1 -1 $-1 8.08290376865475757 29.23516480713452381 5.698951319554159286e-15 #
coedge $-1 -1 $-1 $310 $310 $227 $311 forward $384 $-1 #
edge $-1 -1 $-1 $385 -3.141592653589793116 $385 3.141592653589793116 $227 $386 forward @7 unknown #
DXID-attrib $-1 -1 $-1 $-1 $229 @10 ASM ENTITY @36 ef47fe53-58e0-472f-930e-e059200625b3 #
face $387 -1 $-1 $388 $389 $10 $-1 $390 forward single #
loop $-1 -1 $-1 $-1 $391 $229 #
plane-surface $-1 -1 $-1 1.429614870531551086e-14 78.23516480713452381 1.739853747044142779e-14 -5.551115123125782702e-17 1 2.775557561562890858e-16 7.63278329429795516e-16 2.775557561562890957e-15 -10 forward_v I I I I #
DXID-attrib $-1 -1 $-1 $-1 $233 @10 ASM ENTITY @36 c10c2e10-2bb7-4b47-9aa9-7ab255b84422 #
plane-surface $-1 -1 $-1 4.041451884327375232 62.58516480713451813 -6.999999999999986677 5.494179103953039616e-16 3.3158340708757946e-16 -1 -10 -1.387778780781444887e-15 -5.494179103953039419e-15 forward_v I I I I #
coedge $-1 -1 $-1 $338 $236 $392 $393 reversed $169 $-1 #
coedge $-1 -1 $-1 $238 $237 $236 $320 reversed $130 $-1 #
edge $394 -1 $-1 $340 -0.2650000000000000133 $395 0.2650000000000000133 $236 $396 forward @7 unknown #
coedge $-1 -1 $-1 $241 $392 $237 $322 forward $193 $-1 #
edge $397 -1 $-1 $395 0 $326 0.8082903768654758903 $237 $398 forward @7 unknown #
edge $399 -1 $-1 $325 -0.8082903768654758903 $340 -0 $238 $400 forward @7 unknown #
DXID-attrib $-1 -1 $-1 $-1 $240 @10 ASM ENTITY @36 d6bedf51-140f-4c94-9b6a-479dcbdf910d #
vertex $-1 -1 $-1 $243 $401 #
vertex $-1 -1 $-1 $242 $402 #
straight-curve $-1 -1 $-1 4.041451884327369903 62.58516480713451813 7.000000000000013323 -1.387778780781446662e-15 10 3.315834070875793515e-15 I I #
DXID-attrib $-1 -1 $-1 $-1 $242 @10 ASM ENTITY @36 01c8eaa2-aec5-4c6e-a07c-3fb36f699213 #
straight-curve $-1 -1 $-1 4.041451884327369015 65.2351648071345096 7.000000000000014211 5.000000000000003553 3.565485930503130973e-15 -8.660254037844385522 I I #
DXID-attrib $-1 -1 $-1 $-1 $243 @10 ASM ENTITY @36 0fd9f8b4-3026-4fd1-b282-a2d1f56dbdd4 #
straight-curve $-1 -1 $-1 4.041451884327370792 59.93516480713451955 7.000000000000011546 -5.000000000000003553 -3.565485930503130973e-15 8.660254037844385522 I I #
point $-1 -1 $-1 8.082903768654752241 59.93516480713451955 1.439653990706372427e-14 #
point $-1 -1 $-1 8.082903768654752241 65.23516480713452381 1.615393196462789492e-14 #
coedge $-1 -1 $-1 $392 $248 $342 $403 forward $193 $-1 #
DXID-attrib $-1 -1 $-1 $-1 $253 @10 ASM ENTITY @36 b31b2de7-e2e9-4a3a-8fbb-538009f82f5b #
vertex $-1 -1 $-1 $403 $404 #
straight-curve $-1 -1 $-1 4.041451884327374344 65.23516480713452381 -6.999999999999984901 -10 -1.387778780781444887e-15 -5.494179103953039419e-15 I I #
coedge $-1 -1 $-1 $257 $318 $259 $343 reversed $169 $-1 #
DXID-attrib $-1 -1 $-1 $-1 $258 @10 ASM ENTITY @36 75c03d32-6f7b-4b78-bd2c-d2d6a5ec227e #
vertex $-1 -1 $-1 $323 $405 #
straight-curve $-1 -1 $-1 -8.082903768654771781 59.93516480713451955 6.62497873468762849e-15 -4.999999999999999112 2.177707149721684903e-15 -8.660254037844387298 I I #
coedge $-1 -1 $-1 $260 $259 $334 $403 reversed $234 $-1 #
edge $406 -1 $-1 $262 -0.2650000000000000133 $407 0.2650000000000000133 $259 $408 forward @7 unknown #
point $-1 -1 $-1 -8.082903768654771781 59.93516480713451955 6.62497873468762849e-15 #
DXID-attrib $-1 -1 $-1 $-1 $264 @10 ASM ENTITY @36 c15eed53-aef7-4243-984c-09d5d2d56ea6 #
straight-curve $-1 -1 $-1 -4.041451884327385891 62.58516480713451813 -6.99999999999999023 -1.387778780781446662e-15 10 3.315834070875793515e-15 I I #
DXID-attrib $-1 -1 $-1 $-1 $269 @10 ASM ENTITY @36 cac49092-4c8c-4383-9e54-30b337e4779d #
plane-surface $-1 -1 $-1 4.041451884327377009 29.23516480713452381 7.000000000000003553 -7.632783294297954913e-17 -2.775557561562890858e-16 1 -10 -5.55111512312578073e-16 -7.632783294297956146e-16 forward_v I I I I #
coedge $-1 -1 $-1 $363 $272 $274 $352 forward $198 $-1 #
coedge $-1 -1 $-1 $272 $363 $366 $409 reversed $198 $-1 #
edge $410 -1 $-1 $354 0 $381 0.8082903768654761123 $302 $411 forward @7 unknown #
edge $412 -1 $-1 $354 0 $373 0.6600000000000001421 $349 $413 forward @7 unknown #
DXID-attrib $-1 -1 $-1 $-1 $275 @10 ASM ENTITY @36 17f0dfd3-83b5-4f36-8184-7043afc13878 #
vertex $-1 -1 $-1 $275 $414 #
straight-curve $-1 -1 $-1 4.04145188432738145 29.23516480713452381 -6.999999999999995559 -10 -5.551115123125773827e-16 -3.51036788140631562e-15 F 5.551115123125782702e-17 F 0.8082903768654761123 #
DXID-attrib $-1 -1 $-1 $-1 $276 @10 ASM ENTITY @36 2ebe4346-aecb-465c-8dda-61108c41b8fb #
straight-curve $-1 -1 $-1 8.08290376865475757 29.23516480713452381 5.698951319554159286e-15 5.551115123125782702e-16 -10 -2.775557561562890957e-15 I I #
DXID-attrib $-1 -1 $-1 $-1 $277 @10 ASM ENTITY @36 c12b812c-8a23-4d06-8190-37637c91d134 #
straight-curve $-1 -1 $-1 4.041451884327380562 29.23516480713452381 -6.999999999999995559 5.551115123125782702e-16 -10 -2.775557561562890957e-15 I I #
point $-1 -1 $-1 4.041451884327380562 29.23516480713452381 -6.999999999999995559 #
face $415 -1 $-1 $416 $417 $10 $-1 $418 forward single #
point $-1 -1 $-1 4.549999999999978506 22.63516480713452239 2.870943361654352796e-15 #
coedge $-1 -1 $-1 $350 $349 $284 $364 reversed $198 $-1 #
edge $419 -1 $-1 $368 -0.8082903768654761123 $373 -0 $363 $420 forward @7 unknown #
coedge $-1 -1 $-1 $303 $285 $288 $370 reversed $270 $-1 #
coedge $-1 -1 $-1 $285 $303 $350 $409 forward $270 $-1 #
DXID-attrib $-1 -1 $-1 $-1 $286 @10 ASM ENTITY @36 79ff1704-854b-4cf1-a360-f689c7638227 #
vertex $-1 -1 $-1 $286 $421 #
straight-curve $-1 -1 $-1 -8.082903768654764676 22.63516480713452239 -1.981182174271776843e-15 -5 2.126147601823165315e-15 -8.660254037844387298 I I #
edge $422 -1 $-1 $306 0 $291 0.6600000000000001421 $288 $423 forward @7 unknown #
point $-1 -1 $-1 -4.04145188432738145 22.63516480713451884 7.000000000000000888 #
DXID-attrib $-1 -1 $-1 $-1 $294 @10 ASM ENTITY @36 019e3c9b-f3c9-4631-9d0c-816c7720bb17 #
vertex $-1 -1 $-1 $364 $424 #
straight-curve $-1 -1 $-1 4.04145188432738145 22.63516480713452594 -6.999999999999997335 10 5.551115123125773827e-16 3.51036788140631562e-15 I I #
point $-1 -1 $-1 4.041451884327380562 22.63516480713452594 -6.999999999999997335 #
DXID-attrib $-1 -1 $-1 $-1 $298 @10 ASM ENTITY @36 8d4a3cdc-2889-497e-ad38-f11322c99049 #
straight-curve $-1 -1 $-1 4.041451884327377009 29.23516480713452381 7.000000000000003553 5.551115123125782702e-16 -10 -2.775557561562890957e-15 I I #
DXID-attrib $-1 -1 $-1 $-1 $299 @10 ASM ENTITY @36 4f6dac2d-cf10-47ca-9028-b0ddd4ff3a7b #
plane-surface $-1 -1 $-1 8.08290376865475757 29.23516480713452381 5.525478971956478576e-15 0.8660254037844385966 -9.070381091855550912e-17 0.5000000000000003331 -5.000000000000003553 -2.681259114135743191e-15 8.660254037844385522 forward_v I I I I #
DXID-attrib $-1 -1 $-1 $-1 $304 @10 ASM ENTITY @36 fbbb1bfb-d9ad-4108-a2c9-2545ed46dd35 #
vertex $-1 -1 $-1 $351 $425 #
straight-curve $-1 -1 $-1 -8.082903768654764676 29.23516480713452381 -1.493141836402681569e-16 5 -2.126147601823165315e-15 8.660254037844387298 F -1.502314598737159463e-17 F 0.8082903768654765564 #
point $-1 -1 $-1 -4.041451884327382338 29.23516480713452381 7.000000000000002665 #
loop $-1 -1 $-1 $426 $310 $416 #
vertex $-1 -1 $-1 $311 $427 #
ellipse-curve $-1 -1 $-1 -5.077243074393471554e-15 77.23516480713452381 1.712098171428513866e-14 -5.551115123125782702e-17 1 2.775557561562890858e-16 3.999999999999985789 2.220446049250304699e-16 3.053113317719171611e-16 1 I I #
DXID-attrib $-1 -1 $-1 $-1 $313 @10 ASM ENTITY @36 27d7aa8a-7ccc-4bb2-b227-0cfe17ccbe17 #
face $428 -1 $-1 $-1 $429 $10 $-1 $430 forward single #
loop $-1 -1 $-1 $-1 $431 $313 #
plane-surface $-1 -1 $-1 -3.134542468518747516 6.13516480713451795 -2.852485382316790974e-15 5.551115123125782702e-17 -1 -2.775557561562890858e-16 -7.63278329429795516e-16 -2.775557561562890957e-15 10 forward_v I I I I #
coedge $-1 -1 $-1 $391 $391 $432 $433 reversed $314 $-1 #
coedge $-1 -1 $-1 $321 $334 $318 $393 forward $193 $-1 #
edge $434 -1 $-1 $407 0 $395 0.8082903768654765564 $318 $435 forward @7 unknown #
DXID-attrib $-1 -1 $-1 $-1 $320 @10 ASM ENTITY @36 eb481262-0611-4af4-b368-906b6711ce02 #
vertex $-1 -1 $-1 $322 $436 #
straight-curve $-1 -1 $-1 -4.041451884327388555 62.58516480713451813 7.000000000000013323 -1.387778780781446662e-15 10 3.315834070875793515e-15 I I #
DXID-attrib $-1 -1 $-1 $-1 $322 @10 ASM ENTITY @36 e8c84532-ed09-41c1-ae43-5ff22cd68073 #
straight-curve $-1 -1 $-1 -4.041451884327389443 65.2351648071345096 7.000000000000014211 10 1.387778780781446662e-15 0 I I #
DXID-attrib $-1 -1 $-1 $-1 $323 @10 ASM ENTITY @36 9e1aabb5-f28c-4b63-93cc-4c15cb85de0b #
straight-curve $-1 -1 $-1 -4.041451884327388555 59.93516480713451244 7.000000000000011546 -10 -1.387778780781446662e-15 0 I I #
point $-1 -1 $-1 4.041451884327370792 59.93516480713451955 7.000000000000011546 #
point $-1 -1 $-1 4.041451884327369015 65.2351648071345096 7.000000000000014211 #
edge $437 -1 $-1 $336 0 $407 0.8082903768654762233 $342 $438 forward @7 unknown #
point $-1 -1 $-1 -4.041451884327386779 65.23516480713452381 -6.999999999999989342 #
point $-1 -1 $-1 -4.041451884327387667 59.93516480713451244 7.000000000000011546 #
DXID-attrib $-1 -1 $-1 $-1 $343 @10 ASM ENTITY @36 e79e82e5-e7e1-48ec-93ca-8a7e23c911cf #
vertex $-1 -1 $-1 $393 $439 #
straight-curve $-1 -1 $-1 -8.082903768654771781 62.58516480713451813 7.503674763469713815e-15 -1.387778780781446662e-15 10 3.315834070875793515e-15 I I #
edge $440 -1 $-1 $381 0 $368 0.6600000000000001421 $366 $441 forward @7 unknown #
DXID-attrib $-1 -1 $-1 $-1 $351 @10 ASM ENTITY @36 1f6cf645-36fc-447c-b104-2043b78c2670 #
straight-curve $-1 -1 $-1 -4.041451884327379673 29.23516480713452381 -6.999999999999999112 -5.000000000000005329 -2.681259114135742796e-15 8.660254037844383745 F 0 F 0.8082903768654761123 #
DXID-attrib $-1 -1 $-1 $-1 $352 @10 ASM ENTITY @36 98b9bd0b-5507-4b90-9b88-aefaa64b332f #
straight-curve $-1 -1 $-1 -4.041451884327379673 29.23516480713452381 -6.999999999999999112 5.551115123125782702e-16 -10 -2.775557561562890957e-15 I I #
point $-1 -1 $-1 -4.041451884327379673 29.23516480713452381 -6.999999999999999112 #
DXID-attrib $-1 -1 $-1 $-1 $361 @10 ASM ENTITY @36 62f62bb3-c374-4131-9cb0-1f98c7bb36c3 #
face $442 -1 $-1 $160 $384 $10 $-1 $443 forward single #
loop $-1 -1 $-1 $281 $444 $361 #
cone-surface $-1 -1 $-1 -2.135152059136805933e-15 24.23516480713452026 2.410526638001815286e-15 -5.551115123125782702e-17 1 2.775557561562890858e-16 -4.549999999999981171 -2.525757381022219691e-16 -3.47291639890555528e-16 1 I I 0 1 4.549999999999981171 forward I I I I #
DXID-attrib $-1 -1 $-1 $-1 $364 @10 ASM ENTITY @36 c9656298-9d97-4806-8382-9b29f8dd5e2b #
straight-curve $-1 -1 $-1 -4.041451884327379673 22.63516480713452594 -7 5.000000000000005329 2.681259114135742796e-15 -8.660254037844383745 I I #
point $-1 -1 $-1 -8.082903768654764676 22.63516480713452239 -1.981182174271776843e-15 #
DXID-attrib $-1 -1 $-1 $-1 $370 @10 ASM ENTITY @36 4ea779a2-01b1-49ad-b446-7c247a021a71 #
straight-curve $-1 -1 $-1 -4.041451884327382338 29.23516480713452381 7.000000000000002665 5.551115123125782702e-16 -10 -2.775557561562890957e-15 I I #
point $-1 -1 $-1 -4.041451884327380562 22.63516480713452594 -7 #
point $-1 -1 $-1 -8.082903768654764676 29.23516480713452381 -3.227865312379488663e-16 #
loop $-1 -1 $-1 $-1 $432 $416 #
point $-1 -1 $-1 -3.999999999999991118 77.23516480713452381 1.73055291021721612e-14 #
DXID-attrib $-1 -1 $-1 $-1 $388 @10 ASM ENTITY @36 f2c1ee5e-0f3a-46a6-a989-2a438e58dd5d #
loop $-1 -1 $-1 $445 $446 $388 #
sphere-surface $-1 -1 $-1 7.395020560076488256e-16 12.44999999999999929 -8.605136914688931045e-16 7.050000000000002487 -1 -5.551115123125780853e-17 -7.632783294297956146e-17 7.632783294297954913e-17 2.775557561562890858e-16 -1 forward_v I I I I #
coedge $-1 -1 $-1 $431 $431 $447 $448 reversed $389 $-1 #
coedge $-1 -1 $-1 $432 $432 $391 $433 forward $426 $-1 #
edge $-1 -1 $-1 $449 -3.141592653589793116 $449 3.141592653589793116 $391 $450 forward @7 unknown #
DXID-attrib $-1 -1 $-1 $-1 $393 @10 ASM ENTITY @36 4b545aa2-2fd4-4322-8326-cee70636f17c #
straight-curve $-1 -1 $-1 -8.082903768654771781 65.23516480713452381 8.38237079225179914e-15 4.999999999999999112 -2.177707149721684903e-15 8.660254037844387298 I I #
point $-1 -1 $-1 -4.041451884327388555 65.2351648071345096 7.000000000000014211 #
DXID-attrib $-1 -1 $-1 $-1 $403 @10 ASM ENTITY @36 28cccda2-7f50-44bf-8bba-4ce54e83e2ef #
straight-curve $-1 -1 $-1 -4.041451884327386779 65.23516480713452381 -6.999999999999989342 -5.000000000000005329 -3.565485930503130973e-15 8.660254037844383745 I I #
point $-1 -1 $-1 -8.082903768654771781 65.23516480713452381 8.38237079225179914e-15 #
DXID-attrib $-1 -1 $-1 $-1 $409 @10 ASM ENTITY @36 c9853a3e-6f8e-4731-b185-e42493004bfd #
straight-curve $-1 -1 $-1 -8.082903768654764676 29.23516480713452381 -3.227865312379488663e-16 5.551115123125782702e-16 -10 -2.775557561562890957e-15 I I #
DXID-attrib $-1 -1 $-1 $-1 $416 @10 ASM ENTITY @36 7dabf257-2334-4105-91d8-39e92acd0250 #
cone-surface $-1 -1 $-1 -5.104998650009100468e-15 77.73516480713452381 1.725975959236328323e-14 -5.551115123125782702e-17 1 2.775557561562890858e-16 3.499999999999982681 1.942890293094013592e-16 2.671474153004271092e-16 1 I I -0.7071067811865510144 0.707106781186543909 3.499999999999982681 forward I I I I #
coedge $-1 -1 $-1 $444 $444 $446 $451 forward $417 $-1 #
loop $-1 -1 $-1 $-1 $447 $388 #
coedge $-1 -1 $-1 $446 $446 $444 $451 reversed $429 $-1 #
coedge $-1 -1 $-1 $447 $447 $431 $448 forward $445 $-1 #
edge $452 -1 $-1 $453 0 $453 6.283185307179586232 $447 $454 forward @7 unknown #
vertex $-1 -1 $-1 $433 $455 #
ellipse-curve $-1 -1 $-1 -5.132754225624729381e-15 78.23516480713452381 1.739853747044142779e-14 5.551115123125782702e-17 -1 -2.775557561562890858e-16 2.999999999999979572 1.665334536937722731e-16 2.289834988289371067e-16 1 I I #
edge $456 -1 $-1 $457 0 $457 6.283185307179586232 $444 $458 forward @7 unknown #
DXID-attrib $-1 -1 $-1 $-1 $448 @10 ASM ENTITY @36 943a2d1e-c5a2-41b5-bca6-649d5895e0b4 #
vertex $-1 -1 $-1 $448 $459 #
ellipse-curve $-1 -1 $-1 -1.130400221851039383e-15 6.13516480713451795 -2.613232548427017271e-15 -5.551115123125782702e-17 1 2.775557561562890858e-16 -3.134542468518746183 -1.740020610107442964e-16 -2.392528338897736047e-16 1 I I #
point $-1 -1 $-1 -2.999999999999984457 78.23516480713452381 1.680215993186829012e-14 #
DXID-attrib $-1 -1 $-1 $-1 $451 @10 ASM ENTITY @36 3842fb79-0633-4ddb-9d99-fad452ed1336 #
vertex $-1 -1 $-1 $451 $460 #
ellipse-curve $-1 -1 $-1 -1.779880691256755919e-15 17.83516480713451813 6.341697986015648211e-16 -5.551115123125782702e-17 1 2.775557561562890858e-16 -4.549999999999981171 -2.525757381022219691e-16 -3.47291639890555528e-16 1 I I #
point $-1 -1 $-1 -3.134542468518747516 6.13516480713451795 -2.852485382316790974e-15 #
point $-1 -1 $-1 -4.549999999999982059 17.83516480713451813 2.868781587110095396e-16 #
End-of-ACIS-data 