ISO-10303-21;
HEADER;
FILE_DESCRIPTION(('STEP AP214'),'1');
FILE_NAME('cctmp_BE5C459D-53DB-43ED-8152-0BDBA59D5F99_2026_05_12_10_23_57_0867_133736..stp','2026-05-12T08:23:57',('igus GmbH'),('CADClick - www.CADClick.com'),'Spatial InterOp 3D',' ','unknown authorization');
FILE_SCHEMA(('AUTOMOTIVE_DESIGN'));
ENDSEC;
DATA;
#1=MECHANICAL_DESIGN_GEOMETRIC_PRESENTATION_REPRESENTATION(' ',(#18,#19,#20,#21,#22,#23,#24,#25,#26,#27,#28,#29,#30,#31,#32,#33,#34,#35,#36,#37,#38,#39,#40,#41,#42,#43,#44,#45),#14);
#2=PRODUCT_DEFINITION_CONTEXT('',#46,'design');
#3=APPLICATION_PROTOCOL_DEFINITION('INTERNATIONAL STANDARD','automotive_design',1994,#46);
#4=PRODUCT_CATEGORY_RELATIONSHIP('NONE','NONE',#47,#48);
#5=SHAPE_DEFINITION_REPRESENTATION(#49,#50);
#6=PRODUCT_DEFINITION_CONTEXT('',#51,'design');
#7=APPLICATION_PROTOCOL_DEFINITION('INTERNATIONAL STANDARD','automotive_design',1994,#51);
#8=PRODUCT_CATEGORY_RELATIONSHIP('NONE','NONE',#52,#53);
#9=SHAPE_DEFINITION_REPRESENTATION(#54,#55);
#10=PRODUCT_DEFINITION_CONTEXT('',#56,'design');
#11=APPLICATION_PROTOCOL_DEFINITION('INTERNATIONAL STANDARD','automotive_design',1994,#56);
#12=PRODUCT_CATEGORY_RELATIONSHIP('NONE','NONE',#57,#58);
#13=SHAPE_DEFINITION_REPRESENTATION(#59,#60);
#14= (GEOMETRIC_REPRESENTATION_CONTEXT(3)GLOBAL_UNCERTAINTY_ASSIGNED_CONTEXT((#63))GLOBAL_UNIT_ASSIGNED_CONTEXT((#65,#66,#67))REPRESENTATION_CONTEXT('NONE','WORKSPACE'));
#18=STYLED_ITEM('',(#69),#70);
#19=STYLED_ITEM('',(#71),#72);
#20=STYLED_ITEM('',(#73),#74);
#21=STYLED_ITEM('',(#75),#76);
#22=STYLED_ITEM('',(#77),#78);
#23=STYLED_ITEM('',(#79),#80);
#24=STYLED_ITEM('',(#81),#82);
#25=STYLED_ITEM('',(#83),#84);
#26=STYLED_ITEM('',(#85),#86);
#27=STYLED_ITEM('',(#87),#88);
#28=STYLED_ITEM('',(#89),#90);
#29=STYLED_ITEM('',(#91),#92);
#30=STYLED_ITEM('',(#93),#94);
#31=STYLED_ITEM('',(#95),#96);
#32=STYLED_ITEM('',(#97),#98);
#33=STYLED_ITEM('',(#99),#100);
#34=STYLED_ITEM('',(#101),#102);
#35=STYLED_ITEM('',(#103),#104);
#36=STYLED_ITEM('',(#105),#106);
#37=STYLED_ITEM('',(#107),#108);
#38=STYLED_ITEM('',(#109),#110);
#39=STYLED_ITEM('',(#111),#112);
#40=STYLED_ITEM('',(#113),#114);
#41=STYLED_ITEM('',(#115),#116);
#42=STYLED_ITEM('',(#117),#118);
#43=STYLED_ITEM('',(#119),#120);
#44=STYLED_ITEM('',(#121),#122);
#45=STYLED_ITEM('',(#123),#124);
#46=APPLICATION_CONTEXT(' ');
#47=PRODUCT_CATEGORY('part','NONE');
#48=PRODUCT_RELATED_PRODUCT_CATEGORY('detail',' ',(#125));
#49=PRODUCT_DEFINITION_SHAPE('NONE','NONE',#126);
#50=ADVANCED_BREP_SHAPE_REPRESENTATION('2026_05_12_10_23_57_0836',(#84,#127),#14);
#51=APPLICATION_CONTEXT(' ');
#52=PRODUCT_CATEGORY('part','NONE');
#53=PRODUCT_RELATED_PRODUCT_CATEGORY('detail',' ',(#128));
#54=PRODUCT_DEFINITION_SHAPE('NONE','NONE',#129);
#55=ADVANCED_BREP_SHAPE_REPRESENTATION('2026_05_12_10_23_57_0851',(#110,#130),#14);
#56=APPLICATION_CONTEXT(' ');
#57=PRODUCT_CATEGORY('part','NONE');
#58=PRODUCT_RELATED_PRODUCT_CATEGORY('detail',' ',(#131));
#59=PRODUCT_DEFINITION_SHAPE('NONE','NONE',#132);
#60=ADVANCED_BREP_SHAPE_REPRESENTATION('2026_05_12_10_23_57_0867',(#124,#133),#14);
#63=UNCERTAINTY_MEASURE_WITH_UNIT(LENGTH_MEASURE(1.0E-06),#65,'','');
#65= (CONVERSION_BASED_UNIT('MILLIMETRE',#136)LENGTH_UNIT()NAMED_UNIT(#139));
#66= (NAMED_UNIT(#141)PLANE_ANGLE_UNIT()SI_UNIT($,.RADIAN.));
#67= (NAMED_UNIT(#141)SOLID_ANGLE_UNIT()SI_UNIT($,.STERADIAN.));
#69=PRESENTATION_STYLE_ASSIGNMENT((#147));
#70=ADVANCED_FACE('',(#148),#149,.T.);
#71=PRESENTATION_STYLE_ASSIGNMENT((#150));
#72=ADVANCED_FACE('',(#151),#152,.T.);
#73=PRESENTATION_STYLE_ASSIGNMENT((#153));
#74=ADVANCED_FACE('',(#154),#155,.F.);
#75=PRESENTATION_STYLE_ASSIGNMENT((#156));
#76=ADVANCED_FACE('',(#157),#158,.T.);
#77=PRESENTATION_STYLE_ASSIGNMENT((#159));
#78=ADVANCED_FACE('',(#160),#161,.F.);
#79=PRESENTATION_STYLE_ASSIGNMENT((#162));
#80=ADVANCED_FACE('',(#163),#164,.F.);
#81=PRESENTATION_STYLE_ASSIGNMENT((#165));
#82=ADVANCED_FACE('',(#166),#167,.T.);
#83=PRESENTATION_STYLE_ASSIGNMENT((#168));
#84=MANIFOLD_SOLID_BREP('2026_05_12_10_23_57_0836',#169);
#85=PRESENTATION_STYLE_ASSIGNMENT((#170));
#86=ADVANCED_FACE('',(#171),#172,.T.);
#87=PRESENTATION_STYLE_ASSIGNMENT((#173));
#88=ADVANCED_FACE('',(#174),#175,.T.);
#89=PRESENTATION_STYLE_ASSIGNMENT((#176));
#90=ADVANCED_FACE('',(#177),#178,.F.);
#91=PRESENTATION_STYLE_ASSIGNMENT((#179));
#92=ADVANCED_FACE('',(#180),#181,.F.);
#93=PRESENTATION_STYLE_ASSIGNMENT((#182));
#94=ADVANCED_FACE('',(#183,#184),#185,.F.);
#95=PRESENTATION_STYLE_ASSIGNMENT((#186));
#96=ADVANCED_FACE('',(#187,#188),#189,.F.);
#97=PRESENTATION_STYLE_ASSIGNMENT((#190));
#98=ADVANCED_FACE('',(#191),#192,.F.);
#99=PRESENTATION_STYLE_ASSIGNMENT((#193));
#100=ADVANCED_FACE('',(#194),#195,.F.);
#101=PRESENTATION_STYLE_ASSIGNMENT((#196));
#102=ADVANCED_FACE('',(#197,#198),#199,.T.);
#103=PRESENTATION_STYLE_ASSIGNMENT((#200));
#104=ADVANCED_FACE('',(#201),#202,.T.);
#105=PRESENTATION_STYLE_ASSIGNMENT((#203));
#106=ADVANCED_FACE('',(#204,#205),#206,.T.);
#107=PRESENTATION_STYLE_ASSIGNMENT((#207));
#108=ADVANCED_FACE('',(#208),#209,.T.);
#109=PRESENTATION_STYLE_ASSIGNMENT((#210));
#110=MANIFOLD_SOLID_BREP('2026_05_12_10_23_57_0851',#211);
#111=PRESENTATION_STYLE_ASSIGNMENT((#212));
#112=ADVANCED_FACE('',(#213),#214,.T.);
#113=PRESENTATION_STYLE_ASSIGNMENT((#215));
#114=ADVANCED_FACE('',(#216),#217,.F.);
#115=PRESENTATION_STYLE_ASSIGNMENT((#218));
#116=ADVANCED_FACE('',(#219,#220),#221,.T.);
#117=PRESENTATION_STYLE_ASSIGNMENT((#222));
#118=ADVANCED_FACE('',(#223,#224),#225,.T.);
#119=PRESENTATION_STYLE_ASSIGNMENT((#226));
#120=ADVANCED_FACE('',(#227),#228,.F.);
#121=PRESENTATION_STYLE_ASSIGNMENT((#229));
#122=ADVANCED_FACE('',(#230),#231,.T.);
#123=PRESENTATION_STYLE_ASSIGNMENT((#232));
#124=MANIFOLD_SOLID_BREP('2026_05_12_10_23_57_0867',#233);
#125=PRODUCT('2026_05_12_10_23_57_0836','2026_05_12_10_23_57_0836','PART-2026_05_12_10_23_57_0836-DESC',(#234));
#126=PRODUCT_DEFINITION('','NONE',#235,#2);
#127=AXIS2_PLACEMENT_3D('',#236,#237,#238);
#128=PRODUCT('2026_05_12_10_23_57_0851','2026_05_12_10_23_57_0851','PART-2026_05_12_10_23_57_0851-DESC',(#239));
#129=PRODUCT_DEFINITION('','NONE',#240,#6);
#130=AXIS2_PLACEMENT_3D('',#241,#242,#243);
#131=PRODUCT('2026_05_12_10_23_57_0867','2026_05_12_10_23_57_0867','PART-2026_05_12_10_23_57_0867-DESC',(#244));
#132=PRODUCT_DEFINITION('','NONE',#245,#10);
#133=AXIS2_PLACEMENT_3D('',#246,#247,#248);
#136=LENGTH_MEASURE_WITH_UNIT(LENGTH_MEASURE(1.0),#249);
#139=DIMENSIONAL_EXPONENTS(1.0,0.0,0.0,0.0,0.0,0.0,0.0);
#141=DIMENSIONAL_EXPONENTS(0.0,0.0,0.0,0.0,0.0,0.0,0.0);
#147=SURFACE_STYLE_USAGE(.BOTH.,#250);
#148=FACE_OUTER_BOUND('',#251,.T.);
#149=CONICAL_SURFACE('',#252,1.25,0.785398163397448);
#150=SURFACE_STYLE_USAGE(.BOTH.,#253);
#151=FACE_OUTER_BOUND('',#254,.T.);
#152=CYLINDRICAL_SURFACE('',#255,2.5);
#153=SURFACE_STYLE_USAGE(.BOTH.,#256);
#154=FACE_OUTER_BOUND('',#257,.T.);
#155=PLANE('',#258);
#156=SURFACE_STYLE_USAGE(.BOTH.,#259);
#157=FACE_OUTER_BOUND('',#260,.T.);
#158=CYLINDRICAL_SURFACE('',#261,2.5);
#159=SURFACE_STYLE_USAGE(.BOTH.,#262);
#160=FACE_OUTER_BOUND('',#263,.T.);
#161=PLANE('',#264);
#162=SURFACE_STYLE_USAGE(.BOTH.,#265);
#163=FACE_OUTER_BOUND('',#266,.T.);
#164=PLANE('',#267);
#165=SURFACE_STYLE_USAGE(.BOTH.,#268);
#166=FACE_OUTER_BOUND('',#269,.T.);
#167=CONICAL_SURFACE('',#270,1.25,0.785398163397448);
#168=SURFACE_STYLE_USAGE(.BOTH.,#271);
#169=CLOSED_SHELL('',(#70,#72,#74,#76,#78,#80,#82));
#170=SURFACE_STYLE_USAGE(.BOTH.,#272);
#171=FACE_OUTER_BOUND('',#273,.T.);
#172=SPHERICAL_SURFACE('',#274,9.00000000000001);
#173=SURFACE_STYLE_USAGE(.BOTH.,#275);
#174=FACE_OUTER_BOUND('',#276,.T.);
#175=CONICAL_SURFACE('',#277,3.68618419930046,0.610865238197564);
#176=SURFACE_STYLE_USAGE(.BOTH.,#278);
#177=FACE_OUTER_BOUND('',#279,.T.);
#178=CONICAL_SURFACE('',#280,4.0,1.21202565652432);
#179=SURFACE_STYLE_USAGE(.BOTH.,#281);
#180=FACE_OUTER_BOUND('',#282,.T.);
#181=CONICAL_SURFACE('',#283,4.0,1.21202565652432);
#182=SURFACE_STYLE_USAGE(.BOTH.,#284);
#183=FACE_BOUND('',#285,.T.);
#184=FACE_OUTER_BOUND('',#286,.T.);
#185=SPHERICAL_SURFACE('',#287,5.55);
#186=SURFACE_STYLE_USAGE(.BOTH.,#288);
#187=FACE_OUTER_BOUND('',#289,.T.);
#188=FACE_BOUND('',#290,.T.);
#189=SPHERICAL_SURFACE('',#291,5.55);
#190=SURFACE_STYLE_USAGE(.BOTH.,#292);
#191=FACE_OUTER_BOUND('',#293,.T.);
#192=CONICAL_SURFACE('',#294,4.0,1.21202565652432);
#193=SURFACE_STYLE_USAGE(.BOTH.,#295);
#194=FACE_OUTER_BOUND('',#296,.T.);
#195=CONICAL_SURFACE('',#297,4.0,1.21202565652432);
#196=SURFACE_STYLE_USAGE(.BOTH.,#298);
#197=FACE_BOUND('',#299,.T.);
#198=FACE_OUTER_BOUND('',#300,.T.);
#199=PLANE('',#301);
#200=SURFACE_STYLE_USAGE(.BOTH.,#302);
#201=FACE_OUTER_BOUND('',#303,.T.);
#202=CONICAL_SURFACE('',#304,3.68618419930046,0.610865238197564);
#203=SURFACE_STYLE_USAGE(.BOTH.,#305);
#204=FACE_BOUND('',#306,.T.);
#205=FACE_OUTER_BOUND('',#307,.T.);
#206=PLANE('',#308);
#207=SURFACE_STYLE_USAGE(.BOTH.,#309);
#208=FACE_OUTER_BOUND('',#310,.T.);
#209=SPHERICAL_SURFACE('',#311,9.00000000000001);
#210=SURFACE_STYLE_USAGE(.BOTH.,#312);
#211=CLOSED_SHELL('',(#86,#88,#90,#92,#94,#96,#98,#100,#102,#104,#106,#108));
#212=SURFACE_STYLE_USAGE(.BOTH.,#313);
#213=FACE_OUTER_BOUND('',#314,.T.);
#214=SPHERICAL_SURFACE('',#315,5.55);
#215=SURFACE_STYLE_USAGE(.BOTH.,#316);
#216=FACE_OUTER_BOUND('',#317,.T.);
#217=CYLINDRICAL_SURFACE('',#318,2.5);
#218=SURFACE_STYLE_USAGE(.BOTH.,#319);
#219=FACE_OUTER_BOUND('',#320,.T.);
#220=FACE_BOUND('',#321,.T.);
#221=PLANE('',#322);
#222=SURFACE_STYLE_USAGE(.BOTH.,#323);
#223=FACE_OUTER_BOUND('',#324,.T.);
#224=FACE_BOUND('',#325,.T.);
#225=PLANE('',#326);
#226=SURFACE_STYLE_USAGE(.BOTH.,#327);
#227=FACE_OUTER_BOUND('',#328,.T.);
#228=CYLINDRICAL_SURFACE('',#329,2.5);
#229=SURFACE_STYLE_USAGE(.BOTH.,#330);
#230=FACE_OUTER_BOUND('',#331,.T.);
#231=SPHERICAL_SURFACE('',#332,5.55);
#232=SURFACE_STYLE_USAGE(.BOTH.,#333);
#233=CLOSED_SHELL('',(#112,#114,#116,#118,#120,#122));
#234=PRODUCT_CONTEXT('',#46,'mechanical');
#235=PRODUCT_DEFINITION_FORMATION_WITH_SPECIFIED_SOURCE(' ','NONE',#125,.NOT_KNOWN.);
#236=CARTESIAN_POINT('',(0.0,0.0,0.0));
#237=DIRECTION('',(0.0,0.0,1.0));
#238=DIRECTION('',(1.0,0.0,0.0));
#239=PRODUCT_CONTEXT('',#51,'mechanical');
#240=PRODUCT_DEFINITION_FORMATION_WITH_SPECIFIED_SOURCE(' ','NONE',#128,.NOT_KNOWN.);
#241=CARTESIAN_POINT('',(0.0,0.0,0.0));
#242=DIRECTION('',(0.0,0.0,1.0));
#243=DIRECTION('',(1.0,0.0,0.0));
#244=PRODUCT_CONTEXT('',#56,'mechanical');
#245=PRODUCT_DEFINITION_FORMATION_WITH_SPECIFIED_SOURCE(' ','NONE',#131,.NOT_KNOWN.);
#246=CARTESIAN_POINT('',(0.0,0.0,0.0));
#247=DIRECTION('',(0.0,0.0,1.0));
#248=DIRECTION('',(1.0,0.0,0.0));
#249= (NAMED_UNIT(#139)LENGTH_UNIT()SI_UNIT(.MILLI.,.METRE.));
#250=SURFACE_SIDE_STYLE('',(#335));
#251=EDGE_LOOP('',(#336,#337,#338,#339));
#252=AXIS2_PLACEMENT_3D('',#340,#341,#342);
#253=SURFACE_SIDE_STYLE('',(#343));
#254=EDGE_LOOP('',(#344,#345,#346,#347));
#255=AXIS2_PLACEMENT_3D('',#348,#349,#350);
#256=SURFACE_SIDE_STYLE('',(#351));
#257=EDGE_LOOP('',(#352,#353));
#258=AXIS2_PLACEMENT_3D('',#354,#355,#356);
#259=SURFACE_SIDE_STYLE('',(#357));
#260=EDGE_LOOP('',(#358,#359,#360,#361));
#261=AXIS2_PLACEMENT_3D('',#362,#363,#364);
#262=SURFACE_SIDE_STYLE('',(#365));
#263=EDGE_LOOP('',(#366,#367));
#264=AXIS2_PLACEMENT_3D('',#368,#369,#370);
#265=SURFACE_SIDE_STYLE('',(#371));
#266=EDGE_LOOP('',(#372,#373));
#267=AXIS2_PLACEMENT_3D('',#374,#375,#376);
#268=SURFACE_SIDE_STYLE('',(#377));
#269=EDGE_LOOP('',(#378,#379,#380,#381));
#270=AXIS2_PLACEMENT_3D('',#382,#383,#384);
#271=SURFACE_SIDE_STYLE('',(#385));
#272=SURFACE_SIDE_STYLE('',(#386));
#273=EDGE_LOOP('',(#387,#388,#389,#390,#391));
#274=AXIS2_PLACEMENT_3D('',#392,#393,#394);
#275=SURFACE_SIDE_STYLE('',(#395));
#276=EDGE_LOOP('',(#396,#397,#398,#399,#400));
#277=AXIS2_PLACEMENT_3D('',#401,#402,#403);
#278=SURFACE_SIDE_STYLE('',(#404));
#279=EDGE_LOOP('',(#405,#406,#407,#408));
#280=AXIS2_PLACEMENT_3D('',#409,#410,#411);
#281=SURFACE_SIDE_STYLE('',(#412));
#282=EDGE_LOOP('',(#413,#414,#415,#416));
#283=AXIS2_PLACEMENT_3D('',#417,#418,#419);
#284=SURFACE_SIDE_STYLE('',(#420));
#285=EDGE_LOOP('',(#421,#422));
#286=EDGE_LOOP('',(#423,#424));
#287=AXIS2_PLACEMENT_3D('',#425,#426,#427);
#288=SURFACE_SIDE_STYLE('',(#428));
#289=EDGE_LOOP('',(#429,#430));
#290=EDGE_LOOP('',(#431,#432));
#291=AXIS2_PLACEMENT_3D('',#433,#434,#435);
#292=SURFACE_SIDE_STYLE('',(#436));
#293=EDGE_LOOP('',(#437,#438,#439,#440));
#294=AXIS2_PLACEMENT_3D('',#441,#442,#443);
#295=SURFACE_SIDE_STYLE('',(#444));
#296=EDGE_LOOP('',(#445,#446,#447,#448));
#297=AXIS2_PLACEMENT_3D('',#449,#450,#451);
#298=SURFACE_SIDE_STYLE('',(#452));
#299=EDGE_LOOP('',(#453,#454));
#300=EDGE_LOOP('',(#455,#456));
#301=AXIS2_PLACEMENT_3D('',#457,#458,#459);
#302=SURFACE_SIDE_STYLE('',(#460));
#303=EDGE_LOOP('',(#461,#462,#463,#464,#465));
#304=AXIS2_PLACEMENT_3D('',#466,#467,#468);
#305=SURFACE_SIDE_STYLE('',(#469));
#306=EDGE_LOOP('',(#470,#471));
#307=EDGE_LOOP('',(#472,#473));
#308=AXIS2_PLACEMENT_3D('',#474,#475,#476);
#309=SURFACE_SIDE_STYLE('',(#477));
#310=EDGE_LOOP('',(#478,#479,#480,#481,#482));
#311=AXIS2_PLACEMENT_3D('',#483,#484,#485);
#312=SURFACE_SIDE_STYLE('',(#486));
#313=SURFACE_SIDE_STYLE('',(#487));
#314=EDGE_LOOP('',(#488,#489,#490,#491,#492,#493));
#315=AXIS2_PLACEMENT_3D('',#494,#495,#496);
#316=SURFACE_SIDE_STYLE('',(#497));
#317=EDGE_LOOP('',(#498,#499,#500,#501));
#318=AXIS2_PLACEMENT_3D('',#502,#503,#504);
#319=SURFACE_SIDE_STYLE('',(#505));
#320=EDGE_LOOP('',(#506,#507));
#321=EDGE_LOOP('',(#508,#509));
#322=AXIS2_PLACEMENT_3D('',#510,#511,#512);
#323=SURFACE_SIDE_STYLE('',(#513));
#324=EDGE_LOOP('',(#514,#515));
#325=EDGE_LOOP('',(#516,#517));
#326=AXIS2_PLACEMENT_3D('',#518,#519,#520);
#327=SURFACE_SIDE_STYLE('',(#521));
#328=EDGE_LOOP('',(#522,#523,#524,#525));
#329=AXIS2_PLACEMENT_3D('',#526,#527,#528);
#330=SURFACE_SIDE_STYLE('',(#529));
#331=EDGE_LOOP('',(#530,#531,#532,#533,#534,#535));
#332=AXIS2_PLACEMENT_3D('',#536,#537,#538);
#333=SURFACE_SIDE_STYLE('',(#539));
#335=SURFACE_STYLE_FILL_AREA(#540);
#336=ORIENTED_EDGE('',*,*,#541,.F.);
#337=ORIENTED_EDGE('',*,*,#542,.T.);
#338=ORIENTED_EDGE('',*,*,#543,.F.);
#339=ORIENTED_EDGE('',*,*,#544,.T.);
#340=CARTESIAN_POINT('',(0.0,0.0,-34.0));
#341=DIRECTION('',(-0.0,-0.0,1.0));
#342=DIRECTION('',(1.0,0.0,0.0));
#343=SURFACE_STYLE_FILL_AREA(#545);
#344=ORIENTED_EDGE('',*,*,#546,.F.);
#345=ORIENTED_EDGE('',*,*,#547,.F.);
#346=ORIENTED_EDGE('',*,*,#548,.F.);
#347=ORIENTED_EDGE('',*,*,#549,.T.);
#348=CARTESIAN_POINT('',(0.0,0.0,-19.3025));
#349=DIRECTION('',(0.0,0.0,1.0));
#350=DIRECTION('',(1.0,0.0,0.0));
#351=SURFACE_STYLE_FILL_AREA(#550);
#352=ORIENTED_EDGE('',*,*,#551,.F.);
#353=ORIENTED_EDGE('',*,*,#549,.F.);
#354=CARTESIAN_POINT('',(2.5,6.0,-17.2961524227));
#355=DIRECTION('',(0.0,-0.866025403784162,-0.500000000000479));
#356=DIRECTION('',(0.0,-0.500000000000479,0.866025403784162));
#357=SURFACE_STYLE_FILL_AREA(#552);
#358=ORIENTED_EDGE('',*,*,#546,.T.);
#359=ORIENTED_EDGE('',*,*,#553,.T.);
#360=ORIENTED_EDGE('',*,*,#548,.T.);
#361=ORIENTED_EDGE('',*,*,#542,.F.);
#362=CARTESIAN_POINT('',(0.0,0.0,-19.3025));
#363=DIRECTION('',(0.0,0.0,1.0));
#364=DIRECTION('',(1.0,0.0,0.0));
#365=SURFACE_STYLE_FILL_AREA(#554);
#366=ORIENTED_EDGE('',*,*,#551,.T.);
#367=ORIENTED_EDGE('',*,*,#553,.F.);
#368=CARTESIAN_POINT('',(-2.5,-6.0,-17.2961524227));
#369=DIRECTION('',(0.0,0.866025403784162,-0.500000000000479));
#370=DIRECTION('',(0.0,0.500000000000479,0.866025403784162));
#371=SURFACE_STYLE_FILL_AREA(#555);
#372=ORIENTED_EDGE('',*,*,#544,.F.);
#373=ORIENTED_EDGE('',*,*,#556,.F.);
#374=CARTESIAN_POINT('',(0.0,0.0,-33.0));
#375=DIRECTION('',(0.0,0.0,1.0));
#376=DIRECTION('',(1.0,0.0,0.0));
#377=SURFACE_STYLE_FILL_AREA(#557);
#378=ORIENTED_EDGE('',*,*,#541,.T.);
#379=ORIENTED_EDGE('',*,*,#556,.T.);
#380=ORIENTED_EDGE('',*,*,#543,.T.);
#381=ORIENTED_EDGE('',*,*,#547,.T.);
#382=CARTESIAN_POINT('',(0.0,0.0,-34.0));
#383=DIRECTION('',(-0.0,-0.0,1.0));
#384=DIRECTION('',(1.0,0.0,0.0));
#385=SURFACE_STYLE_FILL_AREA(#558);
#386=SURFACE_STYLE_FILL_AREA(#559);
#387=ORIENTED_EDGE('',*,*,#560,.F.);
#388=ORIENTED_EDGE('',*,*,#561,.T.);
#389=ORIENTED_EDGE('',*,*,#562,.T.);
#390=ORIENTED_EDGE('',*,*,#563,.T.);
#391=ORIENTED_EDGE('',*,*,#564,.F.);
#392=CARTESIAN_POINT('',(0.0,0.0,-1.77635683940025E-15));
#393=DIRECTION('',(0.0,0.0,1.0));
#394=DIRECTION('',(1.0,0.0,0.0));
#395=SURFACE_STYLE_FILL_AREA(#565);
#396=ORIENTED_EDGE('',*,*,#566,.T.);
#397=ORIENTED_EDGE('',*,*,#567,.T.);
#398=ORIENTED_EDGE('',*,*,#568,.F.);
#399=ORIENTED_EDGE('',*,*,#569,.T.);
#400=ORIENTED_EDGE('',*,*,#570,.F.);
#401=CARTESIAN_POINT('',(0.0,0.0,-10.4266045438797));
#402=DIRECTION('',(-0.0,-0.0,1.0));
#403=DIRECTION('',(1.0,0.0,0.0));
#404=SURFACE_STYLE_FILL_AREA(#571);
#405=ORIENTED_EDGE('',*,*,#572,.F.);
#406=ORIENTED_EDGE('',*,*,#573,.T.);
#407=ORIENTED_EDGE('',*,*,#574,.F.);
#408=ORIENTED_EDGE('',*,*,#575,.F.);
#409=CARTESIAN_POINT('',(0.0,1.5,0.0));
#410=DIRECTION('',(-0.0,1.0,-0.0));
#411=DIRECTION('',(1.0,0.0,0.0));
#412=SURFACE_STYLE_FILL_AREA(#576);
#413=ORIENTED_EDGE('',*,*,#577,.F.);
#414=ORIENTED_EDGE('',*,*,#578,.T.);
#415=ORIENTED_EDGE('',*,*,#579,.F.);
#416=ORIENTED_EDGE('',*,*,#580,.F.);
#417=CARTESIAN_POINT('',(0.0,-1.5,0.0));
#418=DIRECTION('',(-0.0,-1.0,-0.0));
#419=DIRECTION('',(-1.0,0.0,0.0));
#420=SURFACE_STYLE_FILL_AREA(#581);
#421=ORIENTED_EDGE('',*,*,#582,.F.);
#422=ORIENTED_EDGE('',*,*,#573,.F.);
#423=ORIENTED_EDGE('',*,*,#583,.F.);
#424=ORIENTED_EDGE('',*,*,#584,.F.);
#425=CARTESIAN_POINT('',(0.0,0.0,0.0));
#426=DIRECTION('',(0.0,0.0,1.0));
#427=DIRECTION('',(1.0,0.0,0.0));
#428=SURFACE_STYLE_FILL_AREA(#585);
#429=ORIENTED_EDGE('',*,*,#583,.T.);
#430=ORIENTED_EDGE('',*,*,#584,.T.);
#431=ORIENTED_EDGE('',*,*,#586,.F.);
#432=ORIENTED_EDGE('',*,*,#578,.F.);
#433=CARTESIAN_POINT('',(0.0,0.0,0.0));
#434=DIRECTION('',(0.0,0.0,1.0));
#435=DIRECTION('',(1.0,0.0,0.0));
#436=SURFACE_STYLE_FILL_AREA(#587);
#437=ORIENTED_EDGE('',*,*,#577,.T.);
#438=ORIENTED_EDGE('',*,*,#588,.F.);
#439=ORIENTED_EDGE('',*,*,#579,.T.);
#440=ORIENTED_EDGE('',*,*,#586,.T.);
#441=CARTESIAN_POINT('',(0.0,-1.5,0.0));
#442=DIRECTION('',(-0.0,-1.0,-0.0));
#443=DIRECTION('',(-1.0,0.0,0.0));
#444=SURFACE_STYLE_FILL_AREA(#589);
#445=ORIENTED_EDGE('',*,*,#572,.T.);
#446=ORIENTED_EDGE('',*,*,#590,.F.);
#447=ORIENTED_EDGE('',*,*,#574,.T.);
#448=ORIENTED_EDGE('',*,*,#582,.T.);
#449=CARTESIAN_POINT('',(0.0,1.5,0.0));
#450=DIRECTION('',(-0.0,1.0,-0.0));
#451=DIRECTION('',(1.0,0.0,0.0));
#452=SURFACE_STYLE_FILL_AREA(#591);
#453=ORIENTED_EDGE('',*,*,#580,.T.);
#454=ORIENTED_EDGE('',*,*,#588,.T.);
#455=ORIENTED_EDGE('',*,*,#592,.F.);
#456=ORIENTED_EDGE('',*,*,#569,.F.);
#457=CARTESIAN_POINT('',(0.0,-3.0,0.0));
#458=DIRECTION('',(0.0,-1.0,0.0));
#459=DIRECTION('',(0.0,0.0,-1.0));
#460=SURFACE_STYLE_FILL_AREA(#593);
#461=ORIENTED_EDGE('',*,*,#566,.F.);
#462=ORIENTED_EDGE('',*,*,#563,.F.);
#463=ORIENTED_EDGE('',*,*,#594,.T.);
#464=ORIENTED_EDGE('',*,*,#561,.F.);
#465=ORIENTED_EDGE('',*,*,#567,.F.);
#466=CARTESIAN_POINT('',(0.0,0.0,-10.4266045438797));
#467=DIRECTION('',(-0.0,-0.0,1.0));
#468=DIRECTION('',(1.0,0.0,0.0));
#469=SURFACE_STYLE_FILL_AREA(#595);
#470=ORIENTED_EDGE('',*,*,#575,.T.);
#471=ORIENTED_EDGE('',*,*,#590,.T.);
#472=ORIENTED_EDGE('',*,*,#594,.F.);
#473=ORIENTED_EDGE('',*,*,#562,.F.);
#474=CARTESIAN_POINT('',(0.0,3.0,0.0));
#475=DIRECTION('',(0.0,1.0,0.0));
#476=DIRECTION('',(0.0,0.0,1.0));
#477=SURFACE_STYLE_FILL_AREA(#596);
#478=ORIENTED_EDGE('',*,*,#560,.T.);
#479=ORIENTED_EDGE('',*,*,#564,.T.);
#480=ORIENTED_EDGE('',*,*,#570,.T.);
#481=ORIENTED_EDGE('',*,*,#592,.T.);
#482=ORIENTED_EDGE('',*,*,#568,.T.);
#483=CARTESIAN_POINT('',(0.0,0.0,-1.77635683940025E-15));
#484=DIRECTION('',(0.0,0.0,1.0));
#485=DIRECTION('',(1.0,0.0,0.0));
#486=SURFACE_STYLE_FILL_AREA(#597);
#487=SURFACE_STYLE_FILL_AREA(#598);
#488=ORIENTED_EDGE('',*,*,#599,.F.);
#489=ORIENTED_EDGE('',*,*,#600,.T.);
#490=ORIENTED_EDGE('',*,*,#601,.F.);
#491=ORIENTED_EDGE('',*,*,#602,.F.);
#492=ORIENTED_EDGE('',*,*,#603,.T.);
#493=ORIENTED_EDGE('',*,*,#604,.F.);
#494=CARTESIAN_POINT('',(0.0,0.0,0.0));
#495=DIRECTION('',(0.0,0.0,1.0));
#496=DIRECTION('',(0.0,1.0,0.0));
#497=SURFACE_STYLE_FILL_AREA(#605);
#498=ORIENTED_EDGE('',*,*,#606,.F.);
#499=ORIENTED_EDGE('',*,*,#607,.T.);
#500=ORIENTED_EDGE('',*,*,#608,.F.);
#501=ORIENTED_EDGE('',*,*,#609,.T.);
#502=CARTESIAN_POINT('',(0.0,0.0,0.0));
#503=DIRECTION('',(0.0,1.0,0.0));
#504=DIRECTION('',(0.0,0.0,-1.0));
#505=SURFACE_STYLE_FILL_AREA(#610);
#506=ORIENTED_EDGE('',*,*,#611,.F.);
#507=ORIENTED_EDGE('',*,*,#603,.F.);
#508=ORIENTED_EDGE('',*,*,#609,.F.);
#509=ORIENTED_EDGE('',*,*,#612,.F.);
#510=CARTESIAN_POINT('',(0.0,-4.0,0.0));
#511=DIRECTION('',(0.0,-1.0,0.0));
#512=DIRECTION('',(0.0,0.0,1.0));
#513=SURFACE_STYLE_FILL_AREA(#613);
#514=ORIENTED_EDGE('',*,*,#614,.F.);
#515=ORIENTED_EDGE('',*,*,#600,.F.);
#516=ORIENTED_EDGE('',*,*,#615,.F.);
#517=ORIENTED_EDGE('',*,*,#607,.F.);
#518=CARTESIAN_POINT('',(0.0,4.0,0.0));
#519=DIRECTION('',(0.0,1.0,0.0));
#520=DIRECTION('',(0.0,0.0,-1.0));
#521=SURFACE_STYLE_FILL_AREA(#616);
#522=ORIENTED_EDGE('',*,*,#606,.T.);
#523=ORIENTED_EDGE('',*,*,#612,.T.);
#524=ORIENTED_EDGE('',*,*,#608,.T.);
#525=ORIENTED_EDGE('',*,*,#615,.T.);
#526=CARTESIAN_POINT('',(0.0,0.0,0.0));
#527=DIRECTION('',(0.0,1.0,0.0));
#528=DIRECTION('',(0.0,0.0,-1.0));
#529=SURFACE_STYLE_FILL_AREA(#617);
#530=ORIENTED_EDGE('',*,*,#599,.T.);
#531=ORIENTED_EDGE('',*,*,#604,.T.);
#532=ORIENTED_EDGE('',*,*,#611,.T.);
#533=ORIENTED_EDGE('',*,*,#602,.T.);
#534=ORIENTED_EDGE('',*,*,#601,.T.);
#535=ORIENTED_EDGE('',*,*,#614,.T.);
#536=CARTESIAN_POINT('',(0.0,0.0,0.0));
#537=DIRECTION('',(0.0,0.0,1.0));
#538=DIRECTION('',(0.0,1.0,0.0));
#539=SURFACE_STYLE_FILL_AREA(#618);
#540=FILL_AREA_STYLE('',(#619));
#541=EDGE_CURVE('',#620,#621,#622,.T.);
#542=EDGE_CURVE('',#620,#623,#624,.T.);
#543=EDGE_CURVE('',#625,#623,#626,.T.);
#544=EDGE_CURVE('',#625,#621,#627,.T.);
#545=FILL_AREA_STYLE('',(#628));
#546=EDGE_CURVE('',#620,#629,#630,.T.);
#547=EDGE_CURVE('',#623,#620,#631,.T.);
#548=EDGE_CURVE('',#632,#623,#633,.T.);
#549=EDGE_CURVE('',#632,#629,#634,.T.);
#550=FILL_AREA_STYLE('',(#635));
#551=EDGE_CURVE('',#629,#632,#636,.T.);
#552=FILL_AREA_STYLE('',(#637));
#553=EDGE_CURVE('',#629,#632,#638,.T.);
#554=FILL_AREA_STYLE('',(#639));
#555=FILL_AREA_STYLE('',(#640));
#556=EDGE_CURVE('',#621,#625,#641,.T.);
#557=FILL_AREA_STYLE('',(#642));
#558=FILL_AREA_STYLE('',(#643));
#559=FILL_AREA_STYLE('',(#644));
#560=EDGE_CURVE('',#645,#646,#647,.T.);
#561=EDGE_CURVE('',#645,#648,#649,.T.);
#562=EDGE_CURVE('',#648,#650,#651,.T.);
#563=EDGE_CURVE('',#650,#652,#653,.T.);
#564=EDGE_CURVE('',#646,#652,#654,.T.);
#565=FILL_AREA_STYLE('',(#655));
#566=EDGE_CURVE('',#652,#656,#657,.T.);
#567=EDGE_CURVE('',#656,#645,#658,.T.);
#568=EDGE_CURVE('',#659,#645,#660,.T.);
#569=EDGE_CURVE('',#659,#661,#662,.T.);
#570=EDGE_CURVE('',#652,#661,#663,.T.);
#571=FILL_AREA_STYLE('',(#664));
#572=EDGE_CURVE('',#665,#666,#667,.T.);
#573=EDGE_CURVE('',#665,#668,#669,.T.);
#574=EDGE_CURVE('',#670,#668,#671,.T.);
#575=EDGE_CURVE('',#666,#670,#672,.T.);
#576=FILL_AREA_STYLE('',(#673));
#577=EDGE_CURVE('',#674,#675,#676,.T.);
#578=EDGE_CURVE('',#674,#677,#678,.T.);
#579=EDGE_CURVE('',#679,#677,#680,.T.);
#580=EDGE_CURVE('',#675,#679,#681,.T.);
#581=FILL_AREA_STYLE('',(#682));
#582=EDGE_CURVE('',#668,#665,#683,.T.);
#583=EDGE_CURVE('',#684,#685,#686,.T.);
#584=EDGE_CURVE('',#685,#684,#687,.T.);
#585=FILL_AREA_STYLE('',(#688));
#586=EDGE_CURVE('',#677,#674,#689,.T.);
#587=FILL_AREA_STYLE('',(#690));
#588=EDGE_CURVE('',#679,#675,#691,.T.);
#589=FILL_AREA_STYLE('',(#692));
#590=EDGE_CURVE('',#670,#666,#693,.T.);
#591=FILL_AREA_STYLE('',(#694));
#592=EDGE_CURVE('',#661,#659,#695,.T.);
#593=FILL_AREA_STYLE('',(#696));
#594=EDGE_CURVE('',#650,#648,#697,.T.);
#595=FILL_AREA_STYLE('',(#698));
#596=FILL_AREA_STYLE('',(#699));
#597=FILL_AREA_STYLE('',(#700));
#598=FILL_AREA_STYLE('',(#701));
#599=EDGE_CURVE('',#702,#703,#704,.T.);
#600=EDGE_CURVE('',#702,#705,#706,.T.);
#601=EDGE_CURVE('',#707,#705,#708,.T.);
#602=EDGE_CURVE('',#709,#707,#710,.T.);
#603=EDGE_CURVE('',#709,#711,#712,.T.);
#604=EDGE_CURVE('',#703,#711,#713,.T.);
#605=FILL_AREA_STYLE('',(#714));
#606=EDGE_CURVE('',#715,#716,#717,.T.);
#607=EDGE_CURVE('',#715,#718,#719,.T.);
#608=EDGE_CURVE('',#720,#718,#721,.T.);
#609=EDGE_CURVE('',#720,#716,#722,.T.);
#610=FILL_AREA_STYLE('',(#723));
#611=EDGE_CURVE('',#711,#709,#724,.T.);
#612=EDGE_CURVE('',#716,#720,#725,.T.);
#613=FILL_AREA_STYLE('',(#726));
#614=EDGE_CURVE('',#705,#702,#727,.T.);
#615=EDGE_CURVE('',#718,#715,#728,.T.);
#616=FILL_AREA_STYLE('',(#729));
#617=FILL_AREA_STYLE('',(#730));
#618=FILL_AREA_STYLE('',(#731));
#619=FILL_AREA_STYLE_COLOUR('',#732);
#620=VERTEX_POINT('',#733);
#621=VERTEX_POINT('',#734);
#622=LINE('',#735,#736);
#623=VERTEX_POINT('',#737);
#624=CIRCLE('',#738,2.5);
#625=VERTEX_POINT('',#739);
#626=LINE('',#740,#741);
#627=CIRCLE('',#742,2.25);
#628=FILL_AREA_STYLE_COLOUR('',#743);
#629=VERTEX_POINT('',#744);
#630=LINE('',#745,#746);
#631=CIRCLE('',#747,2.5);
#632=VERTEX_POINT('',#748);
#633=LINE('',#749,#750);
#634=ELLIPSE('',#751,4.99999999999521,2.5);
#635=FILL_AREA_STYLE_COLOUR('',#752);
#636=LINE('',#753,#754);
#637=FILL_AREA_STYLE_COLOUR('',#755);
#638=ELLIPSE('',#756,4.99999999999521,2.5);
#639=FILL_AREA_STYLE_COLOUR('',#757);
#640=FILL_AREA_STYLE_COLOUR('',#758);
#641=CIRCLE('',#759,2.25);
#642=FILL_AREA_STYLE_COLOUR('',#760);
#643=FILL_AREA_STYLE_COLOUR('',#761);
#644=FILL_AREA_STYLE_COLOUR('',#762);
#645=VERTEX_POINT('',#763);
#646=VERTEX_POINT('',#764);
#647=CIRCLE('',#765,9.00000000000001);
#648=VERTEX_POINT('',#766);
#649=CIRCLE('',#767,7.37236839860092);
#650=VERTEX_POINT('',#768);
#651=CIRCLE('',#769,8.48528137423858);
#652=VERTEX_POINT('',#770);
#653=CIRCLE('',#771,7.37236839860092);
#654=CIRCLE('',#772,9.00000000000001);
#655=FILL_AREA_STYLE_COLOUR('',#773);
#656=VERTEX_POINT('',#774);
#657=LINE('',#775,#776);
#658=LINE('',#777,#778);
#659=VERTEX_POINT('',#779);
#660=CIRCLE('',#780,7.37236839860092);
#661=VERTEX_POINT('',#781);
#662=(B_SPLINE_CURVE(2,(#783,#784,#785),.UNSPECIFIED.,.F.,.F.)B_SPLINE_CURVE_WITH_KNOTS((3,3),(0.0,18.3678210412389),.UNSPECIFIED.)RATIONAL_B_SPLINE_CURVE((1.0,2.45745613286698,1.0))BOUNDED_CURVE()REPRESENTATION_ITEM('')GEOMETRIC_REPRESENTATION_ITEM()CURVE());
#663=CIRCLE('',#792,7.37236839860092);
#664=FILL_AREA_STYLE_COLOUR('',#793);
#665=VERTEX_POINT('',#794);
#666=VERTEX_POINT('',#795);
#667=LINE('',#796,#797);
#668=VERTEX_POINT('',#798);
#669=CIRCLE('',#799,5.1966269355082);
#670=VERTEX_POINT('',#800);
#671=LINE('',#801,#802);
#672=CIRCLE('',#803,8.0);
#673=FILL_AREA_STYLE_COLOUR('',#804);
#674=VERTEX_POINT('',#805);
#675=VERTEX_POINT('',#806);
#676=LINE('',#807,#808);
#677=VERTEX_POINT('',#809);
#678=CIRCLE('',#810,5.1966269355082);
#679=VERTEX_POINT('',#811);
#680=LINE('',#812,#813);
#681=CIRCLE('',#814,8.0);
#682=FILL_AREA_STYLE_COLOUR('',#815);
#683=CIRCLE('',#816,5.1966269355082);
#684=VERTEX_POINT('',#817);
#685=VERTEX_POINT('',#818);
#686=CIRCLE('',#819,5.55);
#687=CIRCLE('',#820,5.55);
#688=FILL_AREA_STYLE_COLOUR('',#821);
#689=CIRCLE('',#822,5.1966269355082);
#690=FILL_AREA_STYLE_COLOUR('',#823);
#691=CIRCLE('',#824,8.0);
#692=FILL_AREA_STYLE_COLOUR('',#825);
#693=CIRCLE('',#826,8.0);
#694=FILL_AREA_STYLE_COLOUR('',#827);
#695=CIRCLE('',#828,8.48528137423858);
#696=FILL_AREA_STYLE_COLOUR('',#829);
#697=(B_SPLINE_CURVE(2,(#831,#832,#833),.UNSPECIFIED.,.F.,.F.)B_SPLINE_CURVE_WITH_KNOTS((3,3),(0.0,18.3678210412389),.UNSPECIFIED.)RATIONAL_B_SPLINE_CURVE((1.0,2.45745613286698,1.0))BOUNDED_CURVE()REPRESENTATION_ITEM('')GEOMETRIC_REPRESENTATION_ITEM()CURVE());
#698=FILL_AREA_STYLE_COLOUR('',#840);
#699=FILL_AREA_STYLE_COLOUR('',#841);
#700=FILL_AREA_STYLE_COLOUR('',#842);
#701=FILL_AREA_STYLE_COLOUR('',#843);
#702=VERTEX_POINT('',#844);
#703=VERTEX_POINT('',#845);
#704=CIRCLE('',#846,5.55);
#705=VERTEX_POINT('',#847);
#706=CIRCLE('',#848,3.84740172064213);
#707=VERTEX_POINT('',#849);
#708=CIRCLE('',#850,5.55);
#709=VERTEX_POINT('',#851);
#710=CIRCLE('',#852,5.55);
#711=VERTEX_POINT('',#853);
#712=CIRCLE('',#854,3.84740172064213);
#713=CIRCLE('',#855,5.55);
#714=FILL_AREA_STYLE_COLOUR('',#856);
#715=VERTEX_POINT('',#857);
#716=VERTEX_POINT('',#858);
#717=LINE('',#859,#860);
#718=VERTEX_POINT('',#861);
#719=CIRCLE('',#862,2.5);
#720=VERTEX_POINT('',#863);
#721=LINE('',#864,#865);
#722=CIRCLE('',#866,2.5);
#723=FILL_AREA_STYLE_COLOUR('',#867);
#724=CIRCLE('',#868,3.84740172064213);
#725=CIRCLE('',#869,2.5);
#726=FILL_AREA_STYLE_COLOUR('',#870);
#727=CIRCLE('',#871,3.84740172064213);
#728=CIRCLE('',#872,2.5);
#729=FILL_AREA_STYLE_COLOUR('',#873);
#730=FILL_AREA_STYLE_COLOUR('',#874);
#731=FILL_AREA_STYLE_COLOUR('',#875);
#732=COLOUR_RGB('',0.501960813999176,0.501960813999176,0.501960813999176);
#733=CARTESIAN_POINT('',(2.5,0.0,-32.75));
#734=CARTESIAN_POINT('',(2.25,2.75545529808154E-16,-33.0));
#735=CARTESIAN_POINT('',(1.25,1.53080849893419E-16,-34.0));
#736=VECTOR('',#876,1.0);
#737=CARTESIAN_POINT('',(-2.5,3.06161699786838E-16,-32.75));
#738=AXIS2_PLACEMENT_3D('',#877,#878,#879);
#739=CARTESIAN_POINT('',(-2.25,-2.75545529808154E-16,-33.0));
#740=CARTESIAN_POINT('',(-1.25,-1.53080849893419E-16,-34.0));
#741=VECTOR('',#880,1.0);
#742=AXIS2_PLACEMENT_3D('',#881,#882,#883);
#743=COLOUR_RGB('',0.501960813999176,0.501960813999176,0.501960813999176);
#744=CARTESIAN_POINT('',(2.5,0.0,-6.9038475773));
#745=CARTESIAN_POINT('',(2.5,-3.06161699786838E-16,-19.3025));
#746=VECTOR('',#884,1.0);
#747=AXIS2_PLACEMENT_3D('',#885,#886,#887);
#748=CARTESIAN_POINT('',(-2.5,0.0,-6.9038475773));
#749=CARTESIAN_POINT('',(-2.5,3.06161699786838E-16,-19.3025));
#750=VECTOR('',#888,1.0);
#751=AXIS2_PLACEMENT_3D('',#889,#890,#891);
#752=COLOUR_RGB('',0.501960813999176,0.501960813999176,0.501960813999176);
#753=CARTESIAN_POINT('',(0.0,1.77635683940025E-15,-6.9038475773));
#754=VECTOR('',#892,1.0);
#755=COLOUR_RGB('',0.501960813999176,0.501960813999176,0.501960813999176);
#756=AXIS2_PLACEMENT_3D('',#893,#894,#895);
#757=COLOUR_RGB('',0.501960813999176,0.501960813999176,0.501960813999176);
#758=COLOUR_RGB('',0.501960813999176,0.501960813999176,0.501960813999176);
#759=AXIS2_PLACEMENT_3D('',#896,#897,#898);
#760=COLOUR_RGB('',0.501960813999176,0.501960813999176,0.501960813999176);
#761=COLOUR_RGB('',0.501960813999176,0.501960813999176,0.501960813999176);
#762=COLOUR_RGB('',0.501960813999176,0.501960813999176,0.501960813999176);
#763=CARTESIAN_POINT('',(7.37236839860092,-9.02854736148172E-16,-5.16218792715942));
#764=CARTESIAN_POINT('',(0.0,0.0,9.0));
#765=AXIS2_PLACEMENT_3D('',#899,#900,#901);
#766=CARTESIAN_POINT('',(6.73437568039455,3.0,-5.16218792715942));
#767=AXIS2_PLACEMENT_3D('',#902,#903,#904);
#768=CARTESIAN_POINT('',(-6.73437568039455,3.0,-5.16218792715942));
#769=AXIS2_PLACEMENT_3D('',#905,#906,#907);
#770=CARTESIAN_POINT('',(-7.37236839860092,9.02854736148171E-16,-5.16218792715942));
#771=AXIS2_PLACEMENT_3D('',#908,#909,#910);
#772=AXIS2_PLACEMENT_3D('',#911,#912,#913);
#773=COLOUR_RGB('',0.501960813999176,0.501960813999176,0.501960813999176);
#774=CARTESIAN_POINT('',(0.0,0.0,-15.6910211606));
#775=CARTESIAN_POINT('',(-3.68618419930046,4.51427368074086E-16,-10.4266045438797));
#776=VECTOR('',#914,1.0);
#777=CARTESIAN_POINT('',(3.68618419930046,-4.51427368074086E-16,-10.4266045438797));
#778=VECTOR('',#915,1.0);
#779=CARTESIAN_POINT('',(6.73437568039455,-3.0,-5.16218792715942));
#780=AXIS2_PLACEMENT_3D('',#916,#917,#918);
#781=CARTESIAN_POINT('',(-6.73437568039455,-3.0,-5.16218792715942));
#783=CARTESIAN_POINT('',(6.73437568039455,-3.0,-5.16218792715942));
#784=CARTESIAN_POINT('',(0.0,-3.0,-13.9475743649772));
#785=CARTESIAN_POINT('',(-6.73437568039455,-3.0,-5.16218792715942));
#792=AXIS2_PLACEMENT_3D('',#919,#920,#921);
#793=COLOUR_RGB('',0.501960813999176,0.501960813999176,0.501960813999176);
#794=CARTESIAN_POINT('',(5.1966269355082,1.94873510081557,-6.36403254293303E-16));
#795=CARTESIAN_POINT('',(8.0,3.0,0.0));
#796=CARTESIAN_POINT('',(4.0,1.5,-4.89858719658941E-16));
#797=VECTOR('',#922,1.0);
#798=CARTESIAN_POINT('',(-5.1966269355082,1.94873510081557,-6.36403254293303E-16));
#799=AXIS2_PLACEMENT_3D('',#923,#924,#925);
#800=CARTESIAN_POINT('',(-8.0,3.0,9.79717439317882E-16));
#801=CARTESIAN_POINT('',(-4.0,1.5,4.89858719658941E-16));
#802=VECTOR('',#926,1.0);
#803=AXIS2_PLACEMENT_3D('',#927,#928,#929);
#804=COLOUR_RGB('',0.501960813999176,0.501960813999176,0.501960813999176);
#805=CARTESIAN_POINT('',(-5.1966269355082,-1.94873510081557,-6.36403254293303E-16));
#806=CARTESIAN_POINT('',(-8.0,-3.0,0.0));
#807=CARTESIAN_POINT('',(-4.0,-1.5,-4.89858719658941E-16));
#808=VECTOR('',#930,1.0);
#809=CARTESIAN_POINT('',(5.1966269355082,-1.94873510081557,-6.36403254293303E-16));
#810=AXIS2_PLACEMENT_3D('',#931,#932,#933);
#811=CARTESIAN_POINT('',(8.0,-3.0,9.79717439317882E-16));
#812=CARTESIAN_POINT('',(4.0,-1.5,4.89858719658941E-16));
#813=VECTOR('',#934,1.0);
#814=AXIS2_PLACEMENT_3D('',#935,#936,#937);
#815=COLOUR_RGB('',0.501960813999176,0.501960813999176,0.501960813999176);
#816=AXIS2_PLACEMENT_3D('',#938,#939,#940);
#817=CARTESIAN_POINT('',(-6.79678973526781E-16,8.32366679377331E-32,-5.55));
#818=CARTESIAN_POINT('',(0.0,0.0,5.55));
#819=AXIS2_PLACEMENT_3D('',#941,#942,#943);
#820=AXIS2_PLACEMENT_3D('',#944,#945,#946);
#821=COLOUR_RGB('',0.501960813999176,0.501960813999176,0.501960813999176);
#822=AXIS2_PLACEMENT_3D('',#947,#948,#949);
#823=COLOUR_RGB('',0.501960813999176,0.501960813999176,0.501960813999176);
#824=AXIS2_PLACEMENT_3D('',#950,#951,#952);
#825=COLOUR_RGB('',0.501960813999176,0.501960813999176,0.501960813999176);
#826=AXIS2_PLACEMENT_3D('',#953,#954,#955);
#827=COLOUR_RGB('',0.501960813999176,0.501960813999176,0.501960813999176);
#828=AXIS2_PLACEMENT_3D('',#956,#957,#958);
#829=COLOUR_RGB('',0.501960813999176,0.501960813999176,0.501960813999176);
#831=CARTESIAN_POINT('',(-6.73437568039455,3.0,-5.16218792715942));
#832=CARTESIAN_POINT('',(0.0,3.0,-13.9475743649772));
#833=CARTESIAN_POINT('',(6.73437568039455,3.0,-5.16218792715942));
#840=COLOUR_RGB('',0.501960813999176,0.501960813999176,0.501960813999176);
#841=COLOUR_RGB('',0.501960813999176,0.501960813999176,0.501960813999176);
#842=COLOUR_RGB('',0.501960813999176,0.501960813999176,0.501960813999176);
#843=COLOUR_RGB('',0.941176474094391,0.839215695858002,0.670588254928589);
#844=CARTESIAN_POINT('',(4.89858719658941E-16,4.0,3.84740172064213));
#845=CARTESIAN_POINT('',(0.0,0.0,5.55));
#846=AXIS2_PLACEMENT_3D('',#959,#960,#961);
#847=CARTESIAN_POINT('',(4.7117082022184E-16,4.0,-3.84740172064213));
#848=AXIS2_PLACEMENT_3D('',#962,#963,#964);
#849=CARTESIAN_POINT('',(0.0,0.0,-5.55));
#850=AXIS2_PLACEMENT_3D('',#965,#966,#967);
#851=CARTESIAN_POINT('',(-4.89858719658941E-16,-4.0,-3.84740172064213));
#852=AXIS2_PLACEMENT_3D('',#968,#969,#970);
#853=CARTESIAN_POINT('',(4.7117082022184E-16,-4.0,3.84740172064213));
#854=AXIS2_PLACEMENT_3D('',#971,#972,#973);
#855=AXIS2_PLACEMENT_3D('',#974,#975,#976);
#856=COLOUR_RGB('',0.941176474094391,0.839215695858002,0.670588254928589);
#857=CARTESIAN_POINT('',(3.06161699786838E-16,4.0,-2.5));
#858=CARTESIAN_POINT('',(3.06161699786838E-16,-4.0,-2.5));
#859=CARTESIAN_POINT('',(3.06161699786838E-16,0.0,-2.5));
#860=VECTOR('',#977,1.0);
#861=CARTESIAN_POINT('',(3.06161699786838E-16,4.0,2.5));
#862=AXIS2_PLACEMENT_3D('',#978,#979,#980);
#863=CARTESIAN_POINT('',(-3.06161699786838E-16,-4.0,2.5));
#864=CARTESIAN_POINT('',(-3.06161699786838E-16,0.0,2.5));
#865=VECTOR('',#981,1.0);
#866=AXIS2_PLACEMENT_3D('',#982,#983,#984);
#867=COLOUR_RGB('',0.941176474094391,0.839215695858002,0.670588254928589);
#868=AXIS2_PLACEMENT_3D('',#985,#986,#987);
#869=AXIS2_PLACEMENT_3D('',#988,#989,#990);
#870=COLOUR_RGB('',0.941176474094391,0.839215695858002,0.670588254928589);
#871=AXIS2_PLACEMENT_3D('',#991,#992,#993);
#872=AXIS2_PLACEMENT_3D('',#994,#995,#996);
#873=COLOUR_RGB('',0.941176474094391,0.839215695858002,0.670588254928589);
#874=COLOUR_RGB('',0.941176474094391,0.839215695858002,0.670588254928589);
#875=COLOUR_RGB('',0.941176474094391,0.839215695858002,0.670588254928589);
#876=DIRECTION('',(-0.707106781186547,-8.65956056235493E-17,-0.707106781186548));
#877=CARTESIAN_POINT('',(0.0,0.0,-32.75));
#878=DIRECTION('',(0.0,0.0,-1.0));
#879=DIRECTION('',(1.0,0.0,0.0));
#880=DIRECTION('',(-0.707106781186547,-8.65956056235493E-17,0.707106781186548));
#881=CARTESIAN_POINT('',(0.0,0.0,-33.0));
#882=DIRECTION('',(0.0,0.0,1.0));
#883=DIRECTION('',(1.0,0.0,0.0));
#884=DIRECTION('',(0.0,0.0,1.0));
#885=CARTESIAN_POINT('',(0.0,0.0,-32.75));
#886=DIRECTION('',(0.0,0.0,-1.0));
#887=DIRECTION('',(1.0,0.0,0.0));
#888=DIRECTION('',(-0.0,-0.0,-1.0));
#889=CARTESIAN_POINT('',(0.0,0.0,-6.9038475773));
#890=DIRECTION('',(0.0,-0.866025403784162,-0.500000000000479));
#891=DIRECTION('',(0.0,0.500000000000479,-0.866025403784162));
#892=DIRECTION('',(-1.0,0.0,-0.0));
#893=CARTESIAN_POINT('',(0.0,0.0,-6.9038475773));
#894=DIRECTION('',(0.0,0.866025403784162,-0.500000000000479));
#895=DIRECTION('',(0.0,0.500000000000479,0.866025403784162));
#896=CARTESIAN_POINT('',(0.0,0.0,-33.0));
#897=DIRECTION('',(0.0,0.0,1.0));
#898=DIRECTION('',(1.0,0.0,0.0));
#899=CARTESIAN_POINT('',(0.0,0.0,-1.77635683940025E-15));
#900=DIRECTION('',(-1.22464679914735E-16,-1.0,0.0));
#901=DIRECTION('',(0.0,0.0,1.0));
#902=CARTESIAN_POINT('',(0.0,0.0,-5.16218792715942));
#903=DIRECTION('',(0.0,0.0,1.0));
#904=DIRECTION('',(1.0,0.0,0.0));
#905=CARTESIAN_POINT('',(0.0,3.0,-1.77635683940025E-15));
#906=DIRECTION('',(0.0,-1.0,0.0));
#907=DIRECTION('',(0.0,0.0,1.0));
#908=CARTESIAN_POINT('',(0.0,0.0,-5.16218792715942));
#909=DIRECTION('',(0.0,0.0,1.0));
#910=DIRECTION('',(1.0,0.0,0.0));
#911=CARTESIAN_POINT('',(0.0,0.0,-1.77635683940025E-15));
#912=DIRECTION('',(-1.22464679914735E-16,-1.0,0.0));
#913=DIRECTION('',(0.0,0.0,1.0));
#914=DIRECTION('',(0.573576436350676,-7.02428546843201E-17,-0.819152044289251));
#915=DIRECTION('',(0.573576436350676,-7.02428546843201E-17,0.819152044289251));
#916=CARTESIAN_POINT('',(0.0,0.0,-5.16218792715942));
#917=DIRECTION('',(0.0,0.0,1.0));
#918=DIRECTION('',(1.0,0.0,0.0));
#919=CARTESIAN_POINT('',(0.0,0.0,-5.16218792715942));
#920=DIRECTION('',(0.0,0.0,1.0));
#921=DIRECTION('',(1.0,0.0,0.0));
#922=DIRECTION('',(0.936329177569045,0.351123441588392,-1.1466725302582E-16));
#923=CARTESIAN_POINT('',(0.0,1.94873510081557,0.0));
#924=DIRECTION('',(0.0,-1.0,0.0));
#925=DIRECTION('',(1.0,0.0,0.0));
#926=DIRECTION('',(0.936329177569045,-0.351123441588392,-1.1466725302582E-16));
#927=CARTESIAN_POINT('',(0.0,3.0,0.0));
#928=DIRECTION('',(0.0,-1.0,0.0));
#929=DIRECTION('',(1.0,0.0,0.0));
#930=DIRECTION('',(-0.936329177569045,-0.351123441588392,-1.1466725302582E-16));
#931=CARTESIAN_POINT('',(0.0,-1.94873510081557,0.0));
#932=DIRECTION('',(0.0,1.0,0.0));
#933=DIRECTION('',(-1.0,0.0,0.0));
#934=DIRECTION('',(-0.936329177569045,0.351123441588392,-1.1466725302582E-16));
#935=CARTESIAN_POINT('',(0.0,-3.0,0.0));
#936=DIRECTION('',(0.0,1.0,-0.0));
#937=DIRECTION('',(-1.0,0.0,0.0));
#938=CARTESIAN_POINT('',(0.0,1.94873510081557,0.0));
#939=DIRECTION('',(0.0,-1.0,0.0));
#940=DIRECTION('',(1.0,0.0,0.0));
#941=CARTESIAN_POINT('',(0.0,0.0,0.0));
#942=DIRECTION('',(1.22464679914735E-16,1.0,0.0));
#943=DIRECTION('',(-0.0,0.0,1.0));
#944=CARTESIAN_POINT('',(0.0,0.0,0.0));
#945=DIRECTION('',(1.22464679914735E-16,1.0,0.0));
#946=DIRECTION('',(-0.0,0.0,1.0));
#947=CARTESIAN_POINT('',(0.0,-1.94873510081557,0.0));
#948=DIRECTION('',(0.0,1.0,0.0));
#949=DIRECTION('',(-1.0,0.0,0.0));
#950=CARTESIAN_POINT('',(0.0,-3.0,0.0));
#951=DIRECTION('',(0.0,1.0,-0.0));
#952=DIRECTION('',(-1.0,0.0,0.0));
#953=CARTESIAN_POINT('',(0.0,3.0,0.0));
#954=DIRECTION('',(0.0,-1.0,0.0));
#955=DIRECTION('',(1.0,0.0,0.0));
#956=CARTESIAN_POINT('',(0.0,-3.0,-1.77635683940025E-15));
#957=DIRECTION('',(-0.0,1.0,0.0));
#958=DIRECTION('',(0.0,0.0,-1.0));
#959=CARTESIAN_POINT('',(0.0,0.0,0.0));
#960=DIRECTION('',(1.0,-1.22464679914735E-16,0.0));
#961=DIRECTION('',(0.0,0.0,1.0));
#962=CARTESIAN_POINT('',(0.0,4.0,0.0));
#963=DIRECTION('',(0.0,-1.0,0.0));
#964=DIRECTION('',(0.0,0.0,1.0));
#965=CARTESIAN_POINT('',(0.0,0.0,0.0));
#966=DIRECTION('',(1.0,-1.22464679914735E-16,0.0));
#967=DIRECTION('',(0.0,0.0,1.0));
#968=CARTESIAN_POINT('',(0.0,0.0,0.0));
#969=DIRECTION('',(1.0,-1.22464679914735E-16,0.0));
#970=DIRECTION('',(0.0,0.0,1.0));
#971=CARTESIAN_POINT('',(0.0,-4.0,0.0));
#972=DIRECTION('',(-0.0,1.0,0.0));
#973=DIRECTION('',(0.0,0.0,-1.0));
#974=CARTESIAN_POINT('',(0.0,0.0,0.0));
#975=DIRECTION('',(1.0,-1.22464679914735E-16,0.0));
#976=DIRECTION('',(0.0,0.0,1.0));
#977=DIRECTION('',(-0.0,-1.0,0.0));
#978=CARTESIAN_POINT('',(0.0,4.0,0.0));
#979=DIRECTION('',(0.0,1.0,0.0));
#980=DIRECTION('',(0.0,0.0,-1.0));
#981=DIRECTION('',(-0.0,1.0,0.0));
#982=CARTESIAN_POINT('',(0.0,-4.0,0.0));
#983=DIRECTION('',(0.0,-1.0,0.0));
#984=DIRECTION('',(0.0,0.0,-1.0));
#985=CARTESIAN_POINT('',(0.0,-4.0,0.0));
#986=DIRECTION('',(-0.0,1.0,0.0));
#987=DIRECTION('',(0.0,0.0,-1.0));
#988=CARTESIAN_POINT('',(0.0,-4.0,0.0));
#989=DIRECTION('',(0.0,-1.0,0.0));
#990=DIRECTION('',(0.0,0.0,-1.0));
#991=CARTESIAN_POINT('',(0.0,4.0,0.0));
#992=DIRECTION('',(0.0,-1.0,0.0));
#993=DIRECTION('',(0.0,0.0,1.0));
#994=CARTESIAN_POINT('',(0.0,4.0,0.0));
#995=DIRECTION('',(0.0,1.0,0.0));
#996=DIRECTION('',(0.0,0.0,-1.0));
ENDSEC;
END-ISO-10303-21;
