999
"DXF R12 Output" (www.mydxf.blogspot.com)
 0 
SECTION
 2 
HEADER
 9 
$ACADVER
 1 
AC1009
 9 
$EXTMIN
 10 
 0 
 20 
 0 
 9 
$EXTMAX
 10 
 8.5 
 20 
 11 
 0 
ENDSEC
 0 
SECTION
 2 
ENTITIES
0
POLYLINE
8
0
62
7
70
0
10
0.000000
20
0.000000
66
1
0
VERTEX
8
0
10
92.132299
20
617.732513
70
0
0
VERTEX
8
0
10
92.132299
20
-166.967749
70
0
0
SEQEND
8
0
0
POLYLINE
8
0
62
7
70
0
10
0.000000
20
0.000000
66
1
0
VERTEX
8
0
10
251.131865
20
-166.967749
70
0
0
VERTEX
8
0
10
251.131865
20
617.732513
70
0
0
SEQEND
8
0
0
POLYLINE
8
0
62
7
70
0
10
0.000000
20
0.000000
66
1
0
VERTEX
8
0
10
638.631925
20
-166.967749
70
0
0
VERTEX
8
0
10
638.631925
20
617.732513
70
0
0
SEQEND
8
0
0
POLYLINE
8
0
62
7
70
0
10
0.000000
20
0.000000
66
1
0
VERTEX
8
0
10
450.132413
20
617.732513
70
0
0
VERTEX
8
0
10
450.132413
20
-166.967749
70
0
0
SEQEND
8
0
0
POLYLINE
8
0
62
7
70
0
10
0.000000
20
0.000000
66
1
0
VERTEX
8
0
10
864.130724
20
12.631192
70
0
0
VERTEX
8
0
10
-143.867535
20
12.631192
70
0
0
SEQEND
8
0
0
POLYLINE
8
0
62
7
70
0
10
0.000000
20
0.000000
66
1
0
VERTEX
8
0
10
864.130724
20
437.631923
70
0
0
VERTEX
8
0
10
-143.867535
20
437.631923
70
0
0
SEQEND
8
0
0
POLYLINE
8
0
62
7
70
0
10
0.000000
20
0.000000
66
1
0
VERTEX
8
0
10
569.131263
20
505.131809
70
0
0
VERTEX
8
0
10
569.131263
20
-54.866577
70
0
0
SEQEND
8
0
0
POLYLINE
8
0
62
7
70
0
10
0.000000
20
0.000000
66
1
0
VERTEX
8
0
10
171.132020
20
-54.866577
70
0
0
VERTEX
8
0
10
171.132020
20
505.131809
70
0
0
SEQEND
8
0
0
POLYLINE
8
0
62
7
70
0
10
0.000000
20
0.000000
66
1
0
VERTEX
8
0
10
330.130793
20
505.631606
70
0
0
VERTEX
8
0
10
330.130793
20
-54.366515
70
0
0
SEQEND
8
0
0
POLYLINE
8
0
62
7
70
0
10
0.000000
20
0.000000
66
1
0
VERTEX
8
0
10
12.132269
20
505.631606
70
0
0
VERTEX
8
0
10
12.132269
20
-54.366515
70
0
0
SEQEND
8
0
0
POLYLINE
8
0
62
7
70
0
10
0.000000
20
0.000000
66
1
0
VERTEX
8
0
10
708.132588
20
505.131809
70
0
0
VERTEX
8
0
10
708.132588
20
-54.866577
70
0
0
SEQEND
8
0
0
POLYLINE
8
0
62
7
70
0
10
0.000000
20
0.000000
66
1
0
VERTEX
8
0
10
537.881603
20
91.132259
70
0
0
VERTEX
8
0
10
537.702881
20
92.005927
70
0
0
VERTEX
8
0
10
537.220255
20
92.718955
70
0
0
VERTEX
8
0
10
536.505807
20
93.199475
70
0
0
VERTEX
8
0
10
535.631615
20
93.375619
70
0
0
VERTEX
8
0
10
534.757424
20
93.199475
70
0
0
VERTEX
8
0
10
534.042975
20
92.718955
70
0
0
VERTEX
8
0
10
533.560350
20
92.005927
70
0
0
VERTEX
8
0
10
533.381628
20
91.132259
70
0
0
VERTEX
8
0
10
533.560350
20
90.258591
70
0
0
VERTEX
8
0
10
534.042975
20
89.545563
70
0
0
VERTEX
8
0
10
534.757424
20
89.065043
70
0
0
VERTEX
8
0
10
535.631615
20
88.888899
70
0
0
VERTEX
8
0
10
536.505807
20
89.065043
70
0
0
VERTEX
8
0
10
537.220255
20
89.545563
70
0
0
VERTEX
8
0
10
537.702881
20
90.258591
70
0
0
VERTEX
8
0
10
537.881603
20
91.132259
70
0
0
VERTEX
8
0
10
537.881603
20
91.132259
70
0
0
SEQEND
8
0
0
POLYLINE
8
0
62
7
70
0
10
0.000000
20
0.000000
66
1
0
VERTEX
8
0
10
537.881603
20
41.132324
70
0
0
VERTEX
8
0
10
537.702881
20
42.005992
70
0
0
VERTEX
8
0
10
537.220255
20
42.719020
70
0
0
VERTEX
8
0
10
536.505807
20
43.199540
70
0
0
VERTEX
8
0
10
535.631615
20
43.375684
70
0
0
VERTEX
8
0
10
534.757424
20
43.199540
70
0
0
VERTEX
8
0
10
534.042975
20
42.719020
70
0
0
VERTEX
8
0
10
533.560350
20
42.005992
70
0
0
VERTEX
8
0
10
533.381628
20
41.132324
70
0
0
VERTEX
8
0
10
533.560350
20
40.258656
70
0
0
VERTEX
8
0
10
534.042975
20
39.545628
70
0
0
VERTEX
8
0
10
534.757424
20
39.065108
70
0
0
VERTEX
8
0
10
535.631615
20
38.888964
70
0
0
VERTEX
8
0
10
536.505807
20
39.065108
70
0
0
VERTEX
8
0
10
537.220255
20
39.545628
70
0
0
VERTEX
8
0
10
537.702881
20
40.258656
70
0
0
VERTEX
8
0
10
537.881603
20
41.132324
70
0
0
VERTEX
8
0
10
537.881603
20
41.132324
70
0
0
SEQEND
8
0
0
POLYLINE
8
0
62
7
70
0
10
0.000000
20
0.000000
66
1
0
VERTEX
8
0
10
537.881603
20
141.132196
70
0
0
VERTEX
8
0
10
537.702881
20
142.005864
70
0
0
VERTEX
8
0
10
537.220255
20
142.718892
70
0
0
VERTEX
8
0
10
536.505807
20
143.199412
70
0
0
VERTEX
8
0
10
535.631615
20
143.375556
70
0
0
VERTEX
8
0
10
534.757424
20
143.199412
70
0
0
VERTEX
8
0
10
534.042975
20
142.718892
70
0
0
VERTEX
8
0
10
533.560350
20
142.005864
70
0
0
VERTEX
8
0
10
533.381628
20
141.132196
70
0
0
VERTEX
8
0
10
533.560350
20
140.258528
70
0
0
VERTEX
8
0
10
534.042975
20
139.545500
70
0
0
VERTEX
8
0
10
534.757424
20
139.064980
70
0
0
VERTEX
8
0
10
535.631615
20
138.888836
70
0
0
VERTEX
8
0
10
536.505807
20
139.064980
70
0
0
VERTEX
8
0
10
537.220255
20
139.545500
70
0
0
VERTEX
8
0
10
537.702881
20
140.258528
70
0
0
VERTEX
8
0
10
537.881603
20
141.132196
70
0
0
VERTEX
8
0
10
537.881603
20
141.132196
70
0
0
SEQEND
8
0
0
POLYLINE
8
0
62
7
70
0
10
0.000000
20
0.000000
66
1
0
VERTEX
8
0
10
376.881815
20
169.132161
70
0
0
VERTEX
8
0
10
376.803930
20
169.719225
70
0
0
VERTEX
8
0
10
376.580372
20
170.257161
70
0
0
VERTEX
8
0
10
376.226286
20
170.719736
70
0
0
VERTEX
8
0
10
375.756815
20
171.080718
70
0
0
VERTEX
8
0
10
375.209459
20
171.306800
70
0
0
VERTEX
8
0
10
374.631815
20
171.382161
70
0
0
VERTEX
8
0
10
374.054170
20
171.306800
70
0
0
VERTEX
8
0
10
373.506814
20
171.080718
70
0
0
VERTEX
8
0
10
373.037344
20
170.719736
70
0
0
VERTEX
8
0
10
372.683257
20
170.257161
70
0
0
VERTEX
8
0
10
372.459699
20
169.719225
70
0
0
VERTEX
8
0
10
372.381814
20
169.132161
70
0
0
VERTEX
8
0
10
372.459699
20
168.545096
70
0
0
VERTEX
8
0
10
372.683257
20
168.007160
70
0
0
VERTEX
8
0
10
373.037344
20
167.544586
70
0
0
VERTEX
8
0
10
373.506814
20
167.183603
70
0
0
VERTEX
8
0
10
374.054170
20
166.957521
70
0
0
VERTEX
8
0
10
374.631815
20
166.882160
70
0
0
VERTEX
8
0
10
375.209459
20
166.957521
70
0
0
VERTEX
8
0
10
375.756815
20
167.183603
70
0
0
VERTEX
8
0
10
376.226286
20
167.544586
70
0
0
VERTEX
8
0
10
376.580372
20
168.007160
70
0
0
VERTEX
8
0
10
376.803930
20
168.545096
70
0
0
VERTEX
8
0
10
376.881815
20
169.132161
70
0
0
VERTEX
8
0
10
376.881815
20
169.132161
70
0
0
SEQEND
8
0
0
POLYLINE
8
0
62
7
70
0
10
0.000000
20
0.000000
66
1
0
VERTEX
8
0
10
376.881815
20
119.132223
70
0
0
VERTEX
8
0
10
376.803930
20
119.719288
70
0
0
VERTEX
8
0
10
376.580372
20
120.257223
70
0
0
VERTEX
8
0
10
376.226286
20
120.719798
70
0
0
VERTEX
8
0
10
375.756815
20
121.080781
70
0
0
VERTEX
8
0
10
375.209459
20
121.306863
70
0
0
VERTEX
8
0
10
374.631815
20
121.382224
70
0
0
VERTEX
8
0
10
374.054170
20
121.306863
70
0
0
VERTEX
8
0
10
373.506814
20
121.080781
70
0
0
VERTEX
8
0
10
373.037344
20
120.719798
70
0
0
VERTEX
8
0
10
372.683257
20
120.257223
70
0
0
VERTEX
8
0
10
372.459699
20
119.719288
70
0
0
VERTEX
8
0
10
372.381814
20
119.132223
70
0
0
VERTEX
8
0
10
372.459699
20
118.545158
70
0
0
VERTEX
8
0
10
372.683257
20
118.007223
70
0
0
VERTEX
8
0
10
373.037344
20
117.544648
70
0
0
VERTEX
8
0
10
373.506814
20
117.183665
70
0
0
VERTEX
8
0
10
374.054170
20
116.957583
70
0
0
VERTEX
8
0
10
374.631815
20
116.882222
70
0
0
VERTEX
8
0
10
375.209459
20
116.957583
70
0
0
VERTEX
8
0
10
375.756815
20
117.183665
70
0
0
VERTEX
8
0
10
376.226286
20
117.544648
70
0
0
VERTEX
8
0
10
376.580372
20
118.007223
70
0
0
VERTEX
8
0
10
376.803930
20
118.545158
70
0
0
VERTEX
8
0
10
376.881815
20
119.132223
70
0
0
VERTEX
8
0
10
376.881815
20
119.132223
70
0
0
SEQEND
8
0
0
POLYLINE
8
0
62
7
70
0
10
0.000000
20
0.000000
66
1
0
VERTEX
8
0
10
376.881815
20
69.132288
70
0
0
VERTEX
8
0
10
376.803930
20
69.719353
70
0
0
VERTEX
8
0
10
376.580372
20
70.257288
70
0
0
VERTEX
8
0
10
376.226286
20
70.719863
70
0
0
VERTEX
8
0
10
375.756815
20
71.080846
70
0
0
VERTEX
8
0
10
375.209459
20
71.306928
70
0
0
VERTEX
8
0
10
374.631815
20
71.382289
70
0
0
VERTEX
8
0
10
374.054170
20
71.306928
70
0
0
VERTEX
8
0
10
373.506814
20
71.080846
70
0
0
VERTEX
8
0
10
373.037344
20
70.719863
70
0
0
VERTEX
8
0
10
372.683257
20
70.257288
70
0
0
VERTEX
8
0
10
372.459699
20
69.719353
70
0
0
VERTEX
8
0
10
372.381814
20
69.132288
70
0
0
VERTEX
8
0
10
372.459699
20
68.545223
70
0
0
VERTEX
8
0
10
372.683257
20
68.007288
70
0
0
VERTEX
8
0
10
373.037344
20
67.544713
70
0
0
VERTEX
8
0
10
373.506814
20
67.183730
70
0
0
VERTEX
8
0
10
374.054170
20
66.957648
70
0
0
VERTEX
8
0
10
374.631815
20
66.882288
70
0
0
VERTEX
8
0
10
375.209459
20
66.957648
70
0
0
VERTEX
8
0
10
375.756815
20
67.183730
70
0
0
VERTEX
8
0
10
376.226286
20
67.544713
70
0
0
VERTEX
8
0
10
376.580372
20
68.007288
70
0
0
VERTEX
8
0
10
376.803930
20
68.545223
70
0
0
VERTEX
8
0
10
376.881815
20
69.132288
70
0
0
VERTEX
8
0
10
376.881815
20
69.132288
70
0
0
SEQEND
8
0
0
POLYLINE
8
0
62
7
70
0
10
0.000000
20
0.000000
66
1
0
VERTEX
8
0
10
79.882106
20
35.132388
70
0
0
VERTEX
8
0
10
104.382227
20
35.132388
70
0
0
SEQEND
8
0
0
POLYLINE
8
0
62
7
70
0
10
0.000000
20
0.000000
66
1
0
VERTEX
8
0
10
104.382227
20
415.131785
70
0
0
VERTEX
8
0
10
79.882106
20
415.131785
70
0
0
SEQEND
8
0
0
POLYLINE
8
0
62
7
70
0
10
0.000000
20
0.000000
66
1
0
VERTEX
8
0
10
462.382605
20
415.131785
70
0
0
VERTEX
8
0
10
437.882220
20
415.131785
70
0
0
SEQEND
8
0
0
POLYLINE
8
0
62
7
70
0
10
0.000000
20
0.000000
66
1
0
VERTEX
8
0
10
437.882220
20
185.132164
70
0
0
VERTEX
8
0
10
462.382605
20
185.132164
70
0
0
SEQEND
8
0
0
POLYLINE
8
0
62
7
70
0
10
0.000000
20
0.000000
66
1
0
VERTEX
8
0
10
650.882118
20
415.631847
70
0
0
VERTEX
8
0
10
626.381732
20
415.631847
70
0
0
SEQEND
8
0
0
POLYLINE
8
0
62
7
70
0
10
0.000000
20
0.000000
66
1
0
VERTEX
8
0
10
626.381732
20
35.632450
70
0
0
VERTEX
8
0
10
650.882118
20
35.632450
70
0
0
SEQEND
8
0
0
POLYLINE
8
0
62
7
70
0
10
0.000000
20
0.000000
66
1
0
VERTEX
8
0
10
238.881937
20
35.632450
70
0
0
VERTEX
8
0
10
263.382058
20
35.632450
70
0
0
SEQEND
8
0
0
POLYLINE
8
0
62
7
70
0
10
0.000000
20
0.000000
66
1
0
VERTEX
8
0
10
263.382058
20
415.631847
70
0
0
VERTEX
8
0
10
238.881937
20
415.631847
70
0
0
SEQEND
8
0
0
POLYLINE
8
0
62
7
70
1
10
0.000000
20
0.000000
66
1
0
VERTEX
8
0
10
0.132292
20
450.131808
70
0
0
VERTEX
8
0
10
0.132292
20
0.132370
70
0
0
VERTEX
8
0
10
720.131374
20
0.132370
70
0
0
VERTEX
8
0
10
720.131374
20
450.131808
70
0
0
VERTEX
8
0
10
0.132292
20
450.131808
70
0
0
SEQEND
8
0
 0 
ENDSEC
 0 
EOF