700 0 1 0           
30 Autodesk Translation Framework 20 ASM 231.6.3.65535 NT 24 Tue Jul  7 12:24:42 2026 
1 9.999999999999999547e-07 1.000000000000000036e-10 
body $1 -1 $-1 $2 $-1 $-1 #
rgb_color-st-attrib $-1 -1 $3 $-1 $0 0.7490196078431372584 0.7490196078431372584 0.7490196078431372584 #
lump $-1 -1 $-1 $-1 $4 $0 #
DXID-attrib $-1 -1 $-1 $1 $0 @18 ASM_BODY_FROM_STEP @83 6529F33D06299443007B5E2CD804824FD79966DB|:|8CB3CBCEBE3339AC3139F7812237AD39DB573F35 #
shell $-1 -1 $-1 $-1 $-1 $5 $-1 $2 #
face $6 -1 $-1 $7 $8 $4 $-1 $9 forward single #
DXID-attrib $-1 -1 $-1 $-1 $5 @18 ASM_FACE_FROM_STEP @11 LP40111-359 #
face $10 -1 $-1 $11 $12 $4 $-1 $13 forward single #
loop $-1 -1 $-1 $-1 $14 $5 #
cone-surface $-1 -1 $-1 39.23606797749980046 114 0 0 0 1 -1.051462224238267851 1.701301616704079533 0 1 I I 0 1 2 forward I I I I #
DXID-attrib $-1 -1 $-1 $-1 $7 @18 ASM_FACE_FROM_STEP @11 LP40111-360 #
face $15 -1 $-1 $16 $17 $4 $-1 $18 reversed single #
loop $-1 -1 $-1 $-1 $19 $7 #
plane-surface $-1 -1 $-1 38 116.0000000000000142 0 -0.8944271909999159664 0.4472135954999579832 0 -0.4472135954999579832 -0.8944271909999159664 0 forward_v I I I I #
coedge $-1 -1 $-1 $20 $21 $22 $23 forward $8 $-1 #
DXID-attrib $-1 -1 $-1 $-1 $11 @18 ASM_FACE_FROM_STEP @11 LP40111-361 #
face $24 -1 $-1 $25 $26 $4 $-1 $27 forward single #
loop $-1 -1 $-1 $28 $29 $11 #
plane-surface $-1 -1 $-1 58.00000000000000711 58.00000000000000711 0 0 0 1 1 0 0 forward_v I I I I #
coedge $-1 -1 $-1 $30 $31 $21 $32 reversed $12 $-1 #
coedge $-1 -1 $-1 $33 $14 $34 $35 forward $8 $-1 #
coedge $-1 -1 $-1 $14 $33 $19 $32 forward $8 $-1 #
coedge $-1 -1 $-1 $36 $37 $14 $23 reversed $38 $-1 #
edge $39 -1 $-1 $40 -0.553574358896993246 $41 0.5535743588970456486 $14 $42 forward @7 unknown #
DXID-attrib $-1 -1 $-1 $-1 $16 @18 ASM_FACE_FROM_STEP @11 LP40111-362 #
face $43 -1 $-1 $44 $45 $4 $-1 $46 forward single #
loop $-1 -1 $-1 $-1 $47 $16 #
cone-surface $-1 -1 $-1 2 39.52786404500039907 0 0 0 1 -1.94649797893546106 0.4595058410947203131 0 1 I I 0 1 2.000000000000000444 forward I I I I #
loop $-1 -1 $-1 $48 $49 $11 #
coedge $-1 -1 $-1 $50 $51 $33 $52 reversed $17 $-1 #
coedge $-1 -1 $-1 $53 $19 $51 $54 forward $12 $-1 #
coedge $-1 -1 $-1 $19 $53 $36 $55 reversed $12 $-1 #
edge $56 -1 $-1 $57 0 $40 0.5 $21 $58 forward @14 tangent_not_g2 #
coedge $-1 -1 $-1 $21 $20 $29 $52 forward $8 $-1 #
coedge $-1 -1 $-1 $59 $60 $20 $35 reversed $61 $-1 #
edge $62 -1 $-1 $41 -0.5 $63 0 $20 $64 forward @14 tangent_not_g2 #
coedge $-1 -1 $-1 $65 $22 $31 $55 forward $38 $-1 #
coedge $-1 -1 $-1 $22 $66 $59 $67 forward $38 $-1 #
loop $-1 -1 $-1 $68 $22 $69 #
DXID-attrib $-1 -1 $-1 $-1 $23 @18 ASM_EDGE_FROM_STEP @3 195 #
vertex $-1 -1 $-1 $23 $70 #
vertex $-1 -1 $-1 $23 $71 #
ellipse-curve $-1 -1 $-1 39.23606797749980046 114 5 0 0 -1 -1.051462224238267851 1.701301616704079533 0 1 F -0.553574358896993246 F 0.5535743588970456486 #
DXID-attrib $-1 -1 $-1 $-1 $25 @18 ASM_FACE_FROM_STEP @11 LP40111-363 #
face $72 -1 $-1 $73 $74 $4 $-1 $75 forward single #
loop $-1 -1 $-1 $-1 $76 $25 #
plane-surface $-1 -1 $-1 0 40 0 -1 0 0 0 -1 0 forward_v I I I I #
coedge $-1 -1 $-1 $77 $78 $65 $79 forward $26 $-1 #
loop $-1 -1 $-1 $80 $81 $11 #
coedge $-1 -1 $-1 $49 $49 $82 $83 reversed $28 $-1 #
coedge $-1 -1 $-1 $84 $29 $60 $85 reversed $17 $-1 #
coedge $-1 -1 $-1 $29 $86 $30 $54 reversed $17 $-1 #
edge $87 -1 $-1 $63 -0.5535743588970456486 $57 0.553574358896993246 $33 $88 forward @7 unknown #
coedge $-1 -1 $-1 $31 $30 $77 $89 reversed $12 $-1 #
edge $90 -1 $-1 $57 0.123606797749969563 $91 8.449844718999248272 $30 $92 forward @7 unknown #
edge $93 -1 $-1 $40 0.123606797749969563 $94 8.449844718999248272 $31 $95 forward @7 unknown #
DXID-attrib $-1 -1 $-1 $-1 $32 @18 ASM_EDGE_FROM_STEP @3 198 #
vertex $-1 -1 $-1 $52 $96 #
straight-curve $-1 -1 $-1 37.44721359550000273 114.8944271910000055 0 0 0 10 F 0 F 0.5 #
coedge $-1 -1 $-1 $97 $34 $37 $67 reversed $61 $-1 #
coedge $-1 -1 $-1 $34 $97 $50 $85 forward $61 $-1 #
loop $-1 -1 $-1 $-1 $34 $98 #
DXID-attrib $-1 -1 $-1 $-1 $35 @18 ASM_EDGE_FROM_STEP @3 196 #
vertex $-1 -1 $-1 $35 $99 #
straight-curve $-1 -1 $-1 39.23606797749980046 116.0000000000000142 0 0 0 -10 F -0.5 F 0 #
coedge $-1 -1 $-1 $100 $36 $47 $79 reversed $38 $-1 #
coedge $-1 -1 $-1 $37 $101 $102 $103 reversed $38 $-1 #
edge $104 -1 $-1 $105 0.1236067977499804016 $41 3.876393202250020487 $59 $106 forward @7 unknown #
loop $-1 -1 $-1 $107 $108 $69 #
face $109 -1 $-1 $-1 $38 $4 $-1 $110 forward single #
point $-1 -1 $-1 37.44721359550000273 114.8944271910000055 5 #
point $-1 -1 $-1 39.23606797749980046 116.0000000000000142 5 #
DXID-attrib $-1 -1 $-1 $-1 $44 @18 ASM_FACE_FROM_STEP @11 LP40111-364 #
face $111 -1 $-1 $112 $113 $4 $-1 $114 forward single #
loop $-1 -1 $-1 $-1 $115 $44 #
cone-surface $-1 -1 $-1 2 2 0 0 0 1 -1.414213562373096256 -1.414213562373094257 0 1 I I 0 1 2 forward I I I I #
coedge $-1 -1 $-1 $116 $117 $78 $118 reversed $45 $-1 #
coedge $-1 -1 $-1 $119 $47 $53 $89 forward $26 $-1 #
coedge $-1 -1 $-1 $47 $119 $76 $118 forward $26 $-1 #
edge $120 -1 $-1 $121 -0.2318238045004019643 $94 0.2318238045003961079 $47 $122 forward @7 unknown #
loop $-1 -1 $-1 $123 $124 $11 #
coedge $-1 -1 $-1 $81 $81 $125 $126 reversed $48 $-1 #
coedge $-1 -1 $-1 $82 $82 $49 $83 forward $127 $-1 #
edge $128 -1 $-1 $129 -3.141592653589793116 $129 3.141592653589793116 $49 $130 forward @7 unknown #
coedge $-1 -1 $-1 $131 $50 $132 $133 reversed $17 $-1 #
edge $134 -1 $-1 $135 0.1236067977499804016 $63 3.876393202250020487 $50 $136 forward @7 unknown #
coedge $-1 -1 $-1 $51 $137 $119 $138 reversed $17 $-1 #
DXID-attrib $-1 -1 $-1 $-1 $52 @18 ASM_EDGE_FROM_STEP @3 197 #
ellipse-curve $-1 -1 $-1 39.23606797749980046 114 0 0 0 1 -1.051462224238267851 1.701301616704079533 0 1 F -0.5535743588970456486 F 0.553574358896993246 #
edge $139 -1 $-1 $94 -0.5 $91 0 $53 $140 forward @14 tangent_not_g2 #
DXID-attrib $-1 -1 $-1 $-1 $54 @18 ASM_EDGE_FROM_STEP @3 199 #
vertex $-1 -1 $-1 $54 $141 #
straight-curve $-1 -1 $-1 38 116.0000000000000142 0 -4.47213595499957961 -8.94427190999915922 0 F 0.123606797749969563 F 8.449844718999248272 #
DXID-attrib $-1 -1 $-1 $-1 $55 @18 ASM_EDGE_FROM_STEP @3 201 #
vertex $-1 -1 $-1 $89 $142 #
straight-curve $-1 -1 $-1 38 116.0000000000000142 5 -4.47213595499957961 -8.94427190999915922 0 F 0.123606797749969563 F 8.449844718999248272 #
point $-1 -1 $-1 37.44721359550000273 114.8944271910000055 0 #
coedge $-1 -1 $-1 $60 $59 $143 $144 reversed $61 $-1 #
face $145 -1 $-1 $69 $61 $4 $-1 $146 forward single #
point $-1 -1 $-1 39.23606797749980046 116.0000000000000142 0 #
coedge $-1 -1 $-1 $147 $65 $117 $148 forward $38 $-1 #
coedge $-1 -1 $-1 $66 $149 $150 $151 forward $38 $-1 #
coedge $-1 -1 $-1 $152 $143 $66 $103 forward $153 $-1 #
edge $154 -1 $-1 $105 -0.553574358897052754 $155 0.5535743588969861406 $102 $156 forward @7 unknown #
DXID-attrib $-1 -1 $-1 $-1 $67 @18 ASM_EDGE_FROM_STEP @3 245 #
vertex $-1 -1 $-1 $103 $157 #
straight-curve $-1 -1 $-1 78 116.0000000000000142 5 -10 0 0 F 0.1236067977499804016 F 3.876393202250020487 #
loop $-1 -1 $-1 $158 $159 $69 #
coedge $-1 -1 $-1 $108 $108 $160 $161 forward $68 $-1 #
DXID-attrib $-1 -1 $-1 $-1 $69 @18 ASM_FACE_FROM_STEP @11 LP40111-377 #
plane-surface $-1 -1 $-1 58.00000000000000711 58.00000000000000711 5 0 0 1 1 0 0 forward_v I I I I #
DXID-attrib $-1 -1 $-1 $-1 $73 @18 ASM_FACE_FROM_STEP @11 LP40111-365 #
face $162 -1 $-1 $163 $164 $4 $-1 $165 forward single #
loop $-1 -1 $-1 $-1 $166 $73 #
plane-surface $-1 -1 $-1 0 0 0 0 -1 0 1 0 0 forward_v I I I I #
coedge $-1 -1 $-1 $167 $168 $147 $169 forward $74 $-1 #
coedge $-1 -1 $-1 $170 $76 $137 $171 forward $45 $-1 #
coedge $-1 -1 $-1 $76 $170 $100 $148 reversed $45 $-1 #
edge $172 -1 $-1 $173 0 $121 0.5 $78 $174 forward @14 tangent_not_g2 #
coedge $-1 -1 $-1 $78 $77 $86 $138 forward $26 $-1 #
DXID-attrib $-1 -1 $-1 $-1 $79 @18 ASM_EDGE_FROM_STEP @3 217 #
vertex $-1 -1 $-1 $79 $175 #
ellipse-curve $-1 -1 $-1 2 39.52786404500039907 5 0 0 -1 -1.94649797893546106 0.4595058410947203131 0 1 F -0.2318238045004019643 F 0.2318238045003961079 #
loop $-1 -1 $-1 $176 $177 $11 #
coedge $-1 -1 $-1 $124 $124 $178 $179 reversed $80 $-1 #
coedge $-1 -1 $-1 $125 $125 $81 $126 forward $180 $-1 #
edge $181 -1 $-1 $182 -3.141592653589793116 $182 3.141592653589793116 $81 $183 forward @7 unknown #
loop $-1 -1 $-1 $184 $82 $185 #
DXID-attrib $-1 -1 $-1 $-1 $83 @18 ASM_EDGE_FROM_STEP @3 212 #
vertex $-1 -1 $-1 $83 $186 #
ellipse-curve $-1 -1 $-1 58.00000000000000711 98 0 0 0 -1 -4.25 0 0 1 I I #
coedge $-1 -1 $-1 $187 $84 $188 $189 reversed $17 $-1 #
coedge $-1 -1 $-1 $143 $152 $84 $133 forward $153 $-1 #
edge $190 -1 $-1 $191 -0.5535743588969861406 $135 0.553574358897052754 $84 $192 forward @7 unknown #
DXID-attrib $-1 -1 $-1 $-1 $85 @18 ASM_EDGE_FROM_STEP @3 202 #
vertex $-1 -1 $-1 $85 $193 #
straight-curve $-1 -1 $-1 78 116.0000000000000142 0 -10 0 0 F 0.1236067977499804016 F 3.876393202250020487 #
coedge $-1 -1 $-1 $86 $194 $116 $171 reversed $17 $-1 #
edge $195 -1 $-1 $91 -0.2318238045003961079 $173 0.2318238045004019643 $86 $196 forward @7 unknown #
DXID-attrib $-1 -1 $-1 $-1 $89 @18 ASM_EDGE_FROM_STEP @3 200 #
straight-curve $-1 -1 $-1 0.2111456180001660132 40.42229123600029794 0 0 0 -10 F -0.5 F 0 #
point $-1 -1 $-1 0.21114561800017001 40.42229123600029794 0 #
point $-1 -1 $-1 0.21114561800017001 40.42229123600029794 5 #
coedge $-1 -1 $-1 $102 $132 $97 $144 forward $153 $-1 #
edge $197 -1 $-1 $135 0 $105 0.5 $143 $198 forward @14 tangent_not_g2 #
DXID-attrib $-1 -1 $-1 $-1 $98 @18 ASM_FACE_FROM_STEP @11 LP40111-376 #
plane-surface $-1 -1 $-1 78 116.0000000000000142 0 0 1 0 -1 0 0 forward_v I I I I #
coedge $-1 -1 $-1 $199 $100 $115 $169 reversed $38 $-1 #
edge $200 -1 $-1 $121 0.04721359549995973737 $201 3.799999999999999822 $117 $202 forward @7 unknown #
coedge $-1 -1 $-1 $101 $203 $204 $205 reversed $38 $-1 #
coedge $-1 -1 $-1 $206 $207 $101 $151 reversed $208 $-1 #
edge $209 -1 $-1 $210 0.04721359549994728205 $155 8.373451516749234713 $150 $211 forward @7 unknown #
coedge $-1 -1 $-1 $132 $102 $207 $212 forward $153 $-1 #
loop $-1 -1 $-1 $-1 $102 $213 #
DXID-attrib $-1 -1 $-1 $-1 $103 @18 ASM_EDGE_FROM_STEP @3 233 #
vertex $-1 -1 $-1 $212 $214 #
ellipse-curve $-1 -1 $-1 76.76393202250019954 114 5 0 0 -1 1.051462224238280063 1.701301616704071984 0 1 F -0.553574358897052754 F 0.5535743588969861406 #
point $-1 -1 $-1 76.76393202250019954 116.0000000000000142 5 #
loop $-1 -1 $-1 $215 $216 $69 #
coedge $-1 -1 $-1 $159 $159 $217 $218 forward $107 $-1 #
coedge $-1 -1 $-1 $160 $160 $108 $161 reversed $184 $-1 #
edge $219 -1 $-1 $220 -3.141592653589793116 $220 3.141592653589793116 $160 $221 forward @7 unknown #
DXID-attrib $-1 -1 $-1 $-1 $112 @18 ASM_FACE_FROM_STEP @11 LP40111-366 #
face $222 -1 $-1 $223 $224 $4 $-1 $225 forward single #
loop $-1 -1 $-1 $-1 $226 $112 #
cone-surface $-1 -1 $-1 114 2 0 0 0 1 1.414213562373092037 -1.414213562373098032 0 1 I I 0 1 2 forward I I I I #
coedge $-1 -1 $-1 $227 $228 $168 $229 reversed $113 $-1 #
coedge $-1 -1 $-1 $230 $115 $170 $231 forward $74 $-1 #
coedge $-1 -1 $-1 $115 $230 $166 $229 forward $74 $-1 #
edge $232 -1 $-1 $233 -0.7853981633974490562 $201 0.7853981633974476129 $115 $234 forward @7 unknown #
coedge $-1 -1 $-1 $117 $116 $167 $231 reversed $45 $-1 #
edge $235 -1 $-1 $173 0.04721359549995973737 $236 3.799999999999999822 $137 $237 forward @7 unknown #
DXID-attrib $-1 -1 $-1 $-1 $118 @18 ASM_EDGE_FROM_STEP @3 218 #
vertex $-1 -1 $-1 $171 $238 #
straight-curve $-1 -1 $-1 0 39.52786404500039907 0 0 0 10 F 0 F 0.5 #
point $-1 -1 $-1 0 39.52786404500039907 5 #
loop $-1 -1 $-1 $-1 $239 $11 #
coedge $-1 -1 $-1 $177 $177 $240 $241 reversed $123 $-1 #
coedge $-1 -1 $-1 $178 $178 $124 $179 forward $242 $-1 #
edge $243 -1 $-1 $244 -3.141592653589793116 $244 3.141592653589793116 $124 $245 forward @7 unknown #
loop $-1 -1 $-1 $246 $125 $247 #
DXID-attrib $-1 -1 $-1 $-1 $126 @18 ASM_EDGE_FROM_STEP @3 213 #
vertex $-1 -1 $-1 $126 $248 #
ellipse-curve $-1 -1 $-1 58.00000000000000711 58.00000000000000711 0 0 0 -1 -4.25 0 0 1 I I #
loop $-1 -1 $-1 $-1 $160 $185 #
face $249 -1 $-1 $98 $127 $4 $-1 $250 reversed single #
point $-1 -1 $-1 62.25000000000000711 98 0 #
coedge $-1 -1 $-1 $251 $131 $252 $253 reversed $17 $-1 #
coedge $-1 -1 $-1 $207 $206 $131 $189 forward $208 $-1 #
edge $254 -1 $-1 $255 0.04721359549994728205 $191 8.373451516749234713 $131 $256 forward @7 unknown #
DXID-attrib $-1 -1 $-1 $-1 $133 @18 ASM_EDGE_FROM_STEP @3 203 #
vertex $-1 -1 $-1 $133 $257 #
ellipse-curve $-1 -1 $-1 76.76393202250019954 114 0 0 0 1 1.051462224238280063 1.701301616704071984 0 1 F -0.5535743588969861406 F 0.553574358897052754 #
point $-1 -1 $-1 76.76393202250019954 116.0000000000000142 0 #
coedge $-1 -1 $-1 $137 $258 $230 $259 reversed $17 $-1 #
DXID-attrib $-1 -1 $-1 $-1 $138 @18 ASM_EDGE_FROM_STEP @3 211 #
ellipse-curve $-1 -1 $-1 2 39.52786404500039907 0 0 0 1 -1.94649797893546106 0.4595058410947203131 0 1 F -0.2318238045003961079 F 0.2318238045004019643 #
DXID-attrib $-1 -1 $-1 $-1 $144 @18 ASM_EDGE_FROM_STEP @3 234 #
straight-curve $-1 -1 $-1 76.76393202250019954 116.0000000000000142 0 0 0 10 F 0 F 0.5 #
coedge $-1 -1 $-1 $260 $147 $228 $261 forward $38 $-1 #
DXID-attrib $-1 -1 $-1 $-1 $148 @18 ASM_EDGE_FROM_STEP @3 220 #
vertex $-1 -1 $-1 $231 $262 #
straight-curve $-1 -1 $-1 0 40 5 0 -10 0 F 0.04721359549995973737 F 3.799999999999999822 #
coedge $-1 -1 $-1 $149 $260 $263 $264 forward $38 $-1 #
coedge $-1 -1 $-1 $265 $266 $149 $205 forward $267 $-1 #
edge $268 -1 $-1 $210 -0.23182380450035453 $269 0.2318238045004038794 $204 $270 forward @7 unknown #
coedge $-1 -1 $-1 $188 $150 $266 $271 reversed $208 $-1 #
coedge $-1 -1 $-1 $150 $188 $152 $212 reversed $208 $-1 #
loop $-1 -1 $-1 $-1 $206 $272 #
DXID-attrib $-1 -1 $-1 $-1 $151 @18 ASM_EDGE_FROM_STEP @3 232 #
vertex $-1 -1 $-1 $205 $273 #
straight-curve $-1 -1 $-1 116.0000000000000142 40 5 -4.47213595499957961 8.94427190999915922 0 F 0.04721359549994728205 F 8.373451516749234713 #
edge $274 -1 $-1 $155 -0.5 $191 0 $207 $275 forward @14 tangent_not_g2 #
face $276 -1 $-1 $277 $153 $4 $-1 $278 forward single #
point $-1 -1 $-1 78.55278640449999727 114.8944271910000055 5 #
loop $-1 -1 $-1 $279 $280 $69 #
coedge $-1 -1 $-1 $216 $216 $281 $282 forward $158 $-1 #
coedge $-1 -1 $-1 $217 $217 $159 $218 reversed $246 $-1 #
edge $283 -1 $-1 $284 -3.141592653589793116 $284 3.141592653589793116 $217 $285 forward @7 unknown #
DXID-attrib $-1 -1 $-1 $-1 $161 @18 ASM_EDGE_FROM_STEP @3 243 #
vertex $-1 -1 $-1 $161 $286 #
ellipse-curve $-1 -1 $-1 58.00000000000000711 98 5 0 0 -1 -4.25 0 0 1 I I #
DXID-attrib $-1 -1 $-1 $-1 $163 @18 ASM_FACE_FROM_STEP @11 LP40111-367 #
face $287 -1 $-1 $272 $267 $4 $-1 $288 forward single #
loop $-1 -1 $-1 $-1 $289 $163 #
plane-surface $-1 -1 $-1 116.0000000000000142 0 0 1 0 0 0 1 0 forward_v I I I I #
coedge $-1 -1 $-1 $290 $291 $260 $292 forward $164 $-1 #
coedge $-1 -1 $-1 $293 $166 $258 $294 forward $113 $-1 #
coedge $-1 -1 $-1 $166 $293 $199 $261 reversed $113 $-1 #
edge $295 -1 $-1 $296 0 $233 0.5 $168 $297 forward @14 tangent_not_g2 #
coedge $-1 -1 $-1 $168 $167 $194 $259 forward $74 $-1 #
edge $298 -1 $-1 $201 -0.5 $236 0 $170 $299 forward @14 tangent_not_g2 #
DXID-attrib $-1 -1 $-1 $-1 $169 @18 ASM_EDGE_FROM_STEP @3 221 #
vertex $-1 -1 $-1 $169 $300 #
ellipse-curve $-1 -1 $-1 2 2 5 0 0 -1 -1.414213562373096256 -1.414213562373094257 -0 1 F -0.7853981633974490562 F 0.7853981633974476129 #
DXID-attrib $-1 -1 $-1 $-1 $171 @18 ASM_EDGE_FROM_STEP @3 210 #
vertex $-1 -1 $-1 $259 $301 #
straight-curve $-1 -1 $-1 0 40 0 0 -10 0 F 0.04721359549995973737 F 3.799999999999999822 #
point $-1 -1 $-1 0 39.52786404500039907 0 #
coedge $-1 -1 $-1 $239 $239 $302 $303 reversed $176 $-1 #
coedge $-1 -1 $-1 $240 $240 $177 $241 forward $304 $-1 #
edge $305 -1 $-1 $306 -3.141592653589793116 $306 3.141592653589793116 $177 $307 forward @7 unknown #
loop $-1 -1 $-1 $308 $178 $309 #
DXID-attrib $-1 -1 $-1 $-1 $179 @18 ASM_EDGE_FROM_STEP @3 214 #
vertex $-1 -1 $-1 $179 $310 #
ellipse-curve $-1 -1 $-1 18 18 0 0 0 -1 -4.25 0 0 1 I I #
loop $-1 -1 $-1 $-1 $217 $247 #
face $311 -1 $-1 $185 $180 $4 $-1 $312 reversed single #
point $-1 -1 $-1 62.25000000000000711 58.00000000000000711 0 #
DXID-attrib $-1 -1 $-1 $-1 $185 @18 ASM_FACE_FROM_STEP @11 LP40111-375 #
cone-surface $-1 -1 $-1 58.00000000000000711 98 0 0 0 1 -4.25 0 0 1 I I 0 1 4.25 forward I I I I #
coedge $-1 -1 $-1 $313 $187 $314 $315 reversed $17 $-1 #
coedge $-1 -1 $-1 $266 $265 $187 $253 forward $267 $-1 #
edge $316 -1 $-1 $317 -0.2318238045004038794 $255 0.23182380450035453 $187 $318 forward @7 unknown #
DXID-attrib $-1 -1 $-1 $-1 $189 @18 ASM_EDGE_FROM_STEP @3 204 #
vertex $-1 -1 $-1 $189 $319 #
straight-curve $-1 -1 $-1 116.0000000000000142 40 0 -4.47213595499957961 8.94427190999915922 0 F 0.04721359549994728205 F 8.373451516749234713 #
point $-1 -1 $-1 78.55278640449999727 114.8944271910000055 0 #
coedge $-1 -1 $-1 $194 $313 $227 $294 reversed $17 $-1 #
edge $320 -1 $-1 $236 -0.7853981633974476129 $296 0.7853981633974490562 $194 $321 forward @7 unknown #
coedge $-1 -1 $-1 $203 $199 $226 $292 reversed $38 $-1 #
edge $322 -1 $-1 $233 0.2000000000000000111 $323 11.40000000000000036 $228 $324 forward @7 unknown #
point $-1 -1 $-1 0 2 5 #
coedge $-1 -1 $-1 $289 $325 $203 $264 reversed $224 $-1 #
edge $326 -1 $-1 $327 0.2000000000000000111 $269 3.952786404500040263 $263 $328 forward @7 unknown #
coedge $-1 -1 $-1 $252 $204 $325 $329 forward $267 $-1 #
coedge $-1 -1 $-1 $204 $252 $206 $271 forward $267 $-1 #
loop $-1 -1 $-1 $-1 $204 $223 #
DXID-attrib $-1 -1 $-1 $-1 $205 @18 ASM_EDGE_FROM_STEP @3 229 #
vertex $-1 -1 $-1 $329 $330 #
ellipse-curve $-1 -1 $-1 114 39.52786404500039907 5 0 0 -1 1.946497978935459949 0.4595058410947239769 0 1 F -0.23182380450035453 F 0.2318238045004038794 #
edge $331 -1 $-1 $255 0 $210 0.5 $266 $332 forward @14 tangent_not_g2 #
face $333 -1 $-1 $213 $208 $4 $-1 $334 forward single #
point $-1 -1 $-1 115.7888543820000109 40.42229123600029794 5 #
DXID-attrib $-1 -1 $-1 $-1 $212 @18 ASM_EDGE_FROM_STEP @3 231 #
straight-curve $-1 -1 $-1 78.55278640449999727 114.8944271910000055 0 0 0 -10 F -0.5 F 0 #
DXID-attrib $-1 -1 $-1 $-1 $213 @18 ASM_FACE_FROM_STEP @11 LP40111-370 #
face $335 -1 $-1 $336 $337 $4 $-1 $338 reversed single #
cone-surface $-1 -1 $-1 76.76393202250019954 114 0 0 0 1 1.051462224238280063 1.701301616704071984 0 1 I I 0 1 2 forward I I I I #
loop $-1 -1 $-1 $-1 $339 $69 #
coedge $-1 -1 $-1 $280 $280 $340 $341 forward $215 $-1 #
coedge $-1 -1 $-1 $281 $281 $216 $282 reversed $308 $-1 #
edge $342 -1 $-1 $343 -3.141592653589793116 $343 3.141592653589793116 $281 $344 forward @7 unknown #
DXID-attrib $-1 -1 $-1 $-1 $218 @18 ASM_EDGE_FROM_STEP @3 241 #
vertex $-1 -1 $-1 $218 $345 #
ellipse-curve $-1 -1 $-1 58.00000000000000711 58.00000000000000711 5 0 0 -1 -4.25 0 0 1 I I #
point $-1 -1 $-1 62.25000000000000711 98 5 #
DXID-attrib $-1 -1 $-1 $-1 $223 @18 ASM_FACE_FROM_STEP @11 LP40111-368 #
cone-surface $-1 -1 $-1 114 39.52786404500039907 0 0 0 1 1.946497978935459949 0.4595058410947239769 0 1 I I 0 1 2 forward I I I I #
coedge $-1 -1 $-1 $314 $263 $291 $346 reversed $224 $-1 #
coedge $-1 -1 $-1 $347 $226 $293 $348 forward $164 $-1 #
coedge $-1 -1 $-1 $226 $347 $289 $346 forward $164 $-1 #
edge $349 -1 $-1 $327 -0.7853981633974504994 $323 0.7853981633974461696 $226 $350 forward @7 unknown #
coedge $-1 -1 $-1 $228 $227 $290 $348 reversed $113 $-1 #
edge $351 -1 $-1 $296 0.2000000000000000111 $352 11.40000000000000036 $258 $353 forward @7 unknown #
DXID-attrib $-1 -1 $-1 $-1 $229 @18 ASM_EDGE_FROM_STEP @3 222 #
vertex $-1 -1 $-1 $294 $354 #
straight-curve $-1 -1 $-1 2 0 0 0 0 10 F 0 F 0.5 #
DXID-attrib $-1 -1 $-1 $-1 $231 @18 ASM_EDGE_FROM_STEP @3 219 #
straight-curve $-1 -1 $-1 0 2 0 0 0 -10 F -0.5 F 0 #
point $-1 -1 $-1 2 0 5 #
point $-1 -1 $-1 0 2 0 #
coedge $-1 -1 $-1 $302 $302 $239 $303 forward $337 $-1 #
edge $355 -1 $-1 $356 -3.141592653589793116 $356 3.141592653589793116 $239 $357 forward @7 unknown #
loop $-1 -1 $-1 $358 $240 $336 #
DXID-attrib $-1 -1 $-1 $-1 $241 @18 ASM_EDGE_FROM_STEP @3 215 #
vertex $-1 -1 $-1 $241 $359 #
ellipse-curve $-1 -1 $-1 98 18 0 0 0 -1 -4.25 0 0 1 I I #
loop $-1 -1 $-1 $-1 $281 $309 #
face $360 -1 $-1 $247 $242 $4 $-1 $361 reversed single #
point $-1 -1 $-1 22.25 18 0 #
DXID-attrib $-1 -1 $-1 $-1 $247 @18 ASM_FACE_FROM_STEP @11 LP40111-374 #
cone-surface $-1 -1 $-1 58.00000000000000711 58.00000000000000711 0 0 0 1 -4.25 0 0 1 I I 0 1 4.25 forward I I I I #
coedge $-1 -1 $-1 $258 $251 $347 $362 reversed $17 $-1 #
coedge $-1 -1 $-1 $325 $289 $251 $315 forward $224 $-1 #
edge $363 -1 $-1 $364 0.2000000000000000111 $317 3.952786404500040263 $251 $365 forward @7 unknown #
DXID-attrib $-1 -1 $-1 $-1 $253 @18 ASM_EDGE_FROM_STEP @3 205 #
vertex $-1 -1 $-1 $253 $366 #
ellipse-curve $-1 -1 $-1 114 39.52786404500039907 0 0 0 1 1.946497978935459949 0.4595058410947239769 0 1 F -0.2318238045004038794 F 0.23182380450035453 #
point $-1 -1 $-1 115.7888543820000109 40.42229123600029794 0 #
DXID-attrib $-1 -1 $-1 $-1 $259 @18 ASM_EDGE_FROM_STEP @3 209 #
ellipse-curve $-1 -1 $-1 2 2 0 0 0 1 -1.414213562373096256 -1.414213562373094257 0 1 F -0.7853981633974476129 F 0.7853981633974490562 #
DXID-attrib $-1 -1 $-1 $-1 $261 @18 ASM_EDGE_FROM_STEP @3 224 #
vertex $-1 -1 $-1 $348 $367 #
straight-curve $-1 -1 $-1 0 0 5 10 0 0 F 0.2000000000000000111 F 11.40000000000000036 #
coedge $-1 -1 $-1 $263 $314 $265 $329 reversed $224 $-1 #
DXID-attrib $-1 -1 $-1 $-1 $264 @18 ASM_EDGE_FROM_STEP @3 228 #
vertex $-1 -1 $-1 $292 $368 #
straight-curve $-1 -1 $-1 116.0000000000000142 0 5 0 10 0 F 0.2000000000000000111 F 3.952786404500040263 #
edge $369 -1 $-1 $269 -0.5 $317 0 $325 $370 forward @14 tangent_not_g2 #
point $-1 -1 $-1 116.0000000000000142 39.52786404500039907 5 #
DXID-attrib $-1 -1 $-1 $-1 $271 @18 ASM_EDGE_FROM_STEP @3 230 #
straight-curve $-1 -1 $-1 115.7888543820000109 40.42229123600029794 0 0 0 10 F 0 F 0.5 #
DXID-attrib $-1 -1 $-1 $-1 $272 @18 ASM_FACE_FROM_STEP @11 LP40111-369 #
plane-surface $-1 -1 $-1 116.0000000000000142 40 0 0.8944271909999159664 0.4472135954999579832 0 -0.4472135954999579832 0.8944271909999159664 0 forward_v I I I I #
DXID-attrib $-1 -1 $-1 $-1 $277 @18 ASM_FACE_FROM_STEP @11 LP40111-371 #
face $371 -1 $-1 $309 $304 $4 $-1 $372 reversed single #
loop $-1 -1 $-1 $373 $302 $277 #
cone-surface $-1 -1 $-1 58.00000000000000711 18 0 0 0 1 -4.25 0 0 1 I I 0 1 4.25 forward I I I I #
coedge $-1 -1 $-1 $339 $339 $374 $375 forward $279 $-1 #
coedge $-1 -1 $-1 $340 $340 $280 $341 reversed $358 $-1 #
edge $376 -1 $-1 $377 -3.141592653589793116 $377 3.141592653589793116 $340 $378 forward @7 unknown #
DXID-attrib $-1 -1 $-1 $-1 $282 @18 ASM_EDGE_FROM_STEP @3 239 #
vertex $-1 -1 $-1 $282 $379 #
ellipse-curve $-1 -1 $-1 18 18 5 0 0 -1 -4.25 0 0 1 I I #
point $-1 -1 $-1 62.25000000000000711 58.00000000000000711 5 #
edge $380 -1 $-1 $364 0 $327 0.5 $291 $381 forward @14 tangent_not_g2 #
coedge $-1 -1 $-1 $291 $290 $313 $362 forward $164 $-1 #
edge $382 -1 $-1 $323 -0.5 $352 0 $293 $383 forward @14 tangent_not_g2 #
DXID-attrib $-1 -1 $-1 $-1 $292 @18 ASM_EDGE_FROM_STEP @3 225 #
ellipse-curve $-1 -1 $-1 114 2 5 0 0 -1 1.414213562373092037 -1.414213562373098032 0 1 F -0.7853981633974504994 F 0.7853981633974461696 #
DXID-attrib $-1 -1 $-1 $-1 $294 @18 ASM_EDGE_FROM_STEP @3 208 #
vertex $-1 -1 $-1 $362 $384 #
straight-curve $-1 -1 $-1 0 0 0 10 0 0 F 0.2000000000000000111 F 11.40000000000000036 #
point $-1 -1 $-1 2 0 0 #
DXID-attrib $-1 -1 $-1 $-1 $303 @18 ASM_EDGE_FROM_STEP @3 216 #
vertex $-1 -1 $-1 $303 $385 #
ellipse-curve $-1 -1 $-1 58.00000000000000711 18 0 0 0 -1 -4.25 0 0 1 I I #
loop $-1 -1 $-1 $-1 $340 $336 #
point $-1 -1 $-1 102.2500000000000142 18 0 #
DXID-attrib $-1 -1 $-1 $-1 $309 @18 ASM_FACE_FROM_STEP @11 LP40111-373 #
cone-surface $-1 -1 $-1 18 18 0 0 0 1 -4.25 0 0 1 I I 0 1 4.25 forward I I I I #
edge $386 -1 $-1 $352 -0.7853981633974461696 $364 0.7853981633974504994 $313 $387 forward @7 unknown #
DXID-attrib $-1 -1 $-1 $-1 $315 @18 ASM_EDGE_FROM_STEP @3 206 #
vertex $-1 -1 $-1 $315 $388 #
straight-curve $-1 -1 $-1 116.0000000000000142 0 0 0 10 0 F 0.2000000000000000111 F 3.952786404500040263 #
point $-1 -1 $-1 116.0000000000000142 39.52786404500039907 0 #
point $-1 -1 $-1 114 0 5 #
point $-1 -1 $-1 116.0000000000000142 2 5 #
DXID-attrib $-1 -1 $-1 $-1 $329 @18 ASM_EDGE_FROM_STEP @3 227 #
straight-curve $-1 -1 $-1 116.0000000000000142 39.52786404500039907 0 0 0 -10 F -0.5 F 0 #
DXID-attrib $-1 -1 $-1 $-1 $336 @18 ASM_FACE_FROM_STEP @11 LP40111-372 #
cone-surface $-1 -1 $-1 98 18 0 0 0 1 -4.25 0 0 1 I I 0 1 4.25 forward I I I I #
loop $-1 -1 $-1 $-1 $374 $277 #
coedge $-1 -1 $-1 $374 $374 $339 $375 reversed $373 $-1 #
edge $389 -1 $-1 $390 -3.141592653589793116 $390 3.141592653589793116 $374 $391 forward @7 unknown #
DXID-attrib $-1 -1 $-1 $-1 $341 @18 ASM_EDGE_FROM_STEP @3 237 #
vertex $-1 -1 $-1 $341 $392 #
ellipse-curve $-1 -1 $-1 98 18 5 0 0 -1 -4.25 0 0 1 I I #
point $-1 -1 $-1 22.25 18 5 #
DXID-attrib $-1 -1 $-1 $-1 $346 @18 ASM_EDGE_FROM_STEP @3 226 #
straight-curve $-1 -1 $-1 116.0000000000000142 2 0 0 0 10 F 0 F 0.5 #
DXID-attrib $-1 -1 $-1 $-1 $348 @18 ASM_EDGE_FROM_STEP @3 223 #
straight-curve $-1 -1 $-1 114 0 0 0 0 -10 F -0.5 F 0 #
point $-1 -1 $-1 114 0 0 #
point $-1 -1 $-1 62.25000000000000711 18 0 #
DXID-attrib $-1 -1 $-1 $-1 $362 @18 ASM_EDGE_FROM_STEP @3 207 #
ellipse-curve $-1 -1 $-1 114 2 0 0 0 1 1.414213562373092037 -1.414213562373098032 0 1 F -0.7853981633974461696 F 0.7853981633974504994 #
point $-1 -1 $-1 116.0000000000000142 2 0 #
DXID-attrib $-1 -1 $-1 $-1 $375 @18 ASM_EDGE_FROM_STEP @3 235 #
vertex $-1 -1 $-1 $375 $393 #
ellipse-curve $-1 -1 $-1 58.00000000000000711 18 5 0 0 -1 -4.25 0 0 1 I I #
point $-1 -1 $-1 102.2500000000000142 18 5 #
point $-1 -1 $-1 62.25000000000000711 18 5 #
End-of-ACIS-data 